<svg viewBox="0 0 18 18" fill="none" xmlns="http://www.w3.org/2000/svg">
  <rect width="18" height="18" rx="9" fill="currentColor"/>
  <path
    d="M2 9C2 5.13401 5.13401 2 9 2V2C12.866 2 16 5.13401 16 9V9C16 12.866 12.866 16 9 16V16C5.13401 16 2 12.866 2 9V9Z"
    fill="currentColor"/>
  <path
    d="M13.083 8.41634H9.58301V4.91634C9.58301 4.76163 9.52155 4.61326 9.41215 4.50386C9.30276 4.39447 9.15438 4.33301 8.99967 4.33301C8.84496 4.33301 8.69659 4.39447 8.5872 4.50386C8.4778 4.61326 8.41634 4.76163 8.41634 4.91634V8.41634H4.91634C4.76163 8.41634 4.61326 8.4778 4.50386 8.5872C4.39447 8.69659 4.33301 8.84496 4.33301 8.99967C4.33301 9.15438 4.39447 9.30276 4.50386 9.41215C4.61326 9.52155 4.76163 9.58301 4.91634 9.58301H8.41634V13.083C8.41634 13.2377 8.4778 13.3861 8.5872 13.4955C8.69659 13.6049 8.84496 13.6663 8.99967 13.6663C9.15438 13.6663 9.30276 13.6049 9.41215 13.4955C9.52155 13.3861 9.58301 13.2377 9.58301 13.083V9.58301H13.083C13.2377 9.58301 13.3861 9.52155 13.4955 9.41215C13.6049 9.30276 13.6663 9.15438 13.6663 8.99967C13.6663 8.84496 13.6049 8.69659 13.4955 8.5872C13.3861 8.4778 13.2377 8.41634 13.083 8.41634Z"
    fill="white"/>
</svg>
