<svg viewBox="0 0 16 16" fill="none" xmlns="http://www.w3.org/2000/svg">
<path d="M8.33301 7.33301V7.66634H8.66634H10.6663C10.7548 7.66634 10.8395 7.70146 10.902 7.76397C10.9646 7.82648 10.9997 7.91127 10.9997 7.99967C10.9997 8.08808 10.9646 8.17286 10.902 8.23538C10.8395 8.29789 10.7548 8.33301 10.6663 8.33301H8.66634H8.33301V8.66634V10.6663C8.33301 10.7547 8.29789 10.8395 8.23538 10.902C8.17287 10.9646 8.08808 10.9997 7.99968 10.9997C7.91127 10.9997 7.82649 10.9646 7.76398 10.902C7.70146 10.8395 7.66634 10.7547 7.66634 10.6663V8.66634V8.33301H7.33301H5.33301C5.24461 8.33301 5.15982 8.29789 5.09731 8.23538C5.0348 8.17286 4.99968 8.08808 4.99968 7.99967C4.99968 7.91127 5.0348 7.82648 5.09731 7.76397C5.15982 7.70146 5.24461 7.66634 5.33301 7.66634H7.33301H7.66634V7.33301V5.33301C7.66634 5.2446 7.70146 5.15982 7.76398 5.09731C7.82649 5.03479 7.91127 4.99967 7.99968 4.99967C8.08808 4.99967 8.17287 5.03479 8.23538 5.09731C8.29789 5.15982 8.33301 5.2446 8.33301 5.33301V7.33301ZM4.48107 2.7337C5.52258 2.03778 6.74706 1.66634 7.99968 1.66634C8.83138 1.66634 9.65494 1.83016 10.4233 2.14844C11.1917 2.46672 11.8899 2.93323 12.478 3.52133C13.0661 4.10944 13.5326 4.80762 13.8509 5.57601C14.1692 6.34441 14.333 7.16797 14.333 7.99967C14.333 9.25229 13.9616 10.4768 13.2657 11.5183C12.5697 12.5598 11.5806 13.3716 10.4233 13.8509C9.26607 14.3303 7.99265 14.4557 6.76411 14.2113C5.53556 13.9669 4.40707 13.3638 3.52133 12.478C2.6356 11.5923 2.03241 10.4638 1.78804 9.23525C1.54366 8.0067 1.66909 6.73328 2.14844 5.57601C2.6278 4.41875 3.43955 3.42962 4.48107 2.7337ZM4.85145 12.7113C5.78332 13.334 6.87892 13.6663 7.99968 13.6663C9.50257 13.6663 10.9439 13.0693 12.0066 12.0066C13.0693 10.9439 13.6663 9.50257 13.6663 7.99967C13.6663 6.87891 13.334 5.78332 12.7113 4.85144C12.0887 3.91956 11.2037 3.19325 10.1682 2.76436C9.13277 2.33546 7.99339 2.22324 6.89417 2.44189C5.79494 2.66054 4.78524 3.20024 3.99274 3.99274C3.20024 4.78523 2.66054 5.79494 2.44189 6.89416C2.22324 7.99339 2.33546 9.13277 2.76436 10.1682C3.19326 11.2037 3.91957 12.0887 4.85145 12.7113Z" fill="currentColor" stroke="#155366" stroke-width="0.666667"/>
</svg>
