<svg viewBox="0 0 17 16" fill="none" xmlns="http://www.w3.org/2000/svg">
<path d="M12.9355 7.33329H8.93555V3.33329C8.93555 3.15648 8.86531 2.98691 8.74028 2.86189C8.61526 2.73686 8.44569 2.66663 8.26888 2.66663C8.09207 2.66663 7.9225 2.73686 7.79748 2.86189C7.67245 2.98691 7.60221 3.15648 7.60221 3.33329V7.33329H3.60221C3.4254 7.33329 3.25583 7.40353 3.13081 7.52855C3.00578 7.65358 2.93555 7.82315 2.93555 7.99996C2.93555 8.17677 3.00578 8.34634 3.13081 8.47136C3.25583 8.59639 3.4254 8.66663 3.60221 8.66663H7.60221V12.6666C7.60221 12.8434 7.67245 13.013 7.79748 13.138C7.9225 13.2631 8.09207 13.3333 8.26888 13.3333C8.44569 13.3333 8.61526 13.2631 8.74028 13.138C8.86531 13.013 8.93555 12.8434 8.93555 12.6666V8.66663H12.9355C13.1124 8.66663 13.2819 8.59639 13.407 8.47136C13.532 8.34634 13.6022 8.17677 13.6022 7.99996C13.6022 7.82315 13.532 7.65358 13.407 7.52855C13.2819 7.40353 13.1124 7.33329 12.9355 7.33329Z" fill="currentColor"/>
</svg>
