<svg viewBox="0 0 21 20" fill="none" xmlns="http://www.w3.org/2000/svg"><path d="M10.4639 1.66699C5.88062 1.66699 2.13062 5.41699 2.13062 10.0003C2.13062 14.5837 5.88062 18.3337 10.4639 18.3337C15.0473 18.3337 18.7973 14.5837 18.7973 10.0003C18.7973 5.41699 15.0473 1.66699 10.4639 1.66699ZM10.4639 14.167C9.96395 14.167 9.63062 13.8337 9.63062 13.3337C9.63062 12.8337 9.96395 12.5003 10.4639 12.5003C10.9639 12.5003 11.2973 12.8337 11.2973 13.3337C11.2973 13.8337 10.9639 14.167 10.4639 14.167ZM11.2973 10.0003C11.2973 10.5003 10.9639 10.8337 10.4639 10.8337C9.96395 10.8337 9.63062 10.5003 9.63062 10.0003V6.66699C9.63062 6.16699 9.96395 5.83366 10.4639 5.83366C10.9639 5.83366 11.2973 6.16699 11.2973 6.66699V10.0003Z" fill="currentColor"/></svg>
