<svg xmlns="http://www.w3.org/2000/svg" fill="none" viewBox="0 0 16 16"><path fill="currentColor" d="m9.527 9.46-2.194 2.194-.86-.86a.668.668 0 1 0-.946.94l1.333 1.333a.666.666 0 0 0 .947 0l2.666-2.667a.667.667 0 1 0-.946-.94Zm2.753-3.913a4.667 4.667 0 0 0-8.907 1.267 2.667 2.667 0 0 0-.253 5.1.668.668 0 1 0 .427-1.247 1.333 1.333 0 0 1-.88-1.267A1.333 1.333 0 0 1 4 8.067a.667.667 0 0 0 .667-.667 3.333 3.333 0 0 1 6.486-1.066.668.668 0 0 0 .52.44 2 2 0 0 1 .16 3.893A.672.672 0 1 0 12 12h.167a3.333 3.333 0 0 0 .113-6.413v-.04Z"/></svg>
