<svg viewBox="0 0 20 20" fill="none" xmlns="http://www.w3.org/2000/svg">
<path d="M3.63354 17.8998L3.63333 17.9C3.55905 17.9557 3.47072 17.9896 3.37823 17.9979C3.28576 18.0063 3.19278 17.9887 3.10973 17.9472L2.96119 18.2443L3.10973 17.9472C3.02667 17.9056 2.95682 17.8418 2.90801 17.7628L2.62546 17.9374L2.90801 17.7628C2.85919 17.6838 2.83333 17.5928 2.83333 17.5V2.49996C2.83333 2.36735 2.88601 2.24017 2.97978 2.14641C3.07355 2.05264 3.20073 1.99996 3.33333 1.99996H16.6667C16.7993 1.99996 16.9265 2.05264 17.0202 2.14641C17.114 2.24017 17.1667 2.36735 17.1667 2.49996L17.1667 17.4989C17.1667 17.499 17.1667 17.4991 17.1667 17.4992C17.1663 17.5915 17.1405 17.6818 17.092 17.7603C17.0435 17.8388 16.9741 17.9024 16.8917 17.9439L16.8909 17.9444C16.8078 17.9865 16.7147 18.0046 16.622 17.9966C16.5292 17.9887 16.4406 17.955 16.3659 17.8994C16.3659 17.8994 16.3659 17.8994 16.3659 17.8994L14.6415 16.6081L14.4412 16.4582L14.2413 16.6086L12.525 17.9C12.5249 17.9 12.5248 17.9001 12.5247 17.9002C12.4382 17.965 12.333 18 12.225 18C12.1168 18 12.0115 17.9649 11.925 17.9L11.9248 17.8998L10.1998 16.6081L10 16.4585L9.80021 16.6081L8.07521 17.8998L8.075 17.9C7.98845 17.9649 7.88319 18 7.775 18C7.66686 18 7.56164 17.9649 7.47511 17.9C7.47507 17.9 7.47504 17.9 7.475 17.9L5.75875 16.6086L5.55882 16.4582L5.35854 16.6081L3.63354 17.8998ZM15.6337 16.1003L16.1667 16.4987V15.8333V3.33329V2.99996H15.8333H4.16667H3.83333V3.33329V15.8333V16.4987L4.36627 16.1003L5.25793 15.4336L5.25833 15.4333C5.34488 15.3684 5.45015 15.3333 5.55833 15.3333C5.66644 15.3333 5.77163 15.3683 5.85814 15.4332C5.85821 15.4332 5.85827 15.4332 5.85833 15.4333L7.57459 16.7246L7.77452 16.8751L7.97479 16.7251L9.69979 15.4334L9.7 15.4333C9.78655 15.3684 9.89182 15.3333 10 15.3333C10.1082 15.3333 10.2135 15.3684 10.3 15.4333L10.3002 15.4334L12.0252 16.7251L12.2255 16.8751L12.4254 16.7246L14.1417 15.4333C14.1417 15.4332 14.1418 15.4332 14.1419 15.4332C14.2284 15.3683 14.3336 15.3333 14.4417 15.3333C14.5499 15.3333 14.6551 15.3684 14.7417 15.4333L14.7421 15.4336L15.6337 16.1003ZM13.3333 6.33329H8.33333C8.20073 6.33329 8.07355 6.28061 7.97978 6.18685C7.88601 6.09308 7.83333 5.9659 7.83333 5.83329C7.83333 5.70068 7.88601 5.57351 7.97978 5.47974C8.07355 5.38597 8.20073 5.33329 8.33333 5.33329H13.3333C13.4659 5.33329 13.5931 5.38597 13.6869 5.47974C13.7807 5.57351 13.8333 5.70068 13.8333 5.83329C13.8333 5.9659 13.7807 6.09308 13.6869 6.18685C13.5931 6.28061 13.4659 6.33329 13.3333 6.33329ZM13.3333 9.66663H6.66667C6.53406 9.66663 6.40688 9.61395 6.31311 9.52018C6.21934 9.42641 6.16667 9.29923 6.16667 9.16663C6.16667 9.03402 6.21935 8.90684 6.31311 8.81307C6.40688 8.7193 6.53406 8.66663 6.66667 8.66663H13.3333C13.4659 8.66663 13.5931 8.7193 13.6869 8.81307C13.7807 8.90684 13.8333 9.03402 13.8333 9.16663C13.8333 9.29923 13.7807 9.42641 13.6869 9.52018C13.5931 9.61395 13.4659 9.66663 13.3333 9.66663ZM13.3333 13H6.66667C6.53406 13 6.40688 12.9473 6.31311 12.8535C6.21934 12.7597 6.16667 12.6326 6.16667 12.5C6.16667 12.3674 6.21934 12.2402 6.31311 12.1464C6.40688 12.0526 6.53406 12 6.66667 12H13.3333C13.4659 12 13.5931 12.0526 13.6869 12.1464C13.7807 12.2402 13.8333 12.3673 13.8333 12.5C13.8333 12.6326 13.7807 12.7597 13.6869 12.8535C13.5931 12.9473 13.4659 13 13.3333 13Z" fill="currentColor" stroke="currentColor" stroke-width="0.666667"/>
</svg>
