<svg width="16" height="16" viewBox="0 0 16 16" fill="none" xmlns="http://www.w3.org/2000/svg">
<path d="M13.6466 4.91333C13.6466 4.91333 13.6466 4.91333 13.6466 4.86L13.6066 4.76C13.5927 4.73878 13.5771 4.71871 13.5599 4.7C13.5421 4.67178 13.522 4.64502 13.4999 4.62L13.4399 4.57333L13.3333 4.52L8.33327 1.43333C8.22731 1.36711 8.10488 1.332 7.97993 1.332C7.85499 1.332 7.73255 1.36711 7.6266 1.43333L2.6666 4.52L2.6066 4.57333L2.5466 4.62C2.5245 4.64502 2.50444 4.67178 2.4866 4.7C2.46946 4.71871 2.45386 4.73878 2.43993 4.76L2.39993 4.86C2.39993 4.86 2.39993 4.86 2.39993 4.91333C2.39338 4.97092 2.39338 5.02907 2.39993 5.08666V10.9133C2.39971 11.0266 2.42836 11.1381 2.48318 11.2373C2.538 11.3364 2.61719 11.42 2.71327 11.48L7.71327 14.5667C7.74404 14.5857 7.77788 14.5992 7.81327 14.6067C7.81327 14.6067 7.8466 14.6067 7.8666 14.6067C7.97939 14.6424 8.10048 14.6424 8.21327 14.6067C8.21327 14.6067 8.2466 14.6067 8.2666 14.6067C8.30199 14.5992 8.33583 14.5857 8.3666 14.5667V14.5667L13.3333 11.48C13.4293 11.42 13.5085 11.3364 13.5634 11.2373C13.6182 11.1381 13.6468 11.0266 13.6466 10.9133V5.08666C13.6532 5.02907 13.6532 4.97092 13.6466 4.91333V4.91333ZM7.33327 12.8067L3.6666 10.54V6.28666L7.33327 8.54666V12.8067ZM7.99993 7.39333L4.2666 5.08666L7.99993 2.78666L11.7333 5.08666L7.99993 7.39333ZM12.3333 10.54L8.6666 12.8067V8.54666L12.3333 6.28666V10.54Z" fill="#A66EE9"/>
</svg>
