<svg viewBox="0 0 16 16" fill="none" xmlns="http://www.w3.org/2000/svg">
<path d="M9.3335 5.33301H10.0002C10.177 5.33301 10.3465 5.26277 10.4716 5.13775C10.5966 5.01272 10.6668 4.84315 10.6668 4.66634C10.6668 4.48953 10.5966 4.31996 10.4716 4.19494C10.3465 4.06991 10.177 3.99967 10.0002 3.99967H9.3335C9.15669 3.99967 8.98712 4.06991 8.86209 4.19494C8.73707 4.31996 8.66683 4.48953 8.66683 4.66634C8.66683 4.84315 8.73707 5.01272 8.86209 5.13775C8.98712 5.26277 9.15669 5.33301 9.3335 5.33301ZM9.3335 7.99967H10.0002C10.177 7.99967 10.3465 7.92944 10.4716 7.80441C10.5966 7.67939 10.6668 7.50982 10.6668 7.33301C10.6668 7.1562 10.5966 6.98663 10.4716 6.8616C10.3465 6.73658 10.177 6.66634 10.0002 6.66634H9.3335C9.15669 6.66634 8.98712 6.73658 8.86209 6.8616C8.73707 6.98663 8.66683 7.1562 8.66683 7.33301C8.66683 7.50982 8.73707 7.67939 8.86209 7.80441C8.98712 7.92944 9.15669 7.99967 9.3335 7.99967ZM6.00016 5.33301H6.66683C6.84364 5.33301 7.01321 5.26277 7.13823 5.13775C7.26326 5.01272 7.3335 4.84315 7.3335 4.66634C7.3335 4.48953 7.26326 4.31996 7.13823 4.19494C7.01321 4.06991 6.84364 3.99967 6.66683 3.99967H6.00016C5.82335 3.99967 5.65378 4.06991 5.52876 4.19494C5.40373 4.31996 5.3335 4.48953 5.3335 4.66634C5.3335 4.84315 5.40373 5.01272 5.52876 5.13775C5.65378 5.26277 5.82335 5.33301 6.00016 5.33301ZM6.00016 7.99967H6.66683C6.84364 7.99967 7.01321 7.92944 7.13823 7.80441C7.26326 7.67939 7.3335 7.50982 7.3335 7.33301C7.3335 7.1562 7.26326 6.98663 7.13823 6.8616C7.01321 6.73658 6.84364 6.66634 6.66683 6.66634H6.00016C5.82335 6.66634 5.65378 6.73658 5.52876 6.8616C5.40373 6.98663 5.3335 7.1562 5.3335 7.33301C5.3335 7.50982 5.40373 7.67939 5.52876 7.80441C5.65378 7.92944 5.82335 7.99967 6.00016 7.99967ZM14.0002 13.333H13.3335V1.99967C13.3335 1.82286 13.2633 1.65329 13.1382 1.52827C13.0132 1.40325 12.8436 1.33301 12.6668 1.33301H3.3335C3.15669 1.33301 2.98712 1.40325 2.86209 1.52827C2.73707 1.65329 2.66683 1.82286 2.66683 1.99967V13.333H2.00016C1.82335 13.333 1.65378 13.4032 1.52876 13.5283C1.40373 13.6533 1.3335 13.8229 1.3335 13.9997C1.3335 14.1765 1.40373 14.3461 1.52876 14.4711C1.65378 14.5961 1.82335 14.6663 2.00016 14.6663H14.0002C14.177 14.6663 14.3465 14.5961 14.4716 14.4711C14.5966 14.3461 14.6668 14.1765 14.6668 13.9997C14.6668 13.8229 14.5966 13.6533 14.4716 13.5283C14.3465 13.4032 14.177 13.333 14.0002 13.333ZM8.66683 13.333H7.3335V10.6663H8.66683V13.333ZM12.0002 13.333H10.0002V9.99967C10.0002 9.82286 9.92992 9.65329 9.8049 9.52827C9.67988 9.40325 9.51031 9.33301 9.3335 9.33301H6.66683C6.49002 9.33301 6.32045 9.40325 6.19543 9.52827C6.0704 9.65329 6.00016 9.82286 6.00016 9.99967V13.333H4.00016V2.66634H12.0002V13.333Z" fill="currentColor"/>
</svg>
