<svg xmlns="http://www.w3.org/2000/svg" fill="none" viewBox="0 0 17 16"><path fill="currentColor" stroke="currentColor" d="m12.322 5.68.092.212.221.067a2.834 2.834 0 0 1-.094 5.45.168.168 0 0 1-.083-.325l.008-.002a2.5 2.5 0 0 0-.2-4.866l-.008-.002a.167.167 0 0 1-.13-.112l-.002-.004a3.834 3.834 0 0 0-7.46 1.235.167.167 0 0 1-.166.167 1.833 1.833 0 1 0 0 3.667.167.167 0 0 1 0 .333h-.001a2.167 2.167 0 0 1-.51-4.273l.336-.08.044-.342a4.167 4.167 0 0 1 7.953-1.125Zm-2.37 4.199.002.003a.167.167 0 0 1 0 .237l-.866.86-.358.355.358.354.866.86a.167.167 0 0 1 0 .237l-.002.003a.166.166 0 0 1-.183.037.166.166 0 0 1-.054-.037l-.86-.867-.355-.357-.355.357-.86.867a.166.166 0 0 1-.183.037.166.166 0 0 1-.054-.037l-.003-.003a.167.167 0 0 1 0-.236l.867-.86.358-.355-.358-.355-.865-.859a.17.17 0 0 1 .24-.24l.858.866.355.357.355-.357.86-.867a.167.167 0 0 1 .237 0Z"/></svg>
