<svg width="12" height="12" viewBox="0 0 10 11" fill="none" xmlns="http://www.w3.org/2000/svg">
<path d="M5 0.5C2.25 0.5 0 2.75 0 5.5C0 8.25 2.25 10.5 5 10.5C7.75 10.5 10 8.25 10 5.5C10 2.75 7.75 0.5 5 0.5ZM6.85 6.65C7.05 6.85 7.05 7.15 6.85 7.35C6.65 7.55 6.35 7.55 6.15 7.35L5 6.2L3.85 7.35C3.65 7.55 3.35 7.55 3.15 7.35C2.95 7.15 2.95 6.85 3.15 6.65L4.3 5.5L3.15 4.35C2.95 4.15 2.95 3.85 3.15 3.65C3.35 3.45 3.65 3.45 3.85 3.65L5 4.8L6.15 3.65C6.35 3.45 6.65 3.45 6.85 3.65C7.05 3.85 7.05 4.15 6.85 4.35L5.7 5.5L6.85 6.65Z" fill="#E34D5B"/>
</svg>
