<svg width="18" height="19" viewBox="0 0 18 19" fill="none" xmlns="http://www.w3.org/2000/svg">
<path d="M9 2.43359C4.875 2.43359 1.5 5.80859 1.5 9.93359C1.5 14.0586 4.875 17.4336 9 17.4336C13.125 17.4336 16.5 14.0586 16.5 9.93359C16.5 5.80859 13.125 2.43359 9 2.43359ZM11.775 11.6586C12.075 11.9586 12.075 12.4086 11.775 12.7086C11.475 13.0086 11.025 13.0086 10.725 12.7086L9 10.9836L7.275 12.7086C6.975 13.0086 6.525 13.0086 6.225 12.7086C5.925 12.4086 5.925 11.9586 6.225 11.6586L7.95 9.93359L6.225 8.20859C5.925 7.90859 5.925 7.45859 6.225 7.15859C6.525 6.85859 6.975 6.85859 7.275 7.15859L9 8.88359L10.725 7.15859C11.025 6.85859 11.475 6.85859 11.775 7.15859C12.075 7.45859 12.075 7.90859 11.775 8.20859L10.05 9.93359L11.775 11.6586Z" fill="#E34D5B"/>
</svg>
