<svg width="16" height="16" fill="none" xmlns="http://www.w3.org/2000/svg"><path d="M8.75 5.457h-1.5A1.083 1.083 0 0 0 6.167 6.54v3a1.083 1.083 0 0 0 1.083 1.083h1.5A1.084 1.084 0 0 0 9.833 9.54a.417.417 0 0 1 .834 0 1.917 1.917 0 0 1-1.917 1.917h-1.5A1.916 1.916 0 0 1 5.333 9.54v-3A1.917 1.917 0 0 1 7.25 4.623h1.5a1.917 1.917 0 0 1 1.917 1.917.416.416 0 1 1-.834 0A1.083 1.083 0 0 0 8.75 5.457ZM4.018 2.08A7.167 7.167 0 1 1 11.982 14 7.167 7.167 0 0 1 4.018 2.08Zm.463 11.225A6.334 6.334 0 1 0 11.52 2.774 6.334 6.334 0 0 0 4.48 13.306Z" fill="#A6B5BA" stroke="#A6B5BA" stroke-width=".667"/></svg>