<svg viewBox="0 0 14 14" fill="none" xmlns="http://www.w3.org/2000/svg">
  <path
    d="M9.91652 4.08319C9.64681 3.38072 9.20581 2.75679 8.6336 2.26813C8.06139 1.77947 7.37612 1.44157 6.64009 1.28515C5.90405 1.12873 5.1406 1.15875 4.41912 1.37248C3.69764 1.5862 3.04101 1.97686 2.50894 2.50894C1.97686 3.04101 1.5862 3.69764 1.37248 4.41912C1.15875 5.1406 1.12873 5.90405 1.28515 6.64009C1.44157 7.37612 1.77947 8.06139 2.26813 8.6336C2.75679 9.20581 3.38072 9.64681 4.08319 9.91652C4.3529 10.619 4.79391 11.2429 5.36612 11.7316C5.93833 12.2202 6.62359 12.5581 7.35963 12.7146C8.09566 12.871 8.85912 12.841 9.5806 12.6272C10.3021 12.4135 10.9587 12.0229 11.4908 11.4908C12.0229 10.9587 12.4135 10.3021 12.6272 9.5806C12.841 8.85912 12.871 8.09566 12.7146 7.35963C12.5581 6.62359 12.2202 5.93833 11.7316 5.36612C11.2429 4.79391 10.619 4.3529 9.91652 4.08319ZM8.98319 5.01652C9.02532 5.2357 9.0468 5.45834 9.04736 5.68152C9.04614 5.94478 9.01483 6.20704 8.95402 6.46319L7.53069 5.05152C7.78684 4.99072 8.04909 4.9594 8.31236 4.95819C8.53554 4.95874 8.75818 4.98023 8.97736 5.02236L8.98319 5.01652ZM8.43486 7.58319C8.20231 7.91416 7.91416 8.20231 7.58319 8.43486L5.56486 6.41652C5.7974 6.08555 6.08555 5.7974 6.41652 5.56486L8.43486 7.58319ZM3.76819 8.43486C3.36405 8.1553 3.02628 7.79036 2.77876 7.36585C2.53124 6.94134 2.38002 6.46763 2.33579 5.97822C2.29157 5.48881 2.35542 4.99566 2.52283 4.53365C2.69024 4.07165 2.95712 3.65207 3.3046 3.3046C3.65207 2.95712 4.07165 2.69024 4.53365 2.52283C4.99566 2.35542 5.48881 2.29157 5.97822 2.33579C6.46763 2.38002 6.94134 2.53124 7.36585 2.77876C7.79036 3.02628 8.1553 3.36405 8.43486 3.76819H8.28902C7.0905 3.7759 5.94396 4.25862 5.10084 5.11049C4.25773 5.96235 3.78686 7.11382 3.79152 8.31236C3.79152 8.35902 3.79736 8.41152 3.79736 8.45819L3.76819 8.43486ZM4.99319 8.95402C4.95106 8.73485 4.92958 8.51221 4.92902 8.28902C4.93024 8.02576 4.96155 7.7635 5.02236 7.50736L6.43986 8.92486C6.18371 8.98566 5.92145 9.01697 5.65819 9.01819C5.44545 9.02356 5.23266 9.00989 5.02236 8.97736L4.99319 8.95402ZM8.31236 11.6665C7.76639 11.6655 7.22886 11.5317 6.74614 11.2766C6.26342 11.0215 5.84999 10.6528 5.54152 10.2024H5.68736C6.88487 10.2008 8.03299 9.72482 8.88031 8.8786C9.72763 8.03237 10.2051 6.88487 10.2082 5.68736C10.2082 5.64069 10.2082 5.58819 10.2082 5.54152C10.8008 5.94576 11.2481 6.52931 11.4846 7.20651C11.7211 7.88371 11.7343 8.6189 11.5222 9.30413C11.3101 9.98937 10.8839 10.5886 10.3062 11.0138C9.72847 11.4389 9.02966 11.6677 8.31236 11.6665Z"
    fill="#F4B784"/>
</svg>
