<svg width="14" height="14" fill="none" xmlns="http://www.w3.org/2000/svg"><path d="M10.333 3.667a5.16 5.16 0 1 0-6.667 6.667 5.16 5.16 0 1 0 6.667-6.667ZM9.266 4.734c.049.25.073.505.074.76-.002.3-.037.6-.107.893L7.606 4.774c.293-.07.593-.106.894-.107.255 0 .51.025.76.073l.006-.006ZM8.64 7.667a4 4 0 0 1-.974.973L5.36 6.334a4 4 0 0 1 .973-.974L8.64 7.667Zm-5.334.973A3.833 3.833 0 1 1 8.64 3.307h-.167A5.173 5.173 0 0 0 3.333 8.5c0 .054.007.114.007.167l-.034-.027Zm1.4.594a4.08 4.08 0 0 1-.073-.76c.001-.301.037-.601.107-.894L6.36 9.2c-.293.07-.593.106-.894.107a4.08 4.08 0 0 1-.726-.047l-.034-.026Zm3.794 3.1a3.847 3.847 0 0 1-3.167-1.674H5.5a5.174 5.174 0 0 0 5.166-5.16v-.166a3.834 3.834 0 0 1-2.166 7Z" fill="#F4B784"/></svg>