<svg width="488" height="42" viewBox="0 0 488 42" fill="none" xmlns="http://www.w3.org/2000/svg">
<path d="M0 2.87059C0 1.28521 1.28521 0 2.87059 0H485.129C486.715 0 488 1.28521 488 2.87059V17.2235H0V2.87059Z" fill="#F1F7F9"/>
<g clip-path="url(#clip0_17451_72134)">
<path d="M12.4314 7.41978H10.7558L11.5936 6.61124L12.4314 7.41978ZM11.7696 6.27394C11.6729 6.18065 11.5168 6.18065 11.4201 6.27394L10.2824 7.37194C10.1262 7.52026 10.2353 7.77861 10.4559 7.77861H12.7288C12.9494 7.77861 13.061 7.52026 12.9048 7.36955L11.7696 6.27394ZM12.7313 8.73547H10.4559C10.2353 8.73547 10.1238 8.99382 10.2799 9.14453L11.4176 10.2425C11.5143 10.3358 11.6704 10.3358 11.7671 10.2425L12.9048 9.14453C13.061 8.99382 12.9519 8.73547 12.7313 8.73547Z" fill="#155366"/>
</g>
<path d="M19.2451 10.0234H18.5681L18.299 9.32331H17.0669L16.8125 10.0234H16.1523L17.3529 6.9412H18.0109L19.2451 10.0234ZM18.0992 8.804L17.6745 7.66025L17.2582 8.804H18.0992ZM21.4633 8.8902L22.0667 9.08153C21.9742 9.41792 21.82 9.66812 21.6042 9.83211C21.3897 9.9947 21.1171 10.076 20.7863 10.076C20.377 10.076 20.0406 9.93653 19.7771 9.65761C19.5136 9.37727 19.3818 8.99462 19.3818 8.50965C19.3818 7.99665 19.5143 7.59858 19.7792 7.31544C20.0441 7.03091 20.3924 6.88864 20.8241 6.88864C21.2012 6.88864 21.5074 7.00007 21.7429 7.22293C21.8831 7.35469 21.9882 7.54391 22.0583 7.7906L21.4423 7.93778C21.4058 7.77799 21.3294 7.65184 21.2131 7.55933C21.0982 7.46682 20.958 7.42057 20.7926 7.42057C20.5641 7.42057 20.3784 7.50256 20.2354 7.66656C20.0939 7.83055 20.0231 8.09616 20.0231 8.4634C20.0231 8.85306 20.0932 9.13058 20.2333 9.29598C20.3735 9.46137 20.5557 9.54407 20.78 9.54407C20.9454 9.54407 21.0877 9.49151 21.2068 9.38639C21.3259 9.28126 21.4114 9.11587 21.4633 8.8902ZM23.2105 10.0234V7.46261H22.296V6.9412H24.7454V7.46261H23.8329V10.0234H23.2105ZM25.044 10.0234V6.9412H25.6663V10.0234H25.044ZM26.9615 10.0234L25.8598 6.9412H26.5347L27.3148 9.22239L28.0695 6.9412H28.7297L27.6259 10.0234H26.9615ZM28.9422 10.0234V6.9412H29.5645V10.0234H28.9422ZM30.7672 10.0234V7.46261H29.8526V6.9412H32.302V7.46261H31.3895V10.0234H30.7672ZM33.429 10.0234V8.72621L32.3 6.9412H33.0296L33.7549 8.16064L34.4655 6.9412H35.1825L34.0493 8.73041V10.0234H33.429ZM37.1317 10.0234V7.46261H36.2171V6.9412H38.6665V7.46261H37.754V10.0234H37.1317ZM38.9651 10.0234V6.9412H39.5874V10.0234H38.9651ZM40.7901 10.0234V7.46261H39.8756V6.9412H42.325V7.46261H41.4125V10.0234H40.7901ZM42.6593 10.0234V6.96643H43.2817V9.50412H44.8291V10.0234H42.6593ZM45.1887 10.0234V6.9412H47.4741V7.46261H45.811V8.14592H47.3585V8.66523H45.811V9.50412H47.533V10.0234H45.1887Z" fill="#2A2F30"/>
<g clip-path="url(#clip1_17451_72134)">
<path d="M359.17 9.08803H360.846L360.008 9.89658L359.17 9.08803ZM359.832 10.2339C359.929 10.3272 360.085 10.3272 360.181 10.2339L361.319 9.13587C361.475 8.98756 361.366 8.7292 361.146 8.7292H358.873C358.652 8.7292 358.541 8.98756 358.697 9.13826L359.832 10.2339ZM358.87 7.77234H361.146C361.366 7.77234 361.478 7.51399 361.322 7.36328L360.184 6.26528C360.087 6.17199 359.931 6.17199 359.834 6.26528L358.697 7.36328C358.541 7.51399 358.65 7.77234 358.87 7.77234Z" fill="#155366"/>
</g>
<path d="M364.778 6.9412H365.4V8.61057C365.4 8.87548 365.408 9.04719 365.423 9.12568C365.45 9.25183 365.513 9.35345 365.613 9.43054C365.713 9.50623 365.851 9.54407 366.025 9.54407C366.201 9.54407 366.334 9.50833 366.424 9.43685C366.514 9.36396 366.568 9.27495 366.586 9.16983C366.604 9.06471 366.613 8.8902 366.613 8.64631V6.9412H367.236V8.56011C367.236 8.93015 367.219 9.19156 367.185 9.34434C367.152 9.49712 367.089 9.62607 366.998 9.73119C366.908 9.83632 366.788 9.92042 366.636 9.98349C366.485 10.0452 366.287 10.076 366.044 10.076C365.749 10.076 365.526 10.0424 365.373 9.97508C365.221 9.9064 365.102 9.8181 365.013 9.71017C364.925 9.60084 364.867 9.4866 364.839 9.36746C364.798 9.19085 364.778 8.93015 364.778 8.58534V6.9412ZM367.808 10.0234V6.9412H368.806C369.185 6.9412 369.431 6.95662 369.546 6.98745C369.723 7.03371 369.871 7.13463 369.99 7.29021C370.109 7.44439 370.169 7.64413 370.169 7.88942C370.169 8.07864 370.134 8.23773 370.066 8.36668C369.997 8.49563 369.909 8.59725 369.803 8.67154C369.698 8.74443 369.59 8.79278 369.481 8.81661C369.333 8.84605 369.117 8.86077 368.836 8.86077H368.43V10.0234H367.808ZM368.43 7.46261V8.33725H368.771C369.016 8.33725 369.18 8.32113 369.262 8.28889C369.345 8.25665 369.41 8.20619 369.456 8.13751C369.504 8.06883 369.527 7.98894 369.527 7.89783C369.527 7.7857 369.494 7.69319 369.429 7.6203C369.363 7.54741 369.279 7.50186 369.178 7.48364C369.104 7.46962 368.955 7.46261 368.731 7.46261H368.43ZM370.591 6.9412H371.729C371.985 6.9412 372.181 6.96082 372.315 7.00007C372.496 7.05333 372.651 7.14794 372.78 7.2839C372.909 7.41986 373.007 7.58666 373.074 7.78429C373.142 7.98053 373.175 8.22301 373.175 8.51175C373.175 8.76545 373.144 8.98411 373.081 9.16773C373.004 9.39199 372.894 9.57351 372.751 9.71227C372.643 9.81739 372.497 9.89939 372.313 9.95826C372.176 10.0017 371.992 10.0234 371.762 10.0234H370.591V6.9412ZM371.214 7.46261V9.50412H371.678C371.852 9.50412 371.978 9.49431 372.055 9.47469C372.156 9.44946 372.239 9.40671 372.305 9.34644C372.372 9.28617 372.427 9.18735 372.469 9.04999C372.511 8.91122 372.532 8.7227 372.532 8.48442C372.532 8.24614 372.511 8.06322 372.469 7.93567C372.427 7.80812 372.368 7.70861 372.292 7.63712C372.217 7.56564 372.121 7.51728 372.004 7.49205C371.917 7.47243 371.747 7.46261 371.493 7.46261H371.214ZM376.398 10.0234H375.721L375.452 9.32331H374.22L373.966 10.0234H373.306L374.506 6.9412H375.164L376.398 10.0234ZM375.253 8.804L374.828 7.66025L374.412 8.804H375.253ZM377.019 10.0234V7.46261H376.104V6.9412H378.554V7.46261H377.641V10.0234H377.019ZM378.871 10.0234V6.9412H381.157V7.46261H379.494V8.14592H381.041V8.66523H379.494V9.50412H381.215V10.0234H378.871ZM381.655 6.9412H382.792C383.049 6.9412 383.244 6.96082 383.379 7.00007C383.56 7.05333 383.715 7.14794 383.844 7.2839C383.973 7.41986 384.071 7.58666 384.138 7.78429C384.205 7.98053 384.239 8.22301 384.239 8.51175C384.239 8.76545 384.207 8.98411 384.144 9.16773C384.067 9.39199 383.957 9.57351 383.814 9.71227C383.706 9.81739 383.56 9.89939 383.377 9.95826C383.24 10.0017 383.056 10.0234 382.826 10.0234H381.655V6.9412ZM382.277 7.46261V9.50412H382.742C382.916 9.50412 383.041 9.49431 383.118 9.47469C383.219 9.44946 383.303 9.40671 383.368 9.34644C383.436 9.28617 383.49 9.18735 383.532 9.04999C383.575 8.91122 383.596 8.7227 383.596 8.48442C383.596 8.24614 383.575 8.06322 383.532 7.93567C383.49 7.80812 383.432 7.70861 383.356 7.63712C383.28 7.56564 383.184 7.51728 383.068 7.49205C382.981 7.47243 382.811 7.46261 382.557 7.46261H382.277ZM385.669 8.50124C385.669 8.18727 385.716 7.92376 385.81 7.71071C385.88 7.55372 385.975 7.41286 386.096 7.28811C386.217 7.16336 386.351 7.07085 386.495 7.01058C386.687 6.92929 386.909 6.88864 387.159 6.88864C387.614 6.88864 387.977 7.0295 388.248 7.31124C388.522 7.59297 388.658 7.98473 388.658 8.48652C388.658 8.98411 388.523 9.37377 388.253 9.6555C387.982 9.93583 387.621 10.076 387.168 10.076C386.709 10.076 386.345 9.93653 386.075 9.65761C385.804 9.37727 385.669 8.99182 385.669 8.50124ZM386.31 8.48022C386.31 8.82923 386.391 9.09414 386.552 9.27495C386.713 9.45437 386.918 9.54407 387.166 9.54407C387.414 9.54407 387.617 9.45507 387.775 9.27706C387.935 9.09764 388.015 8.82923 388.015 8.47181C388.015 8.11859 387.937 7.85508 387.782 7.68127C387.628 7.50747 387.422 7.42057 387.166 7.42057C386.909 7.42057 386.702 7.50887 386.545 7.68548C386.388 7.86068 386.31 8.1256 386.31 8.48022ZM389.066 10.0234V6.9412H389.672L390.933 8.99953V6.9412H391.512V10.0234H390.887L389.645 8.01347V10.0234H389.066Z" fill="#2A2F30"/>
<path d="M286.739 8.8902L287.342 9.08153C287.249 9.41792 287.095 9.66812 286.879 9.83211C286.665 9.9947 286.392 10.076 286.062 10.076C285.652 10.076 285.316 9.93653 285.052 9.65761C284.789 9.37727 284.657 8.99462 284.657 8.50965C284.657 7.99665 284.79 7.59858 285.054 7.31544C285.319 7.03091 285.668 6.88864 286.099 6.88864C286.476 6.88864 286.783 7.00007 287.018 7.22293C287.158 7.35469 287.263 7.54391 287.334 7.7906L286.717 7.93778C286.681 7.77799 286.605 7.65184 286.488 7.55933C286.373 7.46682 286.233 7.42057 286.068 7.42057C285.839 7.42057 285.654 7.50256 285.511 7.66656C285.369 7.83055 285.298 8.09616 285.298 8.4634C285.298 8.85306 285.368 9.13058 285.509 9.29598C285.649 9.46137 285.831 9.54407 286.055 9.54407C286.221 9.54407 286.363 9.49151 286.482 9.38639C286.601 9.28126 286.687 9.11587 286.739 8.8902ZM287.666 8.50124C287.666 8.18727 287.713 7.92376 287.807 7.71071C287.877 7.55372 287.972 7.41286 288.093 7.28811C288.215 7.16336 288.348 7.07085 288.492 7.01058C288.684 6.92929 288.906 6.88864 289.156 6.88864C289.611 6.88864 289.974 7.0295 290.246 7.31124C290.519 7.59297 290.656 7.98473 290.656 8.48652C290.656 8.98411 290.52 9.37377 290.25 9.6555C289.979 9.93583 289.618 10.076 289.165 10.076C288.707 10.076 288.342 9.93653 288.072 9.65761C287.801 9.37727 287.666 8.99182 287.666 8.50124ZM288.307 8.48022C288.307 8.82923 288.388 9.09414 288.549 9.27495C288.71 9.45437 288.915 9.54407 289.163 9.54407C289.411 9.54407 289.614 9.45507 289.772 9.27706C289.932 9.09764 290.012 8.82923 290.012 8.47181C290.012 8.11859 289.934 7.85508 289.779 7.68127C289.625 7.50747 289.419 7.42057 289.163 7.42057C288.906 7.42057 288.7 7.50887 288.543 7.68548C288.386 7.86068 288.307 8.1256 288.307 8.48022ZM291.059 10.0234V6.9412H292.369C292.699 6.9412 292.938 6.96923 293.086 7.0253C293.236 7.07996 293.356 7.17808 293.446 7.31965C293.535 7.46121 293.58 7.6231 293.58 7.80532C293.58 8.03659 293.512 8.22792 293.376 8.3793C293.24 8.52927 293.037 8.62389 292.767 8.66313C292.901 8.74162 293.012 8.82783 293.099 8.92174C293.187 9.01565 293.305 9.18244 293.454 9.42213L293.83 10.0234H293.086L292.636 9.35275C292.476 9.11306 292.367 8.96239 292.308 8.90071C292.249 8.83764 292.187 8.79489 292.121 8.77246C292.055 8.74863 291.951 8.73672 291.808 8.73672H291.682V10.0234H291.059ZM291.682 8.24474H292.142C292.441 8.24474 292.627 8.23212 292.701 8.20689C292.776 8.18166 292.834 8.13821 292.876 8.07654C292.918 8.01487 292.939 7.93778 292.939 7.84527C292.939 7.74154 292.911 7.65815 292.855 7.59507C292.8 7.5306 292.722 7.48995 292.621 7.47313C292.571 7.46612 292.42 7.46261 292.167 7.46261H291.682V8.24474ZM294.083 10.0234V6.9412H296.368V7.46261H294.705V8.14592H296.253V8.66523H294.705V9.50412H296.427V10.0234H294.083ZM299.953 8.8902L300.556 9.08153C300.464 9.41792 300.31 9.66812 300.094 9.83211C299.879 9.9947 299.607 10.076 299.276 10.076C298.867 10.076 298.53 9.93653 298.267 9.65761C298.003 9.37727 297.872 8.99462 297.872 8.50965C297.872 7.99665 298.004 7.59858 298.269 7.31544C298.534 7.03091 298.882 6.88864 299.314 6.88864C299.691 6.88864 299.997 7.00007 300.233 7.22293C300.373 7.35469 300.478 7.54391 300.548 7.7906L299.932 7.93778C299.896 7.77799 299.819 7.65184 299.703 7.55933C299.588 7.46682 299.448 7.42057 299.282 7.42057C299.054 7.42057 298.868 7.50256 298.725 7.66656C298.584 7.83055 298.513 8.09616 298.513 8.4634C298.513 8.85306 298.583 9.13058 298.723 9.29598C298.863 9.46137 299.045 9.54407 299.27 9.54407C299.435 9.54407 299.577 9.49151 299.697 9.38639C299.816 9.28126 299.901 9.11587 299.953 8.8902ZM300.88 8.50124C300.88 8.18727 300.927 7.92376 301.021 7.71071C301.091 7.55372 301.187 7.41286 301.307 7.28811C301.429 7.16336 301.562 7.07085 301.707 7.01058C301.899 6.92929 302.12 6.88864 302.371 6.88864C302.825 6.88864 303.188 7.0295 303.46 7.31124C303.733 7.59297 303.87 7.98473 303.87 8.48652C303.87 8.98411 303.735 9.37377 303.464 9.6555C303.194 9.93583 302.832 10.076 302.379 10.076C301.921 10.076 301.557 9.93653 301.286 9.65761C301.016 9.37727 300.88 8.99182 300.88 8.50124ZM301.522 8.48022C301.522 8.82923 301.602 9.09414 301.763 9.27495C301.925 9.45437 302.129 9.54407 302.377 9.54407C302.625 9.54407 302.829 9.45507 302.987 9.27706C303.147 9.09764 303.227 8.82923 303.227 8.47181C303.227 8.11859 303.149 7.85508 302.993 7.68127C302.839 7.50747 302.634 7.42057 302.377 7.42057C302.121 7.42057 301.914 7.50887 301.757 7.68548C301.6 7.86068 301.522 8.1256 301.522 8.48022ZM304.263 10.0234V6.9412H305.195L305.754 9.04368L306.307 6.9412H307.24V10.0234H306.662V7.59717L306.05 10.0234H305.451L304.841 7.59717V10.0234H304.263ZM307.772 10.0234V6.9412H308.771C309.15 6.9412 309.396 6.95662 309.511 6.98745C309.688 7.03371 309.836 7.13463 309.955 7.29021C310.074 7.44439 310.134 7.64413 310.134 7.88942C310.134 8.07864 310.099 8.23773 310.03 8.36668C309.962 8.49563 309.874 8.59725 309.768 8.67154C309.663 8.74443 309.555 8.79278 309.446 8.81661C309.297 8.84605 309.082 8.86077 308.801 8.86077H308.395V10.0234H307.772ZM308.395 7.46261V8.33725H308.735C308.981 8.33725 309.145 8.32113 309.227 8.28889C309.31 8.25665 309.375 8.20619 309.421 8.13751C309.468 8.06883 309.492 7.98894 309.492 7.89783C309.492 7.7857 309.459 7.69319 309.393 7.6203C309.328 7.54741 309.244 7.50186 309.143 7.48364C309.069 7.46962 308.92 7.46261 308.695 7.46261H308.395ZM310.575 10.0234V6.96643H311.197V9.50412H312.745V10.0234H310.575ZM313.104 10.0234V6.9412H315.39V7.46261H313.727V8.14592H315.274V8.66523H313.727V9.50412H315.449V10.0234H313.104ZM316.584 10.0234V7.46261H315.67V6.9412H318.119V7.46261H317.207V10.0234H316.584ZM318.437 10.0234V6.9412H320.722V7.46261H319.059V8.14592H320.606V8.66523H319.059V9.50412H320.781V10.0234H318.437ZM321.229 10.0234V6.9412H321.834L323.096 8.99953V6.9412H323.674V10.0234H323.049L321.807 8.01347V10.0234H321.229ZM324.248 10.0234V6.9412H326.533V7.46261H324.87V8.14592H326.418V8.66523H324.87V9.50412H326.592V10.0234H324.248ZM326.876 9.02055L327.482 8.96168C327.518 9.16492 327.592 9.3142 327.702 9.40951C327.815 9.50483 327.965 9.55248 328.154 9.55248C328.355 9.55248 328.506 9.51043 328.607 9.42633C328.709 9.34083 328.76 9.24131 328.76 9.12778C328.76 9.05489 328.738 8.99322 328.695 8.94276C328.653 8.8909 328.578 8.84605 328.472 8.8082C328.399 8.78297 328.233 8.73812 327.974 8.67364C327.64 8.59095 327.406 8.48933 327.271 8.36878C327.082 8.19918 326.988 7.99244 326.988 7.74855C326.988 7.59157 327.032 7.44509 327.12 7.30913C327.21 7.17177 327.338 7.06735 327.505 6.99586C327.673 6.92438 327.876 6.88864 328.112 6.88864C328.499 6.88864 328.79 6.97344 328.985 7.14304C329.181 7.31264 329.284 7.539 329.294 7.82214L328.672 7.84947C328.645 7.69108 328.588 7.57755 328.499 7.50887C328.412 7.43879 328.281 7.40375 328.106 7.40375C327.925 7.40375 327.784 7.44089 327.681 7.51518C327.616 7.56283 327.583 7.62661 327.583 7.7065C327.583 7.77939 327.613 7.84176 327.675 7.89362C327.754 7.9595 327.944 8.02818 328.247 8.09967C328.55 8.17115 328.773 8.24544 328.918 8.32253C329.063 8.39822 329.177 8.50264 329.258 8.6358C329.341 8.76756 329.382 8.93085 329.382 9.12568C329.382 9.30229 329.333 9.46768 329.235 9.62186C329.137 9.77605 328.998 9.89098 328.819 9.96667C328.639 10.041 328.416 10.0781 328.148 10.0781C327.759 10.0781 327.459 9.9884 327.25 9.80898C327.042 9.62817 326.917 9.36536 326.876 9.02055ZM329.662 9.02055L330.268 8.96168C330.304 9.16492 330.378 9.3142 330.488 9.40951C330.6 9.50483 330.751 9.55248 330.94 9.55248C331.141 9.55248 331.291 9.51043 331.392 9.42633C331.495 9.34083 331.546 9.24131 331.546 9.12778C331.546 9.05489 331.524 8.99322 331.481 8.94276C331.439 8.8909 331.364 8.84605 331.258 8.8082C331.185 8.78297 331.019 8.73812 330.76 8.67364C330.426 8.59095 330.192 8.48933 330.057 8.36878C329.868 8.19918 329.773 7.99244 329.773 7.74855C329.773 7.59157 329.818 7.44509 329.906 7.30913C329.996 7.17177 330.124 7.06735 330.291 6.99586C330.459 6.92438 330.661 6.88864 330.898 6.88864C331.285 6.88864 331.576 6.97344 331.771 7.14304C331.967 7.31264 332.07 7.539 332.08 7.82214L331.458 7.84947C331.431 7.69108 331.373 7.57755 331.285 7.50887C331.198 7.43879 331.067 7.40375 330.892 7.40375C330.711 7.40375 330.57 7.44089 330.467 7.51518C330.401 7.56283 330.368 7.62661 330.368 7.7065C330.368 7.77939 330.399 7.84176 330.461 7.89362C330.539 7.9595 330.73 8.02818 331.033 8.09967C331.336 8.17115 331.559 8.24544 331.704 8.32253C331.849 8.39822 331.963 8.50264 332.044 8.6358C332.127 8.76756 332.168 8.93085 332.168 9.12568C332.168 9.30229 332.119 9.46768 332.021 9.62186C331.923 9.77605 331.784 9.89098 331.605 9.96667C331.425 10.041 331.202 10.0781 330.934 10.0781C330.544 10.0781 330.245 9.9884 330.036 9.80898C329.827 9.62817 329.703 9.36536 329.662 9.02055Z" fill="#2A2F30"/>
<g clip-path="url(#clip2_17451_72134)">
<path d="M475.499 5.85585V5.67644H475.32H471.732H471.552V5.85585V9.44409V9.6235H471.732H475.32H475.499V9.44409V5.85585ZM472.283 7.79957L472.449 7.63235L472.941 8.12638L473.068 8.25435L473.196 8.12619L474.602 6.70857L474.768 6.87564L473.068 8.59119L472.283 7.79957ZM470.356 10.6402V10.8196H470.536H474.542V11.0588H470.536C470.306 11.0588 470.117 10.87 470.117 10.6402V6.6333H470.356V10.6402ZM471.732 5.43722H475.32C475.55 5.43722 475.738 5.62602 475.738 5.85585V9.44409C475.738 9.67392 475.55 9.86271 475.32 9.86271H471.732C471.502 9.86271 471.313 9.67392 471.313 9.44409V5.85585C471.313 5.62602 471.502 5.43722 471.732 5.43722Z" fill="#A6B5BA" stroke="#A6B5BA" stroke-width="0.358824"/>
</g>
<path d="M488 37.8522H0V38.211H488V37.8522Z" fill="#D5DCDE"/>
<rect width="488" height="20.0941" transform="translate(0 17.9375)" fill="white"/>
<path d="M10.4442 29.9844V26.3884H13.0443V26.8128H10.9201V27.9141H12.9094V28.336H10.9201V29.56H13.1277V29.9844H10.4442ZM16.0443 26.3884H16.5202V28.466C16.5202 28.8274 16.4793 29.1144 16.3975 29.327C16.3158 29.5396 16.1678 29.7129 15.9535 29.847C15.741 29.9795 15.4613 30.0457 15.1147 30.0457C14.7778 30.0457 14.5022 29.9876 14.288 29.8715C14.0738 29.7554 13.9209 29.5878 13.8293 29.3687C13.7378 29.1479 13.692 28.847 13.692 28.466V26.3884H14.1678V28.4636C14.1678 28.7759 14.1965 29.0065 14.2537 29.1553C14.3126 29.3025 14.4123 29.4161 14.5529 29.4962C14.6952 29.5764 14.8685 29.6164 15.073 29.6164C15.4229 29.6164 15.6723 29.5371 15.8211 29.3785C15.9699 29.2199 16.0443 28.9149 16.0443 28.4636V26.3884ZM16.9863 28.9051V28.4611H18.3428V28.9051H16.9863ZM18.3919 29.9844L19.7729 26.3884H20.2856L21.7573 29.9844H21.2152L20.7958 28.8953H19.2921L18.8972 29.9844H18.3919ZM19.4295 28.5077H20.6486L20.2733 27.5119C20.1588 27.2093 20.0738 26.9608 20.0182 26.7662C19.9724 26.9967 19.9078 27.2257 19.8244 27.453L19.4295 28.5077ZM21.9806 29.9844V27.3794H22.378V27.7498C22.5693 27.4636 22.8457 27.3205 23.2071 27.3205C23.364 27.3205 23.5079 27.3491 23.6388 27.4064C23.7712 27.462 23.8701 27.5356 23.9356 27.6271C24.001 27.7187 24.0468 27.8275 24.0729 27.9534C24.0893 28.0351 24.0975 28.1782 24.0975 28.3826V29.9844H23.6559V28.3998C23.6559 28.2199 23.6388 28.0858 23.6044 27.9975C23.5701 27.9076 23.5088 27.8365 23.4205 27.7841C23.3338 27.7302 23.2316 27.7032 23.1138 27.7032C22.9258 27.7032 22.7631 27.7629 22.6257 27.8822C22.49 28.0016 22.4221 28.2281 22.4221 28.5617V29.9844H21.9806ZM24.5955 30.2002L25.0247 30.264C25.0427 30.3965 25.0926 30.4929 25.1744 30.5534C25.2839 30.6352 25.4336 30.6761 25.6233 30.6761C25.8277 30.6761 25.9855 30.6352 26.0967 30.5534C26.2079 30.4717 26.2831 30.3572 26.3223 30.21C26.3452 30.1201 26.3558 29.9312 26.3542 29.6434C26.1613 29.8707 25.9209 29.9844 25.6331 29.9844C25.2749 29.9844 24.9978 29.8552 24.8015 29.5968C24.6053 29.3384 24.5072 29.0286 24.5072 28.6672C24.5072 28.4186 24.5522 28.1897 24.6421 27.9804C24.732 27.7694 24.862 27.6067 25.0321 27.4922C25.2038 27.3778 25.4049 27.3205 25.6355 27.3205C25.9429 27.3205 26.1964 27.4448 26.3959 27.6934V27.3794H26.8031V29.6312C26.8031 30.0367 26.7614 30.3237 26.678 30.4921C26.5962 30.6622 26.4654 30.7963 26.2855 30.8944C26.1073 30.9925 25.8873 31.0416 25.6257 31.0416C25.315 31.0416 25.064 30.9713 24.8727 30.8306C24.6813 30.6916 24.5889 30.4815 24.5955 30.2002ZM24.961 28.6353C24.961 28.9771 25.0288 29.2264 25.1646 29.3834C25.3003 29.5404 25.4704 29.6189 25.6748 29.6189C25.8775 29.6189 26.0476 29.5412 26.185 29.3859C26.3223 29.2289 26.391 28.9836 26.391 28.65C26.391 28.3311 26.3199 28.0907 26.1776 27.9288C26.037 27.767 25.8669 27.686 25.6674 27.686C25.4712 27.686 25.3044 27.7661 25.167 27.9264C25.0296 28.085 24.961 28.3213 24.961 28.6353ZM27.2079 28.6819C27.2079 28.1995 27.342 27.8422 27.6102 27.61C27.8342 27.417 28.1073 27.3205 28.4295 27.3205C28.7876 27.3205 29.0803 27.4383 29.3076 27.6737C29.5349 27.9076 29.6486 28.2314 29.6486 28.6451C29.6486 28.9803 29.5979 29.2444 29.4965 29.4374C29.3967 29.6287 29.2504 29.7775 29.0574 29.8838C28.8661 29.9901 28.6568 30.0432 28.4295 30.0432C28.0648 30.0432 27.7696 29.9263 27.544 29.6925C27.3199 29.4586 27.2079 29.1218 27.2079 28.6819ZM27.6617 28.6819C27.6617 29.0155 27.7345 29.2657 27.88 29.4325C28.0256 29.5976 28.2087 29.6802 28.4295 29.6802C28.6486 29.6802 28.8309 29.5968 28.9765 29.43C29.122 29.2632 29.1948 29.0089 29.1948 28.6672C29.1948 28.345 29.1212 28.1014 28.974 27.9362C28.8285 27.7694 28.647 27.686 28.4295 27.686C28.2087 27.686 28.0256 27.7686 27.88 27.9338C27.7345 28.0989 27.6617 28.3483 27.6617 28.6819ZM30.0583 29.9844V26.3884H30.4998V29.9844H30.0583ZM32.786 29.663C32.6225 29.802 32.4647 29.9002 32.3126 29.9574C32.1621 30.0146 32.0003 30.0432 31.8269 30.0432C31.5407 30.0432 31.3208 29.9737 31.1671 29.8347C31.0134 29.6941 30.9365 29.5151 30.9365 29.2976C30.9365 29.17 30.9651 29.0539 31.0224 28.9493C31.0812 28.843 31.1573 28.7579 31.2505 28.6942C31.3453 28.6304 31.4516 28.5821 31.5694 28.5494C31.656 28.5265 31.7869 28.5045 31.9618 28.4832C32.3183 28.4407 32.5808 28.39 32.7492 28.3311C32.7508 28.2706 32.7517 28.2322 32.7517 28.2158C32.7517 28.036 32.71 27.9092 32.6266 27.8356C32.5137 27.7359 32.3461 27.686 32.1237 27.686C31.916 27.686 31.7623 27.7228 31.6626 27.7964C31.5645 27.8683 31.4917 27.9967 31.4443 28.1815L31.0126 28.1226C31.0518 27.9378 31.1164 27.789 31.2063 27.6762C31.2963 27.5617 31.4263 27.4742 31.5963 27.4137C31.7664 27.3516 31.9635 27.3205 32.1875 27.3205C32.4099 27.3205 32.5906 27.3467 32.7296 27.399C32.8686 27.4514 32.9708 27.5176 33.0362 27.5977C33.1016 27.6762 33.1474 27.776 33.1736 27.897C33.1883 27.9722 33.1956 28.1079 33.1956 28.3041V28.8928C33.1956 29.3033 33.2046 29.5633 33.2226 29.6729C33.2422 29.7808 33.2798 29.8846 33.3354 29.9844H32.8743C32.8285 29.8928 32.7991 29.7857 32.786 29.663ZM32.7492 28.677C32.5889 28.7424 32.3486 28.798 32.0281 28.8438C31.8465 28.8699 31.7182 28.8994 31.6429 28.9321C31.5677 28.9648 31.5097 29.013 31.4688 29.0768C31.4279 29.1389 31.4075 29.2084 31.4075 29.2853C31.4075 29.403 31.4516 29.5012 31.5399 29.5796C31.6299 29.6581 31.7607 29.6974 31.9324 29.6974C32.1025 29.6974 32.2537 29.6606 32.3862 29.587C32.5186 29.5118 32.6159 29.4096 32.6781 29.2804C32.7255 29.1806 32.7492 29.0335 32.7492 28.8389V28.677ZM35.1361 29.9844V26.3884H36.3748C36.6544 26.3884 36.8678 26.4056 37.015 26.4399C37.221 26.4874 37.3968 26.5732 37.5424 26.6975C37.7321 26.8578 37.8735 27.063 37.9667 27.3132C38.0616 27.5617 38.109 27.8463 38.109 28.1668C38.109 28.4399 38.0771 28.6819 38.0133 28.8928C37.9495 29.1038 37.8678 29.2788 37.768 29.4178C37.6683 29.5551 37.5587 29.6639 37.4393 29.744C37.3216 29.8225 37.1785 29.8822 37.0101 29.9231C36.8433 29.9639 36.6511 29.9844 36.4337 29.9844H35.1361ZM35.6119 29.56H36.3797C36.6168 29.56 36.8024 29.5379 36.9365 29.4938C37.0722 29.4496 37.1801 29.3875 37.2603 29.3074C37.3731 29.1945 37.4606 29.0433 37.5227 28.8536C37.5865 28.6623 37.6184 28.4309 37.6184 28.1594C37.6184 27.7833 37.5563 27.4947 37.432 27.2935C37.3093 27.0908 37.1597 26.955 36.9831 26.8864C36.8555 26.8373 36.6503 26.8128 36.3674 26.8128H35.6119V29.56ZM38.6119 26.8962V26.3884H39.0534V26.8962H38.6119ZM38.6119 29.9844V27.3794H39.0534V29.9844H38.6119ZM41.3274 29.663C41.1638 29.802 41.006 29.9002 40.854 29.9574C40.7035 30.0146 40.5416 30.0432 40.3683 30.0432C40.0821 30.0432 39.8622 29.9737 39.7085 29.8347C39.5547 29.6941 39.4779 29.5151 39.4779 29.2976C39.4779 29.17 39.5065 29.0539 39.5637 28.9493C39.6226 28.843 39.6987 28.7579 39.7919 28.6942C39.8867 28.6304 39.993 28.5821 40.1107 28.5494C40.1974 28.5265 40.3282 28.5045 40.5032 28.4832C40.8597 28.4407 41.1221 28.39 41.2906 28.3311C41.2922 28.2706 41.293 28.2322 41.293 28.2158C41.293 28.036 41.2513 27.9092 41.1679 27.8356C41.0551 27.7359 40.8875 27.686 40.6651 27.686C40.4574 27.686 40.3037 27.7228 40.2039 27.7964C40.1058 27.8683 40.0331 27.9967 39.9856 28.1815L39.5539 28.1226C39.5932 27.9378 39.6578 27.789 39.7477 27.6762C39.8376 27.5617 39.9677 27.4742 40.1377 27.4137C40.3078 27.3516 40.5048 27.3205 40.7289 27.3205C40.9513 27.3205 41.132 27.3467 41.271 27.399C41.41 27.4514 41.5122 27.5176 41.5776 27.5977C41.643 27.6762 41.6888 27.776 41.7149 27.897C41.7296 27.9722 41.737 28.1079 41.737 28.3041V28.8928C41.737 29.3033 41.746 29.5633 41.764 29.6729C41.7836 29.7808 41.8212 29.8846 41.8768 29.9844H41.4157C41.3699 29.8928 41.3405 29.7857 41.3274 29.663ZM41.2906 28.677C41.1303 28.7424 40.8899 28.798 40.5694 28.8438C40.3879 28.8699 40.2595 28.8994 40.1843 28.9321C40.1091 28.9648 40.051 29.013 40.0102 29.0768C39.9693 29.1389 39.9488 29.2084 39.9488 29.2853C39.9488 29.403 39.993 29.5012 40.0813 29.5796C40.1712 29.6581 40.3021 29.6974 40.4738 29.6974C40.6438 29.6974 40.7951 29.6606 40.9276 29.587C41.06 29.5118 41.1573 29.4096 41.2194 29.2804C41.2669 29.1806 41.2906 29.0335 41.2906 28.8389V28.677ZM42.3135 29.9844V26.3884H42.7551V29.9844H42.3135ZM43.1771 28.6819C43.1771 28.1995 43.3111 27.8422 43.5793 27.61C43.8034 27.417 44.0764 27.3205 44.3986 27.3205C44.7567 27.3205 45.0494 27.4383 45.2767 27.6737C45.504 27.9076 45.6177 28.2314 45.6177 28.6451C45.6177 28.9803 45.567 29.2444 45.4656 29.4374C45.3659 29.6287 45.2195 29.7775 45.0265 29.8838C44.8352 29.9901 44.6259 30.0432 44.3986 30.0432C44.0339 30.0432 43.7388 29.9263 43.5131 29.6925C43.2891 29.4586 43.1771 29.1218 43.1771 28.6819ZM43.6308 28.6819C43.6308 29.0155 43.7036 29.2657 43.8491 29.4325C43.9947 29.5976 44.1778 29.6802 44.3986 29.6802C44.6177 29.6802 44.8 29.5968 44.9456 29.43C45.0911 29.2632 45.1639 29.0089 45.1639 28.6672C45.1639 28.345 45.0903 28.1014 44.9431 27.9362C44.7976 27.7694 44.6161 27.686 44.3986 27.686C44.1778 27.686 43.9947 27.7686 43.8491 27.9338C43.7036 28.0989 43.6308 28.3483 43.6308 28.6819ZM45.9563 30.2002L46.3855 30.264C46.4035 30.3965 46.4534 30.4929 46.5352 30.5534C46.6447 30.6352 46.7944 30.6761 46.984 30.6761C47.1885 30.6761 47.3463 30.6352 47.4575 30.5534C47.5687 30.4717 47.6439 30.3572 47.6831 30.21C47.706 30.1201 47.7166 29.9312 47.715 29.6434C47.522 29.8707 47.2817 29.9844 46.9939 29.9844C46.6357 29.9844 46.3586 29.8552 46.1623 29.5968C45.9661 29.3384 45.868 29.0286 45.868 28.6672C45.868 28.4186 45.9129 28.1897 46.0029 27.9804C46.0928 27.7694 46.2228 27.6067 46.3929 27.4922C46.5646 27.3778 46.7657 27.3205 46.9963 27.3205C47.3037 27.3205 47.5572 27.4448 47.7567 27.6934V27.3794H48.1639V29.6312C48.1639 30.0367 48.1222 30.3237 48.0388 30.4921C47.957 30.6622 47.8262 30.7963 47.6463 30.8944C47.4681 30.9925 47.2481 31.0416 46.9865 31.0416C46.6758 31.0416 46.4248 30.9713 46.2335 30.8306C46.0421 30.6916 45.9497 30.4815 45.9563 30.2002ZM46.3218 28.6353C46.3218 28.9771 46.3896 29.2264 46.5254 29.3834C46.6611 29.5404 46.8311 29.6189 47.0356 29.6189C47.2383 29.6189 47.4084 29.5412 47.5458 29.3859C47.6831 29.2289 47.7518 28.9836 47.7518 28.65C47.7518 28.3311 47.6807 28.0907 47.5384 27.9288C47.3978 27.767 47.2277 27.686 47.0282 27.686C46.832 27.686 46.6652 27.7661 46.5278 27.9264C46.3904 28.085 46.3218 28.3213 46.3218 28.6353ZM50.4403 29.9844V29.6017C50.2375 29.8961 49.962 30.0432 49.6136 30.0432C49.4599 30.0432 49.316 30.0138 49.1819 29.9549C49.0495 29.8961 48.9505 29.8225 48.8851 29.7342C48.8214 29.6442 48.7764 29.5347 48.7502 29.4055C48.7322 29.3188 48.7232 29.1815 48.7232 28.9934V27.3794H49.1648V28.8242C49.1648 29.0547 49.1738 29.2101 49.1917 29.2902C49.2195 29.4063 49.2784 29.4979 49.3684 29.5649C49.4583 29.6303 49.5695 29.663 49.702 29.663C49.8344 29.663 49.9587 29.6295 50.0748 29.5625C50.1909 29.4938 50.2727 29.4014 50.3201 29.2853C50.3691 29.1676 50.3937 28.9975 50.3937 28.7751V27.3794H50.8352V29.9844H50.4403ZM53.2121 29.1455L53.6684 29.2019C53.5964 29.4684 53.4632 29.6753 53.2686 29.8225C53.074 29.9697 52.8254 30.0432 52.5229 30.0432C52.1419 30.0432 51.8393 29.9263 51.6153 29.6925C51.3929 29.457 51.2817 29.1275 51.2817 28.704C51.2817 28.2657 51.3945 27.9256 51.6202 27.6836C51.8459 27.4415 52.1386 27.3205 52.4983 27.3205C52.8467 27.3205 53.1312 27.4391 53.352 27.6762C53.5727 27.9133 53.6831 28.2469 53.6831 28.677C53.6831 28.7031 53.6823 28.7424 53.6806 28.7947H51.7379C51.7543 29.0809 51.8352 29.3 51.9808 29.4521C52.1263 29.6042 52.3078 29.6802 52.5253 29.6802C52.6872 29.6802 52.8254 29.6377 52.9399 29.5527C53.0543 29.4676 53.1451 29.3319 53.2121 29.1455ZM51.7625 28.4317H53.217C53.1974 28.2126 53.1418 28.0482 53.0502 27.9387C52.9096 27.7686 52.7273 27.6836 52.5033 27.6836C52.3005 27.6836 52.1296 27.7514 51.9906 27.8871C51.8532 28.0229 51.7772 28.2044 51.7625 28.4317ZM55.5033 29.9844V26.3884H57.9293V26.8128H55.9792V27.9264H57.6668V28.3507H55.9792V29.9844H55.5033ZM60.0928 29.663C59.9293 29.802 59.7715 29.9002 59.6194 29.9574C59.469 30.0146 59.3071 30.0432 59.1337 30.0432C58.8476 30.0432 58.6276 29.9737 58.4739 29.8347C58.3202 29.6941 58.2433 29.5151 58.2433 29.2976C58.2433 29.17 58.2719 29.0539 58.3292 28.9493C58.388 28.843 58.4641 28.7579 58.5573 28.6942C58.6521 28.6304 58.7584 28.5821 58.8762 28.5494C58.9628 28.5265 59.0937 28.5045 59.2686 28.4832C59.6251 28.4407 59.8876 28.39 60.056 28.3311C60.0576 28.2706 60.0585 28.2322 60.0585 28.2158C60.0585 28.036 60.0168 27.9092 59.9334 27.8356C59.8205 27.7359 59.6529 27.686 59.4305 27.686C59.2228 27.686 59.0691 27.7228 58.9694 27.7964C58.8713 27.8683 58.7985 27.9967 58.7511 28.1815L58.3194 28.1226C58.3586 27.9378 58.4232 27.789 58.5131 27.6762C58.6031 27.5617 58.7331 27.4742 58.9032 27.4137C59.0732 27.3516 59.2703 27.3205 59.4943 27.3205C59.7167 27.3205 59.8974 27.3467 60.0364 27.399C60.1754 27.4514 60.2776 27.5176 60.343 27.5977C60.4084 27.6762 60.4542 27.776 60.4804 27.897C60.4951 27.9722 60.5024 28.1079 60.5024 28.3041V28.8928C60.5024 29.3033 60.5114 29.5633 60.5294 29.6729C60.549 29.7808 60.5867 29.8846 60.6423 29.9844H60.1811C60.1353 29.8928 60.1059 29.7857 60.0928 29.663ZM60.056 28.677C59.8958 28.7424 59.6554 28.798 59.3349 28.8438C59.1533 28.8699 59.025 28.8994 58.9498 28.9321C58.8745 28.9648 58.8165 29.013 58.7756 29.0768C58.7347 29.1389 58.7143 29.2084 58.7143 29.2853C58.7143 29.403 58.7584 29.5012 58.8467 29.5796C58.9367 29.6581 59.0675 29.6974 59.2392 29.6974C59.4093 29.6974 59.5605 29.6606 59.693 29.587C59.8254 29.5118 59.9227 29.4096 59.9849 29.2804C60.0323 29.1806 60.056 29.0335 60.056 28.8389V28.677ZM62.7886 29.0302L63.2228 29.0866C63.1754 29.3859 63.0536 29.6205 62.8573 29.7906C62.6627 29.959 62.4232 30.0432 62.1386 30.0432C61.7821 30.0432 61.4951 29.9271 61.2777 29.6949C61.0618 29.4611 60.9539 29.1267 60.9539 28.6917C60.9539 28.4104 61.0005 28.1643 61.0937 27.9534C61.1869 27.7424 61.3283 27.5846 61.518 27.48C61.7094 27.3737 61.917 27.3205 62.1411 27.3205C62.424 27.3205 62.6554 27.3925 62.8352 27.5364C63.0151 27.6787 63.1304 27.8814 63.1811 28.1447L62.7518 28.2109C62.711 28.036 62.6382 27.9043 62.5335 27.816C62.4305 27.7277 62.3054 27.6836 62.1582 27.6836C61.9358 27.6836 61.7552 27.7637 61.6162 27.9239C61.4772 28.0826 61.4077 28.3344 61.4077 28.6794C61.4077 29.0294 61.4747 29.2837 61.6088 29.4423C61.7429 29.6009 61.9179 29.6802 62.1337 29.6802C62.3071 29.6802 62.4518 29.6271 62.5679 29.5208C62.684 29.4145 62.7576 29.251 62.7886 29.0302ZM63.5025 26.8962V26.3884H63.944V26.8962H63.5025ZM63.5025 29.9844V27.3794H63.944V29.9844H63.5025ZM64.5083 29.9844V26.3884H64.9498V29.9844H64.5083ZM65.5386 26.8962V26.3884H65.9801V26.8962H65.5386ZM65.5386 29.9844V27.3794H65.9801V29.9844H65.5386ZM67.5182 29.5895L67.582 29.9795C67.4577 30.0056 67.3465 30.0187 67.2484 30.0187C67.0881 30.0187 66.9639 29.9934 66.8756 29.9427C66.7872 29.892 66.7251 29.8258 66.6891 29.744C66.6532 29.6606 66.6352 29.4864 66.6352 29.2215V27.7228H66.3114V27.3794H66.6352V26.7343L67.0742 26.4694V27.3794H67.5182V27.7228H67.0742V29.2461C67.0742 29.372 67.0816 29.4529 67.0963 29.4889C67.1127 29.5249 67.138 29.5535 67.1724 29.5747C67.2083 29.596 67.259 29.6066 67.3244 29.6066C67.3735 29.6066 67.4381 29.6009 67.5182 29.5895ZM67.8323 30.9876L67.7832 30.5731C67.8797 30.5992 67.9639 30.6123 68.0359 30.6123C68.134 30.6123 68.2125 30.596 68.2713 30.5633C68.3302 30.5306 68.3785 30.4848 68.4161 30.4259C68.4439 30.3817 68.4888 30.2722 68.551 30.0972C68.5592 30.0727 68.5722 30.0367 68.5902 29.9893L67.6017 27.3794H68.0776L68.6197 28.8879C68.69 29.0793 68.7529 29.2804 68.8085 29.4913C68.8592 29.2886 68.9197 29.0907 68.99 28.8977L69.5469 27.3794H69.9884L68.9974 30.0285C68.8911 30.3147 68.8085 30.5117 68.7497 30.6197C68.6712 30.7652 68.5812 30.8715 68.4798 30.9386C68.3785 31.0072 68.2574 31.0416 68.1168 31.0416C68.0318 31.0416 67.9369 31.0236 67.8323 30.9876Z" fill="#2A2F30"/>
<g clip-path="url(#clip3_17451_72134)">
<rect x="283.469" y="27.0859" width="43.0588" height="1.79412" rx="0.897059" fill="#CDE1DC"/>
<rect x="283.469" y="27.0859" width="10.7647" height="1.79412" rx="0.897059" fill="#17997B"/>
</g>
<path d="M331.214 29.0271V29.4844H329.488C329.506 29.3115 329.563 29.148 329.656 28.9938C329.749 28.8384 329.934 28.6329 330.21 28.3771C330.432 28.1703 330.568 28.0302 330.618 27.9566C330.686 27.855 330.719 27.7545 330.719 27.6552C330.719 27.5454 330.69 27.4613 330.63 27.4029C330.572 27.3433 330.491 27.3136 330.387 27.3136C330.284 27.3136 330.202 27.3445 330.141 27.4064C330.081 27.4683 330.046 27.5711 330.036 27.7148L329.546 27.6657C329.575 27.3947 329.667 27.2003 329.821 27.0823C329.975 26.9643 330.168 26.9053 330.399 26.9053C330.652 26.9053 330.851 26.9737 330.996 27.1103C331.141 27.247 331.214 27.4169 331.214 27.6202C331.214 27.7358 331.193 27.8462 331.151 27.9513C331.11 28.0553 331.044 28.1645 330.954 28.279C330.895 28.3549 330.787 28.4641 330.632 28.6066C330.477 28.7491 330.378 28.8437 330.336 28.8904C330.295 28.9371 330.262 28.9827 330.236 29.0271H331.214ZM331.483 28.8238L331.974 28.773C331.988 28.884 332.03 28.9722 332.098 29.0376C332.167 29.1018 332.247 29.134 332.337 29.134C332.44 29.134 332.527 29.0925 332.598 29.0096C332.669 28.9255 332.705 28.7993 332.705 28.6311C332.705 28.4734 332.669 28.3555 332.598 28.2772C332.528 28.1978 332.436 28.1581 332.323 28.1581C332.181 28.1581 332.055 28.2205 331.943 28.3455L331.543 28.2877L331.795 26.9509H333.097V27.4117H332.169L332.091 27.8479C332.201 27.793 332.313 27.7656 332.428 27.7656C332.646 27.7656 332.831 27.845 332.983 28.0039C333.135 28.1627 333.211 28.3689 333.211 28.6224C333.211 28.8338 333.15 29.0224 333.027 29.1883C332.86 29.4149 332.628 29.5282 332.331 29.5282C332.094 29.5282 331.901 29.4645 331.752 29.3372C331.602 29.2099 331.513 29.0388 331.483 28.8238ZM333.406 27.5501C333.406 27.32 333.456 27.1495 333.556 27.0385C333.658 26.9275 333.795 26.872 333.968 26.872C334.147 26.872 334.286 26.9275 334.387 27.0385C334.488 27.1483 334.539 27.3188 334.539 27.5501C334.539 27.7802 334.488 27.9507 334.387 28.0617C334.286 28.1727 334.15 28.2281 333.977 28.2281C333.798 28.2281 333.658 28.1732 333.556 28.0634C333.456 27.9525 333.406 27.7814 333.406 27.5501ZM333.789 27.5466C333.789 27.7136 333.809 27.8258 333.847 27.883C333.876 27.925 333.917 27.9461 333.968 27.9461C334.021 27.9461 334.061 27.925 334.091 27.883C334.128 27.8258 334.147 27.7136 334.147 27.5466C334.147 27.3796 334.128 27.268 334.091 27.2119C334.061 27.1687 334.021 27.1471 333.968 27.1471C333.917 27.1471 333.876 27.1681 333.847 27.2102C333.809 27.2674 333.789 27.3796 333.789 27.5466ZM334.343 29.5825H333.978L335.347 26.872H335.701L334.343 29.5825ZM335.138 28.9079C335.138 28.6778 335.189 28.5073 335.289 28.3963C335.391 28.2854 335.529 28.2299 335.704 28.2299C335.881 28.2299 336.019 28.2854 336.12 28.3963C336.221 28.5073 336.272 28.6778 336.272 28.9079C336.272 29.1392 336.221 29.3103 336.12 29.4213C336.019 29.5323 335.882 29.5877 335.71 29.5877C335.531 29.5877 335.391 29.5323 335.289 29.4213C335.189 29.3103 335.138 29.1392 335.138 28.9079ZM335.522 28.9062C335.522 29.0732 335.541 29.1848 335.58 29.2408C335.609 29.2841 335.649 29.3057 335.701 29.3057C335.753 29.3057 335.794 29.2846 335.822 29.2426C335.86 29.1854 335.879 29.0732 335.879 28.9062C335.879 28.7392 335.861 28.627 335.823 28.5698C335.794 28.5277 335.753 28.5067 335.701 28.5067C335.648 28.5067 335.608 28.5277 335.58 28.5698C335.541 28.627 335.522 28.7392 335.522 28.9062Z" fill="#17997B"/>
<path d="M366.377 29.56V29.9844H364C363.996 29.8781 364.014 29.7759 364.051 29.6778C364.112 29.5159 364.208 29.3564 364.341 29.1994C364.475 29.0425 364.668 28.8609 364.92 28.6549C365.31 28.3344 365.574 28.0809 365.712 27.8945C365.849 27.7065 365.918 27.529 365.918 27.3622C365.918 27.1873 365.855 27.0401 365.729 26.9207C365.605 26.7997 365.442 26.7392 365.241 26.7392C365.028 26.7392 364.858 26.803 364.731 26.9305C364.603 27.0581 364.539 27.2347 364.537 27.4603L364.083 27.4137C364.114 27.0752 364.231 26.8177 364.434 26.6411C364.637 26.4628 364.909 26.3737 365.251 26.3737C365.596 26.3737 365.869 26.4694 366.07 26.6607C366.271 26.852 366.372 27.0891 366.372 27.372C366.372 27.5159 366.342 27.6574 366.283 27.7964C366.225 27.9354 366.126 28.0817 365.989 28.2355C365.853 28.3892 365.627 28.6001 365.31 28.8683C365.045 29.0907 364.875 29.242 364.799 29.3221C364.724 29.4006 364.662 29.4799 364.613 29.56H366.377ZM369.862 29.9844V29.6557C369.697 29.9141 369.454 30.0432 369.134 30.0432C368.926 30.0432 368.735 29.986 368.56 29.8715C368.387 29.7571 368.252 29.5976 368.155 29.3932C368.06 29.1872 368.013 28.9509 368.013 28.6843C368.013 28.4243 368.056 28.1889 368.143 27.9779C368.23 27.7653 368.36 27.6026 368.533 27.4898C368.706 27.3769 368.9 27.3205 369.114 27.3205C369.271 27.3205 369.411 27.3541 369.534 27.4211C369.656 27.4865 369.756 27.5724 369.833 27.6787V26.3884H370.272V29.9844H369.862ZM368.467 28.6843C368.467 29.0179 368.537 29.2673 368.678 29.4325C368.818 29.5976 368.984 29.6802 369.176 29.6802C369.369 29.6802 369.532 29.6017 369.666 29.4447C369.802 29.2861 369.87 29.0449 369.87 28.7211C369.87 28.3646 369.801 28.103 369.664 27.9362C369.526 27.7694 369.357 27.686 369.156 27.686C368.96 27.686 368.795 27.7661 368.663 27.9264C368.532 28.0867 368.467 28.3393 368.467 28.6843ZM372.568 29.663C372.404 29.802 372.247 29.9002 372.095 29.9574C371.944 30.0146 371.782 30.0432 371.609 30.0432C371.323 30.0432 371.103 29.9737 370.949 29.8347C370.795 29.6941 370.719 29.5151 370.719 29.2976C370.719 29.17 370.747 29.0539 370.804 28.9493C370.863 28.843 370.939 28.7579 371.032 28.6942C371.127 28.6304 371.234 28.5821 371.351 28.5494C371.438 28.5265 371.569 28.5045 371.744 28.4832C372.1 28.4407 372.363 28.39 372.531 28.3311C372.533 28.2706 372.534 28.2322 372.534 28.2158C372.534 28.036 372.492 27.9092 372.409 27.8356C372.296 27.7359 372.128 27.686 371.906 27.686C371.698 27.686 371.544 27.7228 371.445 27.7964C371.346 27.8683 371.274 27.9967 371.226 28.1815L370.795 28.1226C370.834 27.9378 370.898 27.789 370.988 27.6762C371.078 27.5617 371.208 27.4742 371.378 27.4137C371.548 27.3516 371.745 27.3205 371.969 27.3205C372.192 27.3205 372.373 27.3467 372.512 27.399C372.651 27.4514 372.753 27.5176 372.818 27.5977C372.884 27.6762 372.929 27.776 372.956 27.897C372.97 27.9722 372.978 28.1079 372.978 28.3041V28.8928C372.978 29.3033 372.987 29.5633 373.005 29.6729C373.024 29.7808 373.062 29.8846 373.117 29.9844H372.656C372.611 29.8928 372.581 29.7857 372.568 29.663ZM372.531 28.677C372.371 28.7424 372.131 28.798 371.81 28.8438C371.629 28.8699 371.5 28.8994 371.425 28.9321C371.35 28.9648 371.292 29.013 371.251 29.0768C371.21 29.1389 371.189 29.2084 371.189 29.2853C371.189 29.403 371.234 29.5012 371.322 29.5796C371.412 29.6581 371.543 29.6974 371.714 29.6974C371.884 29.6974 372.036 29.6606 372.168 29.587C372.301 29.5118 372.398 29.4096 372.46 29.2804C372.507 29.1806 372.531 29.0335 372.531 28.8389V28.677ZM373.544 30.9876L373.495 30.5731C373.592 30.5992 373.676 30.6123 373.748 30.6123C373.846 30.6123 373.925 30.596 373.983 30.5633C374.042 30.5306 374.091 30.4848 374.128 30.4259C374.156 30.3817 374.201 30.2722 374.263 30.0972C374.271 30.0727 374.284 30.0367 374.302 29.9893L373.314 27.3794H373.79L374.332 28.8879C374.402 29.0793 374.465 29.2804 374.521 29.4913C374.571 29.2886 374.632 29.0907 374.702 28.8977L375.259 27.3794H375.7L374.709 30.0285C374.603 30.3147 374.521 30.5117 374.462 30.6197C374.383 30.7652 374.293 30.8715 374.192 30.9386C374.091 31.0072 373.97 31.0416 373.829 31.0416C373.744 31.0416 373.649 31.0236 373.544 30.9876ZM375.799 29.2068L376.235 29.1381C376.26 29.3131 376.328 29.4472 376.439 29.5404C376.552 29.6336 376.709 29.6802 376.91 29.6802C377.113 29.6802 377.263 29.6393 377.361 29.5576C377.459 29.4742 377.508 29.3769 377.508 29.2657C377.508 29.1659 377.465 29.0874 377.378 29.0302C377.318 28.991 377.167 28.9411 376.927 28.8806C376.603 28.7988 376.378 28.7285 376.252 28.6696C376.128 28.6091 376.033 28.5265 375.968 28.4219C375.904 28.3156 375.872 28.1987 375.872 28.0711C375.872 27.955 375.898 27.8479 375.951 27.7498C376.005 27.65 376.077 27.5675 376.169 27.502C376.238 27.4514 376.331 27.4088 376.449 27.3745C376.568 27.3385 376.696 27.3205 376.831 27.3205C377.036 27.3205 377.215 27.35 377.369 27.4088C377.524 27.4677 377.638 27.5478 377.712 27.6492C377.785 27.749 377.836 27.8831 377.864 28.0515L377.432 28.1104C377.413 27.9763 377.355 27.8716 377.261 27.7964C377.167 27.7212 377.035 27.6836 376.863 27.6836C376.66 27.6836 376.516 27.7171 376.429 27.7841C376.342 27.8512 376.299 27.9297 376.299 28.0196C376.299 28.0768 376.317 28.1284 376.353 28.1741C376.389 28.2216 376.445 28.2608 376.522 28.2919C376.566 28.3082 376.696 28.3458 376.912 28.4047C377.225 28.4881 377.442 28.5568 377.565 28.6108C377.689 28.6631 377.786 28.7399 377.857 28.8413C377.927 28.9427 377.962 29.0686 377.962 29.2191C377.962 29.3662 377.919 29.5052 377.832 29.6361C377.747 29.7652 377.624 29.8658 377.462 29.9378C377.3 30.0081 377.117 30.0432 376.912 30.0432C376.574 30.0432 376.315 29.9729 376.137 29.8323C375.961 29.6917 375.848 29.4832 375.799 29.2068ZM381.384 29.663C381.221 29.802 381.063 29.9002 380.911 29.9574C380.76 30.0146 380.598 30.0432 380.425 30.0432C380.139 30.0432 379.919 29.9737 379.765 29.8347C379.611 29.6941 379.535 29.5151 379.535 29.2976C379.535 29.17 379.563 29.0539 379.62 28.9493C379.679 28.843 379.755 28.7579 379.849 28.6942C379.943 28.6304 380.05 28.5821 380.167 28.5494C380.254 28.5265 380.385 28.5045 380.56 28.4832C380.916 28.4407 381.179 28.39 381.347 28.3311C381.349 28.2706 381.35 28.2322 381.35 28.2158C381.35 28.036 381.308 27.9092 381.225 27.8356C381.112 27.7359 380.944 27.686 380.722 27.686C380.514 27.686 380.36 27.7228 380.261 27.7964C380.163 27.8683 380.09 27.9967 380.042 28.1815L379.611 28.1226C379.65 27.9378 379.714 27.789 379.804 27.6762C379.894 27.5617 380.024 27.4742 380.194 27.4137C380.365 27.3516 380.562 27.3205 380.786 27.3205C381.008 27.3205 381.189 27.3467 381.328 27.399C381.467 27.4514 381.569 27.5176 381.634 27.5977C381.7 27.6762 381.745 27.776 381.772 27.897C381.786 27.9722 381.794 28.1079 381.794 28.3041V28.8928C381.794 29.3033 381.803 29.5633 381.821 29.6729C381.84 29.7808 381.878 29.8846 381.934 29.9844H381.472C381.427 29.8928 381.397 29.7857 381.384 29.663ZM381.347 28.677C381.187 28.7424 380.947 28.798 380.626 28.8438C380.445 28.8699 380.316 28.8994 380.241 28.9321C380.166 28.9648 380.108 29.013 380.067 29.0768C380.026 29.1389 380.006 29.2084 380.006 29.2853C380.006 29.403 380.05 29.5012 380.138 29.5796C380.228 29.6581 380.359 29.6974 380.53 29.6974C380.701 29.6974 380.852 29.6606 380.984 29.587C381.117 29.5118 381.214 29.4096 381.276 29.2804C381.324 29.1806 381.347 29.0335 381.347 28.8389V28.677ZM382.299 30.2002L382.728 30.264C382.746 30.3965 382.796 30.4929 382.878 30.5534C382.988 30.6352 383.137 30.6761 383.327 30.6761C383.531 30.6761 383.689 30.6352 383.8 30.5534C383.911 30.4717 383.987 30.3572 384.026 30.21C384.049 30.1201 384.059 29.9312 384.058 29.6434C383.865 29.8707 383.624 29.9844 383.337 29.9844C382.979 29.9844 382.701 29.8552 382.505 29.5968C382.309 29.3384 382.211 29.0286 382.211 28.6672C382.211 28.4186 382.256 28.1897 382.346 27.9804C382.436 27.7694 382.566 27.6067 382.736 27.4922C382.907 27.3778 383.109 27.3205 383.339 27.3205C383.647 27.3205 383.9 27.4448 384.1 27.6934V27.3794H384.507V29.6312C384.507 30.0367 384.465 30.3237 384.382 30.4921C384.3 30.6622 384.169 30.7963 383.989 30.8944C383.811 30.9925 383.591 31.0416 383.329 31.0416C383.019 31.0416 382.768 30.9713 382.576 30.8306C382.385 30.6916 382.293 30.4815 382.299 30.2002ZM382.665 28.6353C382.665 28.9771 382.732 29.2264 382.868 29.3834C383.004 29.5404 383.174 29.6189 383.378 29.6189C383.581 29.6189 383.751 29.5412 383.889 29.3859C384.026 29.2289 384.095 28.9836 384.095 28.65C384.095 28.3311 384.024 28.0907 383.881 27.9288C383.741 27.767 383.571 27.686 383.371 27.686C383.175 27.686 383.008 27.7661 382.871 27.9264C382.733 28.085 382.665 28.3213 382.665 28.6353ZM384.912 28.6819C384.912 28.1995 385.046 27.8422 385.314 27.61C385.538 27.417 385.811 27.3205 386.133 27.3205C386.491 27.3205 386.784 27.4383 387.011 27.6737C387.239 27.9076 387.352 28.2314 387.352 28.6451C387.352 28.9803 387.301 29.2444 387.2 29.4374C387.1 29.6287 386.954 29.7775 386.761 29.8838C386.57 29.9901 386.36 30.0432 386.133 30.0432C385.768 30.0432 385.473 29.9263 385.248 29.6925C385.024 29.4586 384.912 29.1218 384.912 28.6819ZM385.365 28.6819C385.365 29.0155 385.438 29.2657 385.584 29.4325C385.729 29.5976 385.912 29.6802 386.133 29.6802C386.352 29.6802 386.535 29.5968 386.68 29.43C386.826 29.2632 386.898 29.0089 386.898 28.6672C386.898 28.345 386.825 28.1014 386.678 27.9362C386.532 27.7694 386.351 27.686 386.133 27.686C385.912 27.686 385.729 27.7686 385.584 27.9338C385.438 28.0989 385.365 28.3483 385.365 28.6819Z" fill="#68797E"/>
<g filter="url(#filter0_d_17451_72134)">
<rect x="416.773" y="23.8591" width="28.3471" height="8.25294" rx="4.12647" stroke="#17997B" stroke-width="0.358824" shape-rendering="crispEdges"/>
<path d="M423.333 29.9844V26.3884H424.689C424.928 26.3884 425.11 26.3999 425.236 26.4228C425.413 26.4522 425.561 26.5086 425.68 26.592C425.8 26.6738 425.895 26.7891 425.967 26.9379C426.041 27.0867 426.078 27.2502 426.078 27.4285C426.078 27.7343 425.98 27.9934 425.786 28.206C425.591 28.417 425.24 28.5224 424.731 28.5224H423.809V29.9844H423.333ZM423.809 28.0981H424.738C425.046 28.0981 425.264 28.0409 425.393 27.9264C425.522 27.8119 425.587 27.6509 425.587 27.4432C425.587 27.2927 425.549 27.1644 425.472 27.0581C425.397 26.9501 425.297 26.879 425.173 26.8447C425.092 26.8234 424.944 26.8128 424.729 26.8128H423.809V28.0981ZM428.234 29.9844V29.6017C428.031 29.8961 427.756 30.0432 427.407 30.0432C427.254 30.0432 427.11 30.0138 426.976 29.9549C426.843 29.8961 426.744 29.8225 426.679 29.7342C426.615 29.6442 426.57 29.5347 426.544 29.4055C426.526 29.3188 426.517 29.1815 426.517 28.9934V27.3794H426.958V28.8242C426.958 29.0547 426.967 29.2101 426.985 29.2902C427.013 29.4063 427.072 29.4979 427.162 29.5649C427.252 29.6303 427.363 29.663 427.496 29.663C427.628 29.663 427.752 29.6295 427.868 29.5625C427.984 29.4938 428.066 29.4014 428.114 29.2853C428.163 29.1676 428.187 28.9975 428.187 28.7751V27.3794H428.629V29.9844H428.234ZM429.63 29.9844H429.22V26.3884H429.662V27.6713C429.848 27.4375 430.086 27.3205 430.375 27.3205C430.536 27.3205 430.687 27.3532 430.829 27.4186C430.973 27.4824 431.091 27.5732 431.182 27.6909C431.276 27.807 431.348 27.9477 431.401 28.1128C431.453 28.278 431.479 28.4546 431.479 28.6426C431.479 29.0891 431.369 29.4341 431.148 29.6778C430.927 29.9214 430.662 30.0432 430.353 30.0432C430.046 30.0432 429.805 29.9149 429.63 29.6581V29.9844ZM429.625 28.6623C429.625 28.9746 429.667 29.2003 429.752 29.3393C429.891 29.5666 430.079 29.6802 430.316 29.6802C430.509 29.6802 430.676 29.5968 430.817 29.43C430.957 29.2616 431.028 29.0114 431.028 28.6794C431.028 28.3393 430.96 28.0883 430.824 27.9264C430.69 27.7645 430.527 27.6836 430.336 27.6836C430.143 27.6836 429.976 27.7678 429.836 27.9362C429.695 28.103 429.625 28.345 429.625 28.6623ZM431.908 29.9844V26.3884H432.35V29.9844H431.908ZM432.939 26.8962V26.3884H433.38V26.8962H432.939ZM432.939 29.9844V27.3794H433.38V29.9844H432.939ZM433.778 29.2068L434.214 29.1381C434.239 29.3131 434.307 29.4472 434.418 29.5404C434.531 29.6336 434.688 29.6802 434.889 29.6802C435.092 29.6802 435.242 29.6393 435.34 29.5576C435.438 29.4742 435.487 29.3769 435.487 29.2657C435.487 29.1659 435.444 29.0874 435.357 29.0302C435.297 28.991 435.147 28.9411 434.906 28.8806C434.582 28.7988 434.357 28.7285 434.232 28.6696C434.107 28.6091 434.012 28.5265 433.947 28.4219C433.883 28.3156 433.851 28.1987 433.851 28.0711C433.851 27.955 433.878 27.8479 433.93 27.7498C433.984 27.65 434.057 27.5675 434.148 27.502C434.217 27.4514 434.31 27.4088 434.428 27.3745C434.547 27.3385 434.675 27.3205 434.81 27.3205C435.015 27.3205 435.194 27.35 435.348 27.4088C435.503 27.4677 435.617 27.5478 435.691 27.6492C435.765 27.749 435.815 27.8831 435.843 28.0515L435.411 28.1104C435.392 27.9763 435.335 27.8716 435.24 27.7964C435.147 27.7212 435.014 27.6836 434.842 27.6836C434.64 27.6836 434.495 27.7171 434.408 27.7841C434.322 27.8512 434.278 27.9297 434.278 28.0196C434.278 28.0768 434.296 28.1284 434.332 28.1741C434.368 28.2216 434.425 28.2608 434.501 28.2919C434.546 28.3082 434.676 28.3458 434.891 28.4047C435.204 28.4881 435.421 28.5568 435.544 28.6108C435.668 28.6631 435.765 28.7399 435.836 28.8413C435.906 28.9427 435.941 29.0686 435.941 29.2191C435.941 29.3662 435.898 29.5052 435.811 29.6361C435.726 29.7652 435.603 29.8658 435.441 29.9378C435.279 30.0081 435.096 30.0432 434.891 30.0432C434.553 30.0432 434.295 29.9729 434.116 29.8323C433.94 29.6917 433.827 29.4832 433.778 29.2068ZM436.366 29.9844V26.3884H436.807V27.6787C437.013 27.4399 437.273 27.3205 437.587 27.3205C437.78 27.3205 437.948 27.359 438.09 27.4358C438.232 27.511 438.334 27.6157 438.394 27.7498C438.456 27.8839 438.487 28.0785 438.487 28.3336V29.9844H438.046V28.3336C438.046 28.1128 437.998 27.9526 437.901 27.8528C437.806 27.7514 437.671 27.7007 437.496 27.7007C437.366 27.7007 437.242 27.7351 437.126 27.8038C437.012 27.8708 436.93 27.9624 436.881 28.0785C436.832 28.1946 436.807 28.3548 436.807 28.5592V29.9844H436.366Z" fill="#17997B"/>
</g>
<g clip-path="url(#clip4_17451_72134)">
<path d="M476.757 30.4941H476.877V30.3745V25.5902V25.4706H476.757H471.973H471.853V25.5902V30.3745V30.4941H471.973H476.757ZM471.674 25.1118H477.056C477.104 25.1118 477.15 25.1307 477.183 25.1643C477.217 25.198 477.236 25.2436 477.236 25.2912V30.6736C477.236 30.7211 477.217 30.7668 477.183 30.8004C477.15 30.8341 477.104 30.853 477.056 30.853H471.674C471.626 30.853 471.581 30.8341 471.547 30.8004C471.514 30.7668 471.495 30.7211 471.495 30.6736V25.2912C471.495 25.2436 471.514 25.198 471.547 25.1643C471.581 25.1307 471.626 25.1118 471.674 25.1118Z" fill="#D5DCDE" stroke="#D5DCDE" stroke-width="0.239216"/>
</g>
<g filter="url(#filter1_f_17451_72134)">
<rect x="6.46094" y="22.9609" width="71.4059" height="12.2" fill="white" fill-opacity="0.83"/>
</g>
<rect x="266.5" y="1.5" width="84" height="40" stroke="#06DBE4"/>
<defs>
<filter id="filter0_d_17451_72134" x="409.417" y="17.2209" width="43.06" height="22.9623" filterUnits="userSpaceOnUse" color-interpolation-filters="sRGB">
<feFlood flood-opacity="0" result="BackgroundImageFix"/>
<feColorMatrix in="SourceAlpha" type="matrix" values="0 0 0 0 0 0 0 0 0 0 0 0 0 0 0 0 0 0 127 0" result="hardAlpha"/>
<feMorphology radius="3.58824" operator="dilate" in="SourceAlpha" result="effect1_dropShadow_17451_72134"/>
<feOffset dy="0.717647"/>
<feGaussianBlur stdDeviation="1.79412"/>
<feComposite in2="hardAlpha" operator="out"/>
<feColorMatrix type="matrix" values="0 0 0 0 0 0 0 0 0 0 0 0 0 0 0 0 0 0 0.05 0"/>
<feBlend mode="normal" in2="BackgroundImageFix" result="effect1_dropShadow_17451_72134"/>
<feBlend mode="normal" in="SourceGraphic" in2="effect1_dropShadow_17451_72134" result="shape"/>
</filter>
<filter id="filter1_f_17451_72134" x="1.79623" y="18.2962" width="80.7357" height="21.5325" filterUnits="userSpaceOnUse" color-interpolation-filters="sRGB">
<feFlood flood-opacity="0" result="BackgroundImageFix"/>
<feBlend mode="normal" in="SourceGraphic" in2="BackgroundImageFix" result="shape"/>
<feGaussianBlur stdDeviation="2.33235" result="effect1_foregroundBlur_17451_72134"/>
</filter>
<clipPath id="clip0_17451_72134">
<rect width="5.74118" height="5.94882" fill="white" transform="matrix(0 -1 1 0 8.61719 11.125)"/>
</clipPath>
<clipPath id="clip1_17451_72134">
<rect width="5.74118" height="5.94882" fill="white" transform="matrix(0 1 -1 0 362.984 5.38281)"/>
</clipPath>
<clipPath id="clip2_17451_72134">
<rect width="7.17647" height="7.17647" fill="white" transform="translate(469.34 4.66406)"/>
</clipPath>
<clipPath id="clip3_17451_72134">
<rect x="283.469" y="27.0859" width="43.0588" height="1.79412" rx="0.897059" fill="white"/>
</clipPath>
<clipPath id="clip4_17451_72134">
<rect width="7.17647" height="7.17647" fill="white" transform="translate(470.777 24.3984)"/>
</clipPath>
</defs>
</svg>
