<svg viewBox="0 0 24 24" fill="none" xmlns="http://www.w3.org/2000/svg">
<rect x="1.1875" y="1.25" width="21.625" height="21.6242" rx="1.72596" stroke="currentColor" stroke-width="2"/>
<path d="M13.5001 9.8385C13.7259 9.83908 13.9511 9.85892 14.1735 9.89779C14.2105 10.1149 14.2294 10.3347 14.23 10.555C14.2289 10.7808 14.2079 11.006 14.1673 11.2279L12.8292 9.90083C13.0505 9.86044 13.275 9.83956 13.5001 9.8385ZM9.75149 9.82508C8.78084 10.8058 8.23292 12.1267 8.22338 13.505C7.83908 13.2107 7.51539 12.8438 7.27097 12.4246C6.99621 11.9534 6.82835 11.4276 6.77926 10.8843C6.73017 10.341 6.80105 9.7936 6.98688 9.28075C7.17271 8.76791 7.46896 8.30215 7.85467 7.91644C8.24039 7.53073 8.70614 7.23448 9.21899 7.04865C9.73184 6.86281 10.2793 6.79194 10.8225 6.84103C11.3658 6.89012 11.8916 7.05798 12.3629 7.33274C12.7725 7.57158 13.1321 7.88612 13.423 8.25895C12.0421 8.28079 10.7239 8.84258 9.75149 9.82508ZM9.80591 12.8633L11.1385 14.1959C10.9168 14.2364 10.6918 14.2573 10.4662 14.2584L10.4662 14.2584L10.4639 14.2584C10.2435 14.264 10.023 14.2512 9.80472 14.2201C9.76451 13.9941 9.74399 13.7649 9.7434 13.5352C9.74446 13.3097 9.7654 13.0849 9.80591 12.8633ZM14.2269 14.2868C15.2044 13.3105 15.7602 11.9907 15.7764 10.6105C16.349 11.0509 16.7824 11.6494 17.0215 12.3342C17.2841 13.086 17.2987 13.9021 17.0632 14.6627C16.8278 15.4233 16.3547 16.0885 15.7134 16.5604C15.0721 17.0324 14.2965 17.2864 13.5002 17.2851C12.8941 17.2839 12.2974 17.1354 11.7615 16.8522C11.2883 16.6022 10.8752 16.2539 10.5492 15.8315C11.9292 15.817 13.2495 15.2629 14.2269 14.2868ZM15.4184 8.64344C15.1021 7.84207 14.5941 7.1302 13.9386 6.5704C13.2707 6.00002 12.4708 5.60562 11.6117 5.42304C10.7526 5.24046 9.86147 5.2755 9.01933 5.52496C8.1772 5.77443 7.41077 6.23042 6.78971 6.85148C6.16865 7.47254 5.71266 8.23897 5.4632 9.0811C5.21373 9.92324 5.17869 10.8144 5.36127 11.6735C5.54385 12.5326 5.93826 13.3325 6.50864 14.0004C7.06843 14.6559 7.7803 15.1639 8.58167 15.4801C8.89791 16.2815 9.4059 16.9934 10.0614 17.5532C10.7293 18.1235 11.5292 18.5179 12.3883 18.7005C13.2474 18.8831 14.1386 18.8481 14.9807 18.5986C15.8228 18.3491 16.5893 17.8931 17.2103 17.2721C17.8314 16.651 18.2874 15.8846 18.5368 15.0425C18.7863 14.2003 18.8213 13.3092 18.6387 12.4501C18.4562 11.5909 18.0618 10.7911 17.4914 10.1232C16.9316 9.46767 16.2197 8.95968 15.4184 8.64344ZM13.496 12.7401C13.2657 13.0519 12.9901 13.3275 12.6783 13.5578L10.504 11.3835C10.7343 11.0717 11.0099 10.7961 11.3217 10.5658L13.496 12.7401Z" fill="currentColor" stroke="currentColor" stroke-width="0.220107"/>
</svg>
