<svg width="52" height="52" fill="none" xmlns="http://www.w3.org/2000/svg"><circle cx="26" cy="26" r="25.25" stroke="currentColor" stroke-width="1.5"/><path d="M37.4 37.82c-.051-.609-.05-5.383-.036-8.318a.6.6 0 0 0-.598-.604h-.003a.6.6 0 0 0-.6.598c0 .022-.01 2.12-.01 4.204.002 2.112.004 3.224.029 3.834l-9.849 2.963a.597.597 0 0 0 .054-.248v-7.897a.6.6 0 1 0-1.202 0v7.897c0 .055.009.108.022.159l-9.56-2.908-.008-7.9a.6.6 0 0 0-.6-.601h-.001a.6.6 0 0 0-.6.6l.007 8.347a.6.6 0 0 0 .425.574l10.868 3.304a.592.592 0 0 0 .348 0l10.903-3.28a.6.6 0 0 0 .41-.724Zm-.472-.44Z" fill="currentColor" stroke="#18ACB2" stroke-width=".3"/><path d="m40.04 23.746-3.365-1.902-.013-.006a12.004 12.004 0 0 0-2.331-3.259.6.6 0 1 0-.847.852 10.778 10.778 0 0 1 2.624 4.217l-1.582.433c-1.258-3.633-4.733-6.132-8.613-6.132-1.608 0-3.189.425-4.572 1.228a.601.601 0 0 0 .603 1.039 7.908 7.908 0 0 1 3.969-1.066 7.95 7.95 0 0 1 7.45 5.25l-1.583.433a6.312 6.312 0 0 0-5.867-4.047 6.295 6.295 0 0 0-5.879 4.075l-1.586-.425a7.94 7.94 0 0 1 1.871-2.97.6.6 0 1 0-.85-.849 9.148 9.148 0 0 0-2.184 3.506l-1.583-.425c.102-.31.218-.613.346-.909.1-.102.161-.236.172-.376a10.776 10.776 0 0 1 9.693-6.1c1.89 0 3.749.497 5.375 1.439a.601.601 0 0 0 .602-1.04 11.949 11.949 0 0 0-5.977-1.6 11.98 11.98 0 0 0-10.814 6.86l-3.139 1.774a.6.6 0 0 0 .358 1.12l1.32-.136-1.473 1.87a.599.599 0 0 0 .301.947l11.361 3.378a.601.601 0 0 0 .691-.274l1.409-2.418 1.31 2.177a.6.6 0 0 0 .673.27l11.447-3.129a.602.602 0 0 0 .313-.951l-1.487-1.889 1.499.156a.6.6 0 0 0 .358-1.12Zm-14.127-1.758a5.104 5.104 0 0 1 4.702 3.165l-4.703 1.288-4.71-1.265a5.09 5.09 0 0 1 4.711-3.188Zm-2.196 7.652-10.061-2.992 1.46-1.855L25 27.439l-1.282 2.201Zm4.315-.24-1.184-1.964 9.87-2.643 1.448 1.838-10.134 2.77ZM21.585 13.43a.601.601 0 0 0 1.155-.33l-.8-2.803a.601.601 0 0 0-1.156.33l.801 2.804ZM29.34 13.909a.601.601 0 0 0 .742-.412l.8-2.804a.6.6 0 1 0-1.155-.33l-.8 2.804a.6.6 0 0 0 .412.742ZM35.91 17.586a.601.601 0 0 0 .42-.17l2.053-2.003a.6.6 0 1 0-.839-.86l-2.052 2.002a.6.6 0 0 0 .419 1.03ZM15.37 17.365a.602.602 0 0 0 .84-.86l-2.003-1.952a.6.6 0 1 0-.838.86l2.001 1.952Z" fill="currentColor" stroke="#18ACB2" stroke-width=".3"/></svg>
