<svg xmlns="http://www.w3.org/2000/svg" fill="none" viewBox="0 0 12 14"><path fill="currentColor" stroke="currentColor" d="M8.167 3v.5h3.166a.167.167 0 0 1 0 .333h-1.166v7.833a1.5 1.5 0 0 1-1.5 1.5H3.333a1.5 1.5 0 0 1-1.06-.439l-.354.354.354-.354a1.5 1.5 0 0 1-.44-1.06V3.832H.667a.167.167 0 1 1 0-.333h3.166V2.333a1.5 1.5 0 0 1 1.5-1.5h1.334a1.5 1.5 0 0 1 1.5 1.5V3Zm-.834.5h.5V2.333a1.167 1.167 0 0 0-1.166-1.167H5.333a1.167 1.167 0 0 0-1.166 1.167V3.5h3.166Zm-4.666.333h-.5v7.833a1.167 1.167 0 0 0 1.166 1.167h5.334a1.167 1.167 0 0 0 1.166-1.167V3.833H2.667Zm2.118 6.618a.167.167 0 0 1-.285-.118v-4a.167.167 0 1 1 .333 0v4a.167.167 0 0 1-.048.118Zm2.666 0a.167.167 0 0 1-.284-.118v-4a.167.167 0 0 1 .333 0v4a.167.167 0 0 1-.049.118Z"/></svg>

