<svg width="15" height="10" fill="none" xmlns="http://www.w3.org/2000/svg"><path d="M9.956 1.214a.673.673 0 0 0-.984 0l-5.267 5.34-2.178-2.207a.673.673 0 0 0-.983 0 .695.695 0 0 0 0 .997l2.67 2.705c.14.143.28.214.49.214.211 0 .352-.071.492-.214l5.76-5.838a.695.695 0 0 0 0-.997Z" fill="#17997B"/><path d="m13.836.909-.378.373.378-.373a1.206 1.206 0 0 0-1.743 0l.38.375-.38-.375-4.888 4.955-1.797-1.822a1.206 1.206 0 0 0-1.743 0 1.229 1.229 0 0 0 0 1.747l.38-.375-.38.375 2.668 2.706c.102.103.225.202.38.272.16.071.324.1.492.1.169 0 .333-.029.492-.1.156-.07.279-.17.38-.272l5.76-5.84-.38-.374.38.375a1.229 1.229 0 0 0 0-1.747Z" fill="#17997B" stroke="#fff" stroke-width="1.068"/></svg>