<svg viewBox="0 0 14 14" fill="none" xmlns="http://www.w3.org/2000/svg">
  <g clip-path="url(#clip0_5922_4016)">
    <path
      d="M9.84487 3.70561C9.57447 3.43146 9.16886 3.43146 8.89846 3.70561L3.82836 8.84582L1.73272 6.7212C1.46231 6.44705 1.05671 6.44705 0.7863 6.7212C0.515895 6.99534 0.515895 7.40656 0.7863 7.6807L3.35515 10.2851C3.49035 10.4221 3.62555 10.4907 3.82836 10.4907C4.03116 10.4907 4.16636 10.4221 4.30157 10.2851L9.84487 4.66511C10.1153 4.39097 10.1153 3.97975 9.84487 3.70561Z"
      fill="currentColor"/>
    <path
      d="M13.6322 3.36051C13.1318 2.85316 12.3498 2.85316 11.8494 3.36051L7.1975 8.07674L5.52005 6.3761C5.01962 5.86875 4.23768 5.86875 3.73725 6.3761C3.24125 6.87896 3.24125 7.65771 3.73725 8.16057L6.3061 10.7649C6.40803 10.8683 6.53362 10.9698 6.69424 11.0422C6.85765 11.1158 7.02651 11.1455 7.1975 11.1455C7.36849 11.1455 7.53735 11.1158 7.70076 11.0422C7.86138 10.9698 7.98697 10.8683 8.0889 10.7649L13.6322 5.14498C14.1282 4.64212 14.1282 3.86337 13.6322 3.36051Z"
      fill="currentColor" stroke="white" stroke-width="1.17478"/>
  </g>
  <defs>
    <clipPath id="clip0_5922_4016">
      <rect width="14" height="14" fill="white"/>
    </clipPath>
  </defs>
</svg>
