<svg xmlns="http://www.w3.org/2000/svg" fill="none" viewBox="0 0 16 16"><path fill="currentColor" stroke="currentColor" d="m12.796 5.87.023.07a.305.305 0 0 1 .014.054v6.672a1.5 1.5 0 0 1-1.5 1.5H4.667a1.5 1.5 0 0 1-1.5-1.5V3.333a1.5 1.5 0 0 1 1.5-1.5h3.978a.233.233 0 0 1 .033.014l.11.06h.045l3.963 3.962Zm-3.11-2.617-.853-.854v2.267A1.167 1.167 0 0 0 10 5.833h2.267l-.853-.854-1.727-1.726ZM8.5 2.666v-.5H4.667A1.167 1.167 0 0 0 3.5 3.333v9.333a1.167 1.167 0 0 0 1.167 1.167h6.666a1.167 1.167 0 0 0 1.167-1.167v-6.5H10a1.5 1.5 0 0 1-1.5-1.5v-2Zm-.333 7.06v1.237l.86-.89.189-.195a.17.17 0 0 1 .237.242l-1.328 1.328a.167.167 0 0 1-.052.032l-.011.004-.01.005a.127.127 0 0 1-.103 0l-.01-.005-.012-.004a.167.167 0 0 1-.052-.032l-1.328-1.329a.17.17 0 0 1 .237-.241l.19.196.86.889V8a.167.167 0 0 1 .333 0v1.726Z"/></svg>
