<svg xmlns="http://www.w3.org/2000/svg" width="16"  fill="none"><path fill="#155366" stroke="#155366" d="M8.167 9.733v1.208l.853-.854.867-.867A.16.16 0 0 1 10 9.167c.03 0 .07.01.113.053a.16.16 0 0 1 .054.114.16.16 0 0 1-.054.113l-2 2c-.037.037-.054.045-.058.046A.136.136 0 0 1 8 11.5a.136.136 0 0 1-.055-.007c-.004-.001-.021-.01-.058-.046l-2-2a.16.16 0 0 1-.054-.113c0-.03.011-.071.054-.114A.16.16 0 0 1 6 9.167c.03 0 .07.01.113.053l.867.867.853.854V2c0-.086.027-.12.037-.13.01-.01.044-.037.13-.037.086 0 .12.027.13.037.01.01.037.044.037.13v7.733Zm2.5-3.233H12c.857 0 1.5.643 1.5 1.5v4.667c0 .857-.643 1.5-1.5 1.5H4c-.857 0-1.5-.643-1.5-1.5V8c0-.857.643-1.5 1.5-1.5h1.333c.087 0 .12.027.13.037.01.01.037.043.037.13 0 .086-.027.12-.037.13-.01.01-.043.037-.13.037H4c-.314 0-.614.106-.837.33-.223.222-.33.523-.33.836v4.667c0 .313.107.614.33.837.223.223.523.33.837.33h8c.314 0 .614-.107.837-.33.223-.223.33-.524.33-.837V8c0-.313-.107-.614-.33-.837a1.166 1.166 0 0 0-.837-.33h-1.333c-.087 0-.12-.026-.13-.036-.01-.01-.037-.044-.037-.13 0-.087.027-.12.037-.13.01-.01.043-.037.13-.037Z"/></svg>