<svg width="16" height="16" viewBox="0 0 16 16" fill="none" xmlns="http://www.w3.org/2000/svg"><path d="m2.626 13.374.236-.236-.236.236a1 1 0 0 0 .707.293h9.334a1 1 0 0 0 .707-.293l-.236-.236.236.236a1 1 0 0 0 .293-.707V10a.333.333 0 0 1 .569-.236l.235-.235-.235.235a.333.333 0 0 1 .097.236v2.667a1.667 1.667 0 0 1-1.666 1.666H3.333a1.667 1.667 0 0 1-1.666-1.666V10c0-.088.035-.173.097-.236L1.53 9.53l.235.235a.333.333 0 0 1 .472 0l.235-.235-.235.235a.333.333 0 0 1 .097.236v2.667a1 1 0 0 0 .293.707Zm5.255-3.066-.007-.003-.007-.002a.333.333 0 0 1-.108-.068L5.096 7.57a.336.336 0 0 1 .366-.548l.128-.308-.128.308c.04.017.078.041.109.072L7.097 8.63l.57.572V2a.333.333 0 1 1 .666 0v7.201l.57-.572 1.526-1.533a.336.336 0 0 1 .475.475l-2.663 2.664a.333.333 0 0 1-.108.068l-.007.002-.007.003a.292.292 0 0 1-.238 0Z" fill="currentcolor" stroke="currentcolor" stroke-width="0.666667"/></svg>
