<svg width="20" height="20" viewBox="0 0 20 20" fill="none" xmlns="http://www.w3.org/2000/svg">
<path d="M17.5 10C17.279 10 17.067 10.0878 16.9108 10.2441C16.7545 10.4004 16.6667 10.6124 16.6667 10.8334V15.8334C16.6667 16.0544 16.5789 16.2663 16.4226 16.4226C16.2663 16.5789 16.0544 16.6667 15.8334 16.6667H4.16669C3.94567 16.6667 3.73371 16.5789 3.57743 16.4226C3.42115 16.2663 3.33335 16.0544 3.33335 15.8334V4.1667C3.33335 3.94568 3.42115 3.73372 3.57743 3.57744C3.73371 3.42116 3.94567 3.33336 4.16669 3.33336H9.16669C9.3877 3.33336 9.59966 3.24557 9.75594 3.08929C9.91222 2.93301 10 2.72104 10 2.50003C10 2.27902 9.91222 2.06706 9.75594 1.91077C9.59966 1.75449 9.3877 1.6667 9.16669 1.6667H4.16669C3.50365 1.6667 2.86776 1.93009 2.39892 2.39893C1.93008 2.86777 1.66669 3.50366 1.66669 4.1667V15.8334C1.66669 16.4964 1.93008 17.1323 2.39892 17.6011C2.86776 18.07 3.50365 18.3334 4.16669 18.3334H15.8334C16.4964 18.3334 17.1323 18.07 17.6011 17.6011C18.07 17.1323 18.3334 16.4964 18.3334 15.8334V10.8334C18.3334 10.6124 18.2456 10.4004 18.0893 10.2441C17.933 10.0878 17.721 10 17.5 10ZM5.00002 10.6334V14.1667C5.00002 14.3877 5.08782 14.5997 5.2441 14.756C5.40038 14.9122 5.61234 15 5.83335 15H9.36669C9.47636 15.0007 9.58508 14.9796 9.68661 14.9382C9.78814 14.8967 9.88049 14.8356 9.95835 14.7584L15.725 8.98336L18.0917 6.6667C18.1698 6.58923 18.2318 6.49706 18.2741 6.39551C18.3164 6.29396 18.3382 6.18504 18.3382 6.07503C18.3382 5.96502 18.3164 5.8561 18.2741 5.75455C18.2318 5.653 18.1698 5.56083 18.0917 5.48336L14.5584 1.90836C14.4809 1.83026 14.3887 1.76826 14.2872 1.72595C14.1856 1.68365 14.0767 1.66187 13.9667 1.66187C13.8567 1.66187 13.7478 1.68365 13.6462 1.72595C13.5447 1.76826 13.4525 1.83026 13.375 1.90836L11.025 4.2667L5.24169 10.0417C5.16445 10.1196 5.10335 10.2119 5.06188 10.3134C5.02041 10.415 4.99939 10.5237 5.00002 10.6334ZM13.9667 3.67503L16.325 6.03336L15.1417 7.2167L12.7834 4.85836L13.9667 3.67503ZM6.66669 10.975L11.6084 6.03336L13.9667 8.3917L9.02502 13.3334H6.66669V10.975Z" fill="#68797E"/>
</svg>