<svg viewBox="0 0 17 16" fill="none" xmlns="http://www.w3.org/2000/svg">
<path d="M3.71826 11.9996H6.54493C6.63267 12.0001 6.71964 11.9833 6.80087 11.9501C6.88209 11.917 6.95597 11.8681 7.01826 11.8063L11.6316 7.1863L13.5249 5.33297C13.5874 5.27099 13.637 5.19726 13.6709 5.11602C13.7047 5.03478 13.7221 4.94764 13.7221 4.85963C13.7221 4.77163 13.7047 4.68449 13.6709 4.60325C13.637 4.52201 13.5874 4.44828 13.5249 4.3863L10.6983 1.5263C10.6363 1.46381 10.5626 1.41422 10.4813 1.38037C10.4001 1.34653 10.3129 1.3291 10.2249 1.3291C10.1369 1.3291 10.0498 1.34653 9.96854 1.38037C9.8873 1.41422 9.81357 1.46381 9.7516 1.5263L7.87159 3.41297L3.24493 8.03297C3.18314 8.09526 3.13426 8.16914 3.10108 8.25036C3.0679 8.33159 3.05109 8.41856 3.0516 8.5063V11.333C3.0516 11.5098 3.12183 11.6793 3.24686 11.8044C3.37188 11.9294 3.54145 11.9996 3.71826 11.9996ZM10.2249 2.93963L12.1116 4.8263L11.1649 5.77297L9.27826 3.8863L10.2249 2.93963ZM4.38493 8.77963L8.33826 4.8263L10.2249 6.71297L6.2716 10.6663H4.38493V8.77963ZM14.3849 13.333H2.38493C2.20812 13.333 2.03855 13.4032 1.91352 13.5282C1.7885 13.6533 1.71826 13.8228 1.71826 13.9996C1.71826 14.1764 1.7885 14.346 1.91352 14.471C2.03855 14.5961 2.20812 14.6663 2.38493 14.6663H14.3849C14.5617 14.6663 14.7313 14.5961 14.8563 14.471C14.9814 14.346 15.0516 14.1764 15.0516 13.9996C15.0516 13.8228 14.9814 13.6533 14.8563 13.5282C14.7313 13.4032 14.5617 13.333 14.3849 13.333Z" fill="currentColor"/>
</svg>
