<svg width="22" height="23" viewBox="0 0 22 23" fill="none" xmlns="http://www.w3.org/2000/svg">
<path d="M11 2.62646C5.95831 2.62646 1.83331 6.75146 1.83331 11.7931C1.83331 16.8348 5.95831 20.9598 11 20.9598C16.0416 20.9598 20.1666 16.8348 20.1666 11.7931C20.1666 6.75146 16.0416 2.62646 11 2.62646ZM11 16.3765C10.45 16.3765 10.0833 16.0098 10.0833 15.4598C10.0833 14.9098 10.45 14.5431 11 14.5431C11.55 14.5431 11.9166 14.9098 11.9166 15.4598C11.9166 16.0098 11.55 16.3765 11 16.3765ZM11.9166 11.7931C11.9166 12.3431 11.55 12.7098 11 12.7098C10.45 12.7098 10.0833 12.3431 10.0833 11.7931V8.12646C10.0833 7.57646 10.45 7.2098 11 7.2098C11.55 7.2098 11.9166 7.57646 11.9166 8.12646V11.7931Z" fill="#E34D5B"/>
</svg>
