<svg xmlns="http://www.w3.org/2000/svg" width="21" height="20" fill="none"><mask id="a" width="21" height="20" x="0" y="0" maskUnits="userSpaceOnUse" style="mask-type:alpha"><path fill="#D9D9D9" d="M.5 0h20v20H.5z"/></mask><g mask="url(#a)"><path fill="#155366" d="M4.667 17.5c-.459 0-.851-.163-1.177-.49A1.605 1.605 0 0 1 3 15.833V4.167c0-.459.163-.851.49-1.177.326-.327.718-.49 1.177-.49H10.5v1.667H4.667v11.666h11.666V10H18v5.833c0 .459-.163.851-.49 1.177-.326.327-.718.49-1.177.49H4.667Zm3.916-4.417-1.166-1.166 7.75-7.75h-3V2.5H18v5.833h-1.667v-3l-7.75 7.75Z"/></g></svg>