<svg viewBox="0 0 17 16" fill="none" xmlns="http://www.w3.org/2000/svg"><path d="M12.7513 7.21301C12.5634 7.21301 12.3833 7.28325 12.2504 7.40827C12.1176 7.53329 12.043 7.70286 12.043 7.87967V12.6663C12.043 12.8432 11.9683 13.0127 11.8355 13.1377C11.7027 13.2628 11.5225 13.333 11.3346 13.333H3.54297C3.35511 13.333 3.17494 13.2628 3.0421 13.1377C2.90926 13.0127 2.83464 12.8432 2.83464 12.6663V5.33301C2.83464 5.1562 2.90926 4.98663 3.0421 4.8616C3.17494 4.73658 3.35511 4.66634 3.54297 4.66634H8.6288C8.81666 4.66634 8.99683 4.5961 9.12967 4.47108C9.26251 4.34605 9.33714 4.17649 9.33714 3.99967C9.33714 3.82286 9.26251 3.65329 9.12967 3.52827C8.99683 3.40325 8.81666 3.33301 8.6288 3.33301H3.54297C2.97938 3.33301 2.43888 3.54372 2.04037 3.91879C1.64185 4.29387 1.41797 4.80257 1.41797 5.33301V12.6663C1.41797 13.1968 1.64185 13.7055 2.04037 14.0806C2.43888 14.4556 2.97938 14.6663 3.54297 14.6663H11.3346C11.8982 14.6663 12.4387 14.4556 12.8372 14.0806C13.2358 13.7055 13.4596 13.1968 13.4596 12.6663V7.87967C13.4596 7.70286 13.385 7.53329 13.2522 7.40827C13.1193 7.28325 12.9392 7.21301 12.7513 7.21301ZM15.528 1.74634C15.4561 1.58344 15.3185 1.45399 15.1455 1.38634C15.0603 1.35218 14.9689 1.33406 14.8763 1.33301H10.6263C10.4384 1.33301 10.2583 1.40325 10.1254 1.52827C9.9926 1.65329 9.91797 1.82286 9.91797 1.99967C9.91797 2.17649 9.9926 2.34605 10.1254 2.47108C10.2583 2.5961 10.4384 2.66634 10.6263 2.66634H13.1692L5.87339 9.52634C5.80699 9.58832 5.7543 9.66205 5.71834 9.74329C5.68238 9.82453 5.66386 9.91167 5.66386 9.99967C5.66386 10.0877 5.68238 10.1748 5.71834 10.2561C5.7543 10.3373 5.80699 10.411 5.87339 10.473C5.93923 10.5355 6.01758 10.5851 6.10389 10.6189C6.19021 10.6528 6.28279 10.6702 6.3763 10.6702C6.46981 10.6702 6.56239 10.6528 6.64871 10.6189C6.73503 10.5851 6.81337 10.5355 6.87922 10.473L14.168 3.60634V5.99967C14.168 6.17649 14.2426 6.34605 14.3754 6.47108C14.5083 6.5961 14.6884 6.66634 14.8763 6.66634C15.0642 6.66634 15.2443 6.5961 15.3772 6.47108C15.51 6.34605 15.5846 6.17649 15.5846 5.99967V1.99967C15.5835 1.91256 15.5643 1.82649 15.528 1.74634Z" fill="currentColor"/></svg>
