<svg viewBox="0 0 16 17" fill="none" xmlns="http://www.w3.org/2000/svg">
<path d="M14.6134 7.97975C13.2667 4.85309 10.7334 2.91309 8.00004 2.91309C5.26671 2.91309 2.73338 4.85309 1.38671 7.97975C1.35 8.06386 1.33105 8.15465 1.33105 8.24642C1.33105 8.33819 1.35 8.42897 1.38671 8.51309C2.73338 11.6398 5.26671 13.5798 8.00004 13.5798C10.7334 13.5798 13.2667 11.6398 14.6134 8.51309C14.6501 8.42897 14.669 8.33819 14.669 8.24642C14.669 8.15465 14.6501 8.06386 14.6134 7.97975ZM8.00004 12.2464C5.88671 12.2464 3.88671 10.7198 2.73338 8.24642C3.88671 5.77309 5.88671 4.24642 8.00004 4.24642C10.1134 4.24642 12.1134 5.77309 13.2667 8.24642C12.1134 10.7198 10.1134 12.2464 8.00004 12.2464ZM8.00004 5.57975C7.47263 5.57975 6.95706 5.73615 6.51852 6.02917C6.07999 6.32218 5.7382 6.73866 5.53637 7.22593C5.33453 7.7132 5.28172 8.24938 5.38462 8.76666C5.48751 9.28394 5.74149 9.7591 6.11443 10.132C6.48737 10.505 6.96252 10.759 7.4798 10.8618C7.99709 10.9647 8.53326 10.9119 9.02053 10.7101C9.5078 10.5083 9.92428 10.1665 10.2173 9.72794C10.5103 9.28941 10.6667 8.77384 10.6667 8.24642C10.6667 7.53918 10.3858 6.8609 9.88566 6.3608C9.38557 5.8607 8.70729 5.57975 8.00004 5.57975ZM8.00004 9.57975C7.73634 9.57975 7.47855 9.50155 7.25928 9.35504C7.04002 9.20854 6.86912 9.0003 6.76821 8.75666C6.66729 8.51303 6.64088 8.24494 6.69233 7.9863C6.74378 7.72766 6.87077 7.49008 7.05724 7.30361C7.24371 7.11714 7.48128 6.99015 7.73992 6.9387C7.99857 6.88726 8.26665 6.91366 8.51029 7.01458C8.75392 7.1155 8.96216 7.28639 9.10867 7.50566C9.25518 7.72492 9.33338 7.98271 9.33338 8.24642C9.33338 8.60004 9.1929 8.93918 8.94285 9.18923C8.6928 9.43928 8.35367 9.57975 8.00004 9.57975Z" fill="currentColor"/>
</svg>
