<svg xmlns="http://www.w3.org/2000/svg" fill="none" viewBox="0 0 94 94"><path fill="url(#a)" d="M17.603 26.274c0-2.379 0-3.569.47-4.474a4.177 4.177 0 0 1 1.782-1.782c.905-.47 2.095-.47 4.474-.47h17.557c1.013 0 1.519 0 1.996.114.406.096.795.253 1.154.465.423.249.787.6 1.516 1.302l.432.416c.729.702 1.093 1.053 1.516 1.302.36.212.748.369 1.154.465.477.114.983.114 1.995.114h17.718c2.38 0 3.57 0 4.475.47a4.177 4.177 0 0 1 1.781 1.782c.47.905.47 2.095.47 4.474v40.046c0 1.19 0 1.784-.234 2.237-.199.381-.51.692-.891.89-.453.236-1.048.236-2.237.236H23.657c-2.142 0-3.212 0-4.027-.424a3.76 3.76 0 0 1-1.604-1.603c-.423-.815-.423-1.886-.423-4.027V26.274Z"/><g filter="url(#b)"><path fill="#B9DDFF" fill-opacity=".6" d="M33.09 38.39c.59-2.032.886-3.048 1.666-3.633.78-.586 1.838-.586 3.954-.586h38.531c3.332 0 4.998 0 5.876 1.082.878 1.082.534 2.712-.152 5.972l-5.893 27.992c-.468 2.225-.703 3.337-1.508 3.99-.805.654-1.942.654-4.216.654H21.781c2.161-2.35 2.161-4.7 4.322-11.75 1.55-5.058 5.103-17.24 6.987-23.72Z"/><path stroke="url(#c)" stroke-width=".39" d="M38.71 34.366h38.531c1.672 0 2.905 0 3.83.133.92.132 1.5.39 1.894.877.395.486.528 1.105.468 2.033-.06.933-.314 2.14-.659 3.776l-5.893 27.992c-.235 1.117-.408 1.938-.621 2.561-.211.62-.455 1.023-.819 1.318-.364.295-.809.45-1.458.53-.654.08-1.493.08-2.635.08H22.212c.92-1.1 1.421-2.244 1.917-3.86.224-.734.45-1.569.711-2.542l.168-.623a134.82 134.82 0 0 1 1.282-4.473c1.55-5.06 5.104-17.243 6.987-23.723.297-1.02.515-1.77.755-2.338.238-.564.49-.93.842-1.194.352-.265.774-.404 1.381-.475.613-.072 1.393-.072 2.455-.072Z"/></g><path fill="url(#d)" fill-opacity=".9" stroke="url(#e)" stroke-width=".312" d="M28.048 23.883h8.356a1.933 1.933 0 1 1 0 3.866h-8.356a1.933 1.933 0 0 1 0-3.866Z"/><defs><linearGradient id="a" x1="34.475" x2="78.609" y1="31.429" y2="47.774" gradientUnits="userSpaceOnUse"><stop stop-color="#7FC0FB"/><stop offset="1" stop-color="#4088F4"/></linearGradient><linearGradient id="c" x1="18.648" x2="40.8" y1="37.006" y2="90.426" gradientUnits="userSpaceOnUse"><stop stop-color="#fff"/><stop offset=".766" stop-color="#fff" stop-opacity="0"/></linearGradient><linearGradient id="d" x1="25.006" x2="42.161" y1="23.447" y2="28.516" gradientUnits="userSpaceOnUse"><stop stop-color="#fff"/><stop offset="1" stop-color="#fff" stop-opacity="0"/></linearGradient><linearGradient id="e" x1="23.837" x2="32.226" y1="24.617" y2="27.904" gradientUnits="userSpaceOnUse"><stop stop-color="#fff"/><stop offset="1" stop-color="#fff" stop-opacity="0"/></linearGradient><filter id="b" width="78.572" height="56.402" x="13.425" y="25.815" color-interpolation-filters="sRGB" filterUnits="userSpaceOnUse"><feFlood flood-opacity="0" result="BackgroundImageFix"/><feGaussianBlur in="BackgroundImage" stdDeviation="4.178"/><feComposite in2="SourceAlpha" operator="in" result="effect1_backgroundBlur_1426_16551"/><feBlend in="SourceGraphic" in2="effect1_backgroundBlur_1426_16551" result="shape"/></filter></defs></svg>
