<svg width="150" height="150" viewBox="0 0 150 150" fill="none" xmlns="http://www.w3.org/2000/svg">
<circle cx="75" cy="75" r="75" fill="url(#paint0_linear_5582_77917)"/>
<path d="M45.5481 54.2196C45.5481 51.8403 45.5481 50.6507 46.0185 49.7452C46.4149 48.9821 47.037 48.3599 47.8001 47.9635C48.7056 47.4932 49.8953 47.4932 52.2746 47.4932H69.8318C70.8439 47.4932 71.35 47.4932 71.8272 47.6068C72.233 47.7035 72.622 47.8603 72.9813 48.0721C73.4039 48.3213 73.7685 48.6724 74.4975 49.3744L74.9289 49.7898C75.658 50.4919 76.0225 50.8429 76.4451 51.0921C76.8044 51.3039 77.1934 51.4608 77.5992 51.5574C78.0765 51.6711 78.5825 51.6711 79.5947 51.6711H97.3126C99.6919 51.6711 100.881 51.6711 101.787 52.1415C102.55 52.5378 103.172 53.16 103.569 53.9231C104.039 54.8286 104.039 56.0183 104.039 58.3975V98.4429C104.039 99.6326 104.039 100.227 103.804 100.68C103.606 101.062 103.295 101.373 102.913 101.571C102.46 101.806 101.865 101.806 100.676 101.806H51.6019C49.4605 101.806 48.3899 101.806 47.5749 101.383C46.8881 101.026 46.3282 100.466 45.9714 99.7793C45.5481 98.9644 45.5481 97.8937 45.5481 95.7523V54.2196Z" fill="url(#paint1_linear_5582_77917)"/>
<path d="M66.6556 62.3112H105.187C106.859 62.3112 108.091 62.3117 109.017 62.4445C109.937 62.5765 110.516 62.8347 110.911 63.321C111.305 63.8072 111.439 64.4269 111.378 65.3547C111.317 66.2877 111.064 67.4941 110.72 69.1302L104.826 97.1223C104.591 98.2394 104.418 99.0599 104.205 99.6839C103.994 100.303 103.75 100.707 103.386 101.002C103.023 101.297 102.578 101.452 101.928 101.531C101.274 101.611 100.435 101.612 99.2936 101.612H50.157C51.0775 100.511 51.5785 99.3674 52.0739 97.751C52.2988 97.0174 52.5236 96.1826 52.7858 95.2091C52.84 95.0077 52.8959 94.8004 52.9536 94.5869C53.291 93.3393 53.6956 91.8728 54.2349 90.1133C55.7858 85.0534 59.3389 72.87 61.2225 66.3905C61.5192 65.3699 61.7374 64.6207 61.9771 64.0523C62.2149 63.4886 62.4664 63.1224 62.8188 62.8579C63.1712 62.5933 63.593 62.4541 64.2005 62.3831C64.813 62.3115 65.5931 62.3112 66.6556 62.3112Z" fill="#B9DDFF" stroke="url(#paint2_linear_5582_77917)" stroke-width="0.38987"/>
<path d="M66.6556 62.3112H105.187C106.859 62.3112 108.091 62.3117 109.017 62.4445C109.937 62.5765 110.516 62.8347 110.911 63.321C111.305 63.8072 111.439 64.4269 111.378 65.3547C111.317 66.2877 111.064 67.4941 110.72 69.1302L104.826 97.1223C104.591 98.2394 104.418 99.0599 104.205 99.6839C103.994 100.303 103.75 100.707 103.386 101.002C103.023 101.297 102.578 101.452 101.928 101.531C101.274 101.611 100.435 101.612 99.2936 101.612H50.157C51.0775 100.511 51.5785 99.3674 52.0739 97.751C52.2988 97.0174 52.5236 96.1826 52.7858 95.2091C52.84 95.0077 52.8959 94.8004 52.9536 94.5869C53.291 93.3393 53.6956 91.8728 54.2349 90.1133C55.7858 85.0534 59.3389 72.87 61.2225 66.3905C61.5192 65.3699 61.7374 64.6207 61.9771 64.0523C62.2149 63.4886 62.4664 63.1224 62.8188 62.8579C63.1712 62.5933 63.593 62.4541 64.2005 62.3831C64.813 62.3115 65.5931 62.3112 66.6556 62.3112Z" fill="url(#paint3_linear_5582_77917)" fill-opacity="0.8" stroke="url(#paint4_linear_5582_77917)" stroke-width="0.38987"/>
<path d="M55.9933 51.8278H64.3491C65.4167 51.8278 66.2821 52.6933 66.2821 53.7608C66.2821 54.8284 65.4167 55.6938 64.3491 55.6938H55.9933C54.9257 55.6938 54.0602 54.8284 54.0602 53.7608C54.0602 52.6933 54.9257 51.8278 55.9933 51.8278Z" fill="url(#paint5_linear_5582_77917)" fill-opacity="0.9" stroke="url(#paint6_linear_5582_77917)" stroke-width="0.311896"/>
<defs>
<linearGradient id="paint0_linear_5582_77917" x1="75" y1="0" x2="75" y2="150" gradientUnits="userSpaceOnUse">
<stop stop-color="#E3ECFA"/>
<stop offset="1" stop-color="#DAE7FF"/>
</linearGradient>
<linearGradient id="paint1_linear_5582_77917" x1="62.4205" y1="59.3741" x2="106.554" y2="75.7189" gradientUnits="userSpaceOnUse">
<stop stop-color="#7FC0FB"/>
<stop offset="1" stop-color="#4088F4"/>
</linearGradient>
<linearGradient id="paint2_linear_5582_77917" x1="46.5931" y1="64.9513" x2="68.7456" y2="118.372" gradientUnits="userSpaceOnUse">
<stop stop-color="white"/>
<stop offset="0.765625" stop-color="white" stop-opacity="0"/>
</linearGradient>
<linearGradient id="paint3_linear_5582_77917" x1="108.5" y1="98" x2="41" y2="99.5" gradientUnits="userSpaceOnUse">
<stop stop-color="#B4D4F7"/>
<stop offset="0.128125" stop-color="#8BBDFB"/>
<stop offset="0.262288" stop-color="#91C2FB"/>
<stop offset="0.759134" stop-color="#9FCFFD"/>
<stop offset="1" stop-color="#9ECEFD"/>
</linearGradient>
<linearGradient id="paint4_linear_5582_77917" x1="46.5931" y1="64.9513" x2="68.7456" y2="118.372" gradientUnits="userSpaceOnUse">
<stop stop-color="white"/>
<stop offset="0.765625" stop-color="white" stop-opacity="0"/>
</linearGradient>
<linearGradient id="paint5_linear_5582_77917" x1="52.9517" y1="51.3927" x2="70.106" y2="56.461" gradientUnits="userSpaceOnUse">
<stop stop-color="white"/>
<stop offset="1" stop-color="white" stop-opacity="0"/>
</linearGradient>
<linearGradient id="paint6_linear_5582_77917" x1="51.7821" y1="52.5623" x2="60.1712" y2="55.8498" gradientUnits="userSpaceOnUse">
<stop stop-color="white"/>
<stop offset="1" stop-color="white" stop-opacity="0"/>
</linearGradient>
</defs>
</svg>
