<svg xmlns="http://www.w3.org/2000/svg" width="16" height="16" fill="none"><path fill="#fff" stroke="#155366" d="m7.333 12.361-.223.112.223.447h.5v-.25l.834-.417-1.334.108Zm0 0V9.333v3.028Zm-5.5-8.248v-.78a1.5 1.5 0 0 1 1.5-1.5h9.334a1.5 1.5 0 0 1 1.5 1.5v.772a1.499 1.499 0 0 1-.145.593l-.049.102v.04a1.371 1.371 0 0 1-.246.332v.001l-4.08 4.08L9.5 9.4v3.266c0 .03-.009.06-.025.086l.425.263-.425-.263a.167.167 0 0 1-.066.061l-2.666 1.333-.004.002a.167.167 0 0 1-.075.019.167.167 0 0 1-.087-.025.166.166 0 0 1-.077-.141V9.399l-.148-.147-4.106-4.08A1.373 1.373 0 0 1 2 4.84v-.03l-.042-.097a1.5 1.5 0 0 1-.125-.6ZM6 9.607V14a.666.666 0 0 0 .667.667.666.666 0 0 0 .3-.074L6 9.607Zm3.167-.274V9.33a.167.167 0 0 1 .048-.118l3.531-3.525.856-.854H2.397l.856.854 3.532 3.525a.167.167 0 0 1 .048.118v4.399l.724-.362L8.89 12.7l.277-.138V9.333ZM13.333 4.5h.5V3.333a1.167 1.167 0 0 0-1.166-1.166H3.333a1.167 1.167 0 0 0-1.166 1.166V4.5h11.166Z"/></svg>