<svg width="29" height="29" viewBox="0 0 29 29" fill="none" xmlns="http://www.w3.org/2000/svg">
<path opacity="0.99" d="M12.4609 19.4468C12.3022 19.447 12.145 19.4158 11.9984 19.355C11.8518 19.2943 11.7186 19.2051 11.6066 19.0928L8.20815 15.6944C7.98392 15.4673 7.85863 15.1607 7.85963 14.8416C7.86062 14.5225 7.98783 14.2168 8.21347 13.9911C8.43912 13.7654 8.74488 13.6382 9.06399 13.6372C9.38311 13.6362 9.68966 13.7615 9.91673 13.9857L12.4608 16.5298L19.0832 9.90758C19.3102 9.68336 19.6168 9.55808 19.9359 9.55909C20.255 9.5601 20.5608 9.68732 20.7864 9.91297C21.0121 10.1386 21.1393 10.4444 21.1403 10.7635C21.1413 11.0826 21.016 11.3892 20.7917 11.6162L13.3152 19.0928C13.2031 19.2052 13.07 19.2943 12.9234 19.3551C12.7767 19.4158 12.6196 19.447 12.4609 19.4468Z" fill="white"/>
<path d="M14.5001 2.4165C12.1102 2.4165 9.77404 3.12518 7.78695 4.45291C5.79985 5.78065 4.2511 7.66781 3.33654 9.87575C2.42198 12.0837 2.18269 14.5132 2.64893 16.8572C3.11517 19.2011 4.266 21.3542 5.95588 23.044C7.64577 24.7339 9.79881 25.8848 12.1427 26.351C14.4867 26.8172 16.9162 26.5779 19.1242 25.6634C21.3321 24.7488 23.2193 23.2001 24.547 21.213C25.8747 19.2259 26.5834 16.8897 26.5834 14.4998C26.5798 11.2963 25.3055 8.22495 23.0402 5.95968C20.775 3.69441 17.7037 2.42017 14.5001 2.4165V2.4165ZM20.7919 11.6159L13.3153 19.0924C13.2031 19.2047 13.07 19.2937 12.9234 19.3544C12.7768 19.4152 12.6197 19.4465 12.461 19.4465C12.3023 19.4465 12.1452 19.4152 11.9986 19.3544C11.852 19.2937 11.7188 19.2047 11.6067 19.0924L8.2083 15.694C7.98407 15.4669 7.85877 15.1604 7.85977 14.8413C7.86077 14.5222 7.98797 14.2164 8.21362 13.9907C8.43926 13.7651 8.74502 13.6379 9.06414 13.6369C9.38325 13.6359 9.68981 13.7611 9.91688 13.9854L12.461 16.5295L19.0833 9.90723C19.3104 9.68301 19.6169 9.55773 19.936 9.55874C20.2552 9.55975 20.5609 9.68697 20.7866 9.91262C21.0122 10.1383 21.1394 10.444 21.1404 10.7632C21.1414 11.0823 21.0161 11.3888 20.7919 11.6159Z" fill="#17997B"/>
</svg>
