<svg width="950" height="292" fill="none" xmlns="http://www.w3.org/2000/svg"><g opacity=".3"><path opacity=".4" d="M393.383 537.592a213.058 213.058 0 0 1-55.133-7.248c-18.196-4.86-35.419-12.09-51.347-21.316-16.166-9.345-31.003-20.703-44.117-33.817-13.113-13.113-24.471-27.967-33.816-44.116a211.826 211.826 0 0 1-21.317-51.347 212.906 212.906 0 0 1-7.247-55.133 213.09 213.09 0 0 1 7.247-55.133c4.861-18.196 12.091-35.42 21.317-51.348l56.685 32.725a147.203 147.203 0 0 0-14.768 35.573 147.531 147.531 0 0 0-5.014 38.183 147.53 147.53 0 0 0 5.014 38.182 146.527 146.527 0 0 0 14.768 35.573c6.48 11.187 14.341 21.47 23.431 30.559 9.089 9.089 19.372 16.951 30.559 23.431a147.203 147.203 0 0 0 35.573 14.768 147.627 147.627 0 0 0 38.182 5.014c13.2 0 26.006-1.757 38.182-5.014a146.494 146.494 0 0 0 35.573-14.768c11.187-6.48 21.47-14.342 30.56-23.431l46.282 46.282c-13.114 13.114-27.967 24.472-44.117 33.817a211.75 211.75 0 0 1-51.347 21.316 213.28 213.28 0 0 1-55.15 7.248ZM581.668 650.74c28.581-16.524 54.826-36.613 78.018-59.805 23.192-23.193 43.281-49.455 59.806-78.019 16.303-28.172 29.075-58.629 37.687-90.808a376.592 376.592 0 0 0 12.807-97.476 377.23 377.23 0 0 0-12.807-97.477c-8.595-32.179-21.384-62.636-37.687-90.808-16.542-28.581-36.614-54.826-59.806-78.018-23.192-23.193-49.454-43.281-78.018-59.806-28.172-16.303-58.629-29.093-90.809-37.687a376.592 376.592 0 0 0-97.476-12.807v65.45c27.865 0 54.843 3.717 80.543 10.59 26.585 7.111 51.739 17.667 75.017 31.139 23.601 13.66 45.31 30.252 64.461 49.42 19.167 19.168 35.76 40.86 49.42 64.461 13.472 23.278 24.028 48.431 31.139 75.017a311.266 311.266 0 0 1 10.59 80.543c0 27.865-3.717 54.843-10.59 80.542-7.111 26.586-17.667 51.739-31.139 75.017-13.66 23.602-30.253 45.31-49.42 64.461-19.151 19.151-40.86 35.761-64.461 49.42-23.278 13.472-48.432 24.028-75.017 31.139l16.933 63.234c32.197-8.646 62.637-21.419 90.809-37.722Zm-56.907 164.188a504.312 504.312 0 0 0 122.425-50.733 510.4 510.4 0 0 0 105.082-80.713A509.226 509.226 0 0 0 832.981 578.4a504.73 504.73 0 0 0 50.733-122.425c11.204-41.916 17.207-85.948 17.207-131.377 0-45.447-6.003-89.479-17.207-131.378a504.343 504.343 0 0 0-50.733-122.425C810.709 32.288 783.509-3.03 752.268-34.287A509.217 509.217 0 0 0 647.186-115l-32.793 56.787c33.543 19.407 64.359 42.991 91.592 70.208 27.217 27.217 50.802 58.05 70.209 91.576 19.133 33.066 34.14 68.81 44.236 106.582 9.754 36.511 15.041 74.847 15.041 114.428 0 39.58-5.27 77.916-15.041 114.426-10.096 37.773-25.103 73.517-44.236 106.583-19.407 33.544-42.992 64.359-70.209 91.576-27.216 27.217-58.049 50.801-91.592 70.208-33.066 19.134-68.81 34.14-106.583 44.236-36.511 9.754-74.846 15.041-114.427 15.041-39.58 0-77.916-5.287-114.427-15.041l-16.951 63.284c41.9 11.204 85.931 17.207 131.378 17.207 45.447.034 89.478-5.969 131.378-17.173Z" fill="url(#a)"/><path d="M393.383 766.686a442.489 442.489 0 0 1-114.103-14.938c-37.773-10.062-73.516-25.052-106.599-44.151l32.725-56.685c28.189 16.269 58.646 29.024 90.825 37.602a377.126 377.126 0 0 0 97.152 12.722h.307a376.958 376.958 0 0 0 97.425-12.875c32.146-8.612 62.568-21.402 90.723-37.705 28.547-16.524 54.775-36.613 77.933-59.788 23.159-23.176 43.23-49.404 59.755-77.951 16.286-28.154 29.059-58.56 37.67-90.723a376.575 376.575 0 0 0 12.824-97.39v-.188c0-33.629-4.467-66.201-12.738-97.237-8.578-32.163-21.334-62.603-37.603-90.775-16.507-28.581-36.562-54.843-59.72-78.035-23.175-23.21-49.403-43.332-77.95-59.891-28.172-16.337-58.612-29.144-90.774-37.773l16.933-63.233c37.773 10.13 73.5 25.153 106.566 44.321 33.527 19.424 64.308 43.042 91.507 70.276 27.183 27.234 50.751 58.067 70.123 91.61 19.1 33.066 34.072 68.793 44.151 106.566a442.28 442.28 0 0 1 14.973 114.171v.188a442.784 442.784 0 0 1-15.058 114.341c-10.096 37.739-25.086 73.448-44.219 106.497-19.39 33.51-42.957 64.308-70.14 91.525-27.2 27.2-57.981 50.784-91.491 70.191-33.032 19.134-68.758 34.141-106.497 44.253a442.052 442.052 0 0 1-114.359 15.092c-.136-.017-.238-.017-.341-.017Zm.307 114.547c49.813-.035 98.09-6.634 144.032-18.929a553.316 553.316 0 0 0 134.174-55.662 557.887 557.887 0 0 0 115.143-88.506 558.938 558.938 0 0 0 88.455-115.178 552.863 552.863 0 0 0 55.611-134.174C943.4 422.842 949.983 374.582 950 324.786v-.187c0-49.744-6.566-97.954-18.81-143.844a553.454 553.454 0 0 0-55.542-134.243C851.245 4.272 821.453-34.456 787.21-68.75l-34.72 34.72a508.908 508.908 0 0 1 80.627 105.099 504.465 504.465 0 0 1 50.631 122.391c11.153 41.831 17.139 85.777 17.139 131.139v.187c-.017 45.413-6.02 89.41-17.224 131.293a504.902 504.902 0 0 1-50.699 122.323 509.715 509.715 0 0 1-80.662 105.013 509.278 509.278 0 0 1-104.996 80.696 504.32 504.32 0 0 1-122.323 50.75c-41.883 11.221-85.897 17.241-131.327 17.275h-.307c-45.327 0-89.239-5.968-131.054-17.121a504.899 504.899 0 0 1-122.442-50.631A509.284 509.284 0 0 1 34.72 683.722L0 718.443a559.222 559.222 0 0 0 115.297 88.472 553.563 553.563 0 0 0 134.294 55.542c45.856 12.227 94.031 18.776 143.758 18.776h.341Zm80.474-256.106a309.28 309.28 0 0 0 74.932-31.156c23.568-13.659 45.242-30.252 64.376-49.386 19.134-19.151 35.709-40.808 49.352-64.393 13.455-23.243 24.011-48.38 31.105-74.931a311.396 311.396 0 0 0 10.607-80.457v-.188c0-27.78-3.683-54.673-10.505-80.287-7.077-26.568-17.616-51.722-31.054-75-13.625-23.618-30.201-45.31-49.334-64.478-19.134-19.185-40.809-35.811-64.393-49.488-23.261-13.49-48.414-24.08-75-31.225a311.451 311.451 0 0 0-80.56-10.675h-.307a310.997 310.997 0 0 0-80.303 10.522c-26.62 7.094-51.808 17.65-75.12 31.122l49.097 85.027a211.678 211.678 0 0 1 51.432-21.299 213.314 213.314 0 0 1 54.894-7.18h.307a213.2 213.2 0 0 1 55.15 7.333 211.245 211.245 0 0 1 51.331 21.402c16.132 9.379 30.951 20.771 44.048 33.902 13.08 13.131 24.42 27.984 33.748 44.134a211.408 211.408 0 0 1 21.231 51.33 213.276 213.276 0 0 1 7.18 54.877v.188a212.911 212.911 0 0 1-7.265 55.03c-4.86 18.162-12.091 35.352-21.282 51.262-9.328 16.133-20.669 30.952-33.766 44.049-13.079 13.096-27.899 24.454-44.031 33.799-15.911 9.226-33.1 16.456-51.262 21.334a212.495 212.495 0 0 1-55.065 7.298v98.176a312.09 312.09 0 0 0 80.457-10.642Zm66.747-300.511c0-81.48-66.047-147.527-147.528-147.527-81.48 0-147.527 66.047-147.527 147.527 0 81.48 66.047 147.527 147.527 147.527 81.481 0 147.528-66.064 147.528-147.527Z" fill="url(#b)"/></g><defs><linearGradient id="a" x1="127.895" y1="582.647" x2="878.342" y2="149.377" gradientUnits="userSpaceOnUse"><stop offset=".6" stop-color="#fff"/><stop offset="1" stop-color="#fff" stop-opacity="0"/></linearGradient><linearGradient id="b" x1="-11.071" y1="699.193" x2="936.589" y2="152.061" gradientUnits="userSpaceOnUse"><stop offset=".6" stop-color="#fff"/><stop offset="1" stop-color="#fff" stop-opacity="0"/></linearGradient></defs></svg>