<svg width="40" height="40" viewBox="0 0 40 40" fill="none" xmlns="http://www.w3.org/2000/svg">
<path d="M22.35 20L29.5167 12.85C29.8305 12.5361 30.0068 12.1105 30.0068 11.6667C30.0068 11.2228 29.8305 10.7972 29.5167 10.4833C29.2028 10.1695 28.7772 9.99316 28.3334 9.99316C27.8895 9.99316 27.4639 10.1695 27.15 10.4833L20 17.65L12.85 10.4833C12.5362 10.1695 12.1105 9.99316 11.6667 9.99316C11.2229 9.99316 10.7972 10.1695 10.4834 10.4833C10.1695 10.7972 9.9932 11.2228 9.9932 11.6667C9.9932 12.1105 10.1695 12.5361 10.4834 12.85L17.65 20L10.4834 27.15C10.3271 27.3049 10.2031 27.4893 10.1185 27.6924C10.0339 27.8955 9.99036 28.1133 9.99036 28.3333C9.99036 28.5533 10.0339 28.7712 10.1185 28.9743C10.2031 29.1774 10.3271 29.3617 10.4834 29.5166C10.6383 29.6729 10.8226 29.7969 11.0257 29.8815C11.2288 29.9661 11.4467 30.0096 11.6667 30.0096C11.8867 30.0096 12.1045 29.9661 12.3076 29.8815C12.5107 29.7969 12.6951 29.6729 12.85 29.5166L20 22.35L27.15 29.5166C27.305 29.6729 27.4893 29.7969 27.6924 29.8815C27.8955 29.9661 28.1133 30.0096 28.3334 30.0096C28.5534 30.0096 28.7712 29.9661 28.9743 29.8815C29.1774 29.7969 29.3617 29.6729 29.5167 29.5166C29.6729 29.3617 29.7969 29.1774 29.8815 28.9743C29.9661 28.7712 30.0097 28.5533 30.0097 28.3333C30.0097 28.1133 29.9661 27.8955 29.8815 27.6924C29.7969 27.4893 29.6729 27.3049 29.5167 27.15L22.35 20Z" fill="white"/>
</svg>
