<svg width="15" height="15" fill="none" xmlns="http://www.w3.org/2000/svg"><path d="M7.385 5.167c-.18 0-.359.043-.518.128-.16.085-.295.209-.39.362l-.004.006-.003.007a.346.346 0 0 1-.093.105.438.438 0 0 1-.455.033.37.37 0 0 1-.113-.093.314.314 0 0 1-.06-.117.287.287 0 0 1-.005-.124l-.329-.058.329.058a.305.305 0 0 1 .05-.119l.003-.006.004-.006a1.75 1.75 0 0 1 .663-.615 1.92 1.92 0 0 1 2.092.176c.324.256.537.606.607.985.07.378-.005.77-.215 1.105-.211.337-.546.6-.952.737l-.227.076v.36a.31.31 0 0 1-.103.227.414.414 0 0 1-.281.106c-.11 0-.21-.04-.281-.106A.31.31 0 0 1 7 8.167V7.5a.31.31 0 0 1 .104-.227.414.414 0 0 1 .28-.106c.272 0 .536-.1.735-.285a.977.977 0 0 0 .317-.715.977.977 0 0 0-.317-.716 1.08 1.08 0 0 0-.734-.284Zm0 0V5.5v-.333Zm-.368 4.906.011-.021.009-.023a.16.16 0 0 1 .02-.037.738.738 0 0 1 .051-.06.392.392 0 0 1 .12-.074.433.433 0 0 1 .313 0l.12-.31-.12.31a.39.39 0 0 1 .126.079c.034.032.06.07.077.108.017.039.026.08.025.12v.015a.29.29 0 0 1-.02.118v.001a.264.264 0 0 1-.067.097l.227.244-.227-.244a.321.321 0 0 1-.116.068l-.01.003-.01.005a.386.386 0 0 1-.293 0l-.01-.005-.01-.003a.321.321 0 0 1-.117-.068l-.227.244.227-.244a.264.264 0 0 1-.067-.097l-.006-.015-.007-.015a.193.193 0 0 1-.022-.093v-.036a.508.508 0 0 1-.002-.057.084.084 0 0 1 .005-.01ZM3.572 2.24a7.245 7.245 0 0 1 3.813-1.073c.902 0 1.795.165 2.627.485.833.32 1.588.789 2.223 1.378a6.324 6.324 0 0 1 1.478 2.055c.342.766.518 1.587.518 2.415a6 6 0 0 1-1.147 3.51 6.759 6.759 0 0 1-3.072 2.338 7.36 7.36 0 0 1-3.967.363 7.032 7.032 0 0 1-3.51-1.741A6.2 6.2 0 0 1 .669 8.73a5.892 5.892 0 0 1 .387-3.645A6.467 6.467 0 0 1 3.572 2.24Zm.446 9.978c.998.62 2.17.949 3.367.949 1.604 0 3.147-.592 4.288-1.652 1.142-1.06 1.789-2.504 1.789-4.015a5.4 5.4 0 0 0-1.031-3.158 6.007 6.007 0 0 0-2.729-2.08 6.488 6.488 0 0 0-3.498-.32 6.226 6.226 0 0 0-3.107 1.543A5.56 5.56 0 0 0 1.426 6.39a5.314 5.314 0 0 0 .348 3.287 5.773 5.773 0 0 0 2.244 2.54Z" fill="#68797E" stroke="#68797E" stroke-width=".667"/></svg>