<svg xmlns="http://www.w3.org/2000/svg" width="20" height="20" fill="none"><path fill="#68797E" stroke="#68797E" stroke-width=".667" d="m12.33 14.602-.59.132a8.075 8.075 0 0 1-1.74.183l2.33-.315Zm0 0-.427-.429m.427.43-.427-.43m0 0-1.9-1.908-.083-.084m1.983 1.992L9.92 12.181m0 0-.118-.012m.118.012-.118-.012m0 0a2.22 2.22 0 0 1-1.97-1.971l-.013-.117m1.983 2.088L7.82 10.08m0 0-.083-.083m.083.083-.083-.083m0 0L4.903 7.156l-.219-.219m3.052 3.061-3.052-3.06m0 0-.234.2m.234-.2-.234.2m0 0a8.544 8.544 0 0 0-2.076 2.67.432.432 0 0 0 0 .385 8.518 8.518 0 0 0 3.119 3.434M4.45 7.139l1.043 6.488M18.808 10C17.384 6.529 13.978 4.083 10 4.083a9.545 9.545 0 0 0-3.322.596l.782.777A8.973 8.973 0 0 1 10 5.083L18.808 10Zm0 0a9.492 9.492 0 0 1-2.943 3.883l-.704-.709a8.551 8.551 0 0 0 2.466-2.981.432.432 0 0 0 0-.385A8.517 8.517 0 0 0 10 5.083L18.808 10ZM5.493 13.627A8.518 8.518 0 0 0 10 14.917l-4.507-1.29Zm7.784 1.904-.145-.145-.195.064a9.312 9.312 0 0 1-2.937.467c-3.978 0-7.384-2.446-8.807-5.917a9.464 9.464 0 0 1 2.519-3.533l.267-.235-.251-.251-1.292-1.292a.418.418 0 1 1 .591-.59l12.875 12.874a.418.418 0 0 1-.591.591l-2.034-2.033ZM10 7.833A2.167 2.167 0 0 1 12.167 10c0 .055-.002.11-.006.164L9.836 7.84c.054-.004.109-.006.164-.006Z"/></svg>