<svg xmlns="http://www.w3.org/2000/svg" fill="none" viewBox="0 0 16 16"><path fill="currentColor" d="M11.333 2.2c-2.6-1.467-5.8-1-7.933 1V2c0-.4-.267-.667-.667-.667S2.067 1.6 2.067 2v3c0 .4.266.666.666.666h3c.4 0 .667-.266.667-.666s-.267-.667-.667-.667h-1.6c1-1.067 2.4-1.667 3.867-1.667 2.933 0 5.333 2.4 5.333 5.334 0 2.933-2.4 5.333-5.333 5.333-2.933 0-5.333-2.4-5.333-5.333 0-.4-.267-.667-.667-.667S1.333 7.6 1.333 8c0 3.666 3 6.666 6.667 6.666 2.4 0 4.6-1.266 5.8-3.333 1.8-3.2.733-7.267-2.467-9.133ZM8 5.333c-.4 0-.667.267-.667.667v2c0 .4.267.666.667.666h1.333c.4 0 .667-.266.667-.666s-.267-.667-.667-.667h-.666V6c0-.4-.267-.667-.667-.667Z"/></svg>

