<svg width="190" height="190" viewBox="0 0 190 190" fill="none" xmlns="http://www.w3.org/2000/svg">
<circle cx="95" cy="95" r="85" fill="white"/>
<circle cx="95" cy="95" r="95" fill="#CDF8FA"/>
<path d="M51.1719 79.636C51.1719 77.7878 51.1719 76.8637 51.414 76.0137C51.6196 75.2918 51.9519 74.6122 52.3954 74.0067C52.9178 73.2937 53.6472 72.7263 55.1059 71.5915L89.2208 45.0536C90.1493 44.3314 90.6135 43.9702 91.1214 43.7054C91.7613 43.3717 92.4535 43.1499 93.1682 43.0496C93.7354 42.97 94.3231 42.9941 95.4984 43.0423C96.5247 43.0843 97.0378 43.1054 97.5311 43.2052C98.1526 43.3309 98.7517 43.5494 99.3083 43.8532C99.75 44.0942 100.156 44.4084 100.969 45.0367L135.657 71.8607C137.124 72.9953 137.857 73.5626 138.383 74.2768C138.829 74.8834 139.163 75.5646 139.37 76.2886C139.614 77.1412 139.614 78.0685 139.614 79.9232V132.024C139.614 133.826 139.614 134.728 139.258 135.414C138.957 135.992 138.486 136.463 137.908 136.763C137.222 137.12 136.321 137.12 134.518 137.12H60.3446C57.1 137.12 55.4777 137.12 54.2429 136.478C53.2023 135.938 52.3539 135.089 51.8133 134.049C51.1719 132.814 51.1719 131.192 51.1719 127.947V79.636Z" fill="url(#paint0_linear_3728_44181)"/>
<path d="M59.7751 71.9243C61.0612 71.9243 61.6647 71.9256 62.2358 72.038C62.9752 72.1837 63.6809 72.4666 64.3162 72.872C64.8068 73.1851 65.2441 73.6011 66.1741 74.4895L92.9343 100.052C94.0669 101.134 94.6694 102.658 94.5831 104.222C94.5084 105.575 93.9233 106.85 92.9457 107.79L66.8116 132.903C64.9801 134.663 64.1186 135.484 63.0463 135.916C61.974 136.347 60.7839 136.352 58.2439 136.352L57.502 136.352C56.0015 136.352 54.9059 136.352 54.0682 136.239C53.2391 136.128 52.707 135.911 52.3075 135.512C51.908 135.112 51.6917 134.58 51.5802 133.751C51.4676 132.913 51.467 131.818 51.467 130.317L51.467 80.2324C51.467 78.8739 51.4671 77.8702 51.5226 77.0726C51.578 76.2776 51.6872 75.7094 51.8947 75.2195C52.4419 73.9276 53.4703 72.8992 54.7622 72.352C55.2521 72.1445 55.8203 72.0353 56.6153 71.9799C57.4129 71.9244 58.4166 71.9243 59.7751 71.9243Z" fill="#B9DDFF" fill-opacity="0.6" stroke="url(#paint1_linear_3728_44181)" stroke-width="0.590729"/>
<path d="M131.78 71.9243C130.494 71.9243 129.89 71.9256 129.319 72.038C128.579 72.1837 127.874 72.4666 127.238 72.872C126.748 73.1851 126.311 73.6011 125.381 74.4895L98.6204 100.052C97.4878 101.134 96.8853 102.658 96.9716 104.222C97.0463 105.575 97.6314 106.85 98.6089 107.79L124.743 132.903C126.575 134.663 127.436 135.484 128.508 135.916C129.581 136.347 130.771 136.352 133.311 136.352L134.053 136.352C135.553 136.352 136.649 136.352 137.486 136.239C138.316 136.128 138.848 135.911 139.247 135.512C139.647 135.112 139.863 134.58 139.974 133.751C140.087 132.913 140.088 131.818 140.088 130.317L140.088 80.2324C140.088 78.8739 140.088 77.8702 140.032 77.0726C139.977 76.2776 139.867 75.7094 139.66 75.2195C139.113 73.9276 138.084 72.8992 136.792 72.352C136.303 72.1445 135.734 72.0353 134.939 71.9799C134.142 71.9244 133.138 71.9243 131.78 71.9243Z" fill="#B9DDFF" fill-opacity="0.6" stroke="url(#paint2_linear_3728_44181)" stroke-width="0.590729"/>
<path d="M50.7109 129.465C50.7109 128.155 50.7122 127.54 50.8253 126.968C51.0309 125.927 51.5074 124.958 52.2067 124.16C52.5912 123.721 53.0777 123.345 54.1156 122.545L89.389 95.3769C90.3445 94.641 90.7935 94.2966 91.2821 94.0466C91.8752 93.7432 92.5145 93.54 93.174 93.4455C93.7172 93.3676 94.2827 93.3896 95.4877 93.439C96.5387 93.4821 97.0318 93.5032 97.5036 93.5999C98.0765 93.7172 98.6293 93.9173 99.1446 94.1936C99.5691 94.4213 99.9615 94.7206 100.797 95.3599L135.35 121.811C137.699 123.609 138.795 124.456 139.408 125.635C139.446 125.708 139.483 125.782 139.518 125.857C140.081 127.06 140.088 128.446 140.088 131.404C140.088 132.835 140.087 133.88 139.984 134.682C139.882 135.477 139.684 135.991 139.318 136.384C139.272 136.433 139.224 136.481 139.175 136.526C138.782 136.892 138.268 137.091 137.473 137.193C136.671 137.296 135.626 137.297 134.195 137.297H58.5425C56.2561 137.297 55.1878 137.293 54.3372 136.997C52.7786 136.454 51.5535 135.229 51.0111 133.67C50.715 132.82 50.7109 131.752 50.7109 129.465Z" fill="#B9DDFF" stroke="url(#paint3_linear_3728_44181)" stroke-width="0.590729"/>
<path d="M50.7109 129.465C50.7109 128.155 50.7122 127.54 50.8253 126.968C51.0309 125.927 51.5074 124.958 52.2067 124.16C52.5912 123.721 53.0777 123.345 54.1156 122.545L89.389 95.3769C90.3445 94.641 90.7935 94.2966 91.2821 94.0466C91.8752 93.7432 92.5145 93.54 93.174 93.4455C93.7172 93.3676 94.2827 93.3896 95.4877 93.439C96.5387 93.4821 97.0318 93.5032 97.5036 93.5999C98.0765 93.7172 98.6293 93.9173 99.1446 94.1936C99.5691 94.4213 99.9615 94.7206 100.797 95.3599L135.35 121.811C137.699 123.609 138.795 124.456 139.408 125.635L139.67 125.498L139.408 125.635C139.446 125.708 139.483 125.782 139.518 125.857L139.785 125.732L139.518 125.857C140.081 127.06 140.088 128.446 140.088 131.404C140.088 132.835 140.087 133.88 139.984 134.682C139.882 135.477 139.684 135.991 139.318 136.384C139.272 136.433 139.224 136.481 139.175 136.527C138.782 136.892 138.268 137.091 137.473 137.193C136.671 137.296 135.626 137.297 134.195 137.297H58.5425C56.2561 137.297 55.1878 137.293 54.3372 136.997C52.7786 136.454 51.5535 135.229 51.0111 133.67C50.715 132.82 50.7109 131.752 50.7109 129.465Z" fill="url(#paint4_linear_3728_44181)" stroke="url(#paint5_linear_3728_44181)" stroke-width="0.590729"/>
<circle cx="133.733" cy="132.213" r="21.2128" fill="#F1F7F9"/>
<mask id="path-9-inside-1_3728_44181" fill="white">
<path fill-rule="evenodd" clip-rule="evenodd" d="M146.541 127.364C147.712 126.192 147.712 124.292 146.541 123.121C145.369 121.949 143.47 121.949 142.298 123.121L130.167 135.252L125.884 130.969C124.712 129.797 122.813 129.797 121.641 130.969C120.47 132.141 120.47 134.04 121.641 135.212L128.005 141.576C128.941 142.512 130.342 142.7 131.465 142.14C131.804 141.994 132.122 141.783 132.399 141.506L146.541 127.364Z"/>
</mask>
<path fill-rule="evenodd" clip-rule="evenodd" d="M146.541 127.364C147.712 126.192 147.712 124.292 146.541 123.121C145.369 121.949 143.47 121.949 142.298 123.121L130.167 135.252L125.884 130.969C124.712 129.797 122.813 129.797 121.641 130.969C120.47 132.141 120.47 134.04 121.641 135.212L128.005 141.576C128.941 142.512 130.342 142.7 131.465 142.14C131.804 141.994 132.122 141.783 132.399 141.506L146.541 127.364Z" fill="url(#paint6_linear_3728_44181)" fill-opacity="0.9"/>
<path d="M146.541 123.121L146.368 123.294V123.294L146.541 123.121ZM146.541 127.364L146.368 127.19L146.541 127.364ZM142.298 123.121L142.125 122.948V122.948L142.298 123.121ZM130.167 135.252L129.994 135.425L130.167 135.599L130.34 135.425L130.167 135.252ZM125.884 130.969L126.057 130.796L125.884 130.969ZM121.641 135.212L121.815 135.038L121.641 135.212ZM128.005 141.576L127.832 141.749L128.005 141.576ZM131.465 142.14L131.368 141.915L131.356 141.921L131.465 142.14ZM132.399 141.506L132.225 141.332L132.399 141.506ZM146.368 123.294C147.443 124.37 147.443 126.114 146.368 127.19L146.714 127.537C147.981 126.27 147.981 124.215 146.714 122.948L146.368 123.294ZM142.471 123.294C143.547 122.218 145.292 122.218 146.368 123.294L146.714 122.948C145.447 121.68 143.392 121.68 142.125 122.948L142.471 123.294ZM130.34 135.425L142.471 123.294L142.125 122.948L129.994 135.079L130.34 135.425ZM125.711 131.142L129.994 135.425L130.34 135.079L126.057 130.796L125.711 131.142ZM121.815 131.142C122.891 130.066 124.635 130.066 125.711 131.142L126.057 130.796C124.79 129.528 122.735 129.528 121.468 130.796L121.815 131.142ZM121.815 135.038C120.739 133.962 120.739 132.218 121.815 131.142L121.468 130.796C120.201 132.063 120.201 134.118 121.468 135.385L121.815 135.038ZM128.179 141.402L121.815 135.038L121.468 135.385L127.832 141.749L128.179 141.402ZM131.356 141.921C130.324 142.435 129.038 142.262 128.179 141.402L127.832 141.749C128.845 142.762 130.36 142.965 131.574 142.359L131.356 141.921ZM132.225 141.332C131.971 141.587 131.679 141.781 131.368 141.915L131.562 142.365C131.929 142.207 132.273 141.978 132.572 141.679L132.225 141.332ZM146.368 127.19L132.225 141.332L132.572 141.679L146.714 127.537L146.368 127.19Z" fill="url(#paint7_linear_3728_44181)" mask="url(#path-9-inside-1_3728_44181)"/>
<mask id="path-11-inside-2_3728_44181" fill="white">
<path fill-rule="evenodd" clip-rule="evenodd" d="M146.541 127.364C147.712 126.192 147.712 124.292 146.541 123.121C145.369 121.949 143.47 121.949 142.298 123.121L130.167 135.252L125.884 130.969C124.712 129.797 122.813 129.797 121.641 130.969C120.47 132.141 120.47 134.04 121.641 135.212L128.005 141.576C128.941 142.512 130.342 142.7 131.465 142.14C131.804 141.994 132.122 141.783 132.399 141.506L146.541 127.364Z"/>
</mask>
<path fill-rule="evenodd" clip-rule="evenodd" d="M146.541 127.364C147.712 126.192 147.712 124.292 146.541 123.121C145.369 121.949 143.47 121.949 142.298 123.121L130.167 135.252L125.884 130.969C124.712 129.797 122.813 129.797 121.641 130.969C120.47 132.141 120.47 134.04 121.641 135.212L128.005 141.576C128.941 142.512 130.342 142.7 131.465 142.14C131.804 141.994 132.122 141.783 132.399 141.506L146.541 127.364Z" fill="url(#paint8_linear_3728_44181)" fill-opacity="0.75"/>
<path d="M146.541 123.121L146.368 123.294V123.294L146.541 123.121ZM146.541 127.364L146.368 127.19L146.541 127.364ZM142.298 123.121L142.125 122.948V122.948L142.298 123.121ZM130.167 135.252L129.994 135.425L130.167 135.599L130.34 135.425L130.167 135.252ZM125.884 130.969L126.057 130.796L125.884 130.969ZM121.641 135.212L121.815 135.038L121.641 135.212ZM128.005 141.576L127.832 141.749L128.005 141.576ZM131.465 142.14L131.368 141.915L131.356 141.921L131.465 142.14ZM132.399 141.506L132.225 141.332L132.399 141.506ZM146.368 123.294C147.443 124.37 147.443 126.114 146.368 127.19L146.714 127.537C147.981 126.27 147.981 124.215 146.714 122.948L146.368 123.294ZM142.471 123.294C143.547 122.218 145.292 122.218 146.368 123.294L146.714 122.948C145.447 121.68 143.392 121.68 142.125 122.948L142.471 123.294ZM130.34 135.425L142.471 123.294L142.125 122.948L129.994 135.079L130.34 135.425ZM125.711 131.142L129.994 135.425L130.34 135.079L126.057 130.796L125.711 131.142ZM121.815 131.142C122.891 130.066 124.635 130.066 125.711 131.142L126.057 130.796C124.79 129.528 122.735 129.528 121.468 130.796L121.815 131.142ZM121.815 135.038C120.739 133.962 120.739 132.218 121.815 131.142L121.468 130.796C120.201 132.063 120.201 134.118 121.468 135.385L121.815 135.038ZM128.179 141.402L121.815 135.038L121.468 135.385L127.832 141.749L128.179 141.402ZM131.356 141.921C130.324 142.435 129.038 142.262 128.179 141.402L127.832 141.749C128.845 142.762 130.36 142.965 131.574 142.359L131.356 141.921ZM132.225 141.332C131.971 141.587 131.679 141.781 131.368 141.915L131.562 142.365C131.929 142.207 132.273 141.978 132.572 141.679L132.225 141.332ZM146.368 127.19L132.225 141.332L132.572 141.679L146.714 127.537L146.368 127.19Z" fill="url(#paint9_linear_3728_44181)" fill-opacity="0.1" mask="url(#path-11-inside-2_3728_44181)"/>
<defs>
<linearGradient id="paint0_linear_3728_44181" x1="76.684" y1="86.5683" x2="143.417" y2="111.283" gradientUnits="userSpaceOnUse">
<stop stop-color="#7FC0FB"/>
<stop offset="1" stop-color="#4088F4"/>
</linearGradient>
<linearGradient id="paint1_linear_3728_44181" x1="91.8893" y1="68.378" x2="34.008" y2="93.9374" gradientUnits="userSpaceOnUse">
<stop stop-color="white"/>
<stop offset="0.765625" stop-color="white" stop-opacity="0"/>
</linearGradient>
<linearGradient id="paint2_linear_3728_44181" x1="99.6653" y1="68.378" x2="157.547" y2="93.9374" gradientUnits="userSpaceOnUse">
<stop stop-color="white"/>
<stop offset="0.765625" stop-color="white" stop-opacity="0"/>
</linearGradient>
<linearGradient id="paint3_linear_3728_44181" x1="45.9171" y1="96.1852" x2="66.5691" y2="159.822" gradientUnits="userSpaceOnUse">
<stop stop-color="white"/>
<stop offset="0.765625" stop-color="white" stop-opacity="0"/>
</linearGradient>
<linearGradient id="paint4_linear_3728_44181" x1="95.3995" y1="93" x2="95.3995" y2="137.592" gradientUnits="userSpaceOnUse">
<stop stop-color="#A7D2FD" stop-opacity="0.25"/>
<stop offset="1" stop-color="#97C8FC"/>
</linearGradient>
<linearGradient id="paint5_linear_3728_44181" x1="45.9171" y1="96.1852" x2="66.5691" y2="159.822" gradientUnits="userSpaceOnUse">
<stop stop-color="white"/>
<stop offset="0.765625" stop-color="white" stop-opacity="0"/>
</linearGradient>
<linearGradient id="paint6_linear_3728_44181" x1="150.343" y1="124.128" x2="117.322" y2="137.395" gradientUnits="userSpaceOnUse">
<stop stop-color="#17997B"/>
<stop offset="1" stop-color="#17997B" stop-opacity="0"/>
</linearGradient>
<linearGradient id="paint7_linear_3728_44181" x1="150.871" y1="121.225" x2="134.035" y2="125.89" gradientUnits="userSpaceOnUse">
<stop stop-color="#17997B"/>
<stop offset="1" stop-color="#17997B" stop-opacity="0"/>
</linearGradient>
<linearGradient id="paint8_linear_3728_44181" x1="150.343" y1="124.128" x2="117.322" y2="137.395" gradientUnits="userSpaceOnUse">
<stop stop-color="#17997B" stop-opacity="0"/>
<stop offset="1" stop-color="#17997B"/>
</linearGradient>
<linearGradient id="paint9_linear_3728_44181" x1="150.871" y1="121.225" x2="134.035" y2="125.89" gradientUnits="userSpaceOnUse">
<stop stop-color="#17997B" stop-opacity="0"/>
<stop offset="1" stop-color="#17997B"/>
</linearGradient>
</defs>
</svg>
