<svg xmlns="http://www.w3.org/2000/svg" width="16" height="19" fill="none"><path fill="#fff" stroke="#155366" stroke-width=".667" d="M11 5.667V6h2.333a.333.333 0 0 1 .334.333v9.334A1.667 1.667 0 0 1 12 17.333H4a1.667 1.667 0 0 1-1.667-1.666V6.333A.333.333 0 0 1 2.667 6H5V5a.333.333 0 1 1 .667 0v1h2V5a.333.333 0 1 1 .666 0v1h2V5c0-.088.035-.173.098-.236l-.236-.235.236.235A.333.333 0 0 1 11 5v.667ZM3.293 16.374l.236-.236-.236.236a1 1 0 0 0 .707.293h8a1 1 0 0 0 1-1v-9h-2v1a.333.333 0 1 1-.667 0v-1h-2v1a.333.333 0 0 1-.666 0v-1h-2v1a.333.333 0 0 1-.667 0v-1H3v9a1 1 0 0 0 .293.707Zm2.04-3.707h5.334a.333.333 0 1 1 0 .666H5.333a.333.333 0 0 1-.235-.097l-.236.235.236-.235a.333.333 0 0 1 0-.472l-.236-.236.236.236a.333.333 0 0 1 .235-.097Zm1.098-2.57A.333.333 0 0 1 6.667 10h4a.333.333 0 1 1 0 .667h-4a.333.333 0 0 1-.236-.57Z"/></svg>