<svg xmlns="http://www.w3.org/2000/svg" width="20" height="20" fill="none"><path fill="#155366" d="m17.5 3.667.583-.584a.806.806 0 0 0 0-1.166.806.806 0 0 0-1.166 0l-8.75 8.75A4.48 4.48 0 0 0 5.832 10a4.126 4.126 0 0 0-4.167 4.167 4.126 4.126 0 0 0 4.167 4.166A4.126 4.126 0 0 0 10 14.167a4.48 4.48 0 0 0-.667-2.334L14 7.167l1.75 1.75a.806.806 0 0 0 1.166 0 .806.806 0 0 0 0-1.167L15.166 6l1.167-1.167.584.584a.806.806 0 0 0 1.166 0 .806.806 0 0 0 0-1.167l-.583-.583Zm-11.667 13c-1.417 0-2.5-1.084-2.5-2.5 0-1.417 1.083-2.5 2.5-2.5s2.5 1.083 2.5 2.5c0 1.416-1.083 2.5-2.5 2.5Z"/></svg>