<svg width="12" height="14" fill="none" xmlns="http://www.w3.org/2000/svg"><path d="M.667 7a.667.667 0 0 0 .666.666h5.06L4.86 9.193a.667.667 0 0 0 .217 1.093.668.668 0 0 0 .73-.146l2.666-2.667a.667.667 0 0 0 .14-.22.667.667 0 0 0 0-.507.667.667 0 0 0-.14-.22L5.807 3.86a.67.67 0 0 0-.947.946l1.533 1.527h-5.06A.667.667 0 0 0 .667 7ZM9.333.333H2.667a2 2 0 0 0-2 2v2a.667.667 0 1 0 1.333 0v-2a.667.667 0 0 1 .667-.667h6.666a.667.667 0 0 1 .667.667v9.333a.666.666 0 0 1-.667.667H2.667A.666.666 0 0 1 2 11.666v-2a.667.667 0 0 0-1.333 0v2a2 2 0 0 0 2 2h6.666a2 2 0 0 0 2-2V2.333a2 2 0 0 0-2-2Z" fill="currentColor"/></svg>
