<svg width="15" height="16" viewBox="0 0 15 16" fill="none" xmlns="http://www.w3.org/2000/svg">
<path d="M11.4761 1.95996H3.02002C2.53944 1.95996 2.07855 2.15087 1.73873 2.49069C1.39892 2.83051 1.20801 3.2914 1.20801 3.77197V9.81201C1.20801 10.2926 1.39892 10.7535 1.73873 11.0933C2.07855 11.4331 2.53944 11.624 3.02002 11.624H10.0204L12.2552 13.8649C12.3117 13.9209 12.3786 13.9651 12.4522 13.9952C12.5258 14.0253 12.6046 14.0405 12.6841 14.04C12.7633 14.0421 12.8419 14.0255 12.9136 13.9917C13.0239 13.9464 13.1183 13.8695 13.185 13.7706C13.2516 13.6717 13.2875 13.5553 13.2881 13.436V3.77197C13.2881 3.2914 13.0972 2.83051 12.7574 2.49069C12.4175 2.15087 11.9566 1.95996 11.4761 1.95996ZM12.0801 11.9804L10.6969 10.5912C10.6405 10.5352 10.5735 10.4909 10.4999 10.4608C10.4264 10.4308 10.3476 10.4156 10.2681 10.416H3.02002C2.85983 10.416 2.7062 10.3524 2.59292 10.2391C2.47965 10.1258 2.41602 9.9722 2.41602 9.81201V3.77197C2.41602 3.61178 2.47965 3.45815 2.59292 3.34488C2.7062 3.2316 2.85983 3.16797 3.02002 3.16797H11.4761C11.6363 3.16797 11.7899 3.2316 11.9032 3.34488C12.0164 3.45815 12.0801 3.61178 12.0801 3.77197V11.9804ZM7.24805 8C7.12859 8 7.01181 8.03542 6.91248 8.10179C6.81315 8.16816 6.73574 8.26249 6.69002 8.37286C6.6443 8.48323 6.63234 8.60467 6.65565 8.72184C6.67895 8.839 6.73648 8.94663 6.82095 9.0311C6.90542 9.11557 7.01305 9.1731 7.13021 9.1964C7.24738 9.21971 7.36882 9.20775 7.47919 9.16203C7.58956 9.11632 7.68389 9.0389 7.75026 8.93957C7.81663 8.84024 7.85205 8.72346 7.85205 8.604C7.85205 8.44381 7.78841 8.29018 7.67514 8.17691C7.56187 8.06364 7.40824 8 7.24805 8ZM7.24805 4.37598C7.08785 4.37598 6.93422 4.43961 6.82095 4.55289C6.70768 4.66616 6.64404 4.81979 6.64404 4.97998V6.79199C6.64404 6.95218 6.70768 7.10581 6.82095 7.21909C6.93422 7.33236 7.08785 7.396 7.24805 7.396C7.40824 7.396 7.56187 7.33236 7.67514 7.21909C7.78841 7.10581 7.85205 6.95218 7.85205 6.79199V4.97998C7.85205 4.81979 7.78841 4.66616 7.67514 4.55289C7.56187 4.43961 7.40824 4.37598 7.24805 4.37598Z" fill="#68797E"/>
</svg>
