<svg viewBox="0 0 15 14" fill="none" xmlns="http://www.w3.org/2000/svg">
  <path
    d="M12.8463 7.58314C12.7621 7.51354 12.6601 7.46898 12.5518 7.45454C12.4435 7.4401 12.3333 7.45636 12.2338 7.50147C11.617 7.78374 10.9463 7.92902 10.268 7.9273C9.01314 7.92579 7.8098 7.42823 6.92031 6.54311C6.03082 5.658 5.52734 4.45712 5.51965 3.2023C5.52231 2.80904 5.57125 2.41746 5.66548 2.03564C5.68547 1.93387 5.67797 1.82861 5.64375 1.7307C5.60953 1.6328 5.54983 1.54578 5.47079 1.47863C5.39175 1.41148 5.29623 1.36661 5.19409 1.34865C5.09194 1.3307 4.98685 1.3403 4.88965 1.37647C3.97517 1.78767 3.18023 2.42458 2.57951 3.22738C1.97878 4.03017 1.59199 4.9725 1.45547 5.96584C1.31896 6.95917 1.43719 7.97091 1.79907 8.906C2.16095 9.84109 2.75459 10.6688 3.52424 11.3115C4.29388 11.9541 5.21426 12.3906 6.19891 12.5799C7.18355 12.7691 8.20015 12.705 9.1532 12.3934C10.1062 12.0819 10.9645 11.5332 11.6472 10.7989C12.33 10.0646 12.8148 9.1688 13.0563 8.19564C13.0857 8.08422 13.0815 7.96658 13.0441 7.85757C13.0067 7.74857 12.9379 7.65307 12.8463 7.58314ZM7.30465 11.4856C6.32567 11.4787 5.37276 11.1694 4.57639 10.6C3.78002 10.0306 3.17912 9.22892 2.85596 8.30479C2.5328 7.38067 2.50319 6.37925 2.77118 5.43764C3.03916 4.49603 3.59165 3.66028 4.35298 3.0448V3.2023C4.35452 4.77059 4.97821 6.27419 6.08715 7.38313C7.19609 8.49208 8.6997 9.11576 10.268 9.1173C10.6797 9.11881 11.0905 9.07579 11.493 8.98897C11.0904 9.75052 10.4876 10.3877 9.74949 10.8318C9.01139 11.2759 8.16605 11.51 7.30465 11.509V11.4856Z"
    fill="#A66EE9"/>
</svg>
