<svg width="20" height="20" viewBox="0 0 20 20" fill="none" xmlns="http://www.w3.org/2000/svg">
<path d="M13.8333 3.66699V3.33366V2.50033C13.8333 2.36772 13.7807 2.24054 13.6869 2.14677C13.5931 2.053 13.4659 2.00033 13.3333 2.00033C13.2007 2.00033 13.0735 2.053 12.9798 2.14677C12.886 2.24054 12.8333 2.36772 12.8333 2.50033V3.33366V3.66699H12.5H10.8333H10.5V3.33366V2.50033C10.5 2.36772 10.4473 2.24054 10.3536 2.14677C10.2598 2.053 10.1326 2.00033 10 2.00033C9.86739 2.00033 9.74021 2.053 9.64645 2.14677M13.8333 3.66699L9.64645 2.14677M13.8333 3.66699H14.1667H16.6667C16.7993 3.66699 16.9265 3.71967 17.0202 3.81344C17.114 3.90721 17.1667 4.03438 17.1667 4.16699V15.8337C17.1667 16.4083 16.9384 16.9594 16.5321 17.3657C16.1257 17.7721 15.5746 18.0003 15 18.0003H5C4.42536 18.0003 3.87426 17.7721 3.46794 17.3657C3.06161 16.9594 2.83333 16.4083 2.83333 15.8337V4.16699C2.83333 4.03438 2.88601 3.90721 2.97978 3.81344C3.07355 3.71967 3.20073 3.66699 3.33333 3.66699H5.83333H6.16667V3.33366V2.50033C6.16667 2.36772 6.21935 2.24054 6.31311 2.14677C6.40688 2.053 6.53406 2.00033 6.66667 2.00033C6.79927 2.00033 6.92645 2.053 7.02022 2.14677L7.25487 1.91212L7.02022 2.14677C7.11399 2.24054 7.16667 2.36772 7.16667 2.50033V3.33366V3.66699H7.5H9.16667H9.5V3.33366V2.50033C9.5 2.36772 9.55268 2.24054 9.64645 2.14677M13.8333 3.66699L9.41074 1.91107L9.64645 2.14677M4.16667 4.66699H3.83333V5.00033V15.8337C3.83333 16.1431 3.95625 16.4398 4.17504 16.6586C4.39383 16.8774 4.69058 17.0003 5 17.0003H15C15.3094 17.0003 15.6062 16.8774 15.825 16.6586C16.0438 16.4398 16.1667 16.1431 16.1667 15.8337V5.00033V4.66699H15.8333H14.1667H13.8333V5.00033V5.83366C13.8333 5.96627 13.7807 6.09344 13.6869 6.18721C13.5931 6.28098 13.4659 6.33366 13.3333 6.33366C13.2007 6.33366 13.0735 6.28098 12.9798 6.18721C12.886 6.09344 12.8333 5.96627 12.8333 5.83366V5.00033V4.66699H12.5H10.8333H10.5V5.00033V5.83366C10.5 5.96627 10.4473 6.09344 10.3536 6.18721C10.2598 6.28098 10.1326 6.33366 10 6.33366C9.86739 6.33366 9.74021 6.28098 9.64645 6.18721C9.55268 6.09344 9.5 5.96627 9.5 5.83366V5.00033V4.66699H9.16667H7.5H7.16667V5.00033V5.83366C7.16667 5.96627 7.11399 6.09344 7.02022 6.18721C6.92645 6.28098 6.79928 6.33366 6.66667 6.33366C6.53406 6.33366 6.40688 6.28098 6.31311 6.18721C6.21935 6.09344 6.16667 5.96627 6.16667 5.83366V5.00033V4.66699H5.83333H4.16667ZM6.31311 12.1468C6.40688 12.053 6.53406 12.0003 6.66667 12.0003H13.3333C13.4659 12.0003 13.5931 12.053 13.6869 12.1468C13.7807 12.2405 13.8333 12.3677 13.8333 12.5003C13.8333 12.6329 13.7807 12.7601 13.6869 12.8539C13.5931 12.9476 13.4659 13.0003 13.3333 13.0003H6.66667C6.53406 13.0003 6.40688 12.9476 6.31311 12.8539C6.21934 12.7601 6.16667 12.6329 6.16667 12.5003C6.16667 12.3677 6.21935 12.2405 6.31311 12.1468ZM7.97978 8.81344C8.07355 8.71967 8.20073 8.66699 8.33333 8.66699H13.3333C13.4659 8.66699 13.5931 8.71967 13.6869 8.81344C13.7807 8.90721 13.8333 9.03438 13.8333 9.16699C13.8333 9.2996 13.7807 9.42678 13.6869 9.52055C13.5931 9.61431 13.4659 9.66699 13.3333 9.66699H8.33333C8.20073 9.66699 8.07355 9.61431 7.97978 9.52055C7.88601 9.42678 7.83333 9.2996 7.83333 9.16699C7.83333 9.03438 7.88601 8.90721 7.97978 8.81344Z" fill="#155366" stroke="#155366" stroke-width="0.666667"/>
</svg>
