<svg xmlns="http://www.w3.org/2000/svg" width="16" height="16" fill="none"><mask id="a" fill="#fff"><path d="M8 9.333A.667.667 0 1 0 8 8a.667.667 0 0 0 0 1.333Zm3.333 0a.667.667 0 1 0 0-1.334.667.667 0 0 0 0 1.334ZM8 12a.667.667 0 1 0 0-1.334A.667.667 0 0 0 8 12Zm3.333 0a.667.667 0 1 0 0-1.335.667.667 0 0 0 0 1.335ZM4.667 9.333a.667.667 0 1 0 0-1.333.667.667 0 0 0 0 1.333Zm8-6.666H12V2a.667.667 0 1 0-1.333 0v.667H5.333V2A.667.667 0 1 0 4 2v.667h-.667a2 2 0 0 0-2 2v8a2 2 0 0 0 2 2h9.334a2 2 0 0 0 2-2v-8a2 2 0 0 0-2-2Zm.666 10a.667.667 0 0 1-.666.666H3.333a.667.667 0 0 1-.666-.666v-6h10.666v6Zm0-7.334H2.667v-.666A.667.667 0 0 1 3.333 4h9.334a.667.667 0 0 1 .666.667v.666ZM4.667 12a.667.667 0 1 0 0-1.334.667.667 0 0 0 0 1.334Z"/></mask><path fill="#fff" stroke="#155366" stroke-width="1.333" d="M8 9.333A.667.667 0 1 0 8 8a.667.667 0 0 0 0 1.333Zm3.333 0a.667.667 0 1 0 0-1.334.667.667 0 0 0 0 1.334ZM8 12a.667.667 0 1 0 0-1.334A.667.667 0 0 0 8 12Zm3.333 0a.667.667 0 1 0 0-1.335.667.667 0 0 0 0 1.335ZM4.667 9.333a.667.667 0 1 0 0-1.333.667.667 0 0 0 0 1.333Zm8-6.666H12V2a.667.667 0 1 0-1.333 0v.667H5.333V2A.667.667 0 1 0 4 2v.667h-.667a2 2 0 0 0-2 2v8a2 2 0 0 0 2 2h9.334a2 2 0 0 0 2-2v-8a2 2 0 0 0-2-2Zm.666 10a.667.667 0 0 1-.666.666H3.333a.667.667 0 0 1-.666-.666v-6h10.666v6Zm0-7.334H2.667v-.666A.667.667 0 0 1 3.333 4h9.334a.667.667 0 0 1 .666.667v.666ZM4.667 12a.667.667 0 1 0 0-1.334.667.667 0 0 0 0 1.334Z" mask="url(#a)"/></svg>