<svg width="18" height="18" viewBox="0 0 18 18" fill="none" xmlns="http://www.w3.org/2000/svg">
<path d="M5.24219 10.875C5.14369 10.875 5.04615 10.8944 4.95515 10.932C4.86414 10.9697 4.78145 11.025 4.7118 11.0946C4.64216 11.1643 4.58691 11.247 4.54923 11.338C4.51155 11.429 4.49217 11.5265 4.49219 11.625V12.9617C3.52548 11.8685 2.99197 10.4594 2.99219 9.00001C2.99205 8.77944 3.00526 8.55907 3.03174 8.3401C3.04388 8.24218 3.03658 8.14283 3.01026 8.04773C2.98393 7.95264 2.9391 7.86367 2.87833 7.78594C2.81756 7.7082 2.74205 7.64322 2.65612 7.59472C2.5702 7.54622 2.47554 7.51516 2.37759 7.5033C2.27963 7.49145 2.1803 7.49904 2.08528 7.52565C1.99027 7.55226 1.90144 7.59735 1.82388 7.65835C1.74632 7.71935 1.68157 7.79505 1.63332 7.88112C1.58508 7.96719 1.55429 8.06194 1.54273 8.15993C1.50875 8.43866 1.49188 8.71921 1.49219 9.00001C1.49321 10.7896 2.13641 12.5195 3.30484 13.875H2.24219C2.04328 13.875 1.85251 13.954 1.71186 14.0947C1.57121 14.2353 1.49219 14.4261 1.49219 14.625C1.49219 14.8239 1.57121 15.0147 1.71186 15.1553C1.85251 15.296 2.04328 15.375 2.24219 15.375H5.24219C5.35949 15.3735 5.47474 15.3441 5.57834 15.289C5.68194 15.234 5.77089 15.155 5.83779 15.0587C5.84653 15.0471 5.8577 15.0386 5.86585 15.0264C5.87084 15.0189 5.87098 15.0101 5.87564 15.0025C5.91139 14.9421 5.93817 14.8769 5.95514 14.8088C5.96625 14.7705 5.97413 14.7314 5.97871 14.6919C5.98087 14.6687 5.99221 14.6487 5.99221 14.625V11.625C5.99224 11.5265 5.97286 11.429 5.93518 11.338C5.8975 11.247 5.84225 11.1643 5.7726 11.0946C5.70295 11.025 5.62026 10.9697 5.52925 10.932C5.43824 10.8944 5.34069 10.875 5.24219 10.875ZM6.36719 4.50001H5.03034C6.12369 3.53334 7.53279 2.99984 8.99219 3.00001C9.21265 2.99948 9.43292 3.01269 9.65173 3.03956C9.74955 3.05144 9.84875 3.04394 9.94367 3.01748C10.0386 2.99102 10.1274 2.94613 10.2049 2.88536C10.2825 2.82459 10.3473 2.74914 10.3957 2.66331C10.4442 2.57748 10.4752 2.48296 10.4871 2.38514C10.4989 2.28733 10.4914 2.18813 10.465 2.09321C10.4385 1.99829 10.3936 1.90951 10.3329 1.83195C10.2721 1.75438 10.1966 1.68954 10.1108 1.64113C10.025 1.59272 9.93046 1.5617 9.83264 1.54982C9.55376 1.51617 9.27309 1.49954 8.99219 1.50001C7.20259 1.50098 5.47275 2.14413 4.11719 3.31253V2.25001C4.11719 2.0511 4.03817 1.86033 3.89752 1.71968C3.75687 1.57903 3.5661 1.50001 3.36719 1.50001C3.16828 1.50001 2.97751 1.57903 2.83686 1.71968C2.69621 1.86033 2.61719 2.0511 2.61719 2.25001V5.25001C2.62191 5.29958 2.63179 5.34852 2.64667 5.39604L2.64685 5.39696C2.66507 5.48925 2.70102 5.57712 2.75273 5.65571L2.7613 5.66838C2.81085 5.74046 2.87297 5.80304 2.94467 5.85314C2.95287 5.85914 2.95694 5.86833 2.96545 5.87405C2.97617 5.88115 2.9883 5.8834 2.99924 5.88989C3.04178 5.91548 3.08685 5.9366 3.13373 5.95289C3.1971 5.97494 3.26316 5.98827 3.33011 5.99253C3.34311 5.99322 3.35405 6.00003 3.36719 6.00003H6.36719C6.5661 6.00003 6.75687 5.92101 6.89752 5.78036C7.03817 5.63971 7.11719 5.44894 7.11719 5.25003C7.11719 5.05112 7.03817 4.86035 6.89752 4.7197C6.75687 4.57905 6.5661 4.50003 6.36719 4.50003V4.50001ZM15.3375 12.6031C15.3193 12.5108 15.2834 12.4228 15.2316 12.3443L15.2231 12.3317C15.1735 12.2595 15.1114 12.1969 15.0396 12.1468C15.0314 12.1409 15.0274 12.1316 15.0189 12.1259C15.0108 12.1206 15.0012 12.1204 14.993 12.1154C14.8978 12.0625 14.7936 12.028 14.6857 12.0138C14.662 12.0116 14.6415 12 14.6172 12H11.6172C11.4183 12 11.2275 12.079 11.0869 12.2196C10.9462 12.3603 10.8672 12.5511 10.8672 12.75C10.8672 12.9489 10.9462 13.1396 11.0869 13.2803C11.2275 13.421 11.4183 13.5 11.6172 13.5H12.954C11.8607 14.4666 10.4516 15.0002 8.99219 15C8.77172 15.0003 8.55144 14.9868 8.33264 14.9597C8.13509 14.9357 7.9361 14.9912 7.77944 15.1139C7.62279 15.2366 7.5213 15.4166 7.49731 15.6141C7.47333 15.8117 7.5288 16.0107 7.65152 16.1673C7.77425 16.324 7.95418 16.4254 8.15173 16.4494C8.43062 16.4831 8.71128 16.4999 8.99219 16.5C10.7818 16.499 12.5116 15.8559 13.8672 14.6875V15.75C13.8672 15.9489 13.9462 16.1397 14.0869 16.2803C14.2275 16.421 14.4183 16.5 14.6172 16.5C14.8161 16.5 15.0069 16.421 15.1475 16.2803C15.2882 16.1397 15.3672 15.9489 15.3672 15.75V12.75C15.3625 12.7004 15.3526 12.6515 15.3377 12.604L15.3375 12.6031ZM15.7422 4.12501C15.9411 4.12501 16.1319 4.04599 16.2725 3.90534C16.4132 3.76469 16.4922 3.57392 16.4922 3.37501C16.4922 3.1761 16.4132 2.98533 16.2725 2.84468C16.1319 2.70403 15.9411 2.62501 15.7422 2.62501H12.7422C12.6934 2.62972 12.6452 2.63944 12.5983 2.65403L12.5933 2.65504C12.5022 2.67326 12.4155 2.70879 12.3378 2.75969L12.3231 2.76962C12.2514 2.8191 12.1891 2.88102 12.1391 2.95245C12.1332 2.96055 12.1241 2.96453 12.1185 2.97291C12.1132 2.98097 12.113 2.99049 12.108 2.99868C12.0544 3.09438 12.0197 3.19943 12.0057 3.30818C12.0035 3.33134 11.9922 3.3513 11.9922 3.37501V6.37501C11.9922 6.57392 12.0712 6.76469 12.2119 6.90534C12.3525 7.04599 12.5433 7.12501 12.7422 7.12501C12.9411 7.12501 13.1319 7.04599 13.2725 6.90534C13.4132 6.76469 13.4922 6.57392 13.4922 6.37501V5.03785C14.4588 6.13133 14.9923 7.54049 14.9922 8.99997C14.9923 9.22054 14.9791 9.44092 14.9526 9.65989C14.9289 9.85731 14.9844 10.0561 15.107 10.2126C15.2296 10.3692 15.4093 10.4707 15.6067 10.4948C15.6371 10.4984 15.6677 10.5001 15.6983 10.5C15.8814 10.4997 16.0581 10.4325 16.195 10.3109C16.332 10.1894 16.4197 10.0219 16.4417 9.84006C16.4756 9.56134 16.4925 9.2808 16.4922 9.00001C16.4912 7.21037 15.8479 5.48053 14.6794 4.12501H15.7422Z" fill="#155366"/>
</svg>
