<svg xmlns="http://www.w3.org/2000/svg" fill="none" viewBox="0 0 17 16"><path fill="currentColor" stroke="currentColor" stroke-width=".667" d="M8.167 3.6v-.805l-.57.569-.866.867a.312.312 0 0 1-.462 0 .312.312 0 0 1 0-.462l2-2-.234-.235.234.235a.312.312 0 0 1 .462 0l.233-.234-.233.234 2 2a.312.312 0 0 1 0 .462.368.368 0 0 1-.108.08.292.292 0 0 1-.123.022.292.292 0 0 1-.123-.021.368.368 0 0 1-.108-.081l-.867-.867-.569-.57v8.539c0 .124-.04.202-.085.248-.046.045-.124.085-.248.085s-.202-.04-.248-.085c-.045-.046-.085-.124-.085-.248V3.6Zm3 2.733H12.5c.95 0 1.667.717 1.667 1.667v4.666c0 .95-.718 1.667-1.667 1.667h-8c-.95 0-1.667-.717-1.667-1.667V8c0-.95.718-1.667 1.667-1.667h1.333c.125 0 .202.04.248.086.046.045.086.123.086.247 0 .125-.04.202-.086.248-.046.046-.123.086-.248.086H4.5a1 1 0 0 0-.719.28A1 1 0 0 0 3.5 8v4.666a1 1 0 0 0 .281.72 1 1 0 0 0 .719.28h8a1 1 0 0 0 .719-.28 1 1 0 0 0 .281-.72V8a1 1 0 0 0-.281-.72A1 1 0 0 0 12.5 7h-1.333c-.125 0-.202-.04-.248-.086-.046-.046-.086-.123-.086-.248 0-.124.04-.202.086-.247.046-.046.123-.086.248-.086Z"/></svg>
