<svg width="16" height="20" fill="none" xmlns="http://www.w3.org/2000/svg"><path d="M12.667 7v.333H13A2.667 2.667 0 0 1 15.667 10v7A2.667 2.667 0 0 1 13 19.667H3A2.667 2.667 0 0 1 .333 17v-7A2.667 2.667 0 0 1 3 7.333h.333V5a4.667 4.667 0 0 1 9.334 0v2ZM11 7.333h.333V5a3.333 3.333 0 0 0-6.666 0v2.333H11Zm2.943 10.61c.25-.25.39-.59.39-.943v-7A1.333 1.333 0 0 0 13 8.667H3A1.333 1.333 0 0 0 1.667 10v7A1.333 1.333 0 0 0 3 18.333h10c.354 0 .693-.14.943-.39Z" fill="#155366" stroke="#155366" stroke-width=".667"/></svg>
