<svg class="" xmlns="http://www.w3.org/2000/svg" fill="none" viewBox="0 0 15 14"><path fill="currentColor" stroke="currentColor" stroke-width=".667" d="M7.5 4.666a1 1 0 0 0-.869.5l-.006.012a.333.333 0 0 1-.203.166l.093.32-.093-.32a.333.333 0 0 1-.36-.12l-.266.2.267-.2a.333.333 0 0 1-.015-.379l.004-.006.003-.006A1.667 1.667 0 0 1 7.5 4a1.667 1.667 0 0 1 .554 3.233l-.22.08v.353a.333.333 0 1 1-.666 0V7a.333.333 0 0 1 .333-.334 1 1 0 0 0 0-2Zm0 0V5l.001-.334Zm-.316 4.898.01-.02.008-.023a.173.173 0 0 1 .02-.039 1.2 1.2 0 0 1 .046-.06.333.333 0 0 1 .104-.067l-.128-.308.128.308a.333.333 0 0 1 .365.073.333.333 0 0 1 .096.236v.015a.333.333 0 0 1-.02.126v.001a.267.267 0 0 1-.062.098l.236.236-.236-.236a.267.267 0 0 1-.098.062l-.01.004-.011.005a.293.293 0 0 1-.237 0l-.01-.005-.012-.004a.267.267 0 0 1-.097-.062l-.236.236.236-.236a.267.267 0 0 1-.063-.098l-.005-.014-.007-.015a.227.227 0 0 1-.021-.102v-.033a.573.573 0 0 1-.002-.064.094.094 0 0 1 .006-.014ZM3.98 1.734a6.333 6.333 0 1 1 7.038 10.532A6.333 6.333 0 0 1 3.98 1.734Zm.37 9.977a5.666 5.666 0 1 0 6.297-9.422 5.666 5.666 0 0 0-6.296 9.422Z"/></svg>
