<svg viewBox="0 0 16 16" fill="none" xmlns="http://www.w3.org/2000/svg"><path d="M13.9987 7.33301C13.5987 7.33301 13.332 7.59967 13.332 7.99967C13.332 9.93301 12.332 11.6663 10.6654 12.5997C8.13203 14.0663 4.86536 13.1997 3.3987 10.6663C1.93203 8.13301 2.7987 4.86634 5.33203 3.39967C7.53203 2.13301 10.1987 2.59967 11.8654 4.33301H10.2654C9.86537 4.33301 9.5987 4.59967 9.5987 4.99967C9.5987 5.39967 9.86537 5.66634 10.2654 5.66634H13.2654C13.6654 5.66634 13.932 5.39967 13.932 4.99967V1.99967C13.932 1.59967 13.6654 1.33301 13.2654 1.33301C12.8654 1.33301 12.5987 1.59967 12.5987 1.99967V3.19967C11.332 1.99967 9.73203 1.33301 7.9987 1.33301C4.33203 1.33301 1.33203 4.33301 1.33203 7.99967C1.33203 11.6663 4.33203 14.6663 7.9987 14.6663C11.6654 14.6663 14.6654 11.6663 14.6654 7.99967C14.6654 7.59967 14.3987 7.33301 13.9987 7.33301Z" fill="currentColor"/></svg>
