<svg xmlns="http://www.w3.org/2000/svg" width="16" height="19" fill="none"><path fill="#fff" stroke="#155366" stroke-width=".667" d="m13 16.332-.533-.398-.713-.534a.333.333 0 0 0-.4 0l1.646.932Zm0 0V5.333H3V16.332l.533-.398.713-.534a.333.333 0 0 1 .4 0l1.374 1.033.2.15.2-.15L7.8 15.4a.333.333 0 0 1 .4 0l1.38 1.033.2.15.2-.15 1.373-1.033 1.647.932Zm-10.133.934a.334.334 0 0 1-.484-.09l-.283.174.283-.175a.334.334 0 0 1-.05-.175V5a.333.333 0 0 1 .334-.333h10.666a.333.333 0 0 1 .334.333v11.999a.334.334 0 0 1-.05.174l.283.175-.283-.175a.333.333 0 0 1-.314.158l-.028.332.028-.332a.334.334 0 0 1-.17-.065l-1.38-1.033-.2-.15-.2.15-1.373 1.034a.333.333 0 0 1-.4 0L8.2 16.232l-.2-.15-.2.15-1.38 1.033a.333.333 0 0 1-.4 0l-1.373-1.032-.2-.15-.2.15-1.38 1.032Zm2.23-4.03-.235.235.236-.235a.333.333 0 0 1 0-.472l-.236-.236.236.236a.333.333 0 0 1 .235-.097h5.334a.333.333 0 1 1 0 .666H5.333a.333.333 0 0 1-.235-.097ZM10.668 8h-4a.333.333 0 0 1 0-.667h4a.333.333 0 1 1 0 .667Zm0 2.667H5.333a.333.333 0 1 1 0-.667h5.334a.333.333 0 1 1 0 .667Z"/></svg>