<svg width="16" height="17" viewBox="0 0 16 17" fill="none" xmlns="http://www.w3.org/2000/svg">
<path d="M3.64355 12.146L7.64205 8.14752L8.34905 8.85452L4.35055 12.853L3.64355 12.146Z" fill="#155366"/>
<path d="M8.49991 15.5C8.43658 15.5001 8.3738 15.4882 8.31491 15.465C8.233 15.4323 8.16118 15.3786 8.10673 15.3092C8.05229 15.2398 8.01716 15.1573 8.00491 15.07L7.50491 11.57L8.50491 11.43L8.87991 14.065L10.4999 12.76V8.99997C10.4995 8.93417 10.5121 8.86894 10.537 8.80802C10.5619 8.7471 10.5986 8.69169 10.6449 8.64497L12.6799 6.60997C13.0992 6.1935 13.4318 5.698 13.6584 5.15216C13.885 4.60632 14.001 4.02097 13.9999 3.42997V2.49997H13.0699C12.4789 2.49885 11.8936 2.61493 11.3477 2.84151C10.8019 3.06808 10.3064 3.40065 9.88991 3.81997L7.85491 5.85497C7.80819 5.90131 7.75278 5.93797 7.69186 5.96286C7.63095 5.98774 7.56571 6.00035 7.49991 5.99997H3.73991L2.43491 7.62997L5.06991 8.00497L4.92991 9.00497L1.42991 8.50497C1.34258 8.49272 1.26005 8.45759 1.19067 8.40315C1.1213 8.34871 1.06757 8.27688 1.03491 8.19497C1.00185 8.11248 0.991373 8.02267 1.00456 7.93479C1.01774 7.84691 1.0541 7.76413 1.10991 7.69497L3.10991 5.19497C3.15597 5.13512 3.21499 5.08649 3.28253 5.05272C3.35008 5.01894 3.4244 5.00091 3.49991 4.99997H7.29491L9.17991 3.10997C9.6895 2.59752 10.2957 2.19134 10.9635 1.91497C11.6313 1.63859 12.3472 1.49754 13.0699 1.49997H13.9999C14.2651 1.49997 14.5195 1.60533 14.707 1.79286C14.8946 1.9804 14.9999 2.23475 14.9999 2.49997V3.42997C15.0023 4.15265 14.8613 4.86863 14.5849 5.53639C14.3085 6.20414 13.9024 6.81039 13.3899 7.31997L11.4999 9.20497V13C11.4996 13.0751 11.4823 13.1491 11.4494 13.2166C11.4165 13.2842 11.3688 13.3434 11.3099 13.39L8.80991 15.39C8.72194 15.4606 8.61269 15.4993 8.49991 15.5Z" fill="#155366"/>
</svg>
