<svg width="16" height="16" fill="none" xmlns="http://www.w3.org/2000/svg"><path d="m10.165 9.662.163.164.21-.096a1.72 1.72 0 0 1 1.895.314l1.376 1.409.238-.233-.233.238a1.665 1.665 0 0 1 0 2.384l-.003.002a1.667 1.667 0 0 1-2.355 0l-1.412-1.412a1.667 1.667 0 0 1-.293-1.92l.11-.216-.172-.172-.593-.593-.204-.204-.231.173a4.333 4.333 0 1 1 .872-.873l-.173.231.205.204.6.6Zm2.853 3.898a1 1 0 0 0 .543-.542.999.999 0 0 0-.219-1.094l-1.412-1.412a1 1 0 0 0-1.637.323 1 1 0 0 0 .219 1.095l1.412 1.411v.001a.999.999 0 0 0 1.094.218ZM6.752 9.63a3.667 3.667 0 1 0-1.424-7.194A3.667 3.667 0 0 0 6.752 9.63Z" fill="#A6B5BA" stroke="#A6B5BA" stroke-width=".667"/></svg>