<svg viewBox="0 0 16 16" fill="none" xmlns="http://www.w3.org/2000/svg">
<path d="M14.212 6.36634L12.952 5.94634L13.5454 4.75968C13.6055 4.63547 13.6256 4.49565 13.6029 4.35952C13.5803 4.2234 13.5159 4.09766 13.4187 3.99968L11.9987 2.57968C11.9002 2.48107 11.7732 2.41581 11.6357 2.39309C11.4982 2.37037 11.357 2.39133 11.232 2.45301L10.0454 3.04634L9.62537 1.78634C9.58101 1.655 9.49681 1.54076 9.38449 1.45951C9.27218 1.37826 9.13732 1.33404 8.9987 1.33301H6.9987C6.85894 1.33265 6.7226 1.37622 6.60895 1.45757C6.4953 1.53892 6.41009 1.65393 6.36537 1.78634L5.94537 3.04634L4.7587 2.45301C4.63449 2.39286 4.49468 2.37275 4.35855 2.39543C4.22242 2.41812 4.09669 2.4825 3.9987 2.57968L2.5787 3.99968C2.48009 4.09819 2.41484 4.22513 2.39212 4.36265C2.3694 4.50017 2.39035 4.64135 2.45203 4.76634L3.04537 5.95301L1.78537 6.37301C1.65403 6.41737 1.53978 6.50156 1.45853 6.61388C1.37728 6.7262 1.33306 6.86105 1.33203 6.99968V8.99968C1.33167 9.13944 1.37525 9.27578 1.45659 9.38943C1.53794 9.50308 1.65295 9.58829 1.78537 9.63301L3.04537 10.053L2.45203 11.2397C2.39189 11.3639 2.37177 11.5037 2.39446 11.6398C2.41715 11.776 2.48152 11.9017 2.5787 11.9997L3.9987 13.4197C4.09721 13.5183 4.22415 13.5835 4.36167 13.6063C4.49919 13.629 4.64037 13.608 4.76537 13.5463L5.95203 12.953L6.37203 14.213C6.41676 14.3454 6.50197 14.4604 6.61561 14.5418C6.72926 14.6231 6.8656 14.6667 7.00537 14.6663H9.00537C9.14513 14.6667 9.28147 14.6231 9.39512 14.5418C9.50877 14.4604 9.59398 14.3454 9.6387 14.213L10.0587 12.953L11.2454 13.5463C11.3688 13.605 11.5072 13.6243 11.642 13.6016C11.7767 13.579 11.9012 13.5154 11.9987 13.4197L13.4187 11.9997C13.5173 11.9012 13.5826 11.7742 13.6053 11.6367C13.628 11.4992 13.607 11.358 13.5454 11.233L12.952 10.0463L14.212 9.62634C14.3434 9.58199 14.4576 9.49779 14.5389 9.38547C14.6201 9.27315 14.6643 9.1383 14.6654 8.99968V6.99968C14.6657 6.85991 14.6222 6.72357 14.5408 6.60992C14.4595 6.49627 14.3444 6.41107 14.212 6.36634ZM13.332 8.51968L12.532 8.78634C12.3481 8.84601 12.1793 8.94499 12.0374 9.07641C11.8955 9.20783 11.7839 9.36854 11.7103 9.5474C11.6368 9.72625 11.603 9.91897 11.6113 10.1122C11.6197 10.3054 11.67 10.4945 11.7587 10.6663L12.1387 11.4263L11.4054 12.1597L10.6654 11.7597C10.4944 11.6745 10.3071 11.6271 10.1162 11.6205C9.92535 11.614 9.73528 11.6486 9.55891 11.7219C9.38254 11.7953 9.22399 11.9056 9.09398 12.0456C8.96397 12.1855 8.86555 12.3517 8.80537 12.533L8.5387 13.333H7.4787L7.21203 12.533C7.15236 12.349 7.05338 12.1803 6.92197 12.0384C6.79055 11.8965 6.62984 11.7849 6.45098 11.7113C6.27212 11.6377 6.0794 11.604 5.88618 11.6123C5.69297 11.6207 5.50388 11.6709 5.33203 11.7597L4.57203 12.1397L3.8387 11.4063L4.2387 10.6663C4.32743 10.4945 4.37771 10.3054 4.38606 10.1122C4.39441 9.91897 4.36063 9.72625 4.28706 9.5474C4.21349 9.36854 4.10189 9.20783 3.96 9.07641C3.81811 8.94499 3.64933 8.84601 3.46537 8.78634L2.66537 8.51968V7.47968L3.46537 7.21301C3.64933 7.15334 3.81811 7.05436 3.96 6.92294C4.10189 6.79152 4.21349 6.63081 4.28706 6.45196C4.36063 6.2731 4.39441 6.08038 4.38606 5.88716C4.37771 5.69394 4.32743 5.50485 4.2387 5.33301L3.8587 4.59301L4.59203 3.85968L5.33203 4.23968C5.50388 4.32841 5.69297 4.37869 5.88618 4.38704C6.0794 4.39539 6.27212 4.36161 6.45098 4.28804C6.62984 4.21446 6.79055 4.10286 6.92197 3.96097C7.05338 3.81908 7.15236 3.65031 7.21203 3.46634L7.4787 2.66634H8.5187L8.78537 3.46634C8.84504 3.65031 8.94402 3.81908 9.07543 3.96097C9.20685 4.10286 9.36756 4.21446 9.54642 4.28804C9.72528 4.36161 9.918 4.39539 10.1112 4.38704C10.3044 4.37869 10.4935 4.32841 10.6654 4.23968L11.4254 3.85968L12.1587 4.59301L11.7587 5.33301C11.6735 5.50397 11.6261 5.69124 11.6196 5.88214C11.6131 6.07303 11.6476 6.2631 11.721 6.43946C11.7943 6.61583 11.9047 6.77439 12.0446 6.9044C12.1845 7.0344 12.3508 7.13283 12.532 7.19301L13.332 7.45968V8.51968ZM7.9987 5.33301C7.47128 5.33301 6.95571 5.48941 6.51718 5.78242C6.07865 6.07544 5.73685 6.49192 5.53502 6.97919C5.33319 7.46646 5.28038 8.00263 5.38327 8.51992C5.48617 9.0372 5.74014 9.51235 6.11308 9.88529C6.48602 10.2582 6.96118 10.5122 7.47846 10.6151C7.99574 10.718 8.53192 10.6652 9.01919 10.4634C9.50646 10.2615 9.92293 9.91973 10.216 9.4812C10.509 9.04267 10.6654 8.52709 10.6654 7.99968C10.6654 7.29243 10.3844 6.61416 9.88432 6.11406C9.38422 5.61396 8.70594 5.33301 7.9987 5.33301ZM7.9987 9.33301C7.73499 9.33301 7.4772 9.25481 7.25794 9.1083C7.03867 8.96179 6.86778 8.75356 6.76686 8.50992C6.66594 8.26629 6.63954 7.9982 6.69099 7.73956C6.74243 7.48091 6.86942 7.24334 7.05589 7.05687C7.24236 6.8704 7.47994 6.74341 7.73858 6.69196C7.99722 6.64052 8.26531 6.66692 8.50894 6.76784C8.75258 6.86875 8.96082 7.03965 9.10733 7.25892C9.25383 7.47818 9.33203 7.73597 9.33203 7.99968C9.33203 8.3533 9.19156 8.69244 8.94151 8.94248C8.69146 9.19253 8.35232 9.33301 7.9987 9.33301Z" fill="currentColor"/>
</svg>
