<svg viewBox="0 0 18 18" fill="none" xmlns="http://www.w3.org/2000/svg">
<path d="M14.7225 2.73773C14.6354 2.66725 14.5336 2.61719 14.4245 2.59123C14.3155 2.56527 14.2021 2.56408 14.0925 2.58773C13.2911 2.75569 12.4638 2.75783 11.6615 2.59402C10.8592 2.43021 10.0989 2.10392 9.4275 1.63523C9.30196 1.54814 9.1528 1.50146 9 1.50146C8.8472 1.50146 8.69805 1.54814 8.5725 1.63523C7.90107 2.10392 7.14081 2.43021 6.33853 2.59402C5.53625 2.75783 4.70893 2.75569 3.9075 2.58773C3.79796 2.56408 3.6845 2.56527 3.57548 2.59123C3.46646 2.61719 3.36464 2.66725 3.2775 2.73773C3.19049 2.80832 3.1204 2.89751 3.07237 2.99874C3.02435 3.09998 2.99962 3.21069 3 3.32273V8.91023C2.99934 9.98554 3.25558 11.0455 3.74741 12.0017C4.23923 12.9579 4.95239 13.7829 5.8275 14.4077L8.565 16.3577C8.69203 16.4482 8.84408 16.4968 9 16.4968C9.15593 16.4968 9.30798 16.4482 9.435 16.3577L12.1725 14.4077C13.0476 13.7829 13.7608 12.9579 14.2526 12.0017C14.7444 11.0455 15.0007 9.98554 15 8.91023V3.32273C15.0004 3.21069 14.9757 3.09998 14.9276 2.99874C14.8796 2.89751 14.8095 2.80832 14.7225 2.73773ZM13.5 8.91023C13.5006 9.7463 13.3015 10.5704 12.9192 11.314C12.537 12.0576 11.9827 12.6991 11.3025 13.1852L9 14.8277L6.6975 13.1852C6.01728 12.6991 5.46299 12.0576 5.08077 11.314C4.69854 10.5704 4.49943 9.7463 4.5 8.91023V4.18523C6.07233 4.31981 7.64703 3.955 9 3.14273C10.353 3.955 11.9277 4.31981 13.5 4.18523V8.91023ZM10.155 7.19273L8.1375 9.21773L7.47 8.54273C7.32878 8.4015 7.13723 8.32216 6.9375 8.32216C6.73778 8.32216 6.54623 8.4015 6.405 8.54273C6.26378 8.68396 6.18444 8.87551 6.18444 9.07523C6.18444 9.27496 6.26378 9.4665 6.405 9.60773L7.605 10.8077C7.67473 10.878 7.75768 10.9338 7.84907 10.9719C7.94047 11.01 8.0385 11.0296 8.1375 11.0296C8.23651 11.0296 8.33454 11.01 8.42594 10.9719C8.51733 10.9338 8.60028 10.878 8.67 10.8077L11.25 8.25023C11.3912 8.109 11.4706 7.91746 11.4706 7.71773C11.4706 7.518 11.3912 7.32646 11.25 7.18523C11.1088 7.044 10.9172 6.96466 10.7175 6.96466C10.5178 6.96466 10.3262 7.044 10.185 7.18523L10.155 7.19273Z" fill="currentColor"/>
</svg>
