<svg width="16" height="16" viewBox="0 0 16 16" fill="none" xmlns="http://www.w3.org/2000/svg"><path d="M14.2734 5.76667C14.2734 5.76667 14.2734 5.76667 14.2734 5.72667C13.8077 4.44264 12.9589 3.33261 11.8418 2.54674C10.7247 1.76087 9.39317 1.33709 8.02732 1.33272C6.66148 1.32836 5.32726 1.74362 4.20514 2.52234C3.08302 3.30105 2.22717 4.40564 1.75335 5.68667C1.72769 5.73705 1.70972 5.79098 1.70002 5.84667C1.45868 6.53901 1.33475 7.26681 1.33335 8.00001C1.33005 8.97336 1.53993 9.93563 1.94825 10.8192C2.35656 11.7028 2.9534 12.4862 3.69684 13.1145C4.44028 13.7428 5.31227 14.2006 6.25156 14.4559C7.19085 14.7112 8.17465 14.7577 9.13383 14.5921C10.093 14.4266 11.0043 14.053 11.8037 13.4977C12.6031 12.9423 13.2711 12.2187 13.761 11.3775C14.2508 10.5364 14.5505 9.59821 14.639 8.62889C14.7275 7.65956 14.6027 6.68261 14.2734 5.76667V5.76667ZM8.00002 2.66667C8.93529 2.66763 9.85386 2.91452 10.6636 3.38257C11.4733 3.85062 12.1457 4.52337 12.6134 5.33334H11.8134C11.6151 5.11543 11.3712 4.944 11.099 4.83131C10.8268 4.71863 10.5331 4.66746 10.2388 4.68147C9.94456 4.69549 9.65703 4.77433 9.39678 4.91237C9.13653 5.05041 8.90999 5.24424 8.73335 5.48001C8.49957 5.38791 8.25124 5.33824 8.00002 5.33334C7.7488 5.33824 7.50047 5.38791 7.26668 5.48001C7.09005 5.24424 6.86351 5.05041 6.60326 4.91237C6.34301 4.77433 6.05548 4.69549 5.76122 4.68147C5.46696 4.66746 5.17324 4.71863 4.90105 4.83131C4.62886 4.944 4.38493 5.11543 4.18668 5.33334H3.38668C3.85432 4.52337 4.52673 3.85062 5.33645 3.38257C6.14618 2.91452 7.06475 2.66763 8.00002 2.66667V2.66667ZM11 6.66667C11 6.79853 10.9609 6.92742 10.8877 7.03705C10.8144 7.14669 10.7103 7.23213 10.5885 7.28259C10.4667 7.33305 10.3326 7.34625 10.2033 7.32053C10.074 7.29481 9.95518 7.23131 9.86195 7.13808C9.76871 7.04484 9.70522 6.92605 9.67949 6.79673C9.65377 6.66741 9.66697 6.53337 9.71743 6.41155C9.76789 6.28973 9.85334 6.18561 9.96297 6.11236C10.0726 6.0391 10.2015 6.00001 10.3334 6.00001C10.5102 6.00001 10.6797 6.07024 10.8048 6.19527C10.9298 6.32029 11 6.48986 11 6.66667ZM6.33335 6.66667C6.33335 6.79853 6.29425 6.92742 6.221 7.03705C6.14774 7.14669 6.04362 7.23213 5.92181 7.28259C5.79999 7.33305 5.66595 7.34625 5.53662 7.32053C5.4073 7.29481 5.28852 7.23131 5.19528 7.13808C5.10205 7.04484 5.03855 6.92605 5.01283 6.79673C4.9871 6.66741 5.00031 6.53337 5.05076 6.41155C5.10122 6.28973 5.18667 6.18561 5.2963 6.11236C5.40594 6.0391 5.53483 6.00001 5.66668 6.00001C5.8435 6.00001 6.01306 6.07024 6.13809 6.19527C6.26311 6.32029 6.33335 6.48986 6.33335 6.66667ZM8.00002 13.3333C6.58553 13.3333 5.22898 12.7714 4.22878 11.7712C3.22859 10.771 2.66668 9.41449 2.66668 8.00001C2.66965 7.55014 2.72786 7.10234 2.84002 6.66667H3.66668C3.65077 7.1971 3.84622 7.71213 4.21004 8.09846C4.57387 8.48478 5.07625 8.71076 5.60668 8.72667C6.13712 8.74259 6.65215 8.54713 7.03847 8.18331C7.4248 7.81949 7.65077 7.31711 7.66668 6.78667C7.76803 6.72816 7.88299 6.69736 8.00002 6.69736C8.11704 6.69736 8.232 6.72816 8.33335 6.78667C8.34926 7.31711 8.57524 7.81949 8.96156 8.18331C9.34789 8.54713 9.86292 8.74259 10.3934 8.72667C10.9238 8.71076 11.4262 8.48478 11.79 8.09846C12.1538 7.71213 12.3493 7.1971 12.3334 6.66667H13.16C13.2722 7.10234 13.3304 7.55014 13.3334 8.00001C13.3334 9.41449 12.7714 10.771 11.7713 11.7712C10.7711 12.7714 9.41451 13.3333 8.00002 13.3333V13.3333ZM9.57335 9.48667C9.1277 9.84598 8.57248 10.0419 8.00002 10.0419C7.42756 10.0419 6.87234 9.84598 6.42668 9.48667C6.29054 9.37351 6.11502 9.31907 5.93874 9.33532C5.76245 9.35158 5.59984 9.43719 5.48668 9.57334C5.37353 9.70948 5.31908 9.885 5.33534 10.0613C5.35159 10.2376 5.43721 10.4002 5.57335 10.5133C6.25424 11.0817 7.11306 11.3931 8.00002 11.3931C8.88698 11.3931 9.74579 11.0817 10.4267 10.5133C10.5628 10.4002 10.6484 10.2376 10.6647 10.0613C10.681 9.885 10.6265 9.70948 10.5134 9.57334C10.4573 9.50593 10.3886 9.45021 10.311 9.40937C10.2334 9.36853 10.1486 9.34337 10.0613 9.33532C9.88502 9.31907 9.70949 9.37351 9.57335 9.48667V9.48667Z" fill="currentColor"/></svg>
