<svg viewBox="0 0 17 16" fill="none" xmlns="http://www.w3.org/2000/svg">
  <path
    d="M14.8896 6.44676C14.8475 6.32482 14.771 6.21772 14.6692 6.13843C14.5674 6.05915 14.4448 6.01109 14.3163 6.0001L10.523 5.44676L8.82297 2.0001C8.76838 1.88738 8.68314 1.79232 8.57703 1.72581C8.47091 1.6593 8.3482 1.62402 8.22297 1.62402C8.09773 1.62402 7.97502 1.6593 7.86891 1.72581C7.76279 1.79232 7.67756 1.88738 7.62297 2.0001L5.92297 5.4401L2.12963 6.0001C2.00625 6.01763 1.89025 6.06941 1.7948 6.14954C1.69935 6.22967 1.62827 6.33495 1.58963 6.45343C1.55426 6.56921 1.55109 6.69244 1.58045 6.80989C1.60981 6.92734 1.67061 7.03458 1.7563 7.1201L4.50963 9.78676L3.84297 13.5734C3.81917 13.6984 3.83163 13.8276 3.87888 13.9457C3.92613 14.0639 4.0062 14.166 4.10963 14.2401C4.21045 14.3122 4.32935 14.3547 4.453 14.363C4.57665 14.3712 4.70015 14.3448 4.80963 14.2868L8.22297 12.5068L11.623 14.2934C11.7165 14.3462 11.8222 14.3738 11.9296 14.3734C12.0709 14.3739 12.2086 14.3296 12.323 14.2468C12.4264 14.1727 12.5065 14.0705 12.5537 13.9524C12.601 13.8343 12.6134 13.7051 12.5896 13.5801L11.923 9.79343L14.6763 7.12676C14.7726 7.04522 14.8437 6.93803 14.8815 6.81766C14.9192 6.69729 14.9221 6.56868 14.8896 6.44676ZM10.7896 9.11343C10.7114 9.18905 10.653 9.28266 10.6193 9.38608C10.5856 9.4895 10.5777 9.5996 10.5963 9.70676L11.0763 12.5001L8.56963 11.1668C8.47318 11.1154 8.36558 11.0885 8.2563 11.0885C8.14702 11.0885 8.03942 11.1154 7.94297 11.1668L5.4363 12.5001L5.9163 9.70676C5.93492 9.5996 5.92704 9.4895 5.89334 9.38608C5.85964 9.28266 5.80115 9.18905 5.72297 9.11343L3.72297 7.11343L6.52963 6.70676C6.63763 6.69174 6.7403 6.65046 6.82863 6.58653C6.91697 6.52261 6.98827 6.43799 7.0363 6.3401L8.22297 3.8001L9.4763 6.34676C9.52433 6.44466 9.59563 6.52927 9.68397 6.5932C9.7723 6.65712 9.87497 6.69841 9.98297 6.71343L12.7896 7.1201L10.7896 9.11343Z"
    fill="#06DBE4"/>
</svg>
