<svg viewBox="0 0 24 24" fill="none" xmlns="http://www.w3.org/2000/svg">
<rect x="1.1875" y="1.375" width="21.625" height="21.62" rx="1.72593" stroke="currentColor" stroke-width="2"/>
<path d="M16.4721 9.59001C16.0415 8.62787 15.3116 7.82995 14.3905 7.31554C13.4552 6.79316 12.3744 6.59197 11.3138 6.7428C10.2531 6.89364 9.27123 7.38819 8.51863 8.15062C7.80061 8.87802 7.3291 9.81094 7.16827 10.8178C6.62382 10.9833 6.13909 11.3061 5.77608 11.7472C5.38124 12.2269 5.15139 12.8211 5.12056 13.4417C5.08973 14.0622 5.25957 14.6762 5.60492 15.1928C5.94754 15.7052 6.44484 16.0947 7.02417 16.3045C7.13375 16.3595 7.25358 16.3912 7.37613 16.3976C7.50412 16.4043 7.63203 16.3832 7.7511 16.3358C7.87018 16.2884 7.97758 16.2158 8.06595 16.1229C8.15432 16.0301 8.22156 15.9193 8.26306 15.798C8.30456 15.6768 8.31934 15.548 8.30638 15.4205C8.29341 15.293 8.25302 15.1698 8.18796 15.0593C8.12291 14.9489 8.03473 14.8539 7.92949 14.7807L7.80364 14.9618L7.92949 14.7807C7.83001 14.7116 7.7175 14.6636 7.59892 14.6395C7.38819 14.5598 7.20642 14.418 7.07772 14.2328C6.94584 14.043 6.8762 13.8169 6.87841 13.5857L6.87842 13.5857V13.5836C6.87842 13.2878 6.99593 13.0041 7.2051 12.7949C7.41427 12.5858 7.69797 12.4683 7.99379 12.4683C8.22942 12.4683 8.45541 12.3746 8.62203 12.208C8.78865 12.0414 8.88226 11.8154 8.88226 11.5798H8.66173M16.4721 9.59001L15.1609 10.5111C14.905 9.76425 14.3928 9.13222 13.7152 8.72712C13.0377 8.32202 12.2385 8.17003 11.4595 8.29813C10.6806 8.42622 9.97215 8.82612 9.45998 9.42686C8.94781 10.0276 8.665 10.7904 8.66173 11.5798M16.4721 9.59001C17.1644 9.8261 17.7683 10.2702 18.2003 10.863C18.6568 11.4894 18.8963 12.2477 18.8826 13.0226C18.8689 13.7976 18.6027 14.5469 18.1244 15.1568C17.6461 15.7667 16.9818 16.2038 16.2325 16.4018L16.2048 16.4091H16.1761H16.0219C15.7915 16.4341 15.5602 16.3686 15.377 16.2261C15.1899 16.0806 15.0683 15.8667 15.0389 15.6315C15.0095 15.3963 15.0747 15.1591 15.2202 14.972C15.3622 14.7895 15.5691 14.6693 15.7974 14.6362C16.1801 14.5275 16.5156 14.2937 16.7503 13.9721C16.9878 13.6466 17.1081 13.2503 17.0916 12.8477C17.075 12.4451 16.9226 12.0599 16.6592 11.755C16.3962 11.4507 16.0381 11.2441 15.643 11.169M16.4721 9.59001L15.643 11.169M8.66173 11.5798L8.88226 11.5807C8.88531 10.8434 9.14945 10.131 9.6278 9.56993C10.1061 9.00886 10.7678 8.63537 11.4953 8.51573C12.2229 8.3961 12.9693 8.53805 13.6021 8.9164C14.2349 9.29475 14.7133 9.88504 14.9522 10.5825L14.9524 10.583C15.0045 10.734 15.0964 10.8682 15.2184 10.9714C15.3397 11.0741 15.4863 11.1423 15.643 11.169M8.66173 11.5798C8.66173 11.7569 8.59136 11.9268 8.4661 12.0521C8.34083 12.1774 8.17094 12.2477 7.99379 12.2477C7.63948 12.2477 7.29969 12.3885 7.04916 12.639C6.79864 12.8895 6.65789 13.2293 6.65789 13.5836L15.643 11.169M9.36699 16.0769L9.36745 16.0774L10.7027 17.4126C10.7028 17.4128 10.703 17.4129 10.7031 17.413C10.7856 17.4961 10.8837 17.5621 10.9918 17.6071C11.1001 17.6522 11.2162 17.6754 11.3335 17.6754C11.4508 17.6754 11.5669 17.6522 11.6752 17.6071C11.7833 17.5621 11.8815 17.4961 11.964 17.413C11.9641 17.4129 11.9642 17.4128 11.9643 17.4126L14.6355 14.7415L14.636 14.741C14.8014 14.5745 14.8943 14.3494 14.8943 14.1146C14.8943 13.8799 14.8014 13.6547 14.636 13.4883C14.5534 13.4051 14.4552 13.339 14.347 13.294C14.2387 13.2489 14.1226 13.2256 14.0053 13.2256C13.888 13.2256 13.7719 13.2489 13.6636 13.294C13.5556 13.339 13.4574 13.4049 13.3749 13.488C13.3748 13.4881 13.3746 13.4883 13.3745 13.4884L11.3335 15.5294L10.6284 14.8243C10.6283 14.8242 10.6282 14.8241 10.6281 14.824C10.5456 14.7409 10.4474 14.6749 10.3393 14.6299C10.231 14.5848 10.1149 14.5615 9.99763 14.5615C9.88034 14.5615 9.76421 14.5848 9.65594 14.6299C9.54767 14.675 9.44941 14.7411 9.36681 14.8243C9.20144 14.9908 9.10863 15.2159 9.10863 15.4505C9.10863 15.6853 9.20151 15.9104 9.36699 16.0769Z" fill="currentColor" stroke="currentColor" stroke-width="0.441054"/>
</svg>
