<svg width="20" height="20" viewBox="0 0 20 20" fill="none" xmlns="http://www.w3.org/2000/svg">
<path d="M6.71755 8.96236L6.95353 9.19834L7.18923 8.96209L10.0483 6.0964C10.0484 6.09627 10.0485 6.09615 10.0486 6.09602C10.111 6.03417 10.1954 5.99947 10.2833 5.99947C10.3713 5.99947 10.4558 6.03431 10.5183 6.0964L10.5185 6.09666C10.5498 6.12765 10.5746 6.16452 10.5915 6.20514C10.6084 6.24576 10.6171 6.28932 10.6171 6.33333C10.6171 6.37733 10.6084 6.4209 10.5915 6.46152C10.5746 6.50214 10.5498 6.53901 10.5185 6.56999L10.5176 6.57096L7.18519 9.90333C7.18503 9.90349 7.18487 9.90364 7.18471 9.9038C7.12267 9.96509 7.03908 9.99963 6.95185 10L6.95133 10C6.90746 10.0003 6.86397 9.99185 6.82336 9.97526C6.78301 9.95878 6.74629 9.93454 6.71527 9.90394C6.71507 9.90374 6.71486 9.90354 6.71466 9.90333L5.14946 8.33146L5.14012 8.32209L5.13007 8.31348C5.09518 8.2836 5.06684 8.24683 5.04683 8.20547C5.02682 8.16412 5.01558 8.11907 5.01381 8.07316C5.01203 8.02726 5.01977 7.98148 5.03653 7.93871C5.05329 7.89593 5.07871 7.85708 5.11119 7.8246C5.14367 7.79211 5.18252 7.76669 5.2253 7.74994C5.26807 7.73318 5.31385 7.72544 5.35976 7.72721C5.40567 7.72899 5.45071 7.74023 5.49206 7.76024C5.53342 7.78025 5.57019 7.80859 5.60007 7.84348L5.60845 7.85326L5.61755 7.86236L6.71755 8.96236ZM4.48131 2.73402C5.52282 2.03811 6.74731 1.66666 7.99992 1.66666C8.83163 1.66666 9.65519 1.83048 10.4236 2.14876C11.192 2.46704 11.8902 2.93355 12.4783 3.52165C13.0664 4.10976 13.5329 4.80794 13.8512 5.57633C14.1694 6.34473 14.3333 7.16829 14.3333 8C14.3333 9.25261 13.9618 10.4771 13.2659 11.5186C12.57 12.5601 11.5808 13.3719 10.4236 13.8512C9.26632 14.3306 7.9929 14.456 6.76435 14.2116C5.5358 13.9673 4.40731 13.3641 3.52158 12.4783C2.63585 11.5926 2.03265 10.4641 1.78828 9.23557C1.54391 8.00702 1.66933 6.7336 2.14868 5.57633C2.62804 4.41907 3.4398 3.42994 4.48131 2.73402ZM4.85169 12.7117C5.78357 13.3343 6.87916 13.6667 7.99992 13.6667C9.50282 13.6667 10.9442 13.0696 12.0069 12.0069C13.0696 10.9442 13.6666 9.50289 13.6666 8C13.6666 6.87923 13.3342 5.78364 12.7116 4.85176C12.0889 3.91989 11.2039 3.19357 10.1685 2.76468C9.13301 2.33578 7.99364 2.22356 6.89441 2.44221C5.79518 2.66086 4.78548 3.20056 3.99298 3.99306C3.20049 4.78555 2.66079 5.79526 2.44214 6.89448C2.22349 7.99371 2.33571 9.13309 2.7646 10.1685C3.1935 11.204 3.91981 12.089 4.85169 12.7117Z" fill="#17997B" stroke="#17997B" stroke-width="0.666667"/>
</svg>
