<svg xmlns="http://www.w3.org/2000/svg" width="16" height="16" fill="none"><path fill="#fff" stroke="#fff" d="m8.063 5.85.01.003c.019.007.036.018.052.032L10.12 7.88v.002a.168.168 0 0 1 .037.182l.462.192-.462-.192a.168.168 0 0 1-.036.054l-.003.003a.167.167 0 0 1-.182.037l-.193.461.193-.461a.167.167 0 0 1-.055-.037l-.86-.867-.855-.861V10a.167.167 0 0 1-.333 0V6.393l-.855.861-.859.866a.17.17 0 0 1-.24-.24l1.996-1.995a.166.166 0 0 1 .052-.032l.01-.004a.167.167 0 0 1 .126 0Zm-3.49-2.977a6.167 6.167 0 1 1 6.853 10.254A6.167 6.167 0 0 1 4.574 2.873Zm.186 9.977A5.834 5.834 0 1 0 11.24 3.15a5.834 5.834 0 0 0-6.482 9.701Z"/></svg>