<svg width="16" height="16" viewBox="0 0 16 16" fill="none" xmlns="http://www.w3.org/2000/svg"><path d="M9.27 9.491a.167.167 0 0 1-.054-.035l-.19-.197-.86-.889v2.963a.167.167 0 0 1-.333 0V8.37l-.86.89-.189.195a.17.17 0 0 1-.237-.241l1.328-1.329a.166.166 0 0 1 .052-.032l.01-.004a.167.167 0 0 1 .126 0l.01.004c.019.007.037.018.052.032l1.328 1.329.002.001a.167.167 0 0 1 .036.182l.462.193-.462-.193a.167.167 0 0 1-.036.055l-.003.003a.167.167 0 0 1-.183.036Zm-.437-7.584 3.963 3.963.023.07c.006.017.011.036.014.054v6.673a1.5 1.5 0 0 1-1.5 1.5H4.667a1.5 1.5 0 0 1-1.061-.44l-.348.348.348-.348a1.5 1.5 0 0 1-.44-1.06V3.333a1.5 1.5 0 0 1 1.5-1.5h3.98a.233.233 0 0 1 .032.015l.11.059h.045Zm.854 1.346L8.833 2.4V4.667A1.167 1.167 0 0 0 10 5.833H12.267l-.853-.853-1.727-1.727ZM8.5 2.667v-.5H4.667A1.167 1.167 0 0 0 3.5 3.333v9.334a1.167 1.167 0 0 0 1.167 1.166h6.666a1.167 1.167 0 0 0 1.167-1.166v-6.5H10a1.5 1.5 0 0 1-1.5-1.5v-2Z" fill="currentcolor" stroke="currentcolor"/></svg>
