<svg width="16" height="16" viewBox="0 0 16 16" fill="none" xmlns="http://www.w3.org/2000/svg"><path d="M3.83745 11.643L3.70862 11.9566L3.95232 12.1924C5.03798 13.2426 6.4887 13.8307 7.99919 13.833L8.00071 13.833C9.51121 13.8307 10.9619 13.2426 12.0476 12.1924L12.2913 11.9566L12.1625 11.643C11.8234 10.8177 11.2467 10.1117 10.5055 9.61494C9.76435 9.11813 8.89222 8.85288 7.99995 8.85288C7.10768 8.85288 6.23556 9.11813 5.49439 9.61494C4.75323 10.1117 4.17648 10.8177 3.83745 11.643ZM12.175 10.9187L12.6057 11.6555L13.0378 10.9195C13.5575 10.0343 13.832 9.02672 13.8333 8.00029V7.99967C13.8333 6.45258 13.2187 4.96885 12.1247 3.87489C11.0308 2.78092 9.54705 2.16634 7.99995 2.16634C6.45285 2.16634 4.96912 2.78092 3.87516 3.87489C2.7812 4.96885 2.16662 6.45258 2.16662 7.99967L2.16662 8.00029C2.16787 9.02672 2.44244 10.0343 2.9621 10.9195L3.39418 11.6555L3.82493 10.9187C4.36473 9.99539 5.19554 9.27719 6.18722 8.87661L6.84216 8.61206L6.37495 8.08229C6.09915 7.76956 5.91945 7.38389 5.8574 6.97157C5.79536 6.55924 5.85361 6.13777 6.02517 5.75772C6.19673 5.37768 6.4743 5.05522 6.82458 4.82902C7.17487 4.60282 7.58298 4.48251 7.99995 4.48251C8.41692 4.48251 8.82503 4.60282 9.17532 4.82902C9.5256 5.05522 9.80318 5.37768 9.97473 5.75772C10.1463 6.13777 10.2045 6.55924 10.1425 6.97157C10.0805 7.38389 9.90075 7.76956 9.62495 8.08229L9.15774 8.61206L9.81268 8.87661C10.8044 9.27719 11.6352 9.99539 12.175 10.9187ZM4.63466 2.84048C5.63503 2.18549 6.80424 1.83546 7.99995 1.83301C9.19566 1.83546 10.3649 2.18549 11.3652 2.84048C12.3659 3.49564 13.1544 4.42766 13.6348 5.523C14.1151 6.61834 14.2666 7.82973 14.0707 9.00962C13.8748 10.1893 13.3402 11.2866 12.5319 12.1679C11.9545 12.7936 11.2539 13.2929 10.4741 13.6345C9.69398 13.9762 8.85158 14.1526 7.99995 14.1526C7.14832 14.1526 6.30593 13.9762 5.52585 13.6345C4.74599 13.2929 4.04532 12.7935 3.46796 12.1679C2.65968 11.2866 2.12507 10.1893 1.92922 9.00962C1.73333 7.82973 1.88479 6.61834 2.36515 5.523C2.8455 4.42766 3.63402 3.49564 4.63466 2.84048ZM6.47559 5.6478C6.27414 5.94929 6.16662 6.30374 6.16662 6.66634C6.16662 7.15257 6.35977 7.61889 6.70359 7.9627C7.04741 8.30652 7.51372 8.49967 7.99995 8.49967C8.36255 8.49967 8.71701 8.39215 9.0185 8.1907C9.31999 7.98925 9.55497 7.70293 9.69373 7.36793C9.83249 7.03293 9.8688 6.66431 9.79806 6.30868C9.72732 5.95304 9.55271 5.62638 9.29631 5.36998C9.03992 5.11358 8.71325 4.93897 8.35762 4.86823C8.00199 4.7975 7.63336 4.8338 7.29837 4.97256C6.96337 5.11132 6.67704 5.34631 6.47559 5.6478Z" fill="transparent" stroke="currentColor"/></svg>
