<svg width="18" height="16" viewBox="0 0 18 16" fill="none" xmlns="http://www.w3.org/2000/svg">
<path d="M17.0239 12.1231L10.9488 1.62307C10.3489 0.573068 8.92385 0.198068 7.87385 0.798068C7.49885 1.02307 7.19885 1.32307 7.04885 1.62307L0.973849 12.1231C0.373849 13.1731 0.748849 14.5981 1.79885 15.1981C2.17385 15.4231 2.54885 15.4981 2.92385 15.4981H14.9988C16.2739 15.4981 17.2488 14.4481 17.2488 13.2481C17.3239 12.7981 17.1739 12.4231 17.0239 12.1231ZM8.99885 12.4981C8.54885 12.4981 8.24885 12.1981 8.24885 11.7481C8.24885 11.2981 8.54885 10.9981 8.99885 10.9981C9.44885 10.9981 9.74885 11.2981 9.74885 11.7481C9.74885 12.1981 9.44885 12.4981 8.99885 12.4981ZM9.74885 8.74807C9.74885 9.19807 9.44885 9.49807 8.99885 9.49807C8.54885 9.49807 8.24885 9.19807 8.24885 8.74807V5.74807C8.24885 5.29807 8.54885 4.99807 8.99885 4.99807C9.44885 4.99807 9.74885 5.29807 9.74885 5.74807V8.74807Z" fill="#D1001E"/>
</svg>
