<svg width="17" height="17" viewBox="0 0 17 17" fill="none" xmlns="http://www.w3.org/2000/svg">
<g clip-path="url(#clip0_14075_2847)">
<path d="M14.203 15.588H3.46018C3.1065 15.5879 2.75907 15.4948 2.45279 15.3179C2.14651 15.141 1.89217 14.8867 1.71533 14.5804C1.53848 14.2741 1.44536 13.9267 1.44531 13.573C1.44527 13.2193 1.5383 12.8719 1.71506 12.5655L7.08648 3.26213C7.26335 2.95581 7.51773 2.70144 7.82407 2.52459C8.1304 2.34774 8.47788 2.25464 8.8316 2.25464C9.18531 2.25464 9.5328 2.34774 9.83913 2.52459C10.1455 2.70144 10.3998 2.95581 10.5767 3.26213L15.9481 12.5655C16.1249 12.8719 16.2179 13.2193 16.2179 13.573C16.2178 13.9267 16.1247 14.2741 15.9479 14.5804C15.771 14.8867 15.5167 15.141 15.2104 15.3179C14.9041 15.4948 14.5567 15.5879 14.203 15.588Z" fill="#FFD0CB"/>
<path d="M8.83146 12.9215C9.19965 12.9215 9.49813 12.623 9.49813 12.2548C9.49813 11.8866 9.19965 11.5881 8.83146 11.5881C8.46327 11.5881 8.16479 11.8866 8.16479 12.2548C8.16479 12.623 8.46327 12.9215 8.83146 12.9215Z" fill="#FF7264"/>
<path d="M8.83146 10.2546C8.65465 10.2546 8.48508 10.1844 8.36006 10.0594C8.23503 9.93435 8.16479 9.76478 8.16479 9.58797V6.92131C8.16479 6.74449 8.23503 6.57493 8.36006 6.4499C8.48508 6.32488 8.65465 6.25464 8.83146 6.25464C9.00827 6.25464 9.17784 6.32488 9.30287 6.4499C9.42789 6.57493 9.49813 6.74449 9.49813 6.92131V9.58797C9.49813 9.76478 9.42789 9.93435 9.30287 10.0594C9.17784 10.1844 9.00827 10.2546 8.83146 10.2546Z" fill="#FF7264"/>
</g>
<defs>
<clipPath id="clip0_14075_2847">
<rect x="0.831543" y="0.921387" width="16" height="16" rx="8" fill="white"/>
</clipPath>
</defs>
</svg>
