<svg xmlns="http://www.w3.org/2000/svg" fill="none" viewBox="0 0 18 19"><g clip-path="url(#a)"><path fill="currentColor" d="m17.02 13.992-6.073-10.5c-.6-1.05-2.025-1.425-3.074-.825-.375.225-.675.525-.825.825l-6.073 10.5c-.6 1.05-.225 2.475.824 3.075.375.225.75.3 1.125.3h12.071c1.275 0 2.25-1.05 2.25-2.25.075-.45-.075-.825-.225-1.125Zm-8.023.375c-.45 0-.75-.3-.75-.75s.3-.75.75-.75.75.3.75.75-.3.75-.75.75Zm.75-3.75c0 .45-.3.75-.75.75s-.75-.3-.75-.75v-3c0-.45.3-.75.75-.75s.75.3.75.75v3Z"/></g><defs><clipPath id="a"><path fill="#fff" d="M0 0h17.995v18H0z" transform="translate(0 .867)"/></clipPath></defs></svg>
