<svg width="32" height="32" fill="none" xmlns="http://www.w3.org/2000/svg"><circle cx="16" cy="16" r="16" fill="#F1F7F9"/><path d="M10.702 17.69a2.749 2.749 0 0 0 2.35 1.411l.933.018-.734.578a6.498 6.498 0 0 1-3.401 1.362 8.342 8.342 0 0 0 3.367.705h.004a8.358 8.358 0 0 0 8.446-8.424V12.772l.134-.1c.263-.196.51-.414.737-.65L10.702 17.69Zm0 0h.052c.311-.003.62-.05.918-.141l-.032-.646a2.741 2.741 0 0 1-2.158-2.177c.322.11.66.172 1.004.182l1.156.031-.962-.642a2.734 2.734 0 0 1-1.217-2.28c0-.323.056-.642.164-.943a9.064 9.064 0 0 0 6.236 2.941l.445.023-.104-.434a2.742 2.742 0 0 1 4.68-2.5l.128.136.183-.036c.384-.076.76-.186 1.122-.329a2.763 2.763 0 0 1-.758.668L10.702 17.69Z" fill="#155366" stroke="#155366" stroke-width=".667"/></svg>