<svg width="32" height="32" fill="none" xmlns="http://www.w3.org/2000/svg"><circle cx="16" cy="16" r="16" fill="#F1F7F9"/><path d="M23.917 14.27v.012c0 .462 0 2.977-.03 3.381v.028a7.6 7.6 0 0 1-.374 2.443v.001a1.535 1.535 0 0 1-.375.615 1.827 1.827 0 0 1-.955.491c-2.702.208-4.99.245-7.603.208h-.012a33.562 33.562 0 0 1-4.817-.244 1.811 1.811 0 0 1-.927-.485 2.022 2.022 0 0 1-.45-.868l-.001-.006a6.828 6.828 0 0 1-.215-1.43v-.009a35.887 35.887 0 0 1 .003-4.857c.037-.442.074-.888.175-1.298.104-.424.27-.775.54-1.025l.003-.003c.253-.24.57-.401.911-.466a58.527 58.527 0 0 1 6.204-.223h.012a58.426 58.426 0 0 1 6.226.23c.41.078.782.29 1.056.605.447.9.664 1.896.629 2.9Zm-9.945 3.867v.56l.492-.267a98.97 98.97 0 0 1 2.264-1.175l.063-.032c.76-.386 1.487-.756 2.116-1.104l.54-.3-.547-.287-4.44-2.332-.488-.257V18.137Z" fill="#155366" stroke="#155366" stroke-width=".667"/></svg>