<svg width="18" height="18" viewBox="0 0 18 18" fill="none" xmlns="http://www.w3.org/2000/svg">
<rect x="0.5" y="0.5" width="17" height="17" rx="8.5" fill="#A6B5BA"/>
<rect x="2" y="2" width="14" height="14" rx="7" fill="#A6B5BA"/>
<path d="M13.083 8.41659H9.58301V4.91659C9.58301 4.76188 9.52155 4.6135 9.41215 4.50411C9.30276 4.39471 9.15438 4.33325 8.99967 4.33325C8.84496 4.33325 8.69659 4.39471 8.5872 4.50411C8.4778 4.6135 8.41634 4.76188 8.41634 4.91659V8.41659H4.91634C4.76163 8.41659 4.61326 8.47804 4.50386 8.58744C4.39447 8.69684 4.33301 8.84521 4.33301 8.99992C4.33301 9.15463 4.39447 9.303 4.50386 9.4124C4.61326 9.52179 4.76163 9.58325 4.91634 9.58325H8.41634V13.0833C8.41634 13.238 8.4778 13.3863 8.5872 13.4957C8.69659 13.6051 8.84496 13.6666 8.99967 13.6666C9.15438 13.6666 9.30276 13.6051 9.41215 13.4957C9.52155 13.3863 9.58301 13.238 9.58301 13.0833V9.58325H13.083C13.2377 9.58325 13.3861 9.52179 13.4955 9.4124C13.6049 9.303 13.6663 9.15463 13.6663 8.99992C13.6663 8.84521 13.6049 8.69684 13.4955 8.58744C13.3861 8.47804 13.2377 8.41659 13.083 8.41659Z" fill="white"/>
<rect x="0.5" y="0.5" width="17" height="17" rx="8.5" stroke="#A6B5BA"/>
</svg>
