<svg width="52" height="52" fill="none" xmlns="http://www.w3.org/2000/svg"><circle cx="26" cy="26" r="25.25" stroke="currentColor" stroke-width="1.5"/><path d="M20.871 17.208A10.167 10.167 0 0 1 26 15.823a10.11 10.11 0 0 1 7.196 2.98.566.566 0 0 0 .804 0A.57.57 0 0 0 34 18a11.24 11.24 0 0 0-8-3.313c-2.008 0-3.98.532-5.703 1.54a.568.568 0 1 0 .574.982Z" fill="currentColor" stroke="#18ACB2" stroke-width=".3"/><path d="M26 12c-3.78 0-7.321 1.482-9.974 4.175a.57.57 0 0 0 .81.798A12.77 12.77 0 0 1 26 13.137c7.092 0 12.863 5.77 12.863 12.863 0 2.184-.548 4.244-1.513 6.047L35.58 29.34a4.381 4.381 0 0 0 1.734-3.49 4.392 4.392 0 0 0-4.388-4.388 4.34 4.34 0 0 0-2.389.707 5.93 5.93 0 0 0-9.123.06 4.377 4.377 0 0 0-2.479-.767 4.392 4.392 0 0 0-4.387 4.387c0 1.415.674 2.674 1.716 3.477l-1.635 2.681a12.86 12.86 0 0 1 .204-12.393.569.569 0 1 0-.987-.565A14 14 0 0 0 12 26c0 5.095 2.736 9.564 6.817 12.013a.566.566 0 0 0 .325.189A13.911 13.911 0 0 0 26 40c7.719 0 14-6.28 14-14S33.719 12 26 12Zm6.925 10.599a3.253 3.253 0 0 1 3.25 3.25 3.253 3.253 0 0 1-3.25 3.25c-.576 0-1.127-.15-1.618-.434A5.906 5.906 0 0 0 31.94 26a5.903 5.903 0 0 0-.757-2.896 3.217 3.217 0 0 1 1.74-.505ZM26 21.196A4.81 4.81 0 0 1 30.803 26 4.81 4.81 0 0 1 26 30.804 4.81 4.81 0 0 1 21.195 26 4.81 4.81 0 0 1 26 21.196Zm-10.316 4.653a3.253 3.253 0 0 1 5.092-2.678A5.905 5.905 0 0 0 20.058 26c0 .933.217 1.816.601 2.603a3.253 3.253 0 0 1-4.976-2.754Zm3.381 10.981a12.962 12.962 0 0 1-3.779-3.719l1.959-3.213c.52.218 1.09.339 1.689.339.832 0 1.627-.23 2.321-.665a6 6 0 0 0 1.3 1.265l-3.49 5.993ZM26 38.864c-2.146 0-4.17-.53-5.951-1.463l3.49-5.995c.75.343 1.583.535 2.46.535.861 0 1.68-.185 2.418-.516l3.495 5.997A12.784 12.784 0 0 1 26 38.864Zm6.897-2.01-3.49-5.99c.49-.345.926-.762 1.292-1.235a4.349 4.349 0 0 0 2.226.607c.59 0 1.152-.118 1.666-.33l2.11 3.224a12.973 12.973 0 0 1-3.804 3.723Z" fill="currentColor" stroke="#18ACB2" stroke-width=".3"/><path d="M26 29.803a3.823 3.823 0 0 0 3.048-1.528.569.569 0 0 0-.91-.68 2.668 2.668 0 0 1-4.337-.086.569.569 0 0 0-.938.643A3.804 3.804 0 0 0 26 29.803Z" fill="currentColor" stroke="#18ACB2" stroke-width=".3"/></svg>
