<svg class="elements-svg" width="18" height="18" viewBox="0 0 18 18" fill="none" xmlns="http://www.w3.org/2000/svg">
  <path d="M8.99935 4.79533C8.77834 4.79533 8.56638 4.88313 8.4101 5.03941C8.25382 5.19569 8.16602 5.40765 8.16602 5.62866V8.962C8.16602 9.18301 8.25382 9.39497 8.4101 9.55125C8.56638 9.70753 8.77834 9.79533 8.99935 9.79533C9.22037 9.79533 9.43233 9.70753 9.58861 9.55125C9.74489 9.39497 9.83269 9.18301 9.83269 8.962V5.62866C9.83269 5.40765 9.74489 5.19569 9.58861 5.03941C9.43233 4.88313 9.22037 4.79533 8.99935 4.79533ZM9.76602 11.9787C9.74778 11.9256 9.72256 11.8751 9.69102 11.8287L9.59102 11.7037C9.47383 11.588 9.32502 11.5097 9.16336 11.4786C9.00171 11.4474 8.83444 11.4648 8.68269 11.5287C8.5817 11.5709 8.48869 11.6301 8.40769 11.7037C8.33045 11.7815 8.26935 11.8739 8.22788 11.9754C8.18641 12.0769 8.16539 12.1857 8.16602 12.2953C8.16734 12.4042 8.18999 12.5118 8.23269 12.612C8.27011 12.7154 8.32982 12.8093 8.40759 12.8871C8.48536 12.9649 8.57927 13.0246 8.68269 13.062C8.78244 13.1061 8.89029 13.1289 8.99935 13.1289C9.10841 13.1289 9.21627 13.1061 9.31602 13.062C9.41943 13.0246 9.51335 12.9649 9.59111 12.8871C9.66888 12.8093 9.72859 12.7154 9.76602 12.612C9.80872 12.5118 9.83137 12.4042 9.83269 12.2953C9.83678 12.2398 9.83678 12.1841 9.83269 12.1287C9.81834 12.0755 9.79585 12.0249 9.76602 11.9787ZM8.99935 0.628662C7.35118 0.628662 5.74001 1.1174 4.3696 2.03308C2.99919 2.94876 1.93109 4.25025 1.30036 5.77297C0.669626 7.29568 0.504599 8.97124 0.826142 10.5877C1.14769 12.2043 1.94136 13.6891 3.1068 14.8546C4.27223 16.02 5.75709 16.8137 7.3736 17.1352C8.99011 17.4568 10.6657 17.2917 12.1884 16.661C13.7111 16.0303 15.0126 14.9622 15.9283 13.5917C16.8439 12.2213 17.3327 10.6102 17.3327 8.962C17.3327 7.86765 17.1171 6.78401 16.6983 5.77297C16.2796 4.76192 15.6657 3.84326 14.8919 3.06944C14.1181 2.29562 13.1994 1.68179 12.1884 1.263C11.1773 0.84421 10.0937 0.628662 8.99935 0.628662ZM8.99935 15.6287C7.68081 15.6287 6.39188 15.2377 5.29555 14.5051C4.19922 13.7726 3.34474 12.7314 2.84016 11.5132C2.33557 10.295 2.20355 8.9546 2.46078 7.66139C2.71802 6.36819 3.35296 5.1803 4.28531 4.24795C5.21766 3.3156 6.40554 2.68066 7.69875 2.42343C8.99196 2.16619 10.3324 2.29821 11.5506 2.8028C12.7687 3.30738 13.8099 4.16187 14.5425 5.25819C15.275 6.35452 15.666 7.64345 15.666 8.962C15.666 10.7301 14.9636 12.4258 13.7134 13.676C12.4632 14.9263 10.7675 15.6287 8.99935 15.6287Z" fill="#F4B784"/>
</svg>
