<svg width="25" height="24" fill="none" xmlns="http://www.w3.org/2000/svg"><path d="M20.834 11.23V8.957a8.333 8.333 0 0 0-16.667 0v2.271a3.125 3.125 0 0 0-2.083 2.938v2.083a3.125 3.125 0 0 0 3.124 3.125h3.126a1.041 1.041 0 0 0 1.041-1.042v-6.25a1.042 1.042 0 0 0-1.041-1.041H6.25V8.958a6.25 6.25 0 1 1 12.5 0v2.084h-2.083a1.041 1.041 0 0 0-1.042 1.041v6.25a1.041 1.041 0 0 0 1.042 1.042h3.125a3.125 3.125 0 0 0 3.125-3.125v-2.083a3.125 3.125 0 0 0-2.084-2.938ZM7.292 13.124v4.167H5.209a1.042 1.042 0 0 1-1.042-1.042v-2.083a1.042 1.042 0 0 1 1.042-1.042h2.083Zm13.542 3.125a1.042 1.042 0 0 1-1.042 1.042h-2.084v-4.167h2.084a1.042 1.042 0 0 1 1.041 1.042v2.083Z" fill="#fff"/><path d="M18.384 21.616A4.63 4.63 0 0 1 15.12 23l-.01-1.158a3.472 3.472 0 0 0 3.445-3.5l1.157-.009a4.63 4.63 0 0 1-1.33 3.284Z" fill="#fff" stroke="#fff" stroke-width="1.042"/><rect x="11.25" y="20.416" width="4.688" height="3.125" rx="1.563" fill="#fff"/></svg>