<svg xmlns="http://www.w3.org/2000/svg" width="240" viewBox="0 0 934 220"><g fill="none"><path fill="#185568" d="M2.6 208.7V102.2h30.8v106.5zM126 198.4c-7 8.5-17 13.3-30.4 13.3-21.4 0-38.7-13.3-38.7-33.9 0-20.3 17.3-30.4 41.5-31.7 18.6-1.1 24.5-3.1 24.5-9.4 0-6.1-5.7-10.3-15.7-10.3-12.2 0-17.5 6.1-18.1 12.7H59.2c1.5-23.4 19-39.5 48.3-39.5 28.6 0 47 15.5 47 44.6v65.1h-25.6l-2.9-10.9zm-38-21.9c0 6.1 5.5 9.8 14.2 9.8 11.8 0 21.2-6.6 21.2-19.9v-3.9s-5.7 2.6-17.5 3.3c-12.8.7-17.9 4.8-17.9 10.7zm135 33.2c-23.4 0-36.9-13.5-36.9-37.1v-41.7h-17.9v-28.6h17.9V86.5l31-26.2v41.9H244v28.6h-26.9v37.4c0 10.3 6.8 12.7 13.1 12.7 7.2 0 13.1-2.8 13.1-2.8v28.2s-8.3 3.4-20.3 3.4zM0 70.2c0-10 7.9-18.1 17.9-18.1 10 0 18.1 8.1 18.1 18.1 0 9.8-8.1 17.9-18.1 17.9-10 0-17.9-8-17.9-17.9zM266.9 208.7V102.2h30.8v106.5z"/><g transform="translate(227)"><path fill="#185568" d="M110.9 70.5c0-4.9-.7-9.7-1.9-14.3-1.3-4.7-3.1-9.2-5.5-13.3-2.4-4.2-5.4-8-8.8-11.4-3.4-3.4-7.2-6.3-11.4-8.8-4.1-2.4-8.6-4.3-13.3-5.5-4.6-1.2-9.3-1.9-14.3-1.9-4.9 0-9.7.7-14.3 1.9-4.7 1.3-9.2 3.1-13.3 5.5-4.2 2.4-8 5.4-11.4 8.8-3.4 3.4-6.4 7.2-8.8 11.4-2.4 4.1-4.3 8.6-5.5 13.3l7.9 2.1c1.1-4 2.7-7.8 4.7-11.3 2.1-3.6 4.6-6.8 7.5-9.7 2.9-2.9 6.2-5.4 9.7-7.5 3.5-2 7.3-3.6 11.3-4.7 3.9-1 7.9-1.6 12.1-1.6 4.2 0 8.3.6 12.2 1.6 4 1.1 7.8 2.7 11.3 4.7 3.6 2.1 6.8 4.6 9.7 7.5 2.9 2.9 5.4 6.2 7.5 9.7 2 3.5 3.6 7.3 4.7 11.3 1 3.9 1.6 8 1.6 12.2 0 4.2-.6 8.3-1.6 12.1-1.1 4-2.7 7.8-4.7 11.3l7.1 4.1c2.4-4.1 4.3-8.6 5.5-13.3 1.3-4.5 2-9.2 2-14.2Z"/><path fill="#185568" d="M125.2 70.5c0-6.2-.8-12.3-2.4-18-1.6-5.9-3.9-11.6-7-16.8-3.1-5.3-6.8-10.1-11.1-14.4-4.3-4.3-9.1-8-14.4-11.1-5.2-3-10.8-5.4-16.8-6.9C67.8 1.8 61.7.9 55.5.9c-6.2 0-12.2.8-18 2.3-5.9 1.6-11.6 3.9-16.8 6.9-5.3 3-10.1 6.8-14.4 11l4.3 4.3c3.9-3.9 8.3-7.3 13.1-10.1 4.7-2.7 9.9-4.9 15.3-6.3 5.2-1.4 10.7-2.1 16.4-2.1 5.7 0 11.2.8 16.4 2.2 5.4 1.4 10.5 3.6 15.3 6.3a64.466 64.466 0 0 1 23.2 23.2c2.7 4.7 4.9 9.9 6.3 15.3 1.4 5.2 2.2 10.7 2.2 16.4 0 5.7-.7 11.1-2.1 16.4-1.4 5.4-3.6 10.6-6.3 15.3-2.8 4.8-6.2 9.2-10.1 13.1l4.3 4.3c4.3-4.3 8-9.1 11.1-14.4 3-5.2 5.4-10.8 6.9-16.8 1.8-5.4 2.6-11.5 2.6-17.7Z"/><path fill="#185568" d="M93.2 60.4c-.9-3.3-2.2-6.5-3.9-9.4-1.7-2.9-3.8-5.7-6.2-8-2.4-2.4-5.1-4.5-8-6.2-2.9-1.7-6-3-9.4-3.9-3.2-.9-6.6-1.3-10-1.3-3.5 0-6.8.5-10 1.3-3.3.9-6.5 2.2-9.4 3.9-2.9 1.7-5.7 3.8-8.1 6.2-2.4 2.4-4.5 5.1-6.2 8-1.7 2.9-3 6-3.9 9.4-.9 3.2-1.3 6.6-1.3 10.1s.5 6.8 1.3 10c.9 3.3 2.2 6.5 3.9 9.4l10.6-6.1c-1.2-2-2.1-4.1-2.7-6.4-.6-2.2-.9-4.5-.9-6.9 0-2.4.3-4.7.9-6.9.6-2.3 1.5-4.4 2.7-6.4 1.2-2 2.6-3.9 4.2-5.5s3.5-3.1 5.5-4.2 4.1-2 6.4-2.7c2.2-.6 4.5-.9 6.9-.9 2.4 0 4.7.3 6.9.9 2.3.6 4.4 1.5 6.4 2.7 2 1.2 3.9 2.6 5.5 4.2s3.1 3.5 4.2 5.5c1.2 2 2.1 4.1 2.7 6.4.6 2.2.9 4.5.9 6.9h12.3c0-3.5-.4-6.9-1.3-10.1Z"/><g fill="#A7EBEF"><path d="M81.4 63.6c-.6-2.3-1.5-4.4-2.7-6.4-1.2-2-2.6-3.9-4.2-5.5l-5.8 5.8c1.1 1.1 2.1 2.4 2.9 3.8.8 1.4 1.4 2.9 1.8 4.4.4 1.5.6 3.1.6 4.8 0 1.7-.2 3.2-.6 4.8-.4 1.6-1 3.1-1.8 4.4-.8 1.4-1.8 2.7-2.9 3.8-1.1 1.1-2.4 2.1-3.8 2.9-1.4.8-2.9 1.4-4.4 1.8-1.5.4-3.1.6-4.8.6-1.7 0-3.2-.2-4.8-.6-1.6-.4-3.1-1-4.4-1.8l-4.1 7.1c2 1.2 4.1 2.1 6.4 2.7 2.2.6 4.5.9 6.9.9 2.4 0 4.7-.3 6.9-.9 2.3-.6 4.4-1.5 6.4-2.7 2-1.2 3.9-2.6 5.5-4.2s3.1-3.5 4.2-5.5c1.2-2 2.1-4.1 2.7-6.4.6-2.2.9-4.5.9-6.9 0-2.4-.3-4.7-.9-6.9Z"/><path d="M96.4 47c-2.1-3.6-4.6-6.8-7.5-9.7-2.9-2.9-6.2-5.4-9.7-7.5-3.5-2-7.3-3.6-11.3-4.7-3.9-1-8-1.6-12.2-1.6-4.2 0-8.3.6-12.2 1.6-4 1.1-7.8 2.7-11.3 4.7-3.6 2.1-6.8 4.6-9.7 7.5-2.9 2.9-5.4 6.2-7.5 9.7-2 3.5-3.6 7.3-4.7 11.3-1 3.9-1.6 8-1.6 12.2h8.2c0-3.5.5-6.9 1.3-10.1.9-3.3 2.2-6.5 3.9-9.4 1.7-2.9 3.8-5.7 6.2-8.1 2.4-2.4 5.1-4.5 8.1-6.2 2.9-1.7 6.1-3 9.4-3.9 3.2-.9 6.6-1.3 10.1-1.3s6.9.5 10.1 1.3c3.3.9 6.5 2.2 9.4 3.9 2.9 1.7 5.7 3.8 8.1 6.2 2.4 2.4 4.5 5.1 6.2 8.1 1.7 2.9 3 6.1 3.9 9.4l7.9-2.1c-1.5-4-3.1-7.8-5.1-11.3Z"/><path d="M116.9 54.1c-1.4-5.4-3.6-10.5-6.3-15.3a64.466 64.466 0 0 0-23.2-23.2c-4.7-2.7-9.9-4.9-15.3-6.3-5.2-1.4-10.7-2.1-16.4-2.1-5.7 0-11.2.8-16.4 2.1-5.4 1.4-10.5 3.6-15.3 6.3A64.466 64.466 0 0 0 .8 38.8l7.1 4.1c2.4-4.2 5.4-8 8.8-11.4 3.4-3.4 7.3-6.3 11.4-8.8 4.1-2.4 8.6-4.3 13.3-5.5 4.6-1.2 9.3-1.9 14.3-1.9s9.7.7 14.3 1.9c4.7 1.3 9.2 3.1 13.3 5.5 4.2 2.4 8 5.4 11.4 8.8 3.4 3.4 6.3 7.3 8.8 11.4 2.4 4.1 4.3 8.6 5.5 13.3 1.2 4.6 1.9 9.3 1.9 14.3 0 4.9-.7 9.7-1.9 14.3l7.9 2.1c1.4-5.2 2.1-10.7 2.1-16.4.1-5.6-.7-11.1-2.1-16.4Z"/></g><circle cx="55.7" cy="70.5" r="18.4" fill="#185568"/></g><g fill="#185568"><path d="M355.3 143.4v-38.2h8.1v38.2zM378.6 130v13.4h-7.7v-26.7h7.6v1.9c1.5-1.4 3.6-2.5 6.3-2.5 6.5 0 10.8 4.3 10.8 11.8v15.5H388v-14.9c0-2.8-1.3-5.2-4.4-5.2-3.7-.1-5 2.6-5 6.7zm34.1 13.5c-5.8 0-9.2-3.4-9.2-9.3v-10.4H399v-7.1h4.5v-3.9l7.7-6.5v10.5h6.7v7.1h-6.7v9.3c0 2.6 1.7 3.2 3.3 3.2 1.8 0 3.3-.7 3.3-.7v7c0-.1-2.1.8-5.1.8zm35.9-11.4h-18.9c.4 2.7 2.7 4.8 6 4.8 2.2 0 3.5-.9 4.4-2.3h8.3c-1.8 5.8-5.9 9.4-12.6 9.4-7.7 0-14-5.4-14-13.8 0-8.1 5.7-14.2 13.5-14.2 8.8 0 13.2 6.9 13.2 14.1.2.7.1 2 .1 2zm-13.1-9.3c-2.9 0-4.9 1.8-5.4 4.1h10.4c-.2-2.3-2.2-4.1-5-4.1zm36.1-4.6v7.6s-2-2.1-5.1-2.1c-2.3 0-5 1.3-5 5.2v14.4h-7.7v-26.7h7.6v2.2c-.1 0 1.5-2.6 5.3-2.6 3.4.1 4.9 2 4.9 2zm12 11.8v13.4h-7.7v-26.7h7.6v1.9c1.5-1.4 3.6-2.5 6.3-2.5 6.5 0 10.8 4.3 10.8 11.8v15.5h-7.7v-14.9c0-2.8-1.3-5.2-4.4-5.2-3.7-.1-4.9 2.6-4.9 6.7zm39.3 10.7c-1.7 2.1-4.3 3.3-7.6 3.3-5.3 0-9.6-3.3-9.6-8.4 0-5.1 4.3-7.6 10.4-7.9 4.6-.3 6.1-.8 6.1-2.3 0-1.5-1.4-2.6-3.9-2.6-3.1 0-4.4 1.5-4.5 3.2h-7.5c.4-5.8 4.7-9.9 12-9.9 7.1 0 11.7 3.9 11.7 11.1v16.2h-6.4l-.7-2.7zm-9.4-5.5c0 1.5 1.4 2.5 3.5 2.5 2.9 0 5.3-1.6 5.3-5v-1s-1.4.7-4.4.8c-3.2.2-4.4 1.2-4.4 2.7zm33.6 8.3c-5.8 0-9.2-3.4-9.2-9.3v-10.4h-4.5v-7.1h4.5v-3.9l7.7-6.5v10.5h6.7v7.1h-6.7v9.3c0 2.6 1.7 3.2 3.3 3.2 1.8 0 3.3-.7 3.3-.7v7c0-.1-2.1.8-5.1.8zm10.4-34.4c0-2.5 2-4.5 4.5-4.5s4.5 2 4.5 4.5-2 4.5-4.5 4.5-4.5-2.1-4.5-4.5zm.6 34.3v-26.7h7.7v26.7h-7.7zm13.4-13.4c0-8 6.2-14 14.2-14 8.1 0 14.2 6 14.2 14s-6.2 14-14.2 14c-8.1 0-14.2-6-14.2-14zm7.9 0c0 3.9 2.7 6.8 6.3 6.8 3.7 0 6.3-2.8 6.3-6.8 0-3.9-2.7-6.8-6.3-6.8-3.6.1-6.3 2.9-6.3 6.8zm33.6 0v13.4h-7.7v-26.7h7.6v1.9c1.5-1.4 3.6-2.5 6.3-2.5 6.5 0 10.8 4.3 10.8 11.8v15.5h-7.7v-14.9c0-2.8-1.3-5.2-4.4-5.2-3.6-.1-4.9 2.6-4.9 6.7zm39.4 10.7c-1.7 2.1-4.3 3.3-7.6 3.3-5.3 0-9.6-3.3-9.6-8.4 0-5.1 4.3-7.6 10.4-7.9 4.6-.3 6.1-.8 6.1-2.3 0-1.5-1.4-2.6-3.9-2.6-3.1 0-4.4 1.5-4.5 3.2h-7.5c.4-5.8 4.7-9.9 12-9.9 7.1 0 11.7 3.9 11.7 11.1v16.2h-6.4l-.7-2.7zm-9.5-5.5c0 1.5 1.4 2.5 3.5 2.5 2.9 0 5.3-1.6 5.3-5v-1s-1.4.7-4.4.8c-3.2.2-4.4 1.2-4.4 2.7zM665.9 143.4v-38.2h7.7v38.2zM715.5 105.2l14.9 38.2H722l-3.1-7.5h-14.8l-3 7.5h-8.4l14.9-38.2h7.9zm-3.9 11-4.7 12.5h9.5l-4.8-12.5zm22.5-7.1c0-2.5 2-4.5 4.5-4.5s4.5 2 4.5 4.5-2 4.5-4.5 4.5-4.5-2.1-4.5-4.5zm.6 34.3v-26.7h7.7v26.7h-7.7zm13.4-13.4c0-8.4 6.1-14 13.5-14 3.1 0 5.6 1.1 7 2.3v-13.2h7.7v38.2h-7.6v-1.9c-1.4 1.4-4.1 2.5-7.1 2.5-7.5.1-13.5-5.3-13.5-13.9zm20.5 0c0-4.1-2.7-7-6.3-7-3.6 0-6.3 2.8-6.3 7 0 4.1 2.7 7 6.3 7 3.6 0 6.3-2.8 6.3-7zM352.8 170.6h30v7.5h-11v30.7h-8.1V178h-11v-7.4zM401.7 183.6v7.6s-2-2.1-5.1-2.1c-2.3 0-5 1.3-5 5.2v14.4H384V182h7.6v2.2c-.1 0 1.5-2.6 5.3-2.6 3.3.1 4.8 2 4.8 2zm20.8 22.4c-1.7 2.1-4.3 3.3-7.6 3.3-5.3 0-9.6-3.3-9.6-8.4 0-5.1 4.3-7.6 10.4-7.9 4.6-.3 6.1-.8 6.1-2.3 0-1.5-1.4-2.6-3.9-2.6-3.1 0-4.4 1.5-4.5 3.2h-7.5c.4-5.8 4.7-9.9 12-9.9 7.1 0 11.7 3.9 11.7 11.1v16.2h-6.4l-.7-2.7zm-9.5-5.4c0 1.5 1.4 2.5 3.5 2.5 2.9 0 5.3-1.6 5.3-5v-1s-1.4.7-4.4.8c-3.1.2-4.4 1.2-4.4 2.7zm30.8-5.2v13.4H436v-26.7h7.6v1.9c1.5-1.4 3.6-2.5 6.3-2.5 6.5 0 10.8 4.3 10.8 11.8v15.5H453v-14.9c0-2.8-1.3-5.2-4.4-5.2-3.6-.1-4.8 2.6-4.8 6.7zm38 5.7c0-.8-.5-1.5-2.6-1.9l-4-.8c-6.1-1.2-8.6-4.1-8.6-8.1 0-4.7 3.5-8.9 10.9-8.9s10.7 4.1 11.3 8.8h-7.4c-.4-1.5-1.7-2.3-4-2.3-2.2 0-3.4.8-3.4 1.9 0 .8.7 1.3 2.7 1.7l4 .8c5.7 1.1 8.6 3.8 8.6 8.4 0 5.2-3.8 8.8-11.2 8.8-7.6 0-11.7-3.6-12.5-9.2h7.8c.4 1.9 1.8 2.8 4.7 2.8 2.5-.1 3.7-.8 3.7-2zm40.7-5.7c0 8.4-6.1 14-13.5 14-3.1 0-5.6-1.1-7-2.3v12.3h-7.7v-37.3h7.6v1.9c1.4-1.4 4.1-2.6 7.1-2.6 7.5 0 13.5 5.4 13.5 14zm-20.5 0c0 4.1 2.7 7 6.3 7 3.6 0 6.3-2.8 6.3-7 0-4.1-2.7-7-6.3-7-3.6 0-6.3 2.9-6.3 7zm41.8 10.6c-1.7 2.1-4.3 3.3-7.6 3.3-5.3 0-9.6-3.3-9.6-8.4 0-5.1 4.3-7.6 10.4-7.9 4.6-.3 6.1-.8 6.1-2.3 0-1.5-1.4-2.6-3.9-2.6-3.1 0-4.4 1.5-4.5 3.2h-7.5c.4-5.8 4.7-9.9 12-9.9 7.1 0 11.7 3.9 11.7 11.1v16.2h-6.4l-.7-2.7zm-9.5-5.4c0 1.5 1.4 2.5 3.5 2.5 2.9 0 5.3-1.6 5.3-5v-1s-1.4.7-4.4.8c-3.1.2-4.4 1.2-4.4 2.7zm40.8-17v7.6s-2-2.1-5.1-2.1c-2.3 0-5 1.3-5 5.2v14.4h-7.7V182h7.6v2.2c-.1 0 1.5-2.6 5.3-2.6 3.4.1 4.9 2 4.9 2zm29.7 13.9h-18.9c.4 2.7 2.7 4.8 6 4.8 2.2 0 3.5-.9 4.4-2.3h8.3c-1.8 5.8-5.9 9.4-12.6 9.4-7.7 0-14-5.4-14-13.8 0-8.1 5.7-14.2 13.5-14.2 8.8 0 13.2 6.9 13.2 14.1.1.7.1 2 .1 2zm-13.1-9.3c-2.9 0-4.9 1.8-5.4 4.1h10.4c-.2-2.3-2.2-4.1-5-4.1zm26.1 7.2v13.4H610v-26.7h7.6v1.9c1.5-1.4 3.6-2.5 6.3-2.5 6.5 0 10.8 4.3 10.8 11.8v15.5H627v-14.9c0-2.8-1.3-5.2-4.4-5.2-3.6-.1-4.8 2.6-4.8 6.7zm40.7 3h8.5c-1.3 6.5-6.2 11-13.4 11-8.1 0-14.1-5.9-14.1-14 0-8 6-14 14.1-14 7 0 11.9 4.4 12.9 10.7H658c-.6-2-2.3-3.4-4.7-3.4-3.3 0-5.9 2.8-5.9 6.7 0 3.9 2.6 6.7 6 6.7 2.6 0 4.5-1.4 5.1-3.7zm18 21.2c-3.5 0-5.2-.9-5.2-.9v-7.1s1.6.8 3.3.8c1.7 0 4-.7 4.6-3.7L668.8 182h8.6l6.1 16.6 6.2-16.6h8.3l-11 27.2c-2.9 7.1-5.2 10.4-10.5 10.4zM717.4 208.8v-38.2h8.1v38.2zM740.7 195.4v13.4H733v-26.7h7.6v1.9c1.5-1.4 3.6-2.5 6.3-2.5 6.5 0 10.8 4.3 10.8 11.8v15.5H750v-14.9c0-2.8-1.3-5.2-4.4-5.2-3.7-.1-4.9 2.6-4.9 6.7zm23-20.9c0-2.5 2-4.5 4.5-4.5s4.5 2 4.5 4.5-2 4.5-4.5 4.5-4.5-2.1-4.5-4.5zm.6 34.3v-26.7h7.7v26.7h-7.7zm25.6.1c-5.8 0-9.2-3.4-9.2-9.3v-10.4h-4.5v-7.1h4.5v-3.9l7.7-6.5v10.5h6.7v7.1h-6.7v9.3c0 2.6 1.7 3.2 3.3 3.2 1.8 0 3.3-.7 3.3-.7v7c0-.1-2.1.8-5.1.8zm10.4-34.4c0-2.5 2-4.5 4.5-4.5s4.5 2 4.5 4.5-2 4.5-4.5 4.5-4.5-2.1-4.5-4.5zm.6 34.3v-26.7h7.7v26.7h-7.7zm30.8-2.8c-1.7 2.1-4.3 3.3-7.6 3.3-5.3 0-9.6-3.3-9.6-8.4 0-5.1 4.3-7.6 10.4-7.9 4.6-.3 6.1-.8 6.1-2.3 0-1.5-1.4-2.6-3.9-2.6-3.1 0-4.4 1.5-4.5 3.2h-7.5c.4-5.8 4.7-9.9 12-9.9 7.1 0 11.7 3.9 11.7 11.1v16.2h-6.4l-.7-2.7zm-9.4-5.4c0 1.5 1.4 2.5 3.5 2.5 2.9 0 5.3-1.6 5.3-5v-1s-1.4.7-4.4.8c-3.2.2-4.4 1.2-4.4 2.7zm33.6 8.3c-5.8 0-9.2-3.4-9.2-9.3v-10.4h-4.5v-7.1h4.5v-3.9l7.7-6.5v10.5h6.7v7.1h-6.7v9.3c0 2.6 1.7 3.2 3.3 3.2 1.8 0 3.3-.7 3.3-.7v7c0-.1-2.1.8-5.1.8zm10.4-34.4c0-2.5 2-4.5 4.5-4.5s4.5 2 4.5 4.5-2 4.5-4.5 4.5-4.5-2.1-4.5-4.5zm.6 34.3v-26.7h7.7v26.7h-7.7zM905.6 182.1l-9.5 26.7h-8l-9.5-26.7h8.2l5.2 16.5 5.2-16.5zM933.8 197.5h-18.9c.4 2.7 2.7 4.8 6 4.8 2.2 0 3.5-.9 4.4-2.3h8.3c-1.8 5.8-5.9 9.4-12.6 9.4-7.7 0-14-5.4-14-13.8 0-8.1 5.7-14.2 13.5-14.2 8.8 0 13.2 6.9 13.2 14.1.1.7.1 2 .1 2Zm-13.1-9.3c-2.9 0-4.9 1.8-5.4 4.1h10.4c-.2-2.3-2.2-4.1-5-4.1Z"/></g></g></svg>