<svg width="352" height="352" fill="none" xmlns="http://www.w3.org/2000/svg"><g opacity=".2" filter="url(#a)"><path d="M73.197 150.803c.108-52.358 42.641-94.715 95-94.606 52.358.108 94.715 42.641 94.606 95-.108 52.358-42.641 94.715-95 94.606-52.358-.108-94.715-42.641-94.606-95Z" fill="#06DBE4"/></g><path d="M124.172 140.636c0-1.848 0-2.772.242-3.622a6.343 6.343 0 0 1 .981-2.007c.523-.713 1.252-1.281 2.711-2.416l34.115-26.537c.928-.723 1.393-1.084 1.9-1.349a6.344 6.344 0 0 1 2.047-.655c.567-.08 1.155-.056 2.33-.008 1.027.042 1.54.063 2.033.163a6.317 6.317 0 0 1 1.777.648c.442.241.848.555 1.661 1.184l34.688 26.824c1.467 1.134 2.2 1.702 2.726 2.416a6.33 6.33 0 0 1 .987 2.012c.244.852.244 1.78.244 3.634v52.101c0 1.802 0 2.704-.356 3.39a3.167 3.167 0 0 1-1.35 1.349c-.686.357-1.587.357-3.39.357h-74.173c-3.245 0-4.867 0-6.102-.642a5.697 5.697 0 0 1-2.43-2.429c-.641-1.235-.641-2.857-.641-6.102v-48.311Z" fill="url(#b)"/><g filter="url(#c)"><path d="M132.775 132.629c1.275 0 1.912 0 2.518.119.776.153 1.516.45 2.182.875.521.332.981.772 1.903 1.653l26.76 25.563a5.653 5.653 0 0 1 .012 8.164l-26.134 25.113c-1.814 1.744-2.722 2.616-3.859 3.074-1.138.458-2.396.458-4.913.458h-.742c-2.984 0-4.476 0-5.403-.927-.927-.927-.927-2.419-.927-5.404v-50.085c0-2.708 0-4.063.451-5.128a5.696 5.696 0 0 1 3.024-3.024c1.065-.451 2.419-.451 5.128-.451Z" fill="#B9DDFF" fill-opacity=".6"/><path d="M132.775 132.924c1.286 0 1.89.002 2.461.114a6.05 6.05 0 0 1 2.08.834c.491.313.928.729 1.858 1.617l26.76 25.563a5.36 5.36 0 0 1 .012 7.738l-26.134 25.113c-1.832 1.76-2.693 2.581-3.766 3.013-1.072.431-2.262.436-4.802.436h-.742c-1.5 0-2.596 0-3.434-.113-.829-.111-1.361-.328-1.76-.727-.4-.4-.616-.932-.728-1.761-.112-.838-.113-1.933-.113-3.434v-50.085c0-1.358 0-2.362.056-3.159.055-.795.164-1.364.372-1.853a5.4 5.4 0 0 1 2.867-2.868c.49-.207 1.058-.317 1.853-.372.798-.056 1.802-.056 3.16-.056Z" stroke="url(#d)" stroke-width=".591"/></g><g filter="url(#e)"><path d="M204.78 132.629c-1.275 0-1.912 0-2.518.119a6.334 6.334 0 0 0-2.182.875c-.521.332-.982.772-1.903 1.653l-26.761 25.563a5.652 5.652 0 0 0-.012 8.164l26.134 25.113c1.815 1.744 2.722 2.616 3.86 3.074 1.138.458 2.396.458 4.913.458h.742c2.984 0 4.476 0 5.403-.927.927-.927.927-2.419.927-5.404v-50.085c0-2.708 0-4.063-.451-5.128a5.7 5.7 0 0 0-3.024-3.024c-1.065-.451-2.42-.451-5.128-.451Z" fill="#B9DDFF" fill-opacity=".6"/><path d="M204.78 132.924c-1.286 0-1.89.002-2.461.114a6.055 6.055 0 0 0-2.081.834c-.49.313-.927.729-1.857 1.617l-26.761 25.563a5.358 5.358 0 0 0-.011 7.738l26.134 25.113c1.832 1.76 2.693 2.581 3.765 3.013 1.073.431 2.263.436 4.803.436h.742c1.5 0 2.596 0 3.433-.113.83-.111 1.362-.328 1.761-.727.4-.4.616-.932.727-1.761.113-.838.114-1.933.114-3.434v-50.085c0-1.358 0-2.362-.056-3.159-.055-.795-.165-1.364-.372-1.853a5.402 5.402 0 0 0-2.868-2.868c-.489-.207-1.058-.317-1.853-.372-.797-.056-1.801-.056-3.159-.056Z" stroke="url(#f)" stroke-width=".591"/></g><g filter="url(#g)"><path d="M123.416 190.262c0-1.298 0-1.947.119-2.555a6.33 6.33 0 0 1 1.45-2.945c.408-.465.922-.862 1.95-1.654l35.274-27.168c.947-.73 1.42-1.094 1.939-1.359a6.301 6.301 0 0 1 1.984-.631c.576-.083 1.174-.058 2.368-.009 1.041.042 1.562.064 2.063.166a6.347 6.347 0 0 1 1.721.623c.451.242.864.559 1.692 1.192l34.554 26.451c2.327 1.781 3.49 2.672 4.14 3.922.04.077.079.155.115.234.598 1.276.598 2.741.598 5.672 0 2.846 0 4.269-.849 5.181a2.925 2.925 0 0 1-.158.157c-.912.85-2.335.85-5.181.85h-75.653c-2.261 0-3.392 0-4.302-.317a5.696 5.696 0 0 1-3.508-3.508c-.316-.909-.316-2.04-.316-4.302Z" fill="#B9DDFF" fill-opacity=".6"/><path d="M123.711 190.262c0-1.31.001-1.925.114-2.497a6.03 6.03 0 0 1 1.382-2.808c.384-.439.871-.815 1.909-1.615l35.273-27.168c.955-.736 1.405-1.081 1.893-1.33a6.036 6.036 0 0 1 1.892-.602c.543-.078 1.109-.056 2.314-.006 1.051.043 1.544.064 2.016.161a6.021 6.021 0 0 1 1.641.594c.424.227.817.526 1.652 1.166l34.553 26.45c2.349 1.799 3.445 2.646 4.058 3.825.038.073.075.147.11.222.563 1.203.57 2.589.57 5.547 0 1.431-.001 2.476-.104 3.278-.102.795-.3 1.309-.666 1.701-.046.05-.094.097-.143.143-.393.366-.907.565-1.702.667-.802.103-1.847.104-3.278.104h-75.653c-2.286 0-3.354-.004-4.205-.3a5.406 5.406 0 0 1-3.326-3.327c-.296-.85-.3-1.918-.3-4.205Z" stroke="url(#h)" stroke-width=".591"/></g><circle cx="206.733" cy="193.213" r="21.213" fill="#F1F7F9"/><mask id="k" fill="#fff"><path fill-rule="evenodd" clip-rule="evenodd" d="M219.541 188.364a3.001 3.001 0 0 0-4.243-4.243l-12.131 12.131-4.283-4.283a3 3 0 1 0-4.243 4.243l6.364 6.364a3.001 3.001 0 0 0 3.46.564c.339-.146.657-.357.934-.634l14.142-14.142Z"/></mask><path fill-rule="evenodd" clip-rule="evenodd" d="M219.541 188.364a3.001 3.001 0 0 0-4.243-4.243l-12.131 12.131-4.283-4.283a3 3 0 1 0-4.243 4.243l6.364 6.364a3.001 3.001 0 0 0 3.46.564c.339-.146.657-.357.934-.634l14.142-14.142Z" fill="url(#i)" fill-opacity=".9"/><path d="m219.541 184.121-.173.173.173-.173Zm0 4.243-.173-.174.173.174Zm-4.243-4.243-.173-.173.173.173Zm-12.131 12.131-.173.173.173.174.173-.174-.173-.173Zm-4.283-4.283.173-.173-.173.173Zm-4.243 4.243.174-.174-.174.174Zm6.364 6.364-.173.173.173-.173Zm3.46.564-.097-.225-.012.006.109.219Zm.934-.634-.174-.174.174.174Zm13.969-18.212a2.756 2.756 0 0 1 0 3.896l.346.347a3.245 3.245 0 0 0 0-4.589l-.346.346Zm-3.897 0a2.756 2.756 0 0 1 3.897 0l.346-.346a3.243 3.243 0 0 0-4.589 0l.346.346Zm-12.131 12.131 12.131-12.131-.346-.346-12.131 12.131.346.346Zm-4.629-4.283 4.283 4.283.346-.346-4.283-4.283-.346.346Zm-3.896 0a2.755 2.755 0 0 1 3.896 0l.346-.346a3.243 3.243 0 0 0-4.589 0l.347.346Zm0 3.896a2.755 2.755 0 0 1 0-3.896l-.347-.346a3.245 3.245 0 0 0 0 4.589l.347-.347Zm6.364 6.364-6.364-6.364-.347.347 6.364 6.364.347-.347Zm3.177.519a2.755 2.755 0 0 1-3.177-.519l-.347.347a3.244 3.244 0 0 0 3.742.61l-.218-.438Zm.869-.589a2.735 2.735 0 0 1-.857.583l.194.45a3.237 3.237 0 0 0 1.01-.686l-.347-.347Zm14.143-14.142-14.143 14.142.347.347 14.142-14.142-.346-.347Z" fill="url(#j)" mask="url(#k)"/><mask id="n" fill="#fff"><path fill-rule="evenodd" clip-rule="evenodd" d="M219.541 188.364a3.001 3.001 0 0 0-4.243-4.243l-12.131 12.131-4.283-4.283a3 3 0 1 0-4.243 4.243l6.364 6.364a3.001 3.001 0 0 0 3.46.564c.339-.146.657-.357.934-.634l14.142-14.142Z"/></mask><path fill-rule="evenodd" clip-rule="evenodd" d="M219.541 188.364a3.001 3.001 0 0 0-4.243-4.243l-12.131 12.131-4.283-4.283a3 3 0 1 0-4.243 4.243l6.364 6.364a3.001 3.001 0 0 0 3.46.564c.339-.146.657-.357.934-.634l14.142-14.142Z" fill="url(#l)" fill-opacity=".75"/><path d="m219.541 184.121-.173.173.173-.173Zm0 4.243-.173-.174.173.174Zm-4.243-4.243-.173-.173.173.173Zm-12.131 12.131-.173.173.173.174.173-.174-.173-.173Zm-4.283-4.283.173-.173-.173.173Zm-4.243 4.243.174-.174-.174.174Zm6.364 6.364-.173.173.173-.173Zm3.46.564-.097-.225-.012.006.109.219Zm.934-.634-.174-.174.174.174Zm13.969-18.212a2.756 2.756 0 0 1 0 3.896l.346.347a3.245 3.245 0 0 0 0-4.589l-.346.346Zm-3.897 0a2.756 2.756 0 0 1 3.897 0l.346-.346a3.243 3.243 0 0 0-4.589 0l.346.346Zm-12.131 12.131 12.131-12.131-.346-.346-12.131 12.131.346.346Zm-4.629-4.283 4.283 4.283.346-.346-4.283-4.283-.346.346Zm-3.896 0a2.755 2.755 0 0 1 3.896 0l.346-.346a3.243 3.243 0 0 0-4.589 0l.347.346Zm0 3.896a2.755 2.755 0 0 1 0-3.896l-.347-.346a3.245 3.245 0 0 0 0 4.589l.347-.347Zm6.364 6.364-6.364-6.364-.347.347 6.364 6.364.347-.347Zm3.177.519a2.755 2.755 0 0 1-3.177-.519l-.347.347a3.244 3.244 0 0 0 3.742.61l-.218-.438Zm.869-.589a2.735 2.735 0 0 1-.857.583l.194.45a3.237 3.237 0 0 0 1.01-.686l-.347-.347Zm14.143-14.142-14.143 14.142.347.347 14.142-14.142-.346-.347Z" fill="url(#m)" fill-opacity=".1" mask="url(#n)"/><defs><linearGradient id="b" x1="149.684" y1="147.568" x2="216.417" y2="172.283" gradientUnits="userSpaceOnUse"><stop stop-color="#7FC0FB"/><stop offset="1" stop-color="#4088F4"/></linearGradient><linearGradient id="d" x1="164.889" y1="129.378" x2="107.008" y2="154.937" gradientUnits="userSpaceOnUse"><stop stop-color="#fff"/><stop offset=".766" stop-color="#fff" stop-opacity="0"/></linearGradient><linearGradient id="f" x1="172.665" y1="129.378" x2="230.547" y2="154.937" gradientUnits="userSpaceOnUse"><stop stop-color="#fff"/><stop offset=".766" stop-color="#fff" stop-opacity="0"/></linearGradient><linearGradient id="h" x1="118.917" y1="156.982" x2="139.569" y2="220.619" gradientUnits="userSpaceOnUse"><stop stop-color="#fff"/><stop offset=".766" stop-color="#fff" stop-opacity="0"/></linearGradient><linearGradient id="i" x1="223.343" y1="185.128" x2="190.322" y2="198.395" gradientUnits="userSpaceOnUse"><stop stop-color="#17997B"/><stop offset="1" stop-color="#17997B" stop-opacity="0"/></linearGradient><linearGradient id="j" x1="223.871" y1="182.225" x2="207.035" y2="186.89" gradientUnits="userSpaceOnUse"><stop stop-color="#17997B"/><stop offset="1" stop-color="#17997B" stop-opacity="0"/></linearGradient><linearGradient id="l" x1="223.343" y1="185.128" x2="190.322" y2="198.395" gradientUnits="userSpaceOnUse"><stop stop-color="#17997B" stop-opacity="0"/><stop offset="1" stop-color="#17997B"/></linearGradient><linearGradient id="m" x1="223.871" y1="182.225" x2="207.035" y2="186.89" gradientUnits="userSpaceOnUse"><stop stop-color="#17997B" stop-opacity="0"/><stop offset="1" stop-color="#17997B"/></linearGradient><filter id="a" x=".735" y=".457" width="351.252" height="351.252" filterUnits="userSpaceOnUse" color-interpolation-filters="sRGB"><feFlood flood-opacity="0" result="BackgroundImageFix"/><feColorMatrix in="SourceAlpha" values="0 0 0 0 0 0 0 0 0 0 0 0 0 0 0 0 0 0 127 0" result="hardAlpha"/><feMorphology radius="12.077" in="SourceAlpha" result="effect1_dropShadow_3147_47092"/><feOffset dx="8.361" dy="25.083"/><feGaussianBlur stdDeviation="46.45"/><feComposite in2="hardAlpha" operator="out"/><feColorMatrix values="0 0 0 0 0.0846354 0 0 0 0 0.203125 0 0 0 0 0.3125 0 0 0 0.1 0"/><feBlend in2="BackgroundImageFix" result="effect1_dropShadow_3147_47092"/><feBlend in="SourceGraphic" in2="effect1_dropShadow_3147_47092" result="shape"/></filter><filter id="c" x="111.511" y="119.968" width="69.037" height="90.34" filterUnits="userSpaceOnUse" color-interpolation-filters="sRGB"><feFlood flood-opacity="0" result="BackgroundImageFix"/><feGaussianBlur in="BackgroundImage" stdDeviation="6.33"/><feComposite in2="SourceAlpha" operator="in" result="effect1_backgroundBlur_3147_47092"/><feBlend in="SourceGraphic" in2="effect1_backgroundBlur_3147_47092" result="shape"/></filter><filter id="e" x="157.007" y="119.968" width="69.037" height="90.34" filterUnits="userSpaceOnUse" color-interpolation-filters="sRGB"><feFlood flood-opacity="0" result="BackgroundImageFix"/><feGaussianBlur in="BackgroundImage" stdDeviation="6.33"/><feComposite in2="SourceAlpha" operator="in" result="effect1_backgroundBlur_3147_47092"/><feBlend in="SourceGraphic" in2="effect1_backgroundBlur_3147_47092" result="shape"/></filter><filter id="g" x="110.755" y="141.235" width="115.289" height="69.815" filterUnits="userSpaceOnUse" color-interpolation-filters="sRGB"><feFlood flood-opacity="0" result="BackgroundImageFix"/><feGaussianBlur in="BackgroundImage" stdDeviation="6.33"/><feComposite in2="SourceAlpha" operator="in" result="effect1_backgroundBlur_3147_47092"/><feBlend in="SourceGraphic" in2="effect1_backgroundBlur_3147_47092" result="shape"/></filter></defs></svg>