<svg width="20" height="18" fill="none" xmlns="http://www.w3.org/2000/svg"><path d="m18.917 13.583-6.75-11.666C11.5.75 9.917.333 8.75 1c-.417.25-.75.583-.917.917l-6.75 11.666C.417 14.75.833 16.333 2 17c.417.25.833.333 1.25.333h13.417c1.416 0 2.5-1.166 2.5-2.5.083-.5-.084-.916-.25-1.25ZM10 14c-.5 0-.833-.333-.833-.833 0-.5.333-.834.833-.834.5 0 .833.334.833.834 0 .5-.333.833-.833.833Zm.833-4.167c0 .5-.333.834-.833.834-.5 0-.833-.334-.833-.834V6.5c0-.5.333-.833.833-.833.5 0 .833.333.833.833v3.333Z" fill="#F4B784"/></svg>
