<svg viewBox="0 0 16 16" fill="none" xmlns="http://www.w3.org/2000/svg">
  <path
    d="M14.0002 13.333H2.66683V11.9997H4.66683C4.84364 11.9997 5.01321 11.9294 5.13823 11.8044C5.26326 11.6794 5.3335 11.5098 5.3335 11.333C5.3335 11.1562 5.26326 10.9866 5.13823 10.8616C5.01321 10.7366 4.84364 10.6663 4.66683 10.6663H2.66683V9.33301H7.3335C7.51031 9.33301 7.67988 9.26277 7.8049 9.13775C7.92992 9.01272 8.00016 8.84315 8.00016 8.66634C8.00016 8.48953 7.92992 8.31996 7.8049 8.19494C7.67988 8.06991 7.51031 7.99967 7.3335 7.99967H2.66683V6.66634H10.0002C10.177 6.66634 10.3465 6.5961 10.4716 6.47108C10.5966 6.34605 10.6668 6.17649 10.6668 5.99967C10.6668 5.82286 10.5966 5.65329 10.4716 5.52827C10.3465 5.40325 10.177 5.33301 10.0002 5.33301H2.66683V3.99967H12.6668C12.8436 3.99967 13.0132 3.92944 13.1382 3.80441C13.2633 3.67939 13.3335 3.50982 13.3335 3.33301C13.3335 3.1562 13.2633 2.98663 13.1382 2.8616C13.0132 2.73658 12.8436 2.66634 12.6668 2.66634H2.66683V1.99967C2.66683 1.82286 2.59659 1.65329 2.47157 1.52827C2.34654 1.40325 2.17697 1.33301 2.00016 1.33301C1.82335 1.33301 1.65378 1.40325 1.52876 1.52827C1.40373 1.65329 1.3335 1.82286 1.3335 1.99967V13.9997C1.3335 14.1765 1.40373 14.3461 1.52876 14.4711C1.65378 14.5961 1.82335 14.6663 2.00016 14.6663H14.0002C14.177 14.6663 14.3465 14.5961 14.4716 14.4711C14.5966 14.3461 14.6668 14.1765 14.6668 13.9997C14.6668 13.8229 14.5966 13.6533 14.4716 13.5283C14.3465 13.4032 14.177 13.333 14.0002 13.333Z"
    fill="currentColor"/>
</svg>
