<svg width="16" height="16" viewBox="0 0 16 16" fill="none" xmlns="http://www.w3.org/2000/svg">
<path d="M8.00016 3.99967C7.82335 3.99967 7.65378 4.06991 7.52876 4.19494C7.40373 4.31996 7.3335 4.48953 7.3335 4.66634V11.333C7.3335 11.5098 7.40373 11.6794 7.52876 11.8044C7.65378 11.9294 7.82335 11.9997 8.00016 11.9997C8.17697 11.9997 8.34654 11.9294 8.47157 11.8044C8.59659 11.6794 8.66683 11.5098 8.66683 11.333V4.66634C8.66683 4.48953 8.59659 4.31996 8.47157 4.19494C8.34654 4.06991 8.17697 3.99967 8.00016 3.99967ZM4.66683 7.99967C4.49002 7.99967 4.32045 8.06991 4.19543 8.19494C4.0704 8.31996 4.00016 8.48953 4.00016 8.66634V11.333C4.00016 11.5098 4.0704 11.6794 4.19543 11.8044C4.32045 11.9294 4.49002 11.9997 4.66683 11.9997C4.84364 11.9997 5.01321 11.9294 5.13823 11.8044C5.26326 11.6794 5.3335 11.5098 5.3335 11.333V8.66634C5.3335 8.48953 5.26326 8.31996 5.13823 8.19494C5.01321 8.06991 4.84364 7.99967 4.66683 7.99967ZM11.3335 6.66634C11.1567 6.66634 10.9871 6.73658 10.8621 6.8616C10.7371 6.98663 10.6668 7.1562 10.6668 7.33301V11.333C10.6668 11.5098 10.7371 11.6794 10.8621 11.8044C10.9871 11.9294 11.1567 11.9997 11.3335 11.9997C11.5103 11.9997 11.6799 11.9294 11.8049 11.8044C11.9299 11.6794 12.0002 11.5098 12.0002 11.333V7.33301C12.0002 7.1562 11.9299 6.98663 11.8049 6.8616C11.6799 6.73658 11.5103 6.66634 11.3335 6.66634ZM12.6668 1.33301H3.3335C2.80306 1.33301 2.29436 1.54372 1.91928 1.91879C1.54421 2.29387 1.3335 2.80257 1.3335 3.33301V12.6663C1.3335 13.1968 1.54421 13.7055 1.91928 14.0806C2.29436 14.4556 2.80306 14.6663 3.3335 14.6663H12.6668C13.1973 14.6663 13.706 14.4556 14.081 14.0806C14.4561 13.7055 14.6668 13.1968 14.6668 12.6663V3.33301C14.6668 2.80257 14.4561 2.29387 14.081 1.91879C13.706 1.54372 13.1973 1.33301 12.6668 1.33301ZM13.3335 12.6663C13.3335 12.8432 13.2633 13.0127 13.1382 13.1377C13.0132 13.2628 12.8436 13.333 12.6668 13.333H3.3335C3.15669 13.333 2.98712 13.2628 2.86209 13.1377C2.73707 13.0127 2.66683 12.8432 2.66683 12.6663V3.33301C2.66683 3.1562 2.73707 2.98663 2.86209 2.8616C2.98712 2.73658 3.15669 2.66634 3.3335 2.66634H12.6668C12.8436 2.66634 13.0132 2.73658 13.1382 2.8616C13.2633 2.98663 13.3335 3.1562 13.3335 3.33301V12.6663Z" fill="#A6B5BA"/>
</svg>
