<svg viewBox="0 0 16 16" fill="none" xmlns="http://www.w3.org/2000/svg">
  <path
    d="M7.33366 6.00033H10.0003C10.1771 6.00033 10.3467 5.93009 10.4717 5.80506C10.5968 5.68004 10.667 5.51047 10.667 5.33366C10.667 5.15685 10.5968 4.98728 10.4717 4.86225C10.3467 4.73723 10.1771 4.66699 10.0003 4.66699H8.667V4.00033C8.667 3.82351 8.59676 3.65395 8.47173 3.52892C8.34671 3.4039 8.17714 3.33366 8.00033 3.33366C7.82352 3.33366 7.65395 3.4039 7.52892 3.52892C7.4039 3.65395 7.33366 3.82351 7.33366 4.00033V4.66699C6.80323 4.66699 6.29452 4.87771 5.91945 5.25278C5.54438 5.62785 5.33366 6.13656 5.33366 6.66699C5.33366 7.19742 5.54438 7.70613 5.91945 8.08121C6.29452 8.45628 6.80323 8.66699 7.33366 8.66699H8.667C8.84381 8.66699 9.01338 8.73723 9.1384 8.86225C9.26342 8.98728 9.33366 9.15685 9.33366 9.33366C9.33366 9.51047 9.26342 9.68004 9.1384 9.80506C9.01338 9.93009 8.84381 10.0003 8.667 10.0003H6.00033C5.82352 10.0003 5.65395 10.0706 5.52892 10.1956C5.4039 10.3206 5.33366 10.4902 5.33366 10.667C5.33366 10.8438 5.4039 11.0134 5.52892 11.1384C5.65395 11.2634 5.82352 11.3337 6.00033 11.3337H7.33366V12.0003C7.33366 12.1771 7.4039 12.3467 7.52892 12.4717C7.65395 12.5968 7.82352 12.667 8.00033 12.667C8.17714 12.667 8.34671 12.5968 8.47173 12.4717C8.59676 12.3467 8.667 12.1771 8.667 12.0003V11.3337C9.19743 11.3337 9.70614 11.1229 10.0812 10.7479C10.4563 10.3728 10.667 9.86409 10.667 9.33366C10.667 8.80323 10.4563 8.29452 10.0812 7.91944C9.70614 7.54437 9.19743 7.33366 8.667 7.33366H7.33366C7.15685 7.33366 6.98728 7.26342 6.86226 7.1384C6.73723 7.01337 6.667 6.8438 6.667 6.66699C6.667 6.49018 6.73723 6.32061 6.86226 6.19559C6.98728 6.07056 7.15685 6.00033 7.33366 6.00033ZM8.00033 0.666992C6.54993 0.666992 5.13211 1.09708 3.92615 1.90288C2.72019 2.70868 1.78025 3.85399 1.22521 5.19398C0.67017 6.53397 0.524945 8.00846 0.807903 9.43099C1.09086 10.8535 1.78929 12.1602 2.81488 13.1858C3.84046 14.2114 5.14714 14.9098 6.56967 15.1927C7.99219 15.4757 9.46668 15.3305 10.8067 14.7754C12.1467 14.2204 13.292 13.2805 14.0978 12.0745C14.9036 10.8685 15.3337 9.45072 15.3337 8.00033C15.3337 6.0554 14.561 4.19014 13.1858 2.81488C11.8105 1.43961 9.94525 0.666992 8.00033 0.666992ZM8.00033 14.0003C6.81364 14.0003 5.6536 13.6484 4.66691 12.9891C3.68021 12.3299 2.91118 11.3928 2.45705 10.2964C2.00293 9.20007 1.88411 7.99367 2.11562 6.82978C2.34713 5.6659 2.91857 4.5968 3.75769 3.75768C4.5968 2.91857 5.6659 2.34712 6.82979 2.11561C7.99367 1.8841 9.20007 2.00292 10.2964 2.45705C11.3928 2.91117 12.3299 3.68021 12.9891 4.6669C13.6484 5.6536 14.0003 6.81364 14.0003 8.00033C14.0003 9.59162 13.3682 11.1177 12.243 12.243C11.1178 13.3682 9.59163 14.0003 8.00033 14.0003Z"
    fill="currentColor"/>
</svg>
