<svg viewBox="0 0 16 16" fill="none" xmlns="http://www.w3.org/2000/svg">
  <path
    d="M13.1203 4.58695C12.441 4.22992 11.6488 4.15333 10.9137 4.37362C10.8779 3.62593 10.5557 2.92071 10.0138 2.40422C9.47203 1.88773 8.75221 1.59961 8.00367 1.59961C7.25512 1.59961 6.5353 1.88773 5.99349 2.40422C5.45168 2.92071 5.12947 3.62593 5.09367 4.37362C4.36052 4.15283 3.57058 4.22204 2.887 4.56695C2.3836 4.83154 1.96864 5.23768 1.69331 5.73529C1.41797 6.2329 1.2943 6.80021 1.33754 7.36727C1.38077 7.93433 1.58903 8.47633 1.93663 8.92644C2.28423 9.37655 2.75597 9.71508 3.29367 9.90029C2.95046 10.3886 2.7644 10.9701 2.76033 11.567C2.7633 11.7346 2.7789 11.9017 2.807 12.067C2.91927 12.744 3.26854 13.3591 3.79243 13.8024C4.31632 14.2457 4.98073 14.4883 5.667 14.487C5.80906 14.4967 5.95161 14.4967 6.09367 14.487C6.85569 14.3669 7.54025 13.9528 8.00033 13.3336C8.46521 13.9428 9.14912 14.3469 9.907 14.4603C10.0491 14.47 10.1916 14.47 10.3337 14.4603C10.8658 14.4597 11.3875 14.313 11.842 14.0363C12.2964 13.7596 12.6662 13.3634 12.9111 12.891C13.1559 12.4185 13.2663 11.8879 13.2303 11.3571C13.1943 10.8262 13.0133 10.3154 12.707 9.88029C13.2473 9.69828 13.7222 9.36139 14.0725 8.91153C14.4228 8.46168 14.6331 7.91874 14.6771 7.35029C14.7212 6.78184 14.5971 6.21298 14.3203 5.71453C14.0435 5.21607 13.6262 4.81003 13.1203 4.54695V4.58695ZM6.89367 3.29362C7.1915 3.00839 7.58795 2.84917 8.00033 2.84917C8.41271 2.84917 8.80917 3.00839 9.107 3.29362C9.33438 3.52134 9.48879 3.81163 9.55053 4.12746C9.61228 4.4433 9.57855 4.77036 9.45367 5.06695L9.28033 5.46029L8.84033 5.84695C8.56981 5.7541 8.28631 5.7046 8.00033 5.70029C7.63071 5.70064 7.2652 5.77783 6.927 5.92695L6.55367 5.06695C6.42429 4.77167 6.38752 4.44409 6.44822 4.12748C6.50893 3.81086 6.66425 3.52011 6.89367 3.29362ZM2.827 7.85362C2.67817 7.52613 2.64555 7.15766 2.73453 6.80912C2.8235 6.46057 3.02875 6.15282 3.31634 5.93674C3.60393 5.72066 3.95664 5.60918 4.31618 5.62074C4.67571 5.63229 5.02054 5.76619 5.29367 6.00029L5.62033 6.28695L5.85367 6.82029C5.5197 7.26713 5.33748 7.80911 5.33367 8.36695C5.32576 8.4668 5.32576 8.56711 5.33367 8.66695H4.967L4.407 8.72029C4.0867 8.75409 3.76372 8.68919 3.48133 8.5343C3.19894 8.3794 2.97063 8.1419 2.827 7.85362ZM7.227 11.907C7.14674 12.2628 6.9463 12.5802 6.65941 12.8056C6.37253 13.031 6.01674 13.1506 5.65197 13.1443C5.28719 13.1381 4.93572 13.0063 4.65674 12.7712C4.37776 12.5361 4.18833 12.2121 4.12033 11.8536C4.11394 11.7604 4.11394 11.6668 4.12033 11.5736C4.12275 11.3026 4.19601 11.037 4.33284 10.8031C4.46967 10.5692 4.66531 10.3752 4.90033 10.2403L5.24033 10.0003L5.847 9.93362C6.22937 10.4656 6.79417 10.8381 7.43367 10.9803L7.227 11.907ZM8.00033 9.70029C7.73663 9.70029 7.47884 9.62209 7.25957 9.47558C7.04031 9.32907 6.86941 9.12083 6.76849 8.8772C6.66758 8.63356 6.64117 8.36547 6.69262 8.10683C6.74407 7.84819 6.87106 7.61061 7.05753 7.42414C7.244 7.23767 7.48157 7.11069 7.74021 7.05924C7.99886 7.00779 8.26694 7.0342 8.51058 7.13511C8.75421 7.23603 8.96245 7.40693 9.10896 7.62619C9.25547 7.84546 9.33367 8.10324 9.33367 8.36695C9.33367 8.72058 9.19319 9.05971 8.94314 9.30976C8.69309 9.55981 8.35396 9.70029 8.00033 9.70029ZM11.8803 11.847C11.8116 12.2537 11.5858 12.6172 11.2516 12.8591C10.9174 13.101 10.5016 13.202 10.0937 13.1403C9.77225 13.095 9.47234 12.9526 9.23406 12.7322C8.99578 12.5118 8.8305 12.2239 8.76033 11.907L8.667 11.507L8.807 10.8936C9.42201 10.6933 9.94325 10.2763 10.2737 9.72029L10.607 9.92029H10.667L11.107 10.1803C11.3929 10.3435 11.6209 10.5917 11.7595 10.8903C11.898 11.1889 11.9403 11.5232 11.8803 11.847ZM13.1737 7.84695C13.0425 8.11194 12.8403 8.33522 12.5895 8.49181C12.3387 8.6484 12.0493 8.73212 11.7537 8.73362H11.5937L11.167 8.66695L10.667 8.39362C10.6661 7.74543 10.4291 7.11976 10.0003 6.63362L10.287 6.38695L10.707 6.00029C10.9809 5.75678 11.3309 5.61607 11.6972 5.60224C12.0634 5.58841 12.4231 5.70233 12.7145 5.92449C13.006 6.14665 13.2112 6.46323 13.295 6.82002C13.3787 7.17681 13.3358 7.55163 13.1737 7.88029V7.84695Z"
    fill="currentColor"/>
</svg>
