<svg viewBox="0 0 16 16" fill="none" xmlns="http://www.w3.org/2000/svg">
  <path
    d="M13.3337 5.95967C13.3267 5.89843 13.3133 5.8381 13.2937 5.77967V5.71967C13.2616 5.65113 13.2188 5.58812 13.167 5.53301L9.16699 1.53301C9.11188 1.48115 9.04887 1.4384 8.98033 1.40634H8.92033C8.8526 1.3675 8.77781 1.34257 8.70033 1.33301H4.66699C4.13656 1.33301 3.62785 1.54372 3.25278 1.91879C2.87771 2.29387 2.66699 2.80257 2.66699 3.33301V12.6663C2.66699 13.1968 2.87771 13.7055 3.25278 14.0806C3.62785 14.4556 4.13656 14.6663 4.66699 14.6663H11.3337C11.8641 14.6663 12.3728 14.4556 12.7479 14.0806C13.1229 13.7055 13.3337 13.1968 13.3337 12.6663V5.99967C13.3337 5.99967 13.3337 5.99967 13.3337 5.95967ZM9.33366 3.60634L11.0603 5.33301H10.0003C9.82351 5.33301 9.65394 5.26277 9.52892 5.13775C9.4039 5.01272 9.33366 4.84315 9.33366 4.66634V3.60634ZM12.0003 12.6663C12.0003 12.8432 11.9301 13.0127 11.8051 13.1377C11.68 13.2628 11.5105 13.333 11.3337 13.333H4.66699C4.49018 13.333 4.32061 13.2628 4.19559 13.1377C4.07056 13.0127 4.00033 12.8432 4.00033 12.6663V3.33301C4.00033 3.1562 4.07056 2.98663 4.19559 2.8616C4.32061 2.73658 4.49018 2.66634 4.66699 2.66634H8.00033V4.66634C8.00033 5.19677 8.21104 5.70548 8.58611 6.08055C8.96118 6.45563 9.46989 6.66634 10.0003 6.66634H12.0003V12.6663Z"
    fill="currentColor"/>
</svg>
