<svg viewBox="0 0 16 16" fill="none" xmlns="http://www.w3.org/2000/svg">
  <path
    d="M12.9601 8.66625C12.8134 8.66625 12.6601 8.61959 12.5134 8.58625C12.2164 8.5208 11.9245 8.43391 11.6401 8.32625C11.3308 8.21374 10.9908 8.21958 10.6856 8.34266C10.3804 8.46573 10.1315 8.69734 9.98673 8.99292L9.84007 9.29292C9.19074 8.93171 8.59406 8.48307 8.06673 7.95959C7.54325 7.43226 7.09462 6.83558 6.7334 6.18625L7.0134 5.99959C7.30898 5.85486 7.54059 5.60594 7.66366 5.30071C7.78674 4.99549 7.79258 4.65553 7.68007 4.34625C7.57422 4.0612 7.48736 3.76945 7.42007 3.47292C7.38673 3.32625 7.36007 3.17292 7.34007 3.01959C7.25911 2.55 7.01315 2.12475 6.64648 1.82041C6.27981 1.51608 5.81653 1.35266 5.34007 1.35959H3.34007C3.05275 1.35689 2.76823 1.41613 2.50587 1.53327C2.24351 1.65042 2.00947 1.82272 1.81969 2.03844C1.6299 2.25417 1.48882 2.50825 1.40606 2.7834C1.32329 3.05854 1.30079 3.34829 1.34007 3.63292C1.69523 6.42584 2.97075 9.02084 4.96517 11.008C6.95958 12.9952 9.55921 14.2613 12.3534 14.6063H12.6067C13.0983 14.607 13.573 14.4266 13.9401 14.0996C14.151 13.9109 14.3195 13.6797 14.4344 13.4211C14.5493 13.1626 14.608 12.8825 14.6067 12.5996V10.5996C14.5986 10.1365 14.4299 9.69062 14.1296 9.33803C13.8293 8.98544 13.4159 8.748 12.9601 8.66625ZM13.2934 12.6663C13.2933 12.7609 13.273 12.8545 13.2339 12.9407C13.1948 13.0269 13.1378 13.1038 13.0667 13.1663C12.9922 13.2306 12.9051 13.2786 12.811 13.3073C12.7169 13.336 12.6178 13.3447 12.5201 13.3329C10.0233 13.0128 7.70423 11.8706 5.92854 10.0864C4.15286 8.30232 3.02167 5.97781 2.7134 3.47959C2.70279 3.38193 2.71209 3.28314 2.74074 3.18918C2.76938 3.09522 2.81678 3.00804 2.88007 2.93292C2.94254 2.86181 3.01944 2.80481 3.10565 2.76573C3.19186 2.72665 3.28541 2.70637 3.38007 2.70625H5.38007C5.5351 2.7028 5.68648 2.75351 5.80816 2.84963C5.92984 2.94576 6.01421 3.0813 6.04673 3.23292C6.0734 3.41514 6.10673 3.59514 6.14673 3.77292C6.22375 4.12435 6.32624 4.46971 6.4534 4.80625L5.52007 5.23959C5.44027 5.2762 5.36848 5.32822 5.30884 5.39265C5.2492 5.45708 5.20287 5.53266 5.17251 5.61505C5.14216 5.69744 5.12838 5.78501 5.13197 5.87273C5.13555 5.96046 5.15643 6.04662 5.1934 6.12625C6.15287 8.18142 7.8049 9.83345 9.86007 10.7929C10.0224 10.8596 10.2044 10.8596 10.3667 10.7929C10.4499 10.7632 10.5263 10.7172 10.5915 10.6577C10.6567 10.5982 10.7095 10.5263 10.7467 10.4463L11.1601 9.51292C11.5047 9.63617 11.8565 9.73858 12.2134 9.81959C12.3912 9.85959 12.5712 9.89292 12.7534 9.91959C12.905 9.95211 13.0406 10.0365 13.1367 10.1582C13.2328 10.2798 13.2835 10.4312 13.2801 10.5863L13.2934 12.6663Z"
    fill="currentColor"/>
</svg>
