<svg viewBox="0 0 16 16" fill="none" xmlns="http://www.w3.org/2000/svg">
  <path
    d="M14.1463 8C14.4782 7.63491 14.6634 7.16004 14.6663 6.66667C14.6663 6.13623 14.4556 5.62753 14.0806 5.25245C13.7055 4.87738 13.1968 4.66667 12.6663 4.66667H9.21301C9.3195 4.36545 9.35229 4.04311 9.30862 3.72662C9.26495 3.41013 9.1461 3.10871 8.96201 2.84759C8.77792 2.58647 8.53395 2.37325 8.25053 2.22579C7.96712 2.07832 7.65249 2.0009 7.33301 2H3.33301C2.80257 2 2.29387 2.21071 1.91879 2.58579C1.54372 2.96086 1.33301 3.46957 1.33301 4C1.33595 4.49337 1.52115 4.96824 1.85301 5.33333C1.52504 5.70002 1.34372 6.17471 1.34372 6.66667C1.34372 7.15862 1.52504 7.63332 1.85301 8C1.52504 8.36668 1.34372 8.84138 1.34372 9.33333C1.34372 9.82529 1.52504 10.3 1.85301 10.6667C1.52115 11.0318 1.33595 11.5066 1.33301 12C1.33301 12.5304 1.54372 13.0391 1.91879 13.4142C2.29387 13.7893 2.80257 14 3.33301 14H12.6663C13.0515 13.9979 13.4279 13.8847 13.7503 13.6739C14.0726 13.4631 14.3273 13.1637 14.4836 12.8116C14.6399 12.4596 14.6912 12.0699 14.6314 11.6894C14.5716 11.3089 14.4031 10.9538 14.1463 10.6667C14.4743 10.3 14.6556 9.82529 14.6556 9.33333C14.6556 8.84138 14.4743 8.36668 14.1463 8ZM7.33301 12.6667H3.33301C3.1562 12.6667 2.98663 12.5964 2.8616 12.4714C2.73658 12.3464 2.66634 12.1768 2.66634 12C2.66634 11.8232 2.73658 11.6536 2.8616 11.5286C2.98663 11.4036 3.1562 11.3333 3.33301 11.3333H7.33301C7.50982 11.3333 7.67939 11.4036 7.80441 11.5286C7.92944 11.6536 7.99967 11.8232 7.99967 12C7.99967 12.1768 7.92944 12.3464 7.80441 12.4714C7.67939 12.5964 7.50982 12.6667 7.33301 12.6667ZM7.33301 10H3.33301C3.1562 10 2.98663 9.92976 2.8616 9.80474C2.73658 9.67971 2.66634 9.51014 2.66634 9.33333C2.66634 9.15652 2.73658 8.98695 2.8616 8.86193C2.98663 8.73691 3.1562 8.66667 3.33301 8.66667H7.33301C7.50982 8.66667 7.67939 8.73691 7.80441 8.86193C7.92944 8.98695 7.99967 9.15652 7.99967 9.33333C7.99967 9.51014 7.92944 9.67971 7.80441 9.80474C7.67939 9.92976 7.50982 10 7.33301 10ZM7.33301 7.33333H3.33301C3.1562 7.33333 2.98663 7.2631 2.8616 7.13807C2.73658 7.01305 2.66634 6.84348 2.66634 6.66667C2.66634 6.48986 2.73658 6.32029 2.8616 6.19526C2.98663 6.07024 3.1562 6 3.33301 6H7.33301C7.50982 6 7.67939 6.07024 7.80441 6.19526C7.92944 6.32029 7.99967 6.48986 7.99967 6.66667C7.99967 6.84348 7.92944 7.01305 7.80441 7.13807C7.67939 7.2631 7.50982 7.33333 7.33301 7.33333ZM7.33301 4.66667H3.33301C3.1562 4.66667 2.98663 4.59643 2.8616 4.4714C2.73658 4.34638 2.66634 4.17681 2.66634 4C2.66634 3.82319 2.73658 3.65362 2.8616 3.5286C2.98663 3.40357 3.1562 3.33333 3.33301 3.33333H7.33301C7.50982 3.33333 7.67939 3.40357 7.80441 3.5286C7.92944 3.65362 7.99967 3.82319 7.99967 4C7.99967 4.17681 7.92944 4.34638 7.80441 4.4714C7.67939 4.59643 7.50982 4.66667 7.33301 4.66667ZM13.1263 12.4733C13.0672 12.5357 12.9958 12.585 12.9166 12.6183C12.8375 12.6516 12.7522 12.6681 12.6663 12.6667H9.21301C9.37288 12.2366 9.37288 11.7634 9.21301 11.3333H12.6663C12.8432 11.3333 13.0127 11.4036 13.1377 11.5286C13.2628 11.6536 13.333 11.8232 13.333 12C13.3318 12.0887 13.3129 12.1762 13.2774 12.2575C13.2419 12.3388 13.1905 12.4121 13.1263 12.4733ZM13.1263 9.80667C13.0672 9.869 12.9958 9.91837 12.9166 9.95165C12.8375 9.98493 12.7522 10.0014 12.6663 10H9.21301C9.37288 9.56993 9.37288 9.09674 9.21301 8.66667H12.6663C12.8432 8.66667 13.0127 8.73691 13.1377 8.86193C13.2628 8.98695 13.333 9.15652 13.333 9.33333C13.3318 9.42201 13.3129 9.50955 13.2774 9.59083C13.2419 9.6721 13.1905 9.74548 13.1263 9.80667ZM13.1263 7.14C13.0672 7.20233 12.9958 7.2517 12.9166 7.28499C12.8375 7.31827 12.7522 7.33473 12.6663 7.33333H9.21301C9.37288 6.90327 9.37288 6.43007 9.21301 6H12.6663C12.8432 6 13.0127 6.07024 13.1377 6.19526C13.2628 6.32029 13.333 6.48986 13.333 6.66667C13.3318 6.75534 13.3129 6.84288 13.2774 6.92416C13.2419 7.00544 13.1905 7.07882 13.1263 7.14Z"
    fill="currentColor"/>
</svg>
