<svg width="16" height="16" viewBox="0 0 16 16" fill="none" xmlns="http://www.w3.org/2000/svg">
<path d="M9.33301 5.33301H9.99967C10.1765 5.33301 10.3461 5.26277 10.4711 5.13775C10.5961 5.01272 10.6663 4.84315 10.6663 4.66634C10.6663 4.48953 10.5961 4.31996 10.4711 4.19494C10.3461 4.06991 10.1765 3.99967 9.99967 3.99967H9.33301C9.1562 3.99967 8.98663 4.06991 8.8616 4.19494C8.73658 4.31996 8.66634 4.48953 8.66634 4.66634C8.66634 4.84315 8.73658 5.01272 8.8616 5.13775C8.98663 5.26277 9.1562 5.33301 9.33301 5.33301ZM9.33301 7.99967H9.99967C10.1765 7.99967 10.3461 7.92944 10.4711 7.80441C10.5961 7.67939 10.6663 7.50982 10.6663 7.33301C10.6663 7.1562 10.5961 6.98663 10.4711 6.8616C10.3461 6.73658 10.1765 6.66634 9.99967 6.66634H9.33301C9.1562 6.66634 8.98663 6.73658 8.8616 6.8616C8.73658 6.98663 8.66634 7.1562 8.66634 7.33301C8.66634 7.50982 8.73658 7.67939 8.8616 7.80441C8.98663 7.92944 9.1562 7.99967 9.33301 7.99967ZM5.99967 5.33301H6.66634C6.84315 5.33301 7.01272 5.26277 7.13775 5.13775C7.26277 5.01272 7.33301 4.84315 7.33301 4.66634C7.33301 4.48953 7.26277 4.31996 7.13775 4.19494C7.01272 4.06991 6.84315 3.99967 6.66634 3.99967H5.99967C5.82286 3.99967 5.65329 4.06991 5.52827 4.19494C5.40325 4.31996 5.33301 4.48953 5.33301 4.66634C5.33301 4.84315 5.40325 5.01272 5.52827 5.13775C5.65329 5.26277 5.82286 5.33301 5.99967 5.33301ZM5.99967 7.99967H6.66634C6.84315 7.99967 7.01272 7.92944 7.13775 7.80441C7.26277 7.67939 7.33301 7.50982 7.33301 7.33301C7.33301 7.1562 7.26277 6.98663 7.13775 6.8616C7.01272 6.73658 6.84315 6.66634 6.66634 6.66634H5.99967C5.82286 6.66634 5.65329 6.73658 5.52827 6.8616C5.40325 6.98663 5.33301 7.1562 5.33301 7.33301C5.33301 7.50982 5.40325 7.67939 5.52827 7.80441C5.65329 7.92944 5.82286 7.99967 5.99967 7.99967ZM13.9997 13.333H13.333V1.99967C13.333 1.82286 13.2628 1.65329 13.1377 1.52827C13.0127 1.40325 12.8432 1.33301 12.6663 1.33301H3.33301C3.1562 1.33301 2.98663 1.40325 2.8616 1.52827C2.73658 1.65329 2.66634 1.82286 2.66634 1.99967V13.333H1.99967C1.82286 13.333 1.65329 13.4032 1.52827 13.5283C1.40325 13.6533 1.33301 13.8229 1.33301 13.9997C1.33301 14.1765 1.40325 14.3461 1.52827 14.4711C1.65329 14.5961 1.82286 14.6663 1.99967 14.6663H13.9997C14.1765 14.6663 14.3461 14.5961 14.4711 14.4711C14.5961 14.3461 14.6663 14.1765 14.6663 13.9997C14.6663 13.8229 14.5961 13.6533 14.4711 13.5283C14.3461 13.4032 14.1765 13.333 13.9997 13.333ZM8.66634 13.333H7.33301V10.6663H8.66634V13.333ZM11.9997 13.333H9.99967V9.99967C9.99967 9.82286 9.92944 9.65329 9.80441 9.52827C9.67939 9.40325 9.50982 9.33301 9.33301 9.33301H6.66634C6.48953 9.33301 6.31996 9.40325 6.19494 9.52827C6.06991 9.65329 5.99967 9.82286 5.99967 9.99967V13.333H3.99967V2.66634H11.9997V13.333Z" fill="#A6B5BA"/>
</svg>
