<svg viewBox="0 0 16 16" fill="none" xmlns="http://www.w3.org/2000/svg">
  <path
    d="M13.3337 0.666992H2.66699C2.13656 0.666992 1.62785 0.877706 1.25278 1.25278C0.877706 1.62785 0.666992 2.13656 0.666992 2.66699V13.3337C0.666992 13.8641 0.877706 14.3728 1.25278 14.7479C1.62785 15.1229 2.13656 15.3337 2.66699 15.3337H13.3337C13.8641 15.3337 14.3728 15.1229 14.7479 14.7479C15.1229 14.3728 15.3337 13.8641 15.3337 13.3337V2.66699C15.3337 2.13656 15.1229 1.62785 14.7479 1.25278C14.3728 0.877706 13.8641 0.666992 13.3337 0.666992ZM5.33366 14.0003H2.66699C2.49018 14.0003 2.32061 13.9301 2.19559 13.8051C2.07056 13.68 2.00033 13.5105 2.00033 13.3337V12.547C2.21411 12.6246 2.43956 12.6652 2.66699 12.667H5.33366V14.0003ZM5.33366 11.3337H2.66699C2.49018 11.3337 2.32061 11.2634 2.19559 11.1384C2.07056 11.0134 2.00033 10.8438 2.00033 10.667V9.88032C2.21411 9.95794 2.43956 9.99852 2.66699 10.0003H5.33366V11.3337ZM5.33366 8.66699H2.66699C2.49018 8.66699 2.32061 8.59675 2.19559 8.47173C2.07056 8.34671 2.00033 8.17714 2.00033 8.00033V2.66699C2.00033 2.49018 2.07056 2.32061 2.19559 2.19559C2.32061 2.07056 2.49018 2.00033 2.66699 2.00033H5.33366V8.66699ZM9.33366 14.0003H6.66699V10.0003H9.33366V14.0003ZM9.33366 8.66699H6.66699V2.00033H9.33366V8.66699ZM14.0003 13.3337C14.0003 13.5105 13.9301 13.68 13.8051 13.8051C13.68 13.9301 13.5105 14.0003 13.3337 14.0003H10.667V12.667H13.3337C13.5611 12.6652 13.7865 12.6246 14.0003 12.547V13.3337ZM14.0003 10.667C14.0003 10.8438 13.9301 11.0134 13.8051 11.1384C13.68 11.2634 13.5105 11.3337 13.3337 11.3337H10.667V10.0003H13.3337C13.5611 9.99852 13.7865 9.95794 14.0003 9.88032V10.667ZM14.0003 8.00033C14.0003 8.17714 13.9301 8.34671 13.8051 8.47173C13.68 8.59675 13.5105 8.66699 13.3337 8.66699H10.667V2.00033H13.3337C13.5105 2.00033 13.68 2.07056 13.8051 2.19559C13.9301 2.32061 14.0003 2.49018 14.0003 2.66699V8.00033ZM12.0003 4.66699C11.8685 4.66699 11.7396 4.70609 11.6299 4.77935C11.5203 4.8526 11.4349 4.95672 11.3844 5.07854C11.3339 5.20035 11.3207 5.3344 11.3465 5.46372C11.3722 5.59304 11.4357 5.71183 11.5289 5.80506C11.6222 5.8983 11.7409 5.96179 11.8703 5.98752C11.9996 6.01324 12.1336 6.00004 12.2554 5.94958C12.3773 5.89912 12.4814 5.81367 12.5546 5.70404C12.6279 5.59441 12.667 5.46551 12.667 5.33366C12.667 5.15685 12.5968 4.98728 12.4717 4.86225C12.3467 4.73723 12.1771 4.66699 12.0003 4.66699ZM4.00033 6.00033C4.13218 6.00033 4.26107 5.96123 4.37071 5.88797C4.48034 5.81472 4.56579 5.7106 4.61625 5.58878C4.6667 5.46696 4.67991 5.33292 4.65418 5.2036C4.62846 5.07428 4.56496 4.95549 4.47173 4.86225C4.37849 4.76902 4.25971 4.70553 4.13039 4.6798C4.00106 4.65408 3.86702 4.66728 3.7452 4.71774C3.62339 4.7682 3.51927 4.85365 3.44601 4.96328C3.37276 5.07291 3.33366 5.2018 3.33366 5.33366C3.33366 5.51047 3.4039 5.68004 3.52892 5.80506C3.65395 5.93009 3.82351 6.00033 4.00033 6.00033Z"
    fill="currentColor"/>
</svg>
