<svg viewBox="0 0 16 16" fill="none" xmlns="http://www.w3.org/2000/svg">
  <path
    d="M11.3331 3.9998C11.1563 3.9998 10.9868 4.07004 10.8617 4.19506C10.7367 4.32008 10.6665 4.48965 10.6665 4.66646V9.72646L5.1398 4.19313C5.01426 4.0676 4.844 3.99707 4.66646 3.99707C4.48893 3.99707 4.31867 4.0676 4.19313 4.19313C4.0676 4.31867 3.99707 4.48893 3.99707 4.66646C3.99707 4.844 4.0676 5.01426 4.19313 5.1398L9.72646 10.6665H4.66646C4.48965 10.6665 4.32008 10.7367 4.19506 10.8617C4.07004 10.9868 3.9998 11.1563 3.9998 11.3331C3.9998 11.5099 4.07004 11.6795 4.19506 11.8045C4.32008 11.9296 4.48965 11.9998 4.66646 11.9998H11.3331C11.4202 11.9987 11.5063 11.9806 11.5865 11.9465C11.7494 11.8788 11.8788 11.7494 11.9465 11.5865C11.9806 11.5063 11.9987 11.4202 11.9998 11.3331V4.66646C11.9998 4.48965 11.9296 4.32008 11.8045 4.19506C11.6795 4.07004 11.5099 3.9998 11.3331 3.9998Z"
    fill="currentColor"/>
</svg>
