<svg viewBox="0 0 16 16" fill="none" xmlns="http://www.w3.org/2000/svg">
  <path
    d="M4.00033 7.33301C3.86847 7.33301 3.73958 7.37211 3.62995 7.44536C3.52031 7.51862 3.43486 7.62273 3.38441 7.74455C3.33395 7.86637 3.32074 8.00041 3.34647 8.12973C3.37219 8.25906 3.43569 8.37784 3.52892 8.47108C3.62216 8.56431 3.74094 8.62781 3.87027 8.65353C3.99959 8.67926 4.13363 8.66605 4.25545 8.61559C4.37726 8.56514 4.48138 8.47969 4.55464 8.37006C4.62789 8.26042 4.66699 8.13153 4.66699 7.99967C4.66699 7.82286 4.59675 7.65329 4.47173 7.52827C4.34671 7.40325 4.17714 7.33301 4.00033 7.33301ZM12.0003 7.33301C11.8685 7.33301 11.7396 7.37211 11.6299 7.44536C11.5203 7.51862 11.4349 7.62273 11.3844 7.74455C11.3339 7.86637 11.3207 8.00041 11.3465 8.12973C11.3722 8.25906 11.4357 8.37784 11.5289 8.47108C11.6222 8.56431 11.7409 8.62781 11.8703 8.65353C11.9996 8.67926 12.1336 8.66605 12.2554 8.61559C12.3773 8.56514 12.4814 8.47969 12.5546 8.37006C12.6279 8.26042 12.667 8.13153 12.667 7.99967C12.667 7.82286 12.5968 7.65329 12.4717 7.52827C12.3467 7.40325 12.1771 7.33301 12.0003 7.33301ZM13.3337 3.33301H2.66699C2.13656 3.33301 1.62785 3.54372 1.25278 3.91879C0.877706 4.29387 0.666992 4.80257 0.666992 5.33301V10.6663C0.666992 11.1968 0.877706 11.7055 1.25278 12.0806C1.62785 12.4556 2.13656 12.6663 2.66699 12.6663H13.3337C13.8641 12.6663 14.3728 12.4556 14.7479 12.0806C15.1229 11.7055 15.3337 11.1968 15.3337 10.6663V5.33301C15.3337 4.80257 15.1229 4.29387 14.7479 3.91879C14.3728 3.54372 13.8641 3.33301 13.3337 3.33301ZM14.0003 10.6663C14.0003 10.8432 13.9301 11.0127 13.8051 11.1377C13.68 11.2628 13.5105 11.333 13.3337 11.333H2.66699C2.49018 11.333 2.32061 11.2628 2.19559 11.1377C2.07056 11.0127 2.00033 10.8432 2.00033 10.6663V5.33301C2.00033 5.1562 2.07056 4.98663 2.19559 4.8616C2.32061 4.73658 2.49018 4.66634 2.66699 4.66634H13.3337C13.5105 4.66634 13.68 4.73658 13.8051 4.8616C13.9301 4.98663 14.0003 5.1562 14.0003 5.33301V10.6663ZM8.00033 5.99967C7.60476 5.99967 7.21808 6.11697 6.88918 6.33674C6.56029 6.5565 6.30394 6.86886 6.15257 7.23431C6.00119 7.59976 5.96158 8.00189 6.03875 8.38986C6.11592 8.77782 6.30641 9.13418 6.58611 9.41389C6.86582 9.69359 7.22218 9.88408 7.61014 9.96125C7.99811 10.0384 8.40024 9.99881 8.76569 9.84743C9.13114 9.69606 9.4435 9.43971 9.66326 9.11082C9.88303 8.78192 10.0003 8.39524 10.0003 7.99967C10.0003 7.46924 9.78961 6.96053 9.41454 6.58546C9.03947 6.21039 8.53076 5.99967 8.00033 5.99967ZM8.00033 8.66634C7.86847 8.66634 7.73958 8.62724 7.62994 8.55399C7.52031 8.48073 7.43486 8.37661 7.38441 8.2548C7.33395 8.13298 7.32074 7.99894 7.34647 7.86961C7.37219 7.74029 7.43569 7.62151 7.52892 7.52827C7.62216 7.43504 7.74094 7.37154 7.87027 7.34582C7.99959 7.32009 8.13363 7.3333 8.25545 7.38375C8.37726 7.43421 8.48138 7.51966 8.55464 7.62929C8.62789 7.73893 8.66699 7.86782 8.66699 7.99967C8.66699 8.17649 8.59675 8.34605 8.47173 8.47108C8.34671 8.5961 8.17714 8.66634 8.00033 8.66634Z"
    fill="currentColor"/>
</svg>
