<svg viewBox="0 0 16 16" fill="none" xmlns="http://www.w3.org/2000/svg">
  <path
    d="M9.33319 7.33364H8.66652V6.66697C8.66652 6.49016 8.59629 6.32059 8.47126 6.19557C8.34624 6.07054 8.17667 6.0003 7.99986 6.0003C7.82305 6.0003 7.65348 6.07054 7.52845 6.19557C7.40343 6.32059 7.33319 6.49016 7.33319 6.66697V7.33364H6.66652C6.48971 7.33364 6.32014 7.40388 6.19512 7.5289C6.0701 7.65392 5.99986 7.82349 5.99986 8.0003C5.99986 8.17712 6.0701 8.34668 6.19512 8.47171C6.32014 8.59673 6.48971 8.66697 6.66652 8.66697H7.33319V9.33364C7.33319 9.51045 7.40343 9.68002 7.52845 9.80504C7.65348 9.93007 7.82305 10.0003 7.99986 10.0003C8.17667 10.0003 8.34624 9.93007 8.47126 9.80504C8.59629 9.68002 8.66652 9.51045 8.66652 9.33364V8.66697H9.33319C9.51 8.66697 9.67957 8.59673 9.8046 8.47171C9.92962 8.34668 9.99986 8.17712 9.99986 8.0003C9.99986 7.82349 9.92962 7.65392 9.8046 7.5289C9.67957 7.40388 9.51 7.33364 9.33319 7.33364ZM13.4399 3.33364C12.729 2.63011 11.7901 2.20382 10.7925 2.13169C9.79501 2.05957 8.80454 2.34635 7.99986 2.94031C7.15163 2.3094 6.09585 2.02331 5.04514 2.13966C3.99442 2.25601 3.02682 2.76616 2.33717 3.56736C1.64753 4.36857 1.28707 5.40132 1.32839 6.45765C1.36971 7.51398 1.80974 8.51542 2.55986 9.2603L6.55986 13.2936C6.93486 13.6682 7.44319 13.8785 7.97319 13.8785C8.50319 13.8785 9.01152 13.6682 9.38653 13.2936L13.3865 9.2603C13.7805 8.8754 14.0945 8.41644 14.3105 7.90979C14.5265 7.40315 14.6402 6.85881 14.6452 6.30806C14.6502 5.75731 14.5462 5.21101 14.3394 4.70056C14.1325 4.19011 13.8268 3.72557 13.4399 3.33364ZM12.4999 8.30697L8.49986 12.307C8.43788 12.3695 8.36415 12.4191 8.28291 12.4529C8.20167 12.4867 8.11453 12.5042 8.02653 12.5042C7.93852 12.5042 7.85138 12.4867 7.77014 12.4529C7.6889 12.4191 7.61517 12.3695 7.55319 12.307L3.55319 8.30697C3.03036 7.77253 2.7376 7.05462 2.7376 6.30697C2.7376 5.55933 3.03036 4.84141 3.55319 4.30697C4.08596 3.78096 4.80451 3.48602 5.55319 3.48602C6.30188 3.48602 7.02042 3.78096 7.55319 4.30697C7.61517 4.36946 7.6889 4.41905 7.77014 4.4529C7.85138 4.48675 7.93852 4.50417 8.02653 4.50417C8.11453 4.50417 8.20167 4.48675 8.28291 4.4529C8.36415 4.41905 8.43788 4.36946 8.49986 4.30697C9.03263 3.78096 9.75117 3.48602 10.4999 3.48602C11.2485 3.48602 11.9671 3.78096 12.4999 4.30697C13.0267 4.842 13.322 5.56276 13.322 6.31364C13.322 7.06452 13.0267 7.78527 12.4999 8.3203V8.30697Z"
    fill="currentColor"/>
</svg>
