<svg viewBox="0 0 16 16" fill="none" xmlns="http://www.w3.org/2000/svg">
  <path
    d="M3.3335 5.33333H12.6668C12.8436 5.33333 13.0132 5.2631 13.1382 5.13807C13.2633 5.01305 13.3335 4.84348 13.3335 4.66667C13.3335 4.48986 13.2633 4.32029 13.1382 4.19526C13.0132 4.07024 12.8436 4 12.6668 4H3.3335C3.15669 4 2.98712 4.07024 2.86209 4.19526C2.73707 4.32029 2.66683 4.48986 2.66683 4.66667C2.66683 4.84348 2.73707 5.01305 2.86209 5.13807C2.98712 5.2631 3.15669 5.33333 3.3335 5.33333ZM14.0002 7.33333H2.00016C1.82335 7.33333 1.65378 7.40357 1.52876 7.5286C1.40373 7.65362 1.3335 7.82319 1.3335 8C1.3335 8.17681 1.40373 8.34638 1.52876 8.4714C1.65378 8.59643 1.82335 8.66667 2.00016 8.66667H14.0002C14.177 8.66667 14.3465 8.59643 14.4716 8.4714C14.5966 8.34638 14.6668 8.17681 14.6668 8C14.6668 7.82319 14.5966 7.65362 14.4716 7.5286C14.3465 7.40357 14.177 7.33333 14.0002 7.33333ZM12.6668 10.6667H3.3335C3.15669 10.6667 2.98712 10.7369 2.86209 10.8619C2.73707 10.987 2.66683 11.1565 2.66683 11.3333C2.66683 11.5101 2.73707 11.6797 2.86209 11.8047C2.98712 11.9298 3.15669 12 3.3335 12H12.6668C12.8436 12 13.0132 11.9298 13.1382 11.8047C13.2633 11.6797 13.3335 11.5101 13.3335 11.3333C13.3335 11.1565 13.2633 10.987 13.1382 10.8619C13.0132 10.7369 12.8436 10.6667 12.6668 10.6667Z"
    fill="currentColor"/>
</svg>
