<svg viewBox="0 0 16 16" fill="none" xmlns="http://www.w3.org/2000/svg">
  <path
    d="M13.087 2.43289C13.0095 2.37024 12.919 2.32574 12.8221 2.30266C12.7252 2.27959 12.6244 2.27853 12.527 2.29955C11.8146 2.44885 11.0792 2.45075 10.3661 2.30514C9.65295 2.15953 8.97716 1.8695 8.38033 1.45289C8.26873 1.37547 8.13615 1.33398 8.00033 1.33398C7.86451 1.33398 7.73193 1.37547 7.62033 1.45289C7.0235 1.8695 6.34771 2.15953 5.63457 2.30514C4.92143 2.45075 4.18604 2.44885 3.47366 2.29955C3.37629 2.27853 3.27544 2.27959 3.17853 2.30266C3.08162 2.32574 2.99111 2.37024 2.91366 2.43289C2.83632 2.49563 2.77401 2.57491 2.73132 2.6649C2.68864 2.75488 2.66666 2.85329 2.667 2.95289V7.91955C2.6664 8.87539 2.89418 9.81753 3.33135 10.6675C3.76853 11.5175 4.40245 12.2508 5.18033 12.8062L7.61366 14.5396C7.72657 14.6199 7.86173 14.6631 8.00033 14.6631C8.13893 14.6631 8.27409 14.6199 8.387 14.5396L10.8203 12.8062C11.5982 12.2508 12.2321 11.5175 12.6693 10.6675C13.1065 9.81753 13.3343 8.87539 13.3337 7.91955V2.95289C13.334 2.85329 13.312 2.75488 13.2693 2.6649C13.2266 2.57491 13.1643 2.49563 13.087 2.43289ZM12.0003 7.91955C12.0008 8.66273 11.8239 9.39527 11.4841 10.0562C11.1443 10.7172 10.6516 11.2875 10.047 11.7196L8.00033 13.1796L5.95366 11.7196C5.34902 11.2875 4.85632 10.7172 4.51656 10.0562C4.17681 9.39527 3.99982 8.66273 4.00033 7.91955V3.71955C5.39795 3.83918 6.79769 3.5149 8.00033 2.79289C9.20297 3.5149 10.6027 3.83918 12.0003 3.71955V7.91955Z"
    fill="currentColor"/>
</svg>
