<svg viewBox="0 0 16 16" fill="none" xmlns="http://www.w3.org/2000/svg">
  <path
    d="M7.33333 7.9333V11.3333C7.33333 11.5101 7.40357 11.6797 7.5286 11.8047C7.65362 11.9297 7.82319 12 8 12C8.17681 12 8.34638 11.9297 8.4714 11.8047C8.59643 11.6797 8.66667 11.5101 8.66667 11.3333V7.9333C9.47603 7.76809 10.1952 7.30825 10.6848 6.64291C11.1744 5.97758 11.3995 5.15416 11.3165 4.33229C11.2334 3.51042 10.8482 2.74866 10.2354 2.19468C9.62268 1.6407 8.82605 1.33398 8 1.33398C7.17395 1.33398 6.37732 1.6407 5.76456 2.19468C5.15181 2.74866 4.76657 3.51042 4.68355 4.33229C4.60052 5.15416 4.82562 5.97758 5.3152 6.64291C5.80478 7.30825 6.52397 7.76809 7.33333 7.9333ZM8 2.66664C8.39556 2.66664 8.78224 2.78394 9.11114 3.0037C9.44004 3.22346 9.69638 3.53582 9.84776 3.90127C9.99913 4.26672 10.0387 4.66886 9.96157 5.05682C9.8844 5.44478 9.69392 5.80115 9.41421 6.08085C9.13451 6.36056 8.77814 6.55104 8.39018 6.62821C8.00222 6.70538 7.60009 6.66577 7.23463 6.5144C6.86918 6.36302 6.55682 6.10668 6.33706 5.77778C6.1173 5.44888 6 5.0622 6 4.66664C6 4.1362 6.21071 3.6275 6.58579 3.25242C6.96086 2.87735 7.46957 2.66664 8 2.66664ZM10.8067 9.6133C10.7191 9.59492 10.6288 9.59396 10.5409 9.61048C10.453 9.62699 10.3692 9.66067 10.2943 9.70957C10.2194 9.75848 10.1548 9.82166 10.1043 9.89551C10.0538 9.96935 10.0184 10.0524 10 10.14C9.98162 10.2275 9.98065 10.3178 9.99717 10.4058C10.0137 10.4937 10.0474 10.5775 10.0963 10.6524C10.1452 10.7273 10.2084 10.7918 10.2822 10.8423C10.356 10.8928 10.4391 10.9283 10.5267 10.9466C12.04 11.2466 12.6667 11.7866 12.6667 12C12.6667 12.3866 11.0333 13.3333 8 13.3333C4.96667 13.3333 3.33333 12.3866 3.33333 12C3.33333 11.7866 3.96 11.2466 5.47333 10.92C5.56088 10.9016 5.64395 10.8661 5.7178 10.8156C5.79165 10.7652 5.85483 10.7006 5.90373 10.6257C5.95264 10.5508 5.98631 10.467 6.00283 10.3791C6.01935 10.2912 6.01839 10.2009 6 10.1133C5.98162 10.0258 5.94617 9.94269 5.89568 9.86884C5.84519 9.79499 5.78065 9.73181 5.70574 9.68291C5.63084 9.634 5.54703 9.60033 5.45911 9.58381C5.37119 9.56729 5.28088 9.56825 5.19333 9.58664C3.16667 10.0533 2 10.9266 2 12C2 13.7533 5.02 14.6666 8 14.6666C10.98 14.6666 14 13.7533 14 12C14 10.9266 12.8333 10.0533 10.8067 9.6133Z"
    fill="currentColor"/>
</svg>
