<svg viewBox="0 0 16 16" fill="none" xmlns="http://www.w3.org/2000/svg">
  <path
    d="M2.00016 3.33333H14.0002C14.4002 3.33333 14.6668 3.06667 14.6668 2.66667C14.6668 2.26667 14.4002 2 14.0002 2H2.00016C1.60016 2 1.3335 2.26667 1.3335 2.66667C1.3335 3.06667 1.60016 3.33333 2.00016 3.33333ZM14.0002 12.6667H7.3335C6.9335 12.6667 6.66683 12.9333 6.66683 13.3333C6.66683 13.7333 6.9335 14 7.3335 14H14.0002C14.4002 14 14.6668 13.7333 14.6668 13.3333C14.6668 12.9333 14.4002 12.6667 14.0002 12.6667ZM14.0002 7.33333H2.00016C1.60016 7.33333 1.3335 7.6 1.3335 8C1.3335 8.4 1.60016 8.66667 2.00016 8.66667H14.0002C14.4002 8.66667 14.6668 8.4 14.6668 8C14.6668 7.6 14.4002 7.33333 14.0002 7.33333ZM14.0002 10H2.00016C1.60016 10 1.3335 10.2667 1.3335 10.6667C1.3335 11.0667 1.60016 11.3333 2.00016 11.3333H14.0002C14.4002 11.3333 14.6668 11.0667 14.6668 10.6667C14.6668 10.2667 14.4002 10 14.0002 10ZM14.0002 4.66667H2.00016C1.60016 4.66667 1.3335 4.93333 1.3335 5.33333C1.3335 5.73333 1.60016 6 2.00016 6H14.0002C14.4002 6 14.6668 5.73333 14.6668 5.33333C14.6668 4.93333 14.4002 4.66667 14.0002 4.66667Z"
    fill="currentColor"/>
</svg>
