<svg viewBox="0 0 16 16" fill="none" xmlns="http://www.w3.org/2000/svg">
  <path
    d="M5.33354 7.3338H10.6669C10.7653 7.33314 10.8624 7.31069 10.9512 7.26804C11.04 7.22539 11.1182 7.1636 11.1802 7.08713C11.2454 7.01215 11.293 6.92355 11.3195 6.82782C11.346 6.73208 11.3508 6.63162 11.3335 6.5338L10.6669 3.20046C10.6357 3.04761 10.5519 2.91053 10.4301 2.81308C10.3083 2.71563 10.1562 2.66398 10.0002 2.66713H6.00021C5.84424 2.66398 5.69211 2.71563 5.5703 2.81308C5.44849 2.91053 5.36471 3.04761 5.33354 3.20046L4.66687 6.5338C4.64779 6.63064 4.65045 6.73051 4.67466 6.8262C4.69887 6.92189 4.74403 7.01101 4.80687 7.08713C4.87032 7.16536 4.95067 7.2282 5.04189 7.27092C5.13311 7.31364 5.23282 7.33514 5.33354 7.3338ZM6.54687 4.00046H9.45354L9.85354 6.00046H6.14687L6.54687 4.00046ZM14.6669 9.20046C14.6357 9.04761 14.5519 8.91053 14.4301 8.81308C14.3083 8.71563 14.1562 8.66398 14.0002 8.66713H10.0002C9.84424 8.66398 9.69211 8.71563 9.5703 8.81308C9.44849 8.91053 9.36471 9.04761 9.33354 9.20046L8.66687 12.5338C8.64779 12.6306 8.65045 12.7305 8.67466 12.8262C8.69887 12.9219 8.74403 13.011 8.80687 13.0871C8.87032 13.1654 8.95067 13.2282 9.04189 13.2709C9.13311 13.3136 9.23282 13.3351 9.33354 13.3338H14.6669C14.7653 13.3331 14.8624 13.3107 14.9512 13.268C15.04 13.2254 15.1182 13.1636 15.1802 13.0871C15.2454 13.0121 15.293 12.9236 15.3195 12.8278C15.346 12.7321 15.3508 12.6316 15.3335 12.5338L14.6669 9.20046ZM10.1469 12.0005L10.5469 10.0005H13.4535L13.8535 12.0005H10.1469ZM6.00021 8.66713H2.00021C1.84424 8.66398 1.69211 8.71563 1.5703 8.81308C1.44849 8.91053 1.36471 9.04761 1.33354 9.20046L0.666874 12.5338C0.647791 12.6306 0.650452 12.7305 0.674663 12.8262C0.698873 12.9219 0.744031 13.011 0.806874 13.0871C0.870323 13.1654 0.950674 13.2282 1.04189 13.2709C1.13311 13.3136 1.23282 13.3351 1.33354 13.3338H6.66687C6.76535 13.3331 6.86245 13.3107 6.95121 13.268C7.03996 13.2254 7.11817 13.1636 7.18021 13.0871C7.24538 13.0121 7.29297 12.9236 7.3195 12.8278C7.34603 12.7321 7.35083 12.6316 7.33354 12.5338L6.66687 9.20046C6.63571 9.04761 6.55192 8.91053 6.43011 8.81308C6.3083 8.71563 6.15617 8.66398 6.00021 8.66713ZM2.14687 12.0005L2.54687 10.0005H5.45354L5.85354 12.0005H2.14687Z"
    fill="currentColor"/>
</svg>
