<svg viewBox="0 0 16 17" fill="none" xmlns="http://www.w3.org/2000/svg">
  <path
    d="M8.00033 8.49967C7.60476 8.49967 7.21808 8.61697 6.88918 8.83674C6.56029 9.0565 6.30394 9.36886 6.15257 9.73431C6.00119 10.0998 5.96158 10.5019 6.03875 10.8899C6.11592 11.2778 6.30641 11.6342 6.58611 11.9139C6.86582 12.1936 7.22218 12.3841 7.61014 12.4612C7.99811 12.5384 8.40024 12.4988 8.76569 12.3474C9.13114 12.1961 9.4435 11.9397 9.66326 11.6108C9.88303 11.2819 10.0003 10.8952 10.0003 10.4997C10.0003 9.96924 9.78961 9.46053 9.41454 9.08546C9.03947 8.71039 8.53076 8.49967 8.00033 8.49967ZM8.00033 11.1663C7.86847 11.1663 7.73958 11.1272 7.62994 11.054C7.52031 10.9807 7.43486 10.8766 7.38441 10.7548C7.33395 10.633 7.32074 10.4989 7.34647 10.3696C7.37219 10.2403 7.43569 10.1215 7.52892 10.0283C7.62216 9.93504 7.74094 9.87154 7.87027 9.84582C7.99959 9.82009 8.13363 9.8333 8.25545 9.88375C8.37726 9.93421 8.48138 10.0197 8.55464 10.1293C8.62789 10.2389 8.66699 10.3678 8.66699 10.4997C8.66699 10.6765 8.59675 10.8461 8.47173 10.9711C8.34671 11.0961 8.17714 11.1663 8.00033 11.1663ZM7.52699 6.97301C7.59039 7.0337 7.66516 7.08128 7.74699 7.11301C7.82679 7.14828 7.91308 7.1665 8.00033 7.1665C8.08757 7.1665 8.17386 7.14828 8.25366 7.11301C8.33549 7.08128 8.41026 7.0337 8.47366 6.97301L10.0003 5.47301C10.1294 5.34394 10.2019 5.16888 10.2019 4.98634C10.2019 4.80381 10.1294 4.62875 10.0003 4.49967C9.87125 4.3706 9.69619 4.29809 9.51366 4.29809C9.33112 4.29809 9.15606 4.3706 9.02699 4.49967L8.66699 4.89301V2.49967C8.66699 2.32286 8.59675 2.15329 8.47173 2.02827C8.34671 1.90325 8.17714 1.83301 8.00033 1.83301C7.82351 1.83301 7.65394 1.90325 7.52892 2.02827C7.4039 2.15329 7.33366 2.32286 7.33366 2.49967V4.89301L6.97366 4.49967C6.84459 4.3706 6.66953 4.29809 6.48699 4.29809C6.30446 4.29809 6.1294 4.3706 6.00033 4.49967C5.87125 4.62875 5.79874 4.80381 5.79874 4.98634C5.79874 5.16888 5.87125 5.34394 6.00033 5.47301L7.52699 6.97301ZM12.667 10.4997C12.667 10.3678 12.6279 10.2389 12.5546 10.1293C12.4814 10.0197 12.3773 9.93421 12.2554 9.88375C12.1336 9.8333 11.9996 9.82009 11.8703 9.84582C11.7409 9.87154 11.6222 9.93504 11.5289 10.0283C11.4357 10.1215 11.3722 10.2403 11.3465 10.3696C11.3207 10.4989 11.3339 10.633 11.3844 10.7548C11.4349 10.8766 11.5203 10.9807 11.6299 11.054C11.7396 11.1272 11.8685 11.1663 12.0003 11.1663C12.1771 11.1663 12.3467 11.0961 12.4717 10.9711C12.5968 10.8461 12.667 10.6765 12.667 10.4997ZM13.3337 5.83301H11.3337C11.1568 5.83301 10.9873 5.90325 10.8623 6.02827C10.7372 6.15329 10.667 6.32286 10.667 6.49967C10.667 6.67649 10.7372 6.84605 10.8623 6.97108C10.9873 7.0961 11.1568 7.16634 11.3337 7.16634H13.3337C13.5105 7.16634 13.68 7.23658 13.8051 7.3616C13.9301 7.48663 14.0003 7.6562 14.0003 7.83301V13.1663C14.0003 13.3432 13.9301 13.5127 13.8051 13.6377C13.68 13.7628 13.5105 13.833 13.3337 13.833H2.66699C2.49018 13.833 2.32061 13.7628 2.19559 13.6377C2.07056 13.5127 2.00033 13.3432 2.00033 13.1663V7.83301C2.00033 7.6562 2.07056 7.48663 2.19559 7.3616C2.32061 7.23658 2.49018 7.16634 2.66699 7.16634H4.66699C4.8438 7.16634 5.01337 7.0961 5.1384 6.97108C5.26342 6.84605 5.33366 6.67649 5.33366 6.49967C5.33366 6.32286 5.26342 6.15329 5.1384 6.02827C5.01337 5.90325 4.8438 5.83301 4.66699 5.83301H2.66699C2.13656 5.83301 1.62785 6.04372 1.25278 6.41879C0.877706 6.79387 0.666992 7.30258 0.666992 7.83301V13.1663C0.666992 13.6968 0.877706 14.2055 1.25278 14.5806C1.62785 14.9556 2.13656 15.1663 2.66699 15.1663H13.3337C13.8641 15.1663 14.3728 14.9556 14.7479 14.5806C15.1229 14.2055 15.3337 13.6968 15.3337 13.1663V7.83301C15.3337 7.30258 15.1229 6.79387 14.7479 6.41879C14.3728 6.04372 13.8641 5.83301 13.3337 5.83301ZM3.33366 10.4997C3.33366 10.6315 3.37276 10.7604 3.44601 10.8701C3.51927 10.9797 3.62339 11.0651 3.7452 11.1156C3.86702 11.1661 4.00106 11.1793 4.13039 11.1535C4.25971 11.1278 4.37849 11.0643 4.47173 10.9711C4.56496 10.8778 4.62846 10.7591 4.65418 10.6297C4.67991 10.5004 4.6667 10.3664 4.61625 10.2446C4.56579 10.1227 4.48034 10.0186 4.37071 9.94536C4.26107 9.87211 4.13218 9.83301 4.00033 9.83301C3.82351 9.83301 3.65395 9.90325 3.52892 10.0283C3.4039 10.1533 3.33366 10.3229 3.33366 10.4997Z"
    fill="currentColor"/>
</svg>
