<svg viewBox="0 0 16 16" fill="none" xmlns="http://www.w3.org/2000/svg">
  <path
    d="M6.00033 6.66634H6.66699C6.8438 6.66634 7.01337 6.5961 7.1384 6.47108C7.26342 6.34605 7.33366 6.17649 7.33366 5.99967C7.33366 5.82286 7.26342 5.65329 7.1384 5.52827C7.01337 5.40325 6.8438 5.33301 6.66699 5.33301H6.00033C5.82351 5.33301 5.65395 5.40325 5.52892 5.52827C5.4039 5.65329 5.33366 5.82286 5.33366 5.99967C5.33366 6.17649 5.4039 6.34605 5.52892 6.47108C5.65395 6.5961 5.82351 6.66634 6.00033 6.66634ZM10.0003 7.99967H6.00033C5.82351 7.99967 5.65395 8.06991 5.52892 8.19494C5.4039 8.31996 5.33366 8.48953 5.33366 8.66634C5.33366 8.84315 5.4039 9.01272 5.52892 9.13775C5.65395 9.26277 5.82351 9.33301 6.00033 9.33301H10.0003C10.1771 9.33301 10.3467 9.26277 10.4717 9.13775C10.5968 9.01272 10.667 8.84315 10.667 8.66634C10.667 8.48953 10.5968 8.31996 10.4717 8.19494C10.3467 8.06991 10.1771 7.99967 10.0003 7.99967ZM10.0003 10.6663H6.00033C5.82351 10.6663 5.65395 10.7366 5.52892 10.8616C5.4039 10.9866 5.33366 11.1562 5.33366 11.333C5.33366 11.5098 5.4039 11.6794 5.52892 11.8044C5.65395 11.9294 5.82351 11.9997 6.00033 11.9997H10.0003C10.1771 11.9997 10.3467 11.9294 10.4717 11.8044C10.5968 11.6794 10.667 11.5098 10.667 11.333C10.667 11.1562 10.5968 10.9866 10.4717 10.8616C10.3467 10.7366 10.1771 10.6663 10.0003 10.6663ZM13.1403 13.5263C13.1086 13.4977 13.0752 13.471 13.0403 13.4463C13.0032 13.4211 12.9628 13.4009 12.9203 13.3863L12.8003 13.333C12.6703 13.3076 12.5357 13.3216 12.4137 13.373C12.3309 13.4029 12.2558 13.4507 12.1936 13.5129C12.1314 13.5751 12.0836 13.6503 12.0537 13.733C12.0142 13.8162 11.9959 13.9078 12.0003 13.9997C11.9992 14.0989 12.0201 14.197 12.0617 14.2871C12.1033 14.3771 12.1645 14.4567 12.2407 14.5202C12.317 14.5836 12.4065 14.6292 12.5026 14.6536C12.5987 14.6781 12.6991 14.6807 12.7964 14.6615C12.8937 14.6422 12.9854 14.6015 13.065 14.5423C13.1446 14.4831 13.2099 14.4068 13.2563 14.3192C13.3026 14.2315 13.3289 14.1346 13.333 14.0355C13.3372 13.9364 13.3192 13.8376 13.2803 13.7463C13.2466 13.6656 13.1992 13.5911 13.1403 13.5263ZM13.3337 5.95967C13.3267 5.89843 13.3133 5.8381 13.2937 5.77967V5.71967C13.2616 5.65113 13.2188 5.58812 13.167 5.53301L9.16699 1.53301C9.11188 1.48115 9.04887 1.4384 8.98033 1.40634C8.96043 1.40351 8.94023 1.40351 8.92033 1.40634C8.8526 1.3675 8.77781 1.34257 8.70033 1.33301H4.66699C4.13656 1.33301 3.62785 1.54372 3.25278 1.91879C2.87771 2.29387 2.66699 2.80257 2.66699 3.33301V12.6663C2.66699 13.1968 2.87771 13.7055 3.25278 14.0806C3.62785 14.4556 4.13656 14.6663 4.66699 14.6663H10.0003C10.1771 14.6663 10.3467 14.5961 10.4717 14.4711C10.5968 14.3461 10.667 14.1765 10.667 13.9997C10.667 13.8229 10.5968 13.6533 10.4717 13.5283C10.3467 13.4032 10.1771 13.333 10.0003 13.333H4.66699C4.49018 13.333 4.32061 13.2628 4.19559 13.1377C4.07056 13.0127 4.00033 12.8432 4.00033 12.6663V3.33301C4.00033 3.1562 4.07056 2.98663 4.19559 2.8616C4.32061 2.73658 4.49018 2.66634 4.66699 2.66634H8.00033V4.66634C8.00033 5.19677 8.21104 5.70548 8.58611 6.08055C8.96118 6.45563 9.46989 6.66634 10.0003 6.66634H12.0003V7.99967C12.0003 8.17649 12.0706 8.34606 12.1956 8.47108C12.3206 8.5961 12.4902 8.66634 12.667 8.66634C12.8438 8.66634 13.0134 8.5961 13.1384 8.47108C13.2634 8.34606 13.3337 8.17649 13.3337 7.99967V5.99967C13.3337 5.99967 13.3337 5.99967 13.3337 5.95967ZM10.0003 5.33301C9.82351 5.33301 9.65394 5.26277 9.52892 5.13775C9.4039 5.01272 9.33366 4.84315 9.33366 4.66634V3.60634L11.0603 5.33301H10.0003ZM12.667 9.99967C12.4902 9.99967 12.3206 10.0699 12.1956 10.1949C12.0706 10.32 12.0003 10.4895 12.0003 10.6663V11.9997C12.0003 12.1765 12.0706 12.3461 12.1956 12.4711C12.3206 12.5961 12.4902 12.6663 12.667 12.6663C12.8438 12.6663 13.0134 12.5961 13.1384 12.4711C13.2634 12.3461 13.3337 12.1765 13.3337 11.9997V10.6663C13.3337 10.4895 13.2634 10.32 13.1384 10.1949C13.0134 10.0699 12.8438 9.99967 12.667 9.99967Z"
    fill="currentColor"/>
</svg>
