<svg viewBox="0 0 16 16" fill="none" xmlns="http://www.w3.org/2000/svg">
  <path
    d="M14.2135 3.36687L10.2135 2.03353H10.1668C10.1358 2.03041 10.1045 2.03041 10.0735 2.03353H9.92016H9.8335H9.78683L6.00016 3.33353L2.2135 2.03353C2.11324 2.00047 2.00657 1.9917 1.90226 2.00792C1.79794 2.02415 1.69898 2.06492 1.6135 2.12687C1.52734 2.18821 1.45701 2.26917 1.40832 2.36307C1.35963 2.45697 1.33399 2.5611 1.3335 2.66687V12.0002C1.33314 12.14 1.37671 12.2763 1.45806 12.3899C1.53941 12.5036 1.65442 12.5888 1.78683 12.6335L5.78683 13.9669C5.92113 14.0107 6.06587 14.0107 6.20016 13.9669L10.0002 12.7002L13.7868 14.0002C13.8576 14.0098 13.9294 14.0098 14.0002 14.0002C14.1396 14.0022 14.2756 13.9576 14.3868 13.8735C14.473 13.8122 14.5433 13.7312 14.592 13.6373C14.6407 13.5434 14.6663 13.4393 14.6668 13.3335V4.0002C14.6672 3.86044 14.6236 3.7241 14.5423 3.61045C14.4609 3.4968 14.3459 3.41159 14.2135 3.36687ZM5.3335 12.4069L2.66683 11.5202V3.59353L5.3335 4.4802V12.4069ZM9.3335 11.5202L6.66683 12.4069V4.4802L9.3335 3.59353V11.5202ZM13.3335 12.4069L10.6668 11.5202V3.59353L13.3335 4.4802V12.4069Z"
    fill="currentColor"/>
</svg>
