<svg viewBox="0 0 16 16" fill="none" xmlns="http://www.w3.org/2000/svg">
  <path
    d="M13.6399 6.41956C13.5463 5.4455 13.2021 4.51228 12.6407 3.71077C12.0793 2.90926 11.32 2.26678 10.4366 1.84588C9.55318 1.42499 8.57584 1.24004 7.59973 1.30902C6.62362 1.37801 5.68201 1.6986 4.86659 2.23956C4.16605 2.70799 3.57796 3.32575 3.14455 4.04848C2.71114 4.77121 2.44318 5.58096 2.35992 6.41956C2.27824 7.25266 2.38304 8.0935 2.6667 8.88107C2.95037 9.66864 3.40579 10.3832 3.99992 10.9729L7.53325 14.5129C7.59523 14.5754 7.66896 14.625 7.7502 14.6588C7.83144 14.6927 7.91858 14.7101 8.00659 14.7101C8.0946 14.7101 8.18173 14.6927 8.26297 14.6588C8.34421 14.625 8.41795 14.5754 8.47992 14.5129L11.9999 10.9729C12.5941 10.3832 13.0495 9.66864 13.3331 8.88107C13.6168 8.0935 13.7216 7.25266 13.6399 6.41956ZM11.0666 10.0329L7.99992 13.0996L4.93325 10.0329C4.48131 9.58092 4.13512 9.03444 3.91957 8.43273C3.70401 7.83102 3.62444 7.18902 3.68659 6.55289C3.74913 5.90696 3.95443 5.28299 4.28763 4.72612C4.62084 4.16924 5.07363 3.69336 5.61325 3.33289C6.32055 2.86305 7.15079 2.61242 7.99992 2.61242C8.84905 2.61242 9.67929 2.86305 10.3866 3.33289C10.9246 3.69197 11.3764 4.16574 11.7095 4.72018C12.0426 5.27462 12.2488 5.89596 12.3133 6.53956C12.3774 7.17784 12.2989 7.82241 12.0832 8.42659C11.8676 9.03077 11.5204 9.57944 11.0666 10.0329ZM7.99992 3.99956C7.40658 3.99956 6.82656 4.1755 6.33321 4.50515C5.83986 4.83479 5.45535 5.30333 5.22828 5.8515C5.00122 6.39968 4.94181 7.00288 5.05757 7.58483C5.17332 8.16677 5.45904 8.70132 5.8786 9.12088C6.29816 9.54043 6.83271 9.82616 7.41465 9.94191C7.99659 10.0577 8.59979 9.99826 9.14797 9.77119C9.69615 9.54413 10.1647 9.15961 10.4943 8.66627C10.824 8.17292 10.9999 7.5929 10.9999 6.99956C10.9982 6.20445 10.6815 5.44241 10.1193 4.88018C9.55707 4.31795 8.79503 4.00132 7.99992 3.99956ZM7.99992 8.66622C7.67029 8.66622 7.34805 8.56847 7.07397 8.38534C6.79989 8.2022 6.58627 7.9419 6.46012 7.63736C6.33398 7.33282 6.30097 6.99771 6.36528 6.6744C6.42959 6.3511 6.58832 6.05413 6.82141 5.82104C7.0545 5.58796 7.35147 5.42922 7.67477 5.36491C7.99807 5.3006 8.33318 5.33361 8.63773 5.45976C8.94227 5.5859 9.20257 5.79952 9.3857 6.0736C9.56884 6.34769 9.66659 6.66992 9.66659 6.99956C9.66659 7.44158 9.49099 7.86551 9.17843 8.17807C8.86587 8.49063 8.44195 8.66622 7.99992 8.66622Z"
    fill="currentColor"/>
</svg>
