<svg width="12" height="15" fill="none" xmlns="http://www.w3.org/2000/svg"><path d="m6.14 10.742.02.058.007.01v.036a.06.06 0 0 1-.006.027l-.01.022-.008.021a.1.1 0 0 1-.06.06l-.022.008-.021.01a.06.06 0 0 1-.027.006h-.006a.166.166 0 0 1-.106-.04.266.266 0 0 1-.04-.066l-.004-.01-.005-.01a.06.06 0 0 1-.005-.028v-.023l-.001-.023-.001-.018.003-.007.012-.033a.576.576 0 0 1 .023-.03.166.166 0 0 1 .044-.026l.014-.005a.167.167 0 0 1 .096-.01l.094-.491-.094.49a.166.166 0 0 1 .077.038c.009.01.018.022.026.034Zm.693-9.335 3.963 3.963.023.07a.37.37 0 0 1 .014.054v6.673a1.5 1.5 0 0 1-1.5 1.5H2.667a1.5 1.5 0 0 1-1.061-.44l-.348.348.348-.348a1.5 1.5 0 0 1-.44-1.06V2.833a1.5 1.5 0 0 1 1.5-1.5h3.99l.015.007.116.067h.046Zm.854 1.346L6.833 1.9V4.167A1.167 1.167 0 0 0 8 5.333H10.267l-.853-.853-1.727-1.727ZM6.5 2.167v-.5H2.667A1.167 1.167 0 0 0 1.5 2.833v9.334a1.167 1.167 0 0 0 1.167 1.166h6.666a1.167 1.167 0 0 0 1.167-1.166v-6.5H8a1.5 1.5 0 0 1-1.5-1.5v-2Zm-.618 5.215a.167.167 0 0 1 .285.118v1.333a.167.167 0 0 1-.334 0V7.5c0-.044.018-.087.05-.118Z" fill="CurrentColor" stroke="CurrentColor"/></svg>
