<svg viewBox="0 0 16 16" fill="none" xmlns="http://www.w3.org/2000/svg">
  <path
    d="M7.99984 7.19973C8.26355 7.19973 8.52133 7.12153 8.7406 6.97503C8.95986 6.82852 9.13076 6.62028 9.23168 6.37664C9.33259 6.13301 9.359 5.86492 9.30755 5.60628C9.2561 5.34764 9.12912 5.11006 8.94265 4.92359C8.75618 4.73712 8.5186 4.61013 8.25996 4.55869C8.00132 4.50724 7.73323 4.53364 7.48959 4.63456C7.24596 4.73548 7.03772 4.90637 6.89121 5.12564C6.7447 5.3449 6.6665 5.60269 6.6665 5.8664C6.6665 6.22002 6.80698 6.55916 7.05703 6.80921C7.30708 7.05926 7.64621 7.19973 7.99984 7.19973ZM7.5265 11.8064C7.58848 11.8689 7.66221 11.9185 7.74345 11.9523C7.82469 11.9862 7.91183 12.0036 7.99984 12.0036C8.08784 12.0036 8.17498 11.9862 8.25622 11.9523C8.33746 11.9185 8.41119 11.8689 8.47317 11.8064L11.1998 9.07307C11.8331 8.44009 12.2645 7.63352 12.4394 6.75537C12.6142 5.87722 12.5247 4.96694 12.1822 4.13966C11.8396 3.31238 11.2594 2.60527 10.515 2.10777C9.77051 1.61027 8.89523 1.34473 7.99984 1.34473C7.10445 1.34473 6.22917 1.61027 5.48471 2.10777C4.74025 2.60527 4.16006 3.31238 3.81752 4.13966C3.47497 4.96694 3.38547 5.87722 3.56032 6.75537C3.73518 7.63352 4.16653 8.44009 4.79984 9.07307L7.5265 11.8064ZM4.81984 5.55973C4.86539 5.08441 5.01652 4.62526 5.26219 4.21581C5.50786 3.80636 5.84187 3.45694 6.23984 3.19307C6.76264 2.8498 7.37441 2.66691 7.99984 2.66691C8.62526 2.66691 9.23703 2.8498 9.75984 3.19307C10.1551 3.45603 10.4873 3.80333 10.7323 4.20999C10.9774 4.61665 11.1293 5.07255 11.1771 5.54492C11.2249 6.0173 11.1674 6.49439 11.0088 6.9419C10.8502 7.38942 10.5944 7.79622 10.2598 8.13307L7.99984 10.3931L5.73984 8.13307C5.40485 7.79949 5.14846 7.39542 4.98931 6.95027C4.83016 6.50512 4.77226 6.03008 4.81984 5.55973ZM12.6665 13.3331H3.33317C3.15636 13.3331 2.98679 13.4033 2.86177 13.5283C2.73674 13.6534 2.6665 13.8229 2.6665 13.9997C2.6665 14.1765 2.73674 14.3461 2.86177 14.4711C2.98679 14.5962 3.15636 14.6664 3.33317 14.6664H12.6665C12.8433 14.6664 13.0129 14.5962 13.1379 14.4711C13.2629 14.3461 13.3332 14.1765 13.3332 13.9997C13.3332 13.8229 13.2629 13.6534 13.1379 13.5283C13.0129 13.4033 12.8433 13.3331 12.6665 13.3331Z"
    fill="currentColor"/>
</svg>
