<svg viewBox="0 0 16 16" fill="none" xmlns="http://www.w3.org/2000/svg">
  <path
    d="M4.66635 3.99969C4.5345 3.99969 4.40561 4.03878 4.29597 4.11204C4.18634 4.18529 4.10089 4.28941 4.05043 4.41123C3.99997 4.53305 3.98677 4.66709 4.0125 4.79641C4.03822 4.92573 4.10171 5.04452 4.19495 5.13776C4.28818 5.23099 4.40697 5.29449 4.53629 5.32021C4.66561 5.34593 4.79966 5.33273 4.92147 5.28227C5.04329 5.23181 5.14741 5.14636 5.22067 5.03673C5.29392 4.9271 5.33302 4.79821 5.33302 4.66635C5.33302 4.48954 5.26278 4.31997 5.13776 4.19495C5.01273 4.06992 4.84316 3.99969 4.66635 3.99969ZM14.473 7.85302L8.15302 1.54635C8.09086 1.47933 8.01558 1.4258 7.93186 1.3891C7.84814 1.3524 7.75776 1.33331 7.66635 1.33302H3.66635C3.57861 1.33251 3.49164 1.34933 3.41041 1.3825C3.32919 1.41568 3.25531 1.46456 3.19302 1.52635L1.52635 3.18635C1.46456 3.24865 1.41568 3.32252 1.3825 3.40375C1.34933 3.48497 1.33251 3.57195 1.33302 3.65969V7.65969C1.33547 7.8362 1.40453 8.00526 1.52635 8.13302L7.85302 14.4664C7.98078 14.5882 8.14984 14.6572 8.32635 14.6597C8.41409 14.6602 8.50107 14.6434 8.58229 14.6102C8.66352 14.577 8.73739 14.5281 8.79969 14.4664L14.473 8.79302C14.5348 8.73073 14.5837 8.65685 14.6169 8.57562C14.65 8.4944 14.6669 8.40742 14.6664 8.31968C14.6622 8.14549 14.5933 7.97909 14.473 7.85302ZM8.32635 13.0597L2.66635 7.39302V3.93302L3.93302 2.66635H7.38635L13.053 8.32635L8.32635 13.0597Z"
    fill="currentColor"/>
</svg>
