<svg viewBox="0 0 16 16" fill="none" xmlns="http://www.w3.org/2000/svg">
  <path
    d="M6.66667 5.33301H10.6667C10.8435 5.33301 11.013 5.26277 11.1381 5.13775C11.2631 5.01272 11.3333 4.84315 11.3333 4.66634C11.3333 4.48953 11.2631 4.31996 11.1381 4.19494C11.013 4.06991 10.8435 3.99967 10.6667 3.99967H6.66667C6.48986 3.99967 6.32029 4.06991 6.19526 4.19494C6.07024 4.31996 6 4.48953 6 4.66634C6 4.84315 6.07024 5.01272 6.19526 5.13775C6.32029 5.26277 6.48986 5.33301 6.66667 5.33301ZM5.33333 7.99967H10.6667C10.8435 7.99967 11.013 7.92944 11.1381 7.80441C11.2631 7.67939 11.3333 7.50982 11.3333 7.33301C11.3333 7.1562 11.2631 6.98663 11.1381 6.8616C11.013 6.73658 10.8435 6.66634 10.6667 6.66634H5.33333C5.15652 6.66634 4.98695 6.73658 4.86193 6.8616C4.7369 6.98663 4.66667 7.1562 4.66667 7.33301C4.66667 7.50982 4.7369 7.67939 4.86193 7.80441C4.98695 7.92944 5.15652 7.99967 5.33333 7.99967ZM5.33333 10.6663H10.6667C10.8435 10.6663 11.013 10.5961 11.1381 10.4711C11.2631 10.3461 11.3333 10.1765 11.3333 9.99967C11.3333 9.82286 11.2631 9.65329 11.1381 9.52827C11.013 9.40325 10.8435 9.33301 10.6667 9.33301H5.33333C5.15652 9.33301 4.98695 9.40325 4.86193 9.52827C4.7369 9.65329 4.66667 9.82286 4.66667 9.99967C4.66667 10.1765 4.7369 10.3461 4.86193 10.4711C4.98695 10.5961 5.15652 10.6663 5.33333 10.6663ZM13.3333 1.33301H2.66667C2.48986 1.33301 2.32029 1.40325 2.19526 1.52827C2.07024 1.65329 2 1.82286 2 1.99967V13.9997C2 14.1235 2.03448 14.2448 2.09957 14.3502C2.16466 14.4555 2.25779 14.5406 2.36852 14.596C2.47926 14.6513 2.60323 14.6748 2.72654 14.6636C2.84984 14.6525 2.96762 14.6073 3.06667 14.533L4.44667 13.4997L5.82 14.533C5.9354 14.6196 6.07575 14.6663 6.22 14.6663C6.36425 14.6663 6.5046 14.6196 6.62 14.533L8 13.4997L9.38 14.533C9.4954 14.6196 9.63575 14.6663 9.78 14.6663C9.92425 14.6663 10.0646 14.6196 10.18 14.533L11.5533 13.4997L12.9333 14.533C13.0329 14.6072 13.1511 14.6521 13.2748 14.6627C13.3985 14.6733 13.5226 14.6492 13.6333 14.593C13.7433 14.5376 13.8357 14.4528 13.9005 14.3481C13.9652 14.2434 13.9996 14.1228 14 13.9997V1.99967C14 1.82286 13.9298 1.65329 13.8047 1.52827C13.6797 1.40325 13.5101 1.33301 13.3333 1.33301ZM12.6667 12.6663L11.9533 12.133C11.8379 12.0465 11.6976 11.9997 11.5533 11.9997C11.4091 11.9997 11.2687 12.0465 11.1533 12.133L9.78 13.1663L8.4 12.133C8.2846 12.0465 8.14425 11.9997 8 11.9997C7.85575 11.9997 7.7154 12.0465 7.6 12.133L6.22 13.1663L4.84667 12.133C4.73127 12.0465 4.59091 11.9997 4.44667 11.9997C4.30242 11.9997 4.16206 12.0465 4.04667 12.133L3.33333 12.6663V2.66634H12.6667V12.6663Z"
    fill="currentColor"/>
</svg>
