<svg xmlns="http://www.w3.org/2000/svg" fill="none" viewBox="0 0 16 16"><path fill="currentColor" d="m13.807 11.14-1.614-1.614a.666.666 0 0 0-.946 0L8.86 11.913a.667.667 0 0 0-.193.473V14a.667.667 0 0 0 .666.666h1.614a.668.668 0 0 0 .473-.193l2.387-2.387a.667.667 0 0 0 0-.946Zm-3.14 2.193H10v-.667l1.72-1.72.667.667-1.72 1.72Zm-4 0H4a.666.666 0 0 1-.667-.667V3.333A.667.667 0 0 1 4 2.666h3.333v2a2 2 0 0 0 2 2h2v.667a.667.667 0 0 0 1.334 0V5.96a.88.88 0 0 0-.04-.18v-.06a.714.714 0 0 0-.127-.187l-4-4a.713.713 0 0 0-.187-.127.213.213 0 0 0-.06 0l-.213-.073H4a2 2 0 0 0-2 2v9.333a2 2 0 0 0 2 2h2.667a.667.667 0 1 0 0-1.333Zm2-9.727 1.726 1.727h-1.06a.667.667 0 0 1-.666-.667v-1.06ZM5.333 9.333h4a.667.667 0 0 0 0-1.333h-4a.667.667 0 1 0 0 1.333Zm0-2.667H6a.667.667 0 0 0 0-1.333h-.667a.667.667 0 0 0 0 1.333Zm1.334 4H5.333a.667.667 0 0 0 0 1.334h1.334a.667.667 0 0 0 0-1.334Z"/></svg>
