<svg width="94" height="94" viewBox="0 0 94 94" fill="none" xmlns="http://www.w3.org/2000/svg">
<path d="M17.6028 26.2743C17.6028 23.895 17.6028 22.7054 18.0732 21.7999C18.4695 21.0368 19.0917 20.4146 19.8548 20.0182C20.7603 19.5479 21.9499 19.5479 24.3292 19.5479H41.8864C42.8986 19.5479 43.4047 19.5479 43.8819 19.6615C44.2877 19.7581 44.6767 19.915 45.036 20.1268C45.4586 20.376 45.8231 20.727 46.5522 21.4291L46.9836 21.8445C47.7127 22.5466 48.0772 22.8976 48.4998 23.1468C48.8591 23.3586 49.2481 23.5155 49.6539 23.6121C50.1311 23.7258 50.6372 23.7258 51.6493 23.7258H69.3672C71.7465 23.7258 72.9362 23.7258 73.8417 24.1962C74.6048 24.5925 75.2269 25.2147 75.6233 25.9778C76.0937 26.8833 76.0937 28.0729 76.0937 30.4522V70.4976C76.0937 71.6873 76.0937 72.2821 75.8585 72.7348C75.6603 73.1164 75.3492 73.4275 74.9677 73.6257C74.5149 73.8608 73.9201 73.8608 72.7305 73.8608H23.6566C21.5152 73.8608 20.4446 73.8608 19.6296 73.4375C18.9428 73.0808 18.3829 72.5208 18.0261 71.834C17.6028 71.0191 17.6028 69.9484 17.6028 67.807V26.2743Z" fill="url(#paint0_linear_1426_16551)"/>
<g filter="url(#filter0_b_1426_16551)">
<path d="M33.0901 38.3907C33.6808 36.3584 33.9762 35.3423 34.7564 34.7566C35.5366 34.1709 36.5945 34.1709 38.7103 34.1709H77.2414C80.5731 34.1709 82.2389 34.1709 83.1167 35.2528C83.9946 36.3346 83.6514 37.9647 82.965 41.225L77.0719 69.217C76.6036 71.4417 76.3694 72.5541 75.564 73.2076C74.7585 73.8612 73.6218 73.8612 71.3483 73.8612H21.7812C23.9422 71.5111 23.9422 69.161 26.1032 62.1108C27.6536 57.0526 31.2062 44.8708 33.0901 38.3907Z" fill="#B9DDFF" fill-opacity="0.6"/>
<path d="M38.7103 34.3658H77.2414C78.9133 34.3658 80.146 34.3663 81.0716 34.4991C81.9919 34.6311 82.5708 34.8893 82.9654 35.3756C83.3599 35.8619 83.4933 36.4815 83.4329 37.4093C83.3722 38.3424 83.1187 39.5488 82.7743 41.1848L76.8812 69.1769C76.646 70.294 76.4729 71.1145 76.2599 71.7385C76.0486 72.3575 75.8048 72.7612 75.4411 73.0562C75.0775 73.3513 74.6322 73.5067 73.983 73.586C73.3285 73.6659 72.4899 73.6662 71.3483 73.6662H22.2117C23.1322 72.5658 23.6332 71.422 24.1286 69.8056C24.3535 69.0721 24.5783 68.2372 24.8405 67.2638C24.8947 67.0624 24.9506 66.8551 25.0083 66.6415C25.3457 65.3939 25.7503 63.9275 26.2896 62.1679C27.8405 57.108 31.3936 44.9246 33.2772 38.4451C33.5739 37.4245 33.792 36.6753 34.0318 36.1069C34.2696 35.5433 34.5211 35.177 34.8735 34.9125C35.2259 34.6479 35.6477 34.5087 36.2552 34.4377C36.8677 34.3661 37.6478 34.3658 38.7103 34.3658Z" stroke="url(#paint1_linear_1426_16551)" stroke-width="0.38987"/>
</g>
<path d="M28.0479 23.8825H36.4038C37.4714 23.8825 38.3368 24.7479 38.3368 25.8155C38.3368 26.8831 37.4714 27.7485 36.4038 27.7485H28.0479C26.9804 27.7485 26.1149 26.8831 26.1149 25.8155C26.1149 24.7479 26.9804 23.8825 28.0479 23.8825Z" fill="url(#paint2_linear_1426_16551)" fill-opacity="0.9" stroke="url(#paint3_linear_1426_16551)" stroke-width="0.311896"/>
<defs>
<filter id="filter0_b_1426_16551" x="13.4254" y="25.8151" width="78.572" height="56.4021" filterUnits="userSpaceOnUse" color-interpolation-filters="sRGB">
<feFlood flood-opacity="0" result="BackgroundImageFix"/>
<feGaussianBlur in="BackgroundImage" stdDeviation="4.17792"/>
<feComposite in2="SourceAlpha" operator="in" result="effect1_backgroundBlur_1426_16551"/>
<feBlend mode="normal" in="SourceGraphic" in2="effect1_backgroundBlur_1426_16551" result="shape"/>
</filter>
<linearGradient id="paint0_linear_1426_16551" x1="34.4752" y1="31.4288" x2="78.609" y2="47.7736" gradientUnits="userSpaceOnUse">
<stop stop-color="#7FC0FB"/>
<stop offset="1" stop-color="#4088F4"/>
</linearGradient>
<linearGradient id="paint1_linear_1426_16551" x1="18.6478" y1="37.0059" x2="40.8003" y2="90.4263" gradientUnits="userSpaceOnUse">
<stop stop-color="white"/>
<stop offset="0.765625" stop-color="white" stop-opacity="0"/>
</linearGradient>
<linearGradient id="paint2_linear_1426_16551" x1="25.0064" y1="23.4474" x2="42.1607" y2="28.5157" gradientUnits="userSpaceOnUse">
<stop stop-color="white"/>
<stop offset="1" stop-color="white" stop-opacity="0"/>
</linearGradient>
<linearGradient id="paint3_linear_1426_16551" x1="23.8368" y1="24.617" x2="32.2259" y2="27.9045" gradientUnits="userSpaceOnUse">
<stop stop-color="white"/>
<stop offset="1" stop-color="white" stop-opacity="0"/>
</linearGradient>
</defs>
</svg>
