<svg xmlns="http://www.w3.org/2000/svg" fill="none" viewBox="0 0 16 16"><path fill="#fff" d="M6.875 10.729a.665.665 0 0 1-.471-.196L4.529 8.658a.667.667 0 0 1 .942-.942l1.404 1.403 3.654-3.653a.667.667 0 0 1 .942.942l-4.125 4.125a.664.664 0 0 1-.471.196Z" opacity=".99"/><path fill="currentColor" d="M8 1.333A6.667 6.667 0 1 0 14.667 8 6.674 6.674 0 0 0 8 1.333Zm3.471 5.076-4.125 4.125a.667.667 0 0 1-.942 0L4.529 8.659a.667.667 0 0 1 .942-.943l1.404 1.403 3.654-3.653a.667.667 0 0 1 .942.943Z"/></svg>

