<svg viewBox="0 0 16 16" fill="none" xmlns="http://www.w3.org/2000/svg">
  <path
    d="M5.99984 6.66634H6.6665C6.84331 6.66634 7.01288 6.5961 7.13791 6.47108C7.26293 6.34605 7.33317 6.17649 7.33317 5.99967C7.33317 5.82286 7.26293 5.65329 7.13791 5.52827C7.01288 5.40325 6.84331 5.33301 6.6665 5.33301H5.99984C5.82303 5.33301 5.65346 5.40325 5.52843 5.52827C5.40341 5.65329 5.33317 5.82286 5.33317 5.99967C5.33317 6.17649 5.40341 6.34605 5.52843 6.47108C5.65346 6.5961 5.82303 6.66634 5.99984 6.66634ZM5.99984 7.99967C5.82303 7.99967 5.65346 8.06991 5.52843 8.19494C5.40341 8.31996 5.33317 8.48953 5.33317 8.66634C5.33317 8.84315 5.40341 9.01272 5.52843 9.13775C5.65346 9.26277 5.82303 9.33301 5.99984 9.33301H9.99984C10.1766 9.33301 10.3462 9.26277 10.4712 9.13775C10.5963 9.01272 10.6665 8.84315 10.6665 8.66634C10.6665 8.48953 10.5963 8.31996 10.4712 8.19494C10.3462 8.06991 10.1766 7.99967 9.99984 7.99967H5.99984ZM13.3332 5.95967C13.3262 5.89843 13.3128 5.8381 13.2932 5.77967V5.71967C13.2611 5.65113 13.2184 5.58812 13.1665 5.53301L9.1665 1.53301C9.11139 1.48115 9.04838 1.4384 8.97984 1.40634C8.95994 1.40351 8.93974 1.40351 8.91984 1.40634C8.85211 1.3675 8.77732 1.34257 8.69984 1.33301H4.6665C4.13607 1.33301 3.62736 1.54372 3.25229 1.91879C2.87722 2.29387 2.6665 2.80257 2.6665 3.33301V12.6663C2.6665 13.1968 2.87722 13.7055 3.25229 14.0806C3.62736 14.4556 4.13607 14.6663 4.6665 14.6663H11.3332C11.8636 14.6663 12.3723 14.4556 12.7474 14.0806C13.1225 13.7055 13.3332 13.1968 13.3332 12.6663V5.99967C13.3332 5.99967 13.3332 5.99967 13.3332 5.95967ZM9.33317 3.60634L11.0598 5.33301H9.99984C9.82303 5.33301 9.65346 5.26277 9.52843 5.13775C9.40341 5.01272 9.33317 4.84315 9.33317 4.66634V3.60634ZM11.9998 12.6663C11.9998 12.8432 11.9296 13.0127 11.8046 13.1377C11.6796 13.2628 11.51 13.333 11.3332 13.333H4.6665C4.48969 13.333 4.32012 13.2628 4.1951 13.1377C4.07008 13.0127 3.99984 12.8432 3.99984 12.6663V3.33301C3.99984 3.1562 4.07008 2.98663 4.1951 2.8616C4.32012 2.73658 4.48969 2.66634 4.6665 2.66634H7.99984V4.66634C7.99984 5.19677 8.21055 5.70548 8.58562 6.08055C8.9607 6.45563 9.4694 6.66634 9.99984 6.66634H11.9998V12.6663ZM9.99984 10.6663H5.99984C5.82303 10.6663 5.65346 10.7366 5.52843 10.8616C5.40341 10.9866 5.33317 11.1562 5.33317 11.333C5.33317 11.5098 5.40341 11.6794 5.52843 11.8044C5.65346 11.9294 5.82303 11.9997 5.99984 11.9997H9.99984C10.1766 11.9997 10.3462 11.9294 10.4712 11.8044C10.5963 11.6794 10.6665 11.5098 10.6665 11.333C10.6665 11.1562 10.5963 10.9866 10.4712 10.8616C10.3462 10.7366 10.1766 10.6663 9.99984 10.6663Z"
    fill="currentColor"/>
</svg>
