<svg width="14" height="15" fill="none" xmlns="http://www.w3.org/2000/svg"><path d="m11.79 6.896.056.437H13a.166.166 0 0 1 .118.285l.353.353-.353-.353a.166.166 0 0 1-.118.049h-1.154l-.055.437a4.833 4.833 0 0 1-4.187 4.187l-.437.055V13.5a.167.167 0 0 1-.05.118l.354.353-.353-.353a.167.167 0 0 1-.285-.118v-1.153l-.437-.056A4.833 4.833 0 0 1 2.21 8.104l-.055-.437H1a.167.167 0 1 1 0-.334h1.153l.056-.437A4.833 4.833 0 0 1 6.396 2.71l.437-.055V1.5a.167.167 0 0 1 .334 0v1.153l.437.056a4.834 4.834 0 0 1 4.187 4.187Zm-.357 1.354.1-.583h-1.2a.166.166 0 1 1 0-.334H11.532l-.1-.583A4.5 4.5 0 0 0 7.75 3.067l-.583-.1v1.2a.167.167 0 0 1-.05.118l.304.303-.303-.303a.167.167 0 0 1-.285-.118V2.968l-.583.1A4.5 4.5 0 0 0 2.567 6.75l-.1.583h1.2a.167.167 0 0 1 .118.285l.303.303-.304-.303a.167.167 0 0 1-.117.049H2.468l.1.583a4.5 4.5 0 0 0 3.682 3.683l.583.1v-1.2a.166.166 0 1 1 .334 0V12.032l.583-.1a4.5 4.5 0 0 0 3.683-3.682Zm-4.526-.889a.167.167 0 1 1 .186.278.167.167 0 0 1-.186-.278Z" fill="CurrentColor" stroke="CurrentColor"/></svg>
