<svg viewBox="0 0 16 16" fill="none" xmlns="http://www.w3.org/2000/svg">
  <path
    d="M4.66667 10.6663C4.93188 10.6663 5.18624 10.561 5.37377 10.3734C5.56131 10.1859 5.66667 9.93156 5.66667 9.66634C5.66992 9.63309 5.66992 9.5996 5.66667 9.56634L7.52667 7.70634H7.68H7.83333L8.90667 8.77967C8.90667 8.77967 8.90667 8.81301 8.90667 8.83301C8.90667 9.09822 9.01202 9.35258 9.19956 9.54012C9.3871 9.72765 9.64145 9.83301 9.90667 9.83301C10.1719 9.83301 10.4262 9.72765 10.6138 9.54012C10.8013 9.35258 10.9067 9.09822 10.9067 8.83301V8.77967L13.3333 6.33301C13.5311 6.33301 13.7245 6.27436 13.8889 6.16448C14.0534 6.0546 14.1815 5.89842 14.2572 5.71569C14.3329 5.53297 14.3527 5.3319 14.3141 5.13792C14.2755 4.94394 14.1803 4.76575 14.0404 4.6259C13.9006 4.48605 13.7224 4.39081 13.5284 4.35222C13.3344 4.31364 13.1334 4.33344 12.9507 4.40913C12.7679 4.48482 12.6117 4.61299 12.5019 4.77744C12.392 4.94189 12.3333 5.13523 12.3333 5.33301C12.3301 5.36626 12.3301 5.39975 12.3333 5.43301L9.92667 7.83967H9.82L8.66667 6.66634C8.66667 6.40112 8.56131 6.14677 8.37377 5.95923C8.18624 5.7717 7.93188 5.66634 7.66667 5.66634C7.40145 5.66634 7.1471 5.7717 6.95956 5.95923C6.77202 6.14677 6.66667 6.40112 6.66667 6.66634L4.66667 8.66634C4.40145 8.66634 4.1471 8.7717 3.95956 8.95923C3.77202 9.14677 3.66667 9.40112 3.66667 9.66634C3.66667 9.93156 3.77202 10.1859 3.95956 10.3734C4.1471 10.561 4.40145 10.6663 4.66667 10.6663ZM13.6667 13.333H2.33333V1.99967C2.33333 1.82286 2.2631 1.65329 2.13807 1.52827C2.01305 1.40325 1.84348 1.33301 1.66667 1.33301C1.48986 1.33301 1.32029 1.40325 1.19526 1.52827C1.07024 1.65329 1 1.82286 1 1.99967V13.9997C1 14.1765 1.07024 14.3461 1.19526 14.4711C1.32029 14.5961 1.48986 14.6663 1.66667 14.6663H13.6667C13.8435 14.6663 14.013 14.5961 14.1381 14.4711C14.2631 14.3461 14.3333 14.1765 14.3333 13.9997C14.3333 13.8229 14.2631 13.6533 14.1381 13.5283C14.013 13.4032 13.8435 13.333 13.6667 13.333Z"
    fill="currentColor"/>
</svg>
