<svg viewBox="0 0 16 16" fill="none" xmlns="http://www.w3.org/2000/svg">
  <path
    d="M10.6667 9.33301H5.33333C5.15652 9.33301 4.98695 9.40325 4.86193 9.52827C4.7369 9.65329 4.66667 9.82286 4.66667 9.99967C4.66667 10.1765 4.7369 10.3461 4.86193 10.4711C4.98695 10.5961 5.15652 10.6663 5.33333 10.6663H10.6667C10.8435 10.6663 11.013 10.5961 11.1381 10.4711C11.2631 10.3461 11.3333 10.1765 11.3333 9.99967C11.3333 9.82286 11.2631 9.65329 11.1381 9.52827C11.013 9.40325 10.8435 9.33301 10.6667 9.33301ZM10.6667 6.66634H6.66667C6.48986 6.66634 6.32029 6.73658 6.19526 6.8616C6.07024 6.98663 6 7.1562 6 7.33301C6 7.50982 6.07024 7.67939 6.19526 7.80441C6.32029 7.92944 6.48986 7.99967 6.66667 7.99967H10.6667C10.8435 7.99967 11.013 7.92944 11.1381 7.80441C11.2631 7.67939 11.3333 7.50982 11.3333 7.33301C11.3333 7.1562 11.2631 6.98663 11.1381 6.8616C11.013 6.73658 10.8435 6.66634 10.6667 6.66634ZM13.3333 2.66634H11.3333V1.99967C11.3333 1.82286 11.2631 1.65329 11.1381 1.52827C11.013 1.40325 10.8435 1.33301 10.6667 1.33301C10.4899 1.33301 10.3203 1.40325 10.1953 1.52827C10.0702 1.65329 10 1.82286 10 1.99967V2.66634H8.66667V1.99967C8.66667 1.82286 8.59643 1.65329 8.4714 1.52827C8.34638 1.40325 8.17681 1.33301 8 1.33301C7.82319 1.33301 7.65362 1.40325 7.5286 1.52827C7.40357 1.65329 7.33333 1.82286 7.33333 1.99967V2.66634H6V1.99967C6 1.82286 5.92976 1.65329 5.80474 1.52827C5.67971 1.40325 5.51014 1.33301 5.33333 1.33301C5.15652 1.33301 4.98695 1.40325 4.86193 1.52827C4.7369 1.65329 4.66667 1.82286 4.66667 1.99967V2.66634H2.66667C2.48986 2.66634 2.32029 2.73658 2.19526 2.8616C2.07024 2.98663 2 3.1562 2 3.33301V12.6663C2 13.1968 2.21071 13.7055 2.58579 14.0806C2.96086 14.4556 3.46957 14.6663 4 14.6663H12C12.5304 14.6663 13.0391 14.4556 13.4142 14.0806C13.7893 13.7055 14 13.1968 14 12.6663V3.33301C14 3.1562 13.9298 2.98663 13.8047 2.8616C13.6797 2.73658 13.5101 2.66634 13.3333 2.66634ZM12.6667 12.6663C12.6667 12.8432 12.5964 13.0127 12.4714 13.1377C12.3464 13.2628 12.1768 13.333 12 13.333H4C3.82319 13.333 3.65362 13.2628 3.5286 13.1377C3.40357 13.0127 3.33333 12.8432 3.33333 12.6663V3.99967H4.66667V4.66634C4.66667 4.84315 4.7369 5.01272 4.86193 5.13775C4.98695 5.26277 5.15652 5.33301 5.33333 5.33301C5.51014 5.33301 5.67971 5.26277 5.80474 5.13775C5.92976 5.01272 6 4.84315 6 4.66634V3.99967H7.33333V4.66634C7.33333 4.84315 7.40357 5.01272 7.5286 5.13775C7.65362 5.26277 7.82319 5.33301 8 5.33301C8.17681 5.33301 8.34638 5.26277 8.4714 5.13775C8.59643 5.01272 8.66667 4.84315 8.66667 4.66634V3.99967H10V4.66634C10 4.84315 10.0702 5.01272 10.1953 5.13775C10.3203 5.26277 10.4899 5.33301 10.6667 5.33301C10.8435 5.33301 11.013 5.26277 11.1381 5.13775C11.2631 5.01272 11.3333 4.84315 11.3333 4.66634V3.99967H12.6667V12.6663Z"
    fill="currentColor"/>
</svg>
